M48
; DRILL file {KiCad (5.1.4)-1} date 15/11/2019 21:58:47
; FORMAT={-:-/ absolute / inch / decimal}
; #@! TF.CreationDate,2019-11-15T21:58:47+01:00
; #@! TF.GenerationSoftware,Kicad,Pcbnew,(5.1.4)-1
FMAT,2
INCH
T1C0.0118
T2C0.0236
T3C0.0315
T4C0.0394
%
G90
G05
T1
X5.4331Y-2.6772
X6.0236Y-2.874
X6.2598Y-2.5984
T2
X5.5035Y-2.6618
X5.6185Y-2.8368
X5.6185Y-2.8818
X5.6185Y-2.9368
X5.6185Y-2.9818
X5.6535Y-2.9118
X5.6885Y-2.8368
X5.6885Y-2.8818
X5.6885Y-2.9368
X5.6885Y-2.9818
X5.8035Y-2.6618
X6.1035Y-2.5618
X6.1035Y-2.6406
T3
X4.5925Y-3.1118
X4.5925Y-3.2118
X4.5925Y-3.3118
X4.5925Y-3.4118
X4.5925Y-3.5118
X4.5925Y-3.6118
X4.5925Y-3.7118
X5.065Y-3.3118
X5.065Y-3.4118
X5.065Y-3.5118
X5.065Y-3.6118
X5.065Y-3.7118
X5.4035Y-3.1118
X5.4035Y-3.2118
X5.4035Y-3.3118
X5.4035Y-3.4118
X5.4035Y-3.5118
X5.4035Y-3.6118
X5.4035Y-3.7118
X5.876Y-3.3118
X5.876Y-3.4118
X5.876Y-3.5118
X5.876Y-3.6118
X5.876Y-3.7118
X6.2146Y-3.1118
X6.2146Y-3.2118
X6.2146Y-3.3118
X6.2146Y-3.4118
X6.2146Y-3.5118
X6.2146Y-3.6118
X6.2146Y-3.7118
X6.687Y-3.3118
X6.687Y-3.4118
X6.687Y-3.5118
X6.687Y-3.6118
X6.687Y-3.7118
T4
X4.6035Y-2.4618
X4.6035Y-2.5618
X4.6035Y-2.6618
X4.6035Y-2.7618
X4.6035Y-2.8618
X4.6035Y-2.9618
X4.7035Y-2.4618
X4.7035Y-2.5618
X4.7035Y-2.6618
X4.7035Y-2.7618
X4.7035Y-2.8618
X4.7035Y-2.9618
X6.3693Y-2.4618
X6.3693Y-2.5618
X6.3693Y-2.6618
X6.3693Y-2.7618
X6.3693Y-2.8618
X6.3693Y-2.9618
X6.4693Y-2.4618
X6.4693Y-2.5618
X6.4693Y-2.6618
X6.4693Y-2.7618
X6.4693Y-2.8618
X6.4693Y-2.9618
T0
M30
