G04 #@! TF.GenerationSoftware,KiCad,Pcbnew,(5.1.4)-1*
G04 #@! TF.CreationDate,2019-11-15T21:57:58+01:00*
G04 #@! TF.ProjectId,LEDClock,4c454443-6c6f-4636-9b2e-6b696361645f,rev?*
G04 #@! TF.SameCoordinates,Original*
G04 #@! TF.FileFunction,Legend,Bot*
G04 #@! TF.FilePolarity,Positive*
%FSLAX46Y46*%
G04 Gerber Fmt 4.6, Leading zero omitted, Abs format (unit mm)*
G04 Created by KiCad (PCBNEW (5.1.4)-1) date 2019-11-15 21:57:58*
%MOMM*%
%LPD*%
G04 APERTURE LIST*
%ADD10C,0.120000*%
%ADD11C,0.150000*%
G04 APERTURE END LIST*
D10*
X143600000Y-77995000D02*
X141400000Y-77995000D01*
X143600000Y-77995000D02*
X145800000Y-77995000D01*
X143600000Y-69925000D02*
X141400000Y-69925000D01*
X143600000Y-69925000D02*
X147250000Y-69925000D01*
X142997936Y-68970000D02*
X144202064Y-68970000D01*
X142997936Y-66250000D02*
X144202064Y-66250000D01*
X120740000Y-61260000D02*
X119470000Y-61260000D01*
X120740000Y-62530000D02*
X120740000Y-61260000D01*
X118427071Y-75610000D02*
X117972929Y-75610000D01*
X118427071Y-74850000D02*
X117972929Y-74850000D01*
X115887071Y-75610000D02*
X115490000Y-75610000D01*
X115887071Y-74850000D02*
X115490000Y-74850000D01*
X106830000Y-75610000D02*
X112830000Y-75610000D01*
X106830000Y-74850000D02*
X106830000Y-75610000D01*
X112830000Y-74850000D02*
X106830000Y-74850000D01*
X115490000Y-73960000D02*
X112830000Y-73960000D01*
X118427071Y-73070000D02*
X117972929Y-73070000D01*
X118427071Y-72310000D02*
X117972929Y-72310000D01*
X115887071Y-73070000D02*
X115490000Y-73070000D01*
X115887071Y-72310000D02*
X115490000Y-72310000D01*
X106830000Y-73070000D02*
X112830000Y-73070000D01*
X106830000Y-72310000D02*
X106830000Y-73070000D01*
X112830000Y-72310000D02*
X106830000Y-72310000D01*
X115490000Y-71420000D02*
X112830000Y-71420000D01*
X118427071Y-70530000D02*
X117972929Y-70530000D01*
X118427071Y-69770000D02*
X117972929Y-69770000D01*
X115887071Y-70530000D02*
X115490000Y-70530000D01*
X115887071Y-69770000D02*
X115490000Y-69770000D01*
X106830000Y-70530000D02*
X112830000Y-70530000D01*
X106830000Y-69770000D02*
X106830000Y-70530000D01*
X112830000Y-69770000D02*
X106830000Y-69770000D01*
X115490000Y-68880000D02*
X112830000Y-68880000D01*
X118427071Y-67990000D02*
X117972929Y-67990000D01*
X118427071Y-67230000D02*
X117972929Y-67230000D01*
X115887071Y-67990000D02*
X115490000Y-67990000D01*
X115887071Y-67230000D02*
X115490000Y-67230000D01*
X106830000Y-67990000D02*
X112830000Y-67990000D01*
X106830000Y-67230000D02*
X106830000Y-67990000D01*
X112830000Y-67230000D02*
X106830000Y-67230000D01*
X115490000Y-66340000D02*
X112830000Y-66340000D01*
X118427071Y-65450000D02*
X117972929Y-65450000D01*
X118427071Y-64690000D02*
X117972929Y-64690000D01*
X115887071Y-65450000D02*
X115490000Y-65450000D01*
X115887071Y-64690000D02*
X115490000Y-64690000D01*
X106830000Y-65450000D02*
X112830000Y-65450000D01*
X106830000Y-64690000D02*
X106830000Y-65450000D01*
X112830000Y-64690000D02*
X106830000Y-64690000D01*
X115490000Y-63800000D02*
X112830000Y-63800000D01*
X118360000Y-62910000D02*
X117972929Y-62910000D01*
X118360000Y-62150000D02*
X117972929Y-62150000D01*
X115887071Y-62910000D02*
X115490000Y-62910000D01*
X115887071Y-62150000D02*
X115490000Y-62150000D01*
X112830000Y-62810000D02*
X106830000Y-62810000D01*
X112830000Y-62690000D02*
X106830000Y-62690000D01*
X112830000Y-62570000D02*
X106830000Y-62570000D01*
X112830000Y-62450000D02*
X106830000Y-62450000D01*
X112830000Y-62330000D02*
X106830000Y-62330000D01*
X112830000Y-62210000D02*
X106830000Y-62210000D01*
X106830000Y-62910000D02*
X112830000Y-62910000D01*
X106830000Y-62150000D02*
X106830000Y-62910000D01*
X112830000Y-62150000D02*
X106830000Y-62150000D01*
X112830000Y-61200000D02*
X115490000Y-61200000D01*
X112830000Y-76560000D02*
X112830000Y-61200000D01*
X115490000Y-76560000D02*
X112830000Y-76560000D01*
X115490000Y-61200000D02*
X115490000Y-76560000D01*
X174410000Y-61320000D02*
X165780000Y-61320000D01*
X174410000Y-61438095D02*
X165780000Y-61438095D01*
X174410000Y-61556190D02*
X165780000Y-61556190D01*
X174410000Y-61674285D02*
X165780000Y-61674285D01*
X174410000Y-61792380D02*
X165780000Y-61792380D01*
X174410000Y-61910475D02*
X165780000Y-61910475D01*
X174410000Y-62028570D02*
X165780000Y-62028570D01*
X174410000Y-62146665D02*
X165780000Y-62146665D01*
X174410000Y-62264760D02*
X165780000Y-62264760D01*
X174410000Y-62382855D02*
X165780000Y-62382855D01*
X174410000Y-62500950D02*
X165780000Y-62500950D01*
X174410000Y-62619045D02*
X165780000Y-62619045D01*
X174410000Y-62737140D02*
X165780000Y-62737140D01*
X174410000Y-62855235D02*
X165780000Y-62855235D01*
X174410000Y-62973330D02*
X165780000Y-62973330D01*
X174410000Y-63091425D02*
X165780000Y-63091425D01*
X174410000Y-63209520D02*
X165780000Y-63209520D01*
X174410000Y-63327615D02*
X165780000Y-63327615D01*
X174410000Y-63445710D02*
X165780000Y-63445710D01*
X174410000Y-63563805D02*
X165780000Y-63563805D01*
X174410000Y-63681900D02*
X165780000Y-63681900D01*
X165780000Y-62170000D02*
X165370000Y-62170000D01*
X163270000Y-62170000D02*
X162890000Y-62170000D01*
X165780000Y-62890000D02*
X165370000Y-62890000D01*
X163270000Y-62890000D02*
X162890000Y-62890000D01*
X165780000Y-64710000D02*
X165370000Y-64710000D01*
X163270000Y-64710000D02*
X162830000Y-64710000D01*
X165780000Y-65430000D02*
X165370000Y-65430000D01*
X163270000Y-65430000D02*
X162830000Y-65430000D01*
X165780000Y-67250000D02*
X165370000Y-67250000D01*
X163270000Y-67250000D02*
X162830000Y-67250000D01*
X165780000Y-67970000D02*
X165370000Y-67970000D01*
X163270000Y-67970000D02*
X162830000Y-67970000D01*
X165780000Y-69790000D02*
X165370000Y-69790000D01*
X163270000Y-69790000D02*
X162830000Y-69790000D01*
X165780000Y-70510000D02*
X165370000Y-70510000D01*
X163270000Y-70510000D02*
X162830000Y-70510000D01*
X165780000Y-72330000D02*
X165370000Y-72330000D01*
X163270000Y-72330000D02*
X162830000Y-72330000D01*
X165780000Y-73050000D02*
X165370000Y-73050000D01*
X163270000Y-73050000D02*
X162830000Y-73050000D01*
X165780000Y-74870000D02*
X165370000Y-74870000D01*
X163270000Y-74870000D02*
X162830000Y-74870000D01*
X165780000Y-75590000D02*
X165370000Y-75590000D01*
X163270000Y-75590000D02*
X162830000Y-75590000D01*
X174410000Y-63800000D02*
X165780000Y-63800000D01*
X174410000Y-66340000D02*
X165780000Y-66340000D01*
X174410000Y-68880000D02*
X165780000Y-68880000D01*
X174410000Y-71420000D02*
X165780000Y-71420000D01*
X174410000Y-73960000D02*
X165780000Y-73960000D01*
X174410000Y-61200000D02*
X165780000Y-61200000D01*
X165780000Y-61200000D02*
X165780000Y-76560000D01*
X174410000Y-76560000D02*
X165780000Y-76560000D01*
X174410000Y-61200000D02*
X174410000Y-76560000D01*
X160670000Y-61200000D02*
X160670000Y-62530000D01*
X161780000Y-61200000D02*
X160670000Y-61200000D01*
D11*
X149511904Y-70202380D02*
X149511904Y-71011904D01*
X149464285Y-71107142D01*
X149416666Y-71154761D01*
X149321428Y-71202380D01*
X149130952Y-71202380D01*
X149035714Y-71154761D01*
X148988095Y-71107142D01*
X148940476Y-71011904D01*
X148940476Y-70202380D01*
X147940476Y-71202380D02*
X148511904Y-71202380D01*
X148226190Y-71202380D02*
X148226190Y-70202380D01*
X148321428Y-70345238D01*
X148416666Y-70440476D01*
X148511904Y-70488095D01*
X147416666Y-66107142D02*
X147464285Y-66154761D01*
X147607142Y-66202380D01*
X147702380Y-66202380D01*
X147845238Y-66154761D01*
X147940476Y-66059523D01*
X147988095Y-65964285D01*
X148035714Y-65773809D01*
X148035714Y-65630952D01*
X147988095Y-65440476D01*
X147940476Y-65345238D01*
X147845238Y-65250000D01*
X147702380Y-65202380D01*
X147607142Y-65202380D01*
X147464285Y-65250000D01*
X147416666Y-65297619D01*
X147035714Y-65297619D02*
X146988095Y-65250000D01*
X146892857Y-65202380D01*
X146654761Y-65202380D01*
X146559523Y-65250000D01*
X146511904Y-65297619D01*
X146464285Y-65392857D01*
X146464285Y-65488095D01*
X146511904Y-65630952D01*
X147083333Y-66202380D01*
X146464285Y-66202380D01*
X114148333Y-59712380D02*
X114148333Y-60426666D01*
X114195952Y-60569523D01*
X114291190Y-60664761D01*
X114434047Y-60712380D01*
X114529285Y-60712380D01*
X113719761Y-59807619D02*
X113672142Y-59760000D01*
X113576904Y-59712380D01*
X113338809Y-59712380D01*
X113243571Y-59760000D01*
X113195952Y-59807619D01*
X113148333Y-59902857D01*
X113148333Y-59998095D01*
X113195952Y-60140952D01*
X113767380Y-60712380D01*
X113148333Y-60712380D01*
X167763333Y-59212380D02*
X167763333Y-59926666D01*
X167810952Y-60069523D01*
X167906190Y-60164761D01*
X168049047Y-60212380D01*
X168144285Y-60212380D01*
X166763333Y-60212380D02*
X167334761Y-60212380D01*
X167049047Y-60212380D02*
X167049047Y-59212380D01*
X167144285Y-59355238D01*
X167239523Y-59450476D01*
X167334761Y-59498095D01*
M02*
