G04 #@! TF.GenerationSoftware,KiCad,Pcbnew,(5.1.4)-1*
G04 #@! TF.CreationDate,2019-11-15T21:57:58+01:00*
G04 #@! TF.ProjectId,LEDClock,4c454443-6c6f-4636-9b2e-6b696361645f,rev?*
G04 #@! TF.SameCoordinates,Original*
G04 #@! TF.FileFunction,Copper,L2,Bot*
G04 #@! TF.FilePolarity,Positive*
%FSLAX46Y46*%
G04 Gerber Fmt 4.6, Leading zero omitted, Abs format (unit mm)*
G04 Created by KiCad (PCBNEW (5.1.4)-1) date 2019-11-15 21:57:58*
%MOMM*%
%LPD*%
G04 APERTURE LIST*
%ADD10C,0.100000*%
%ADD11C,3.200000*%
%ADD12C,0.400000*%
%ADD13R,1.200000X1.200000*%
%ADD14C,1.200000*%
%ADD15C,2.000000*%
%ADD16C,1.425000*%
%ADD17O,1.700000X1.700000*%
%ADD18R,1.700000X1.700000*%
%ADD19C,0.600000*%
%ADD20C,1.000000*%
%ADD21C,0.400000*%
%ADD22C,0.254000*%
G04 APERTURE END LIST*
D10*
G36*
X144974504Y-71461204D02*
G01*
X144998773Y-71464804D01*
X145022571Y-71470765D01*
X145045671Y-71479030D01*
X145067849Y-71489520D01*
X145088893Y-71502133D01*
X145108598Y-71516747D01*
X145126777Y-71533223D01*
X145143253Y-71551402D01*
X145157867Y-71571107D01*
X145170480Y-71592151D01*
X145180970Y-71614329D01*
X145189235Y-71637429D01*
X145195196Y-71661227D01*
X145198796Y-71685496D01*
X145200000Y-71710000D01*
X145200000Y-76210000D01*
X145198796Y-76234504D01*
X145195196Y-76258773D01*
X145189235Y-76282571D01*
X145180970Y-76305671D01*
X145170480Y-76327849D01*
X145157867Y-76348893D01*
X145143253Y-76368598D01*
X145126777Y-76386777D01*
X145108598Y-76403253D01*
X145088893Y-76417867D01*
X145067849Y-76430480D01*
X145045671Y-76440970D01*
X145022571Y-76449235D01*
X144998773Y-76455196D01*
X144974504Y-76458796D01*
X144950000Y-76460000D01*
X142250000Y-76460000D01*
X142225496Y-76458796D01*
X142201227Y-76455196D01*
X142177429Y-76449235D01*
X142154329Y-76440970D01*
X142132151Y-76430480D01*
X142111107Y-76417867D01*
X142091402Y-76403253D01*
X142073223Y-76386777D01*
X142056747Y-76368598D01*
X142042133Y-76348893D01*
X142029520Y-76327849D01*
X142019030Y-76305671D01*
X142010765Y-76282571D01*
X142004804Y-76258773D01*
X142001204Y-76234504D01*
X142000000Y-76210000D01*
X142000000Y-71710000D01*
X142001204Y-71685496D01*
X142004804Y-71661227D01*
X142010765Y-71637429D01*
X142019030Y-71614329D01*
X142029520Y-71592151D01*
X142042133Y-71571107D01*
X142056747Y-71551402D01*
X142073223Y-71533223D01*
X142091402Y-71516747D01*
X142111107Y-71502133D01*
X142132151Y-71489520D01*
X142154329Y-71479030D01*
X142177429Y-71470765D01*
X142201227Y-71464804D01*
X142225496Y-71461204D01*
X142250000Y-71460000D01*
X144950000Y-71460000D01*
X144974504Y-71461204D01*
X144974504Y-71461204D01*
G37*
D11*
X143600000Y-73960000D03*
D10*
G36*
X147159802Y-70185482D02*
G01*
X147169509Y-70186921D01*
X147179028Y-70189306D01*
X147188268Y-70192612D01*
X147197140Y-70196808D01*
X147205557Y-70201853D01*
X147213439Y-70207699D01*
X147220711Y-70214289D01*
X147227301Y-70221561D01*
X147233147Y-70229443D01*
X147238192Y-70237860D01*
X147242388Y-70246732D01*
X147245694Y-70255972D01*
X147248079Y-70265491D01*
X147249518Y-70275198D01*
X147250000Y-70285000D01*
X147250000Y-70485000D01*
X147249518Y-70494802D01*
X147248079Y-70504509D01*
X147245694Y-70514028D01*
X147242388Y-70523268D01*
X147238192Y-70532140D01*
X147233147Y-70540557D01*
X147227301Y-70548439D01*
X147220711Y-70555711D01*
X147213439Y-70562301D01*
X147205557Y-70568147D01*
X147197140Y-70573192D01*
X147188268Y-70577388D01*
X147179028Y-70580694D01*
X147169509Y-70583079D01*
X147159802Y-70584518D01*
X147150000Y-70585000D01*
X145800000Y-70585000D01*
X145790198Y-70584518D01*
X145780491Y-70583079D01*
X145770972Y-70580694D01*
X145761732Y-70577388D01*
X145752860Y-70573192D01*
X145744443Y-70568147D01*
X145736561Y-70562301D01*
X145729289Y-70555711D01*
X145722699Y-70548439D01*
X145716853Y-70540557D01*
X145711808Y-70532140D01*
X145707612Y-70523268D01*
X145704306Y-70514028D01*
X145701921Y-70504509D01*
X145700482Y-70494802D01*
X145700000Y-70485000D01*
X145700000Y-70285000D01*
X145700482Y-70275198D01*
X145701921Y-70265491D01*
X145704306Y-70255972D01*
X145707612Y-70246732D01*
X145711808Y-70237860D01*
X145716853Y-70229443D01*
X145722699Y-70221561D01*
X145729289Y-70214289D01*
X145736561Y-70207699D01*
X145744443Y-70201853D01*
X145752860Y-70196808D01*
X145761732Y-70192612D01*
X145770972Y-70189306D01*
X145780491Y-70186921D01*
X145790198Y-70185482D01*
X145800000Y-70185000D01*
X147150000Y-70185000D01*
X147159802Y-70185482D01*
X147159802Y-70185482D01*
G37*
D12*
X146475000Y-70385000D03*
D10*
G36*
X147159802Y-70835482D02*
G01*
X147169509Y-70836921D01*
X147179028Y-70839306D01*
X147188268Y-70842612D01*
X147197140Y-70846808D01*
X147205557Y-70851853D01*
X147213439Y-70857699D01*
X147220711Y-70864289D01*
X147227301Y-70871561D01*
X147233147Y-70879443D01*
X147238192Y-70887860D01*
X147242388Y-70896732D01*
X147245694Y-70905972D01*
X147248079Y-70915491D01*
X147249518Y-70925198D01*
X147250000Y-70935000D01*
X147250000Y-71135000D01*
X147249518Y-71144802D01*
X147248079Y-71154509D01*
X147245694Y-71164028D01*
X147242388Y-71173268D01*
X147238192Y-71182140D01*
X147233147Y-71190557D01*
X147227301Y-71198439D01*
X147220711Y-71205711D01*
X147213439Y-71212301D01*
X147205557Y-71218147D01*
X147197140Y-71223192D01*
X147188268Y-71227388D01*
X147179028Y-71230694D01*
X147169509Y-71233079D01*
X147159802Y-71234518D01*
X147150000Y-71235000D01*
X145800000Y-71235000D01*
X145790198Y-71234518D01*
X145780491Y-71233079D01*
X145770972Y-71230694D01*
X145761732Y-71227388D01*
X145752860Y-71223192D01*
X145744443Y-71218147D01*
X145736561Y-71212301D01*
X145729289Y-71205711D01*
X145722699Y-71198439D01*
X145716853Y-71190557D01*
X145711808Y-71182140D01*
X145707612Y-71173268D01*
X145704306Y-71164028D01*
X145701921Y-71154509D01*
X145700482Y-71144802D01*
X145700000Y-71135000D01*
X145700000Y-70935000D01*
X145700482Y-70925198D01*
X145701921Y-70915491D01*
X145704306Y-70905972D01*
X145707612Y-70896732D01*
X145711808Y-70887860D01*
X145716853Y-70879443D01*
X145722699Y-70871561D01*
X145729289Y-70864289D01*
X145736561Y-70857699D01*
X145744443Y-70851853D01*
X145752860Y-70846808D01*
X145761732Y-70842612D01*
X145770972Y-70839306D01*
X145780491Y-70836921D01*
X145790198Y-70835482D01*
X145800000Y-70835000D01*
X147150000Y-70835000D01*
X147159802Y-70835482D01*
X147159802Y-70835482D01*
G37*
D12*
X146475000Y-71035000D03*
D10*
G36*
X147159802Y-71485482D02*
G01*
X147169509Y-71486921D01*
X147179028Y-71489306D01*
X147188268Y-71492612D01*
X147197140Y-71496808D01*
X147205557Y-71501853D01*
X147213439Y-71507699D01*
X147220711Y-71514289D01*
X147227301Y-71521561D01*
X147233147Y-71529443D01*
X147238192Y-71537860D01*
X147242388Y-71546732D01*
X147245694Y-71555972D01*
X147248079Y-71565491D01*
X147249518Y-71575198D01*
X147250000Y-71585000D01*
X147250000Y-71785000D01*
X147249518Y-71794802D01*
X147248079Y-71804509D01*
X147245694Y-71814028D01*
X147242388Y-71823268D01*
X147238192Y-71832140D01*
X147233147Y-71840557D01*
X147227301Y-71848439D01*
X147220711Y-71855711D01*
X147213439Y-71862301D01*
X147205557Y-71868147D01*
X147197140Y-71873192D01*
X147188268Y-71877388D01*
X147179028Y-71880694D01*
X147169509Y-71883079D01*
X147159802Y-71884518D01*
X147150000Y-71885000D01*
X145800000Y-71885000D01*
X145790198Y-71884518D01*
X145780491Y-71883079D01*
X145770972Y-71880694D01*
X145761732Y-71877388D01*
X145752860Y-71873192D01*
X145744443Y-71868147D01*
X145736561Y-71862301D01*
X145729289Y-71855711D01*
X145722699Y-71848439D01*
X145716853Y-71840557D01*
X145711808Y-71832140D01*
X145707612Y-71823268D01*
X145704306Y-71814028D01*
X145701921Y-71804509D01*
X145700482Y-71794802D01*
X145700000Y-71785000D01*
X145700000Y-71585000D01*
X145700482Y-71575198D01*
X145701921Y-71565491D01*
X145704306Y-71555972D01*
X145707612Y-71546732D01*
X145711808Y-71537860D01*
X145716853Y-71529443D01*
X145722699Y-71521561D01*
X145729289Y-71514289D01*
X145736561Y-71507699D01*
X145744443Y-71501853D01*
X145752860Y-71496808D01*
X145761732Y-71492612D01*
X145770972Y-71489306D01*
X145780491Y-71486921D01*
X145790198Y-71485482D01*
X145800000Y-71485000D01*
X147150000Y-71485000D01*
X147159802Y-71485482D01*
X147159802Y-71485482D01*
G37*
D12*
X146475000Y-71685000D03*
D10*
G36*
X147159802Y-72135482D02*
G01*
X147169509Y-72136921D01*
X147179028Y-72139306D01*
X147188268Y-72142612D01*
X147197140Y-72146808D01*
X147205557Y-72151853D01*
X147213439Y-72157699D01*
X147220711Y-72164289D01*
X147227301Y-72171561D01*
X147233147Y-72179443D01*
X147238192Y-72187860D01*
X147242388Y-72196732D01*
X147245694Y-72205972D01*
X147248079Y-72215491D01*
X147249518Y-72225198D01*
X147250000Y-72235000D01*
X147250000Y-72435000D01*
X147249518Y-72444802D01*
X147248079Y-72454509D01*
X147245694Y-72464028D01*
X147242388Y-72473268D01*
X147238192Y-72482140D01*
X147233147Y-72490557D01*
X147227301Y-72498439D01*
X147220711Y-72505711D01*
X147213439Y-72512301D01*
X147205557Y-72518147D01*
X147197140Y-72523192D01*
X147188268Y-72527388D01*
X147179028Y-72530694D01*
X147169509Y-72533079D01*
X147159802Y-72534518D01*
X147150000Y-72535000D01*
X145800000Y-72535000D01*
X145790198Y-72534518D01*
X145780491Y-72533079D01*
X145770972Y-72530694D01*
X145761732Y-72527388D01*
X145752860Y-72523192D01*
X145744443Y-72518147D01*
X145736561Y-72512301D01*
X145729289Y-72505711D01*
X145722699Y-72498439D01*
X145716853Y-72490557D01*
X145711808Y-72482140D01*
X145707612Y-72473268D01*
X145704306Y-72464028D01*
X145701921Y-72454509D01*
X145700482Y-72444802D01*
X145700000Y-72435000D01*
X145700000Y-72235000D01*
X145700482Y-72225198D01*
X145701921Y-72215491D01*
X145704306Y-72205972D01*
X145707612Y-72196732D01*
X145711808Y-72187860D01*
X145716853Y-72179443D01*
X145722699Y-72171561D01*
X145729289Y-72164289D01*
X145736561Y-72157699D01*
X145744443Y-72151853D01*
X145752860Y-72146808D01*
X145761732Y-72142612D01*
X145770972Y-72139306D01*
X145780491Y-72136921D01*
X145790198Y-72135482D01*
X145800000Y-72135000D01*
X147150000Y-72135000D01*
X147159802Y-72135482D01*
X147159802Y-72135482D01*
G37*
D12*
X146475000Y-72335000D03*
D10*
G36*
X147159802Y-72785482D02*
G01*
X147169509Y-72786921D01*
X147179028Y-72789306D01*
X147188268Y-72792612D01*
X147197140Y-72796808D01*
X147205557Y-72801853D01*
X147213439Y-72807699D01*
X147220711Y-72814289D01*
X147227301Y-72821561D01*
X147233147Y-72829443D01*
X147238192Y-72837860D01*
X147242388Y-72846732D01*
X147245694Y-72855972D01*
X147248079Y-72865491D01*
X147249518Y-72875198D01*
X147250000Y-72885000D01*
X147250000Y-73085000D01*
X147249518Y-73094802D01*
X147248079Y-73104509D01*
X147245694Y-73114028D01*
X147242388Y-73123268D01*
X147238192Y-73132140D01*
X147233147Y-73140557D01*
X147227301Y-73148439D01*
X147220711Y-73155711D01*
X147213439Y-73162301D01*
X147205557Y-73168147D01*
X147197140Y-73173192D01*
X147188268Y-73177388D01*
X147179028Y-73180694D01*
X147169509Y-73183079D01*
X147159802Y-73184518D01*
X147150000Y-73185000D01*
X145800000Y-73185000D01*
X145790198Y-73184518D01*
X145780491Y-73183079D01*
X145770972Y-73180694D01*
X145761732Y-73177388D01*
X145752860Y-73173192D01*
X145744443Y-73168147D01*
X145736561Y-73162301D01*
X145729289Y-73155711D01*
X145722699Y-73148439D01*
X145716853Y-73140557D01*
X145711808Y-73132140D01*
X145707612Y-73123268D01*
X145704306Y-73114028D01*
X145701921Y-73104509D01*
X145700482Y-73094802D01*
X145700000Y-73085000D01*
X145700000Y-72885000D01*
X145700482Y-72875198D01*
X145701921Y-72865491D01*
X145704306Y-72855972D01*
X145707612Y-72846732D01*
X145711808Y-72837860D01*
X145716853Y-72829443D01*
X145722699Y-72821561D01*
X145729289Y-72814289D01*
X145736561Y-72807699D01*
X145744443Y-72801853D01*
X145752860Y-72796808D01*
X145761732Y-72792612D01*
X145770972Y-72789306D01*
X145780491Y-72786921D01*
X145790198Y-72785482D01*
X145800000Y-72785000D01*
X147150000Y-72785000D01*
X147159802Y-72785482D01*
X147159802Y-72785482D01*
G37*
D12*
X146475000Y-72985000D03*
D10*
G36*
X147159802Y-73435482D02*
G01*
X147169509Y-73436921D01*
X147179028Y-73439306D01*
X147188268Y-73442612D01*
X147197140Y-73446808D01*
X147205557Y-73451853D01*
X147213439Y-73457699D01*
X147220711Y-73464289D01*
X147227301Y-73471561D01*
X147233147Y-73479443D01*
X147238192Y-73487860D01*
X147242388Y-73496732D01*
X147245694Y-73505972D01*
X147248079Y-73515491D01*
X147249518Y-73525198D01*
X147250000Y-73535000D01*
X147250000Y-73735000D01*
X147249518Y-73744802D01*
X147248079Y-73754509D01*
X147245694Y-73764028D01*
X147242388Y-73773268D01*
X147238192Y-73782140D01*
X147233147Y-73790557D01*
X147227301Y-73798439D01*
X147220711Y-73805711D01*
X147213439Y-73812301D01*
X147205557Y-73818147D01*
X147197140Y-73823192D01*
X147188268Y-73827388D01*
X147179028Y-73830694D01*
X147169509Y-73833079D01*
X147159802Y-73834518D01*
X147150000Y-73835000D01*
X145800000Y-73835000D01*
X145790198Y-73834518D01*
X145780491Y-73833079D01*
X145770972Y-73830694D01*
X145761732Y-73827388D01*
X145752860Y-73823192D01*
X145744443Y-73818147D01*
X145736561Y-73812301D01*
X145729289Y-73805711D01*
X145722699Y-73798439D01*
X145716853Y-73790557D01*
X145711808Y-73782140D01*
X145707612Y-73773268D01*
X145704306Y-73764028D01*
X145701921Y-73754509D01*
X145700482Y-73744802D01*
X145700000Y-73735000D01*
X145700000Y-73535000D01*
X145700482Y-73525198D01*
X145701921Y-73515491D01*
X145704306Y-73505972D01*
X145707612Y-73496732D01*
X145711808Y-73487860D01*
X145716853Y-73479443D01*
X145722699Y-73471561D01*
X145729289Y-73464289D01*
X145736561Y-73457699D01*
X145744443Y-73451853D01*
X145752860Y-73446808D01*
X145761732Y-73442612D01*
X145770972Y-73439306D01*
X145780491Y-73436921D01*
X145790198Y-73435482D01*
X145800000Y-73435000D01*
X147150000Y-73435000D01*
X147159802Y-73435482D01*
X147159802Y-73435482D01*
G37*
D12*
X146475000Y-73635000D03*
D10*
G36*
X147159802Y-74085482D02*
G01*
X147169509Y-74086921D01*
X147179028Y-74089306D01*
X147188268Y-74092612D01*
X147197140Y-74096808D01*
X147205557Y-74101853D01*
X147213439Y-74107699D01*
X147220711Y-74114289D01*
X147227301Y-74121561D01*
X147233147Y-74129443D01*
X147238192Y-74137860D01*
X147242388Y-74146732D01*
X147245694Y-74155972D01*
X147248079Y-74165491D01*
X147249518Y-74175198D01*
X147250000Y-74185000D01*
X147250000Y-74385000D01*
X147249518Y-74394802D01*
X147248079Y-74404509D01*
X147245694Y-74414028D01*
X147242388Y-74423268D01*
X147238192Y-74432140D01*
X147233147Y-74440557D01*
X147227301Y-74448439D01*
X147220711Y-74455711D01*
X147213439Y-74462301D01*
X147205557Y-74468147D01*
X147197140Y-74473192D01*
X147188268Y-74477388D01*
X147179028Y-74480694D01*
X147169509Y-74483079D01*
X147159802Y-74484518D01*
X147150000Y-74485000D01*
X145800000Y-74485000D01*
X145790198Y-74484518D01*
X145780491Y-74483079D01*
X145770972Y-74480694D01*
X145761732Y-74477388D01*
X145752860Y-74473192D01*
X145744443Y-74468147D01*
X145736561Y-74462301D01*
X145729289Y-74455711D01*
X145722699Y-74448439D01*
X145716853Y-74440557D01*
X145711808Y-74432140D01*
X145707612Y-74423268D01*
X145704306Y-74414028D01*
X145701921Y-74404509D01*
X145700482Y-74394802D01*
X145700000Y-74385000D01*
X145700000Y-74185000D01*
X145700482Y-74175198D01*
X145701921Y-74165491D01*
X145704306Y-74155972D01*
X145707612Y-74146732D01*
X145711808Y-74137860D01*
X145716853Y-74129443D01*
X145722699Y-74121561D01*
X145729289Y-74114289D01*
X145736561Y-74107699D01*
X145744443Y-74101853D01*
X145752860Y-74096808D01*
X145761732Y-74092612D01*
X145770972Y-74089306D01*
X145780491Y-74086921D01*
X145790198Y-74085482D01*
X145800000Y-74085000D01*
X147150000Y-74085000D01*
X147159802Y-74085482D01*
X147159802Y-74085482D01*
G37*
D12*
X146475000Y-74285000D03*
D10*
G36*
X147159802Y-74735482D02*
G01*
X147169509Y-74736921D01*
X147179028Y-74739306D01*
X147188268Y-74742612D01*
X147197140Y-74746808D01*
X147205557Y-74751853D01*
X147213439Y-74757699D01*
X147220711Y-74764289D01*
X147227301Y-74771561D01*
X147233147Y-74779443D01*
X147238192Y-74787860D01*
X147242388Y-74796732D01*
X147245694Y-74805972D01*
X147248079Y-74815491D01*
X147249518Y-74825198D01*
X147250000Y-74835000D01*
X147250000Y-75035000D01*
X147249518Y-75044802D01*
X147248079Y-75054509D01*
X147245694Y-75064028D01*
X147242388Y-75073268D01*
X147238192Y-75082140D01*
X147233147Y-75090557D01*
X147227301Y-75098439D01*
X147220711Y-75105711D01*
X147213439Y-75112301D01*
X147205557Y-75118147D01*
X147197140Y-75123192D01*
X147188268Y-75127388D01*
X147179028Y-75130694D01*
X147169509Y-75133079D01*
X147159802Y-75134518D01*
X147150000Y-75135000D01*
X145800000Y-75135000D01*
X145790198Y-75134518D01*
X145780491Y-75133079D01*
X145770972Y-75130694D01*
X145761732Y-75127388D01*
X145752860Y-75123192D01*
X145744443Y-75118147D01*
X145736561Y-75112301D01*
X145729289Y-75105711D01*
X145722699Y-75098439D01*
X145716853Y-75090557D01*
X145711808Y-75082140D01*
X145707612Y-75073268D01*
X145704306Y-75064028D01*
X145701921Y-75054509D01*
X145700482Y-75044802D01*
X145700000Y-75035000D01*
X145700000Y-74835000D01*
X145700482Y-74825198D01*
X145701921Y-74815491D01*
X145704306Y-74805972D01*
X145707612Y-74796732D01*
X145711808Y-74787860D01*
X145716853Y-74779443D01*
X145722699Y-74771561D01*
X145729289Y-74764289D01*
X145736561Y-74757699D01*
X145744443Y-74751853D01*
X145752860Y-74746808D01*
X145761732Y-74742612D01*
X145770972Y-74739306D01*
X145780491Y-74736921D01*
X145790198Y-74735482D01*
X145800000Y-74735000D01*
X147150000Y-74735000D01*
X147159802Y-74735482D01*
X147159802Y-74735482D01*
G37*
D12*
X146475000Y-74935000D03*
D10*
G36*
X147159802Y-75385482D02*
G01*
X147169509Y-75386921D01*
X147179028Y-75389306D01*
X147188268Y-75392612D01*
X147197140Y-75396808D01*
X147205557Y-75401853D01*
X147213439Y-75407699D01*
X147220711Y-75414289D01*
X147227301Y-75421561D01*
X147233147Y-75429443D01*
X147238192Y-75437860D01*
X147242388Y-75446732D01*
X147245694Y-75455972D01*
X147248079Y-75465491D01*
X147249518Y-75475198D01*
X147250000Y-75485000D01*
X147250000Y-75685000D01*
X147249518Y-75694802D01*
X147248079Y-75704509D01*
X147245694Y-75714028D01*
X147242388Y-75723268D01*
X147238192Y-75732140D01*
X147233147Y-75740557D01*
X147227301Y-75748439D01*
X147220711Y-75755711D01*
X147213439Y-75762301D01*
X147205557Y-75768147D01*
X147197140Y-75773192D01*
X147188268Y-75777388D01*
X147179028Y-75780694D01*
X147169509Y-75783079D01*
X147159802Y-75784518D01*
X147150000Y-75785000D01*
X145800000Y-75785000D01*
X145790198Y-75784518D01*
X145780491Y-75783079D01*
X145770972Y-75780694D01*
X145761732Y-75777388D01*
X145752860Y-75773192D01*
X145744443Y-75768147D01*
X145736561Y-75762301D01*
X145729289Y-75755711D01*
X145722699Y-75748439D01*
X145716853Y-75740557D01*
X145711808Y-75732140D01*
X145707612Y-75723268D01*
X145704306Y-75714028D01*
X145701921Y-75704509D01*
X145700482Y-75694802D01*
X145700000Y-75685000D01*
X145700000Y-75485000D01*
X145700482Y-75475198D01*
X145701921Y-75465491D01*
X145704306Y-75455972D01*
X145707612Y-75446732D01*
X145711808Y-75437860D01*
X145716853Y-75429443D01*
X145722699Y-75421561D01*
X145729289Y-75414289D01*
X145736561Y-75407699D01*
X145744443Y-75401853D01*
X145752860Y-75396808D01*
X145761732Y-75392612D01*
X145770972Y-75389306D01*
X145780491Y-75386921D01*
X145790198Y-75385482D01*
X145800000Y-75385000D01*
X147150000Y-75385000D01*
X147159802Y-75385482D01*
X147159802Y-75385482D01*
G37*
D12*
X146475000Y-75585000D03*
D10*
G36*
X147159802Y-76035482D02*
G01*
X147169509Y-76036921D01*
X147179028Y-76039306D01*
X147188268Y-76042612D01*
X147197140Y-76046808D01*
X147205557Y-76051853D01*
X147213439Y-76057699D01*
X147220711Y-76064289D01*
X147227301Y-76071561D01*
X147233147Y-76079443D01*
X147238192Y-76087860D01*
X147242388Y-76096732D01*
X147245694Y-76105972D01*
X147248079Y-76115491D01*
X147249518Y-76125198D01*
X147250000Y-76135000D01*
X147250000Y-76335000D01*
X147249518Y-76344802D01*
X147248079Y-76354509D01*
X147245694Y-76364028D01*
X147242388Y-76373268D01*
X147238192Y-76382140D01*
X147233147Y-76390557D01*
X147227301Y-76398439D01*
X147220711Y-76405711D01*
X147213439Y-76412301D01*
X147205557Y-76418147D01*
X147197140Y-76423192D01*
X147188268Y-76427388D01*
X147179028Y-76430694D01*
X147169509Y-76433079D01*
X147159802Y-76434518D01*
X147150000Y-76435000D01*
X145800000Y-76435000D01*
X145790198Y-76434518D01*
X145780491Y-76433079D01*
X145770972Y-76430694D01*
X145761732Y-76427388D01*
X145752860Y-76423192D01*
X145744443Y-76418147D01*
X145736561Y-76412301D01*
X145729289Y-76405711D01*
X145722699Y-76398439D01*
X145716853Y-76390557D01*
X145711808Y-76382140D01*
X145707612Y-76373268D01*
X145704306Y-76364028D01*
X145701921Y-76354509D01*
X145700482Y-76344802D01*
X145700000Y-76335000D01*
X145700000Y-76135000D01*
X145700482Y-76125198D01*
X145701921Y-76115491D01*
X145704306Y-76105972D01*
X145707612Y-76096732D01*
X145711808Y-76087860D01*
X145716853Y-76079443D01*
X145722699Y-76071561D01*
X145729289Y-76064289D01*
X145736561Y-76057699D01*
X145744443Y-76051853D01*
X145752860Y-76046808D01*
X145761732Y-76042612D01*
X145770972Y-76039306D01*
X145780491Y-76036921D01*
X145790198Y-76035482D01*
X145800000Y-76035000D01*
X147150000Y-76035000D01*
X147159802Y-76035482D01*
X147159802Y-76035482D01*
G37*
D12*
X146475000Y-76235000D03*
D10*
G36*
X147159802Y-76685482D02*
G01*
X147169509Y-76686921D01*
X147179028Y-76689306D01*
X147188268Y-76692612D01*
X147197140Y-76696808D01*
X147205557Y-76701853D01*
X147213439Y-76707699D01*
X147220711Y-76714289D01*
X147227301Y-76721561D01*
X147233147Y-76729443D01*
X147238192Y-76737860D01*
X147242388Y-76746732D01*
X147245694Y-76755972D01*
X147248079Y-76765491D01*
X147249518Y-76775198D01*
X147250000Y-76785000D01*
X147250000Y-76985000D01*
X147249518Y-76994802D01*
X147248079Y-77004509D01*
X147245694Y-77014028D01*
X147242388Y-77023268D01*
X147238192Y-77032140D01*
X147233147Y-77040557D01*
X147227301Y-77048439D01*
X147220711Y-77055711D01*
X147213439Y-77062301D01*
X147205557Y-77068147D01*
X147197140Y-77073192D01*
X147188268Y-77077388D01*
X147179028Y-77080694D01*
X147169509Y-77083079D01*
X147159802Y-77084518D01*
X147150000Y-77085000D01*
X145800000Y-77085000D01*
X145790198Y-77084518D01*
X145780491Y-77083079D01*
X145770972Y-77080694D01*
X145761732Y-77077388D01*
X145752860Y-77073192D01*
X145744443Y-77068147D01*
X145736561Y-77062301D01*
X145729289Y-77055711D01*
X145722699Y-77048439D01*
X145716853Y-77040557D01*
X145711808Y-77032140D01*
X145707612Y-77023268D01*
X145704306Y-77014028D01*
X145701921Y-77004509D01*
X145700482Y-76994802D01*
X145700000Y-76985000D01*
X145700000Y-76785000D01*
X145700482Y-76775198D01*
X145701921Y-76765491D01*
X145704306Y-76755972D01*
X145707612Y-76746732D01*
X145711808Y-76737860D01*
X145716853Y-76729443D01*
X145722699Y-76721561D01*
X145729289Y-76714289D01*
X145736561Y-76707699D01*
X145744443Y-76701853D01*
X145752860Y-76696808D01*
X145761732Y-76692612D01*
X145770972Y-76689306D01*
X145780491Y-76686921D01*
X145790198Y-76685482D01*
X145800000Y-76685000D01*
X147150000Y-76685000D01*
X147159802Y-76685482D01*
X147159802Y-76685482D01*
G37*
D12*
X146475000Y-76885000D03*
D10*
G36*
X147159802Y-77335482D02*
G01*
X147169509Y-77336921D01*
X147179028Y-77339306D01*
X147188268Y-77342612D01*
X147197140Y-77346808D01*
X147205557Y-77351853D01*
X147213439Y-77357699D01*
X147220711Y-77364289D01*
X147227301Y-77371561D01*
X147233147Y-77379443D01*
X147238192Y-77387860D01*
X147242388Y-77396732D01*
X147245694Y-77405972D01*
X147248079Y-77415491D01*
X147249518Y-77425198D01*
X147250000Y-77435000D01*
X147250000Y-77635000D01*
X147249518Y-77644802D01*
X147248079Y-77654509D01*
X147245694Y-77664028D01*
X147242388Y-77673268D01*
X147238192Y-77682140D01*
X147233147Y-77690557D01*
X147227301Y-77698439D01*
X147220711Y-77705711D01*
X147213439Y-77712301D01*
X147205557Y-77718147D01*
X147197140Y-77723192D01*
X147188268Y-77727388D01*
X147179028Y-77730694D01*
X147169509Y-77733079D01*
X147159802Y-77734518D01*
X147150000Y-77735000D01*
X145800000Y-77735000D01*
X145790198Y-77734518D01*
X145780491Y-77733079D01*
X145770972Y-77730694D01*
X145761732Y-77727388D01*
X145752860Y-77723192D01*
X145744443Y-77718147D01*
X145736561Y-77712301D01*
X145729289Y-77705711D01*
X145722699Y-77698439D01*
X145716853Y-77690557D01*
X145711808Y-77682140D01*
X145707612Y-77673268D01*
X145704306Y-77664028D01*
X145701921Y-77654509D01*
X145700482Y-77644802D01*
X145700000Y-77635000D01*
X145700000Y-77435000D01*
X145700482Y-77425198D01*
X145701921Y-77415491D01*
X145704306Y-77405972D01*
X145707612Y-77396732D01*
X145711808Y-77387860D01*
X145716853Y-77379443D01*
X145722699Y-77371561D01*
X145729289Y-77364289D01*
X145736561Y-77357699D01*
X145744443Y-77351853D01*
X145752860Y-77346808D01*
X145761732Y-77342612D01*
X145770972Y-77339306D01*
X145780491Y-77336921D01*
X145790198Y-77335482D01*
X145800000Y-77335000D01*
X147150000Y-77335000D01*
X147159802Y-77335482D01*
X147159802Y-77335482D01*
G37*
D12*
X146475000Y-77535000D03*
D10*
G36*
X141409802Y-77335482D02*
G01*
X141419509Y-77336921D01*
X141429028Y-77339306D01*
X141438268Y-77342612D01*
X141447140Y-77346808D01*
X141455557Y-77351853D01*
X141463439Y-77357699D01*
X141470711Y-77364289D01*
X141477301Y-77371561D01*
X141483147Y-77379443D01*
X141488192Y-77387860D01*
X141492388Y-77396732D01*
X141495694Y-77405972D01*
X141498079Y-77415491D01*
X141499518Y-77425198D01*
X141500000Y-77435000D01*
X141500000Y-77635000D01*
X141499518Y-77644802D01*
X141498079Y-77654509D01*
X141495694Y-77664028D01*
X141492388Y-77673268D01*
X141488192Y-77682140D01*
X141483147Y-77690557D01*
X141477301Y-77698439D01*
X141470711Y-77705711D01*
X141463439Y-77712301D01*
X141455557Y-77718147D01*
X141447140Y-77723192D01*
X141438268Y-77727388D01*
X141429028Y-77730694D01*
X141419509Y-77733079D01*
X141409802Y-77734518D01*
X141400000Y-77735000D01*
X140050000Y-77735000D01*
X140040198Y-77734518D01*
X140030491Y-77733079D01*
X140020972Y-77730694D01*
X140011732Y-77727388D01*
X140002860Y-77723192D01*
X139994443Y-77718147D01*
X139986561Y-77712301D01*
X139979289Y-77705711D01*
X139972699Y-77698439D01*
X139966853Y-77690557D01*
X139961808Y-77682140D01*
X139957612Y-77673268D01*
X139954306Y-77664028D01*
X139951921Y-77654509D01*
X139950482Y-77644802D01*
X139950000Y-77635000D01*
X139950000Y-77435000D01*
X139950482Y-77425198D01*
X139951921Y-77415491D01*
X139954306Y-77405972D01*
X139957612Y-77396732D01*
X139961808Y-77387860D01*
X139966853Y-77379443D01*
X139972699Y-77371561D01*
X139979289Y-77364289D01*
X139986561Y-77357699D01*
X139994443Y-77351853D01*
X140002860Y-77346808D01*
X140011732Y-77342612D01*
X140020972Y-77339306D01*
X140030491Y-77336921D01*
X140040198Y-77335482D01*
X140050000Y-77335000D01*
X141400000Y-77335000D01*
X141409802Y-77335482D01*
X141409802Y-77335482D01*
G37*
D12*
X140725000Y-77535000D03*
D10*
G36*
X141409802Y-76685482D02*
G01*
X141419509Y-76686921D01*
X141429028Y-76689306D01*
X141438268Y-76692612D01*
X141447140Y-76696808D01*
X141455557Y-76701853D01*
X141463439Y-76707699D01*
X141470711Y-76714289D01*
X141477301Y-76721561D01*
X141483147Y-76729443D01*
X141488192Y-76737860D01*
X141492388Y-76746732D01*
X141495694Y-76755972D01*
X141498079Y-76765491D01*
X141499518Y-76775198D01*
X141500000Y-76785000D01*
X141500000Y-76985000D01*
X141499518Y-76994802D01*
X141498079Y-77004509D01*
X141495694Y-77014028D01*
X141492388Y-77023268D01*
X141488192Y-77032140D01*
X141483147Y-77040557D01*
X141477301Y-77048439D01*
X141470711Y-77055711D01*
X141463439Y-77062301D01*
X141455557Y-77068147D01*
X141447140Y-77073192D01*
X141438268Y-77077388D01*
X141429028Y-77080694D01*
X141419509Y-77083079D01*
X141409802Y-77084518D01*
X141400000Y-77085000D01*
X140050000Y-77085000D01*
X140040198Y-77084518D01*
X140030491Y-77083079D01*
X140020972Y-77080694D01*
X140011732Y-77077388D01*
X140002860Y-77073192D01*
X139994443Y-77068147D01*
X139986561Y-77062301D01*
X139979289Y-77055711D01*
X139972699Y-77048439D01*
X139966853Y-77040557D01*
X139961808Y-77032140D01*
X139957612Y-77023268D01*
X139954306Y-77014028D01*
X139951921Y-77004509D01*
X139950482Y-76994802D01*
X139950000Y-76985000D01*
X139950000Y-76785000D01*
X139950482Y-76775198D01*
X139951921Y-76765491D01*
X139954306Y-76755972D01*
X139957612Y-76746732D01*
X139961808Y-76737860D01*
X139966853Y-76729443D01*
X139972699Y-76721561D01*
X139979289Y-76714289D01*
X139986561Y-76707699D01*
X139994443Y-76701853D01*
X140002860Y-76696808D01*
X140011732Y-76692612D01*
X140020972Y-76689306D01*
X140030491Y-76686921D01*
X140040198Y-76685482D01*
X140050000Y-76685000D01*
X141400000Y-76685000D01*
X141409802Y-76685482D01*
X141409802Y-76685482D01*
G37*
D12*
X140725000Y-76885000D03*
D10*
G36*
X141409802Y-76035482D02*
G01*
X141419509Y-76036921D01*
X141429028Y-76039306D01*
X141438268Y-76042612D01*
X141447140Y-76046808D01*
X141455557Y-76051853D01*
X141463439Y-76057699D01*
X141470711Y-76064289D01*
X141477301Y-76071561D01*
X141483147Y-76079443D01*
X141488192Y-76087860D01*
X141492388Y-76096732D01*
X141495694Y-76105972D01*
X141498079Y-76115491D01*
X141499518Y-76125198D01*
X141500000Y-76135000D01*
X141500000Y-76335000D01*
X141499518Y-76344802D01*
X141498079Y-76354509D01*
X141495694Y-76364028D01*
X141492388Y-76373268D01*
X141488192Y-76382140D01*
X141483147Y-76390557D01*
X141477301Y-76398439D01*
X141470711Y-76405711D01*
X141463439Y-76412301D01*
X141455557Y-76418147D01*
X141447140Y-76423192D01*
X141438268Y-76427388D01*
X141429028Y-76430694D01*
X141419509Y-76433079D01*
X141409802Y-76434518D01*
X141400000Y-76435000D01*
X140050000Y-76435000D01*
X140040198Y-76434518D01*
X140030491Y-76433079D01*
X140020972Y-76430694D01*
X140011732Y-76427388D01*
X140002860Y-76423192D01*
X139994443Y-76418147D01*
X139986561Y-76412301D01*
X139979289Y-76405711D01*
X139972699Y-76398439D01*
X139966853Y-76390557D01*
X139961808Y-76382140D01*
X139957612Y-76373268D01*
X139954306Y-76364028D01*
X139951921Y-76354509D01*
X139950482Y-76344802D01*
X139950000Y-76335000D01*
X139950000Y-76135000D01*
X139950482Y-76125198D01*
X139951921Y-76115491D01*
X139954306Y-76105972D01*
X139957612Y-76096732D01*
X139961808Y-76087860D01*
X139966853Y-76079443D01*
X139972699Y-76071561D01*
X139979289Y-76064289D01*
X139986561Y-76057699D01*
X139994443Y-76051853D01*
X140002860Y-76046808D01*
X140011732Y-76042612D01*
X140020972Y-76039306D01*
X140030491Y-76036921D01*
X140040198Y-76035482D01*
X140050000Y-76035000D01*
X141400000Y-76035000D01*
X141409802Y-76035482D01*
X141409802Y-76035482D01*
G37*
D12*
X140725000Y-76235000D03*
D10*
G36*
X141409802Y-75385482D02*
G01*
X141419509Y-75386921D01*
X141429028Y-75389306D01*
X141438268Y-75392612D01*
X141447140Y-75396808D01*
X141455557Y-75401853D01*
X141463439Y-75407699D01*
X141470711Y-75414289D01*
X141477301Y-75421561D01*
X141483147Y-75429443D01*
X141488192Y-75437860D01*
X141492388Y-75446732D01*
X141495694Y-75455972D01*
X141498079Y-75465491D01*
X141499518Y-75475198D01*
X141500000Y-75485000D01*
X141500000Y-75685000D01*
X141499518Y-75694802D01*
X141498079Y-75704509D01*
X141495694Y-75714028D01*
X141492388Y-75723268D01*
X141488192Y-75732140D01*
X141483147Y-75740557D01*
X141477301Y-75748439D01*
X141470711Y-75755711D01*
X141463439Y-75762301D01*
X141455557Y-75768147D01*
X141447140Y-75773192D01*
X141438268Y-75777388D01*
X141429028Y-75780694D01*
X141419509Y-75783079D01*
X141409802Y-75784518D01*
X141400000Y-75785000D01*
X140050000Y-75785000D01*
X140040198Y-75784518D01*
X140030491Y-75783079D01*
X140020972Y-75780694D01*
X140011732Y-75777388D01*
X140002860Y-75773192D01*
X139994443Y-75768147D01*
X139986561Y-75762301D01*
X139979289Y-75755711D01*
X139972699Y-75748439D01*
X139966853Y-75740557D01*
X139961808Y-75732140D01*
X139957612Y-75723268D01*
X139954306Y-75714028D01*
X139951921Y-75704509D01*
X139950482Y-75694802D01*
X139950000Y-75685000D01*
X139950000Y-75485000D01*
X139950482Y-75475198D01*
X139951921Y-75465491D01*
X139954306Y-75455972D01*
X139957612Y-75446732D01*
X139961808Y-75437860D01*
X139966853Y-75429443D01*
X139972699Y-75421561D01*
X139979289Y-75414289D01*
X139986561Y-75407699D01*
X139994443Y-75401853D01*
X140002860Y-75396808D01*
X140011732Y-75392612D01*
X140020972Y-75389306D01*
X140030491Y-75386921D01*
X140040198Y-75385482D01*
X140050000Y-75385000D01*
X141400000Y-75385000D01*
X141409802Y-75385482D01*
X141409802Y-75385482D01*
G37*
D12*
X140725000Y-75585000D03*
D10*
G36*
X141409802Y-74735482D02*
G01*
X141419509Y-74736921D01*
X141429028Y-74739306D01*
X141438268Y-74742612D01*
X141447140Y-74746808D01*
X141455557Y-74751853D01*
X141463439Y-74757699D01*
X141470711Y-74764289D01*
X141477301Y-74771561D01*
X141483147Y-74779443D01*
X141488192Y-74787860D01*
X141492388Y-74796732D01*
X141495694Y-74805972D01*
X141498079Y-74815491D01*
X141499518Y-74825198D01*
X141500000Y-74835000D01*
X141500000Y-75035000D01*
X141499518Y-75044802D01*
X141498079Y-75054509D01*
X141495694Y-75064028D01*
X141492388Y-75073268D01*
X141488192Y-75082140D01*
X141483147Y-75090557D01*
X141477301Y-75098439D01*
X141470711Y-75105711D01*
X141463439Y-75112301D01*
X141455557Y-75118147D01*
X141447140Y-75123192D01*
X141438268Y-75127388D01*
X141429028Y-75130694D01*
X141419509Y-75133079D01*
X141409802Y-75134518D01*
X141400000Y-75135000D01*
X140050000Y-75135000D01*
X140040198Y-75134518D01*
X140030491Y-75133079D01*
X140020972Y-75130694D01*
X140011732Y-75127388D01*
X140002860Y-75123192D01*
X139994443Y-75118147D01*
X139986561Y-75112301D01*
X139979289Y-75105711D01*
X139972699Y-75098439D01*
X139966853Y-75090557D01*
X139961808Y-75082140D01*
X139957612Y-75073268D01*
X139954306Y-75064028D01*
X139951921Y-75054509D01*
X139950482Y-75044802D01*
X139950000Y-75035000D01*
X139950000Y-74835000D01*
X139950482Y-74825198D01*
X139951921Y-74815491D01*
X139954306Y-74805972D01*
X139957612Y-74796732D01*
X139961808Y-74787860D01*
X139966853Y-74779443D01*
X139972699Y-74771561D01*
X139979289Y-74764289D01*
X139986561Y-74757699D01*
X139994443Y-74751853D01*
X140002860Y-74746808D01*
X140011732Y-74742612D01*
X140020972Y-74739306D01*
X140030491Y-74736921D01*
X140040198Y-74735482D01*
X140050000Y-74735000D01*
X141400000Y-74735000D01*
X141409802Y-74735482D01*
X141409802Y-74735482D01*
G37*
D12*
X140725000Y-74935000D03*
D10*
G36*
X141409802Y-74085482D02*
G01*
X141419509Y-74086921D01*
X141429028Y-74089306D01*
X141438268Y-74092612D01*
X141447140Y-74096808D01*
X141455557Y-74101853D01*
X141463439Y-74107699D01*
X141470711Y-74114289D01*
X141477301Y-74121561D01*
X141483147Y-74129443D01*
X141488192Y-74137860D01*
X141492388Y-74146732D01*
X141495694Y-74155972D01*
X141498079Y-74165491D01*
X141499518Y-74175198D01*
X141500000Y-74185000D01*
X141500000Y-74385000D01*
X141499518Y-74394802D01*
X141498079Y-74404509D01*
X141495694Y-74414028D01*
X141492388Y-74423268D01*
X141488192Y-74432140D01*
X141483147Y-74440557D01*
X141477301Y-74448439D01*
X141470711Y-74455711D01*
X141463439Y-74462301D01*
X141455557Y-74468147D01*
X141447140Y-74473192D01*
X141438268Y-74477388D01*
X141429028Y-74480694D01*
X141419509Y-74483079D01*
X141409802Y-74484518D01*
X141400000Y-74485000D01*
X140050000Y-74485000D01*
X140040198Y-74484518D01*
X140030491Y-74483079D01*
X140020972Y-74480694D01*
X140011732Y-74477388D01*
X140002860Y-74473192D01*
X139994443Y-74468147D01*
X139986561Y-74462301D01*
X139979289Y-74455711D01*
X139972699Y-74448439D01*
X139966853Y-74440557D01*
X139961808Y-74432140D01*
X139957612Y-74423268D01*
X139954306Y-74414028D01*
X139951921Y-74404509D01*
X139950482Y-74394802D01*
X139950000Y-74385000D01*
X139950000Y-74185000D01*
X139950482Y-74175198D01*
X139951921Y-74165491D01*
X139954306Y-74155972D01*
X139957612Y-74146732D01*
X139961808Y-74137860D01*
X139966853Y-74129443D01*
X139972699Y-74121561D01*
X139979289Y-74114289D01*
X139986561Y-74107699D01*
X139994443Y-74101853D01*
X140002860Y-74096808D01*
X140011732Y-74092612D01*
X140020972Y-74089306D01*
X140030491Y-74086921D01*
X140040198Y-74085482D01*
X140050000Y-74085000D01*
X141400000Y-74085000D01*
X141409802Y-74085482D01*
X141409802Y-74085482D01*
G37*
D12*
X140725000Y-74285000D03*
D10*
G36*
X141409802Y-73435482D02*
G01*
X141419509Y-73436921D01*
X141429028Y-73439306D01*
X141438268Y-73442612D01*
X141447140Y-73446808D01*
X141455557Y-73451853D01*
X141463439Y-73457699D01*
X141470711Y-73464289D01*
X141477301Y-73471561D01*
X141483147Y-73479443D01*
X141488192Y-73487860D01*
X141492388Y-73496732D01*
X141495694Y-73505972D01*
X141498079Y-73515491D01*
X141499518Y-73525198D01*
X141500000Y-73535000D01*
X141500000Y-73735000D01*
X141499518Y-73744802D01*
X141498079Y-73754509D01*
X141495694Y-73764028D01*
X141492388Y-73773268D01*
X141488192Y-73782140D01*
X141483147Y-73790557D01*
X141477301Y-73798439D01*
X141470711Y-73805711D01*
X141463439Y-73812301D01*
X141455557Y-73818147D01*
X141447140Y-73823192D01*
X141438268Y-73827388D01*
X141429028Y-73830694D01*
X141419509Y-73833079D01*
X141409802Y-73834518D01*
X141400000Y-73835000D01*
X140050000Y-73835000D01*
X140040198Y-73834518D01*
X140030491Y-73833079D01*
X140020972Y-73830694D01*
X140011732Y-73827388D01*
X140002860Y-73823192D01*
X139994443Y-73818147D01*
X139986561Y-73812301D01*
X139979289Y-73805711D01*
X139972699Y-73798439D01*
X139966853Y-73790557D01*
X139961808Y-73782140D01*
X139957612Y-73773268D01*
X139954306Y-73764028D01*
X139951921Y-73754509D01*
X139950482Y-73744802D01*
X139950000Y-73735000D01*
X139950000Y-73535000D01*
X139950482Y-73525198D01*
X139951921Y-73515491D01*
X139954306Y-73505972D01*
X139957612Y-73496732D01*
X139961808Y-73487860D01*
X139966853Y-73479443D01*
X139972699Y-73471561D01*
X139979289Y-73464289D01*
X139986561Y-73457699D01*
X139994443Y-73451853D01*
X140002860Y-73446808D01*
X140011732Y-73442612D01*
X140020972Y-73439306D01*
X140030491Y-73436921D01*
X140040198Y-73435482D01*
X140050000Y-73435000D01*
X141400000Y-73435000D01*
X141409802Y-73435482D01*
X141409802Y-73435482D01*
G37*
D12*
X140725000Y-73635000D03*
D10*
G36*
X141409802Y-72785482D02*
G01*
X141419509Y-72786921D01*
X141429028Y-72789306D01*
X141438268Y-72792612D01*
X141447140Y-72796808D01*
X141455557Y-72801853D01*
X141463439Y-72807699D01*
X141470711Y-72814289D01*
X141477301Y-72821561D01*
X141483147Y-72829443D01*
X141488192Y-72837860D01*
X141492388Y-72846732D01*
X141495694Y-72855972D01*
X141498079Y-72865491D01*
X141499518Y-72875198D01*
X141500000Y-72885000D01*
X141500000Y-73085000D01*
X141499518Y-73094802D01*
X141498079Y-73104509D01*
X141495694Y-73114028D01*
X141492388Y-73123268D01*
X141488192Y-73132140D01*
X141483147Y-73140557D01*
X141477301Y-73148439D01*
X141470711Y-73155711D01*
X141463439Y-73162301D01*
X141455557Y-73168147D01*
X141447140Y-73173192D01*
X141438268Y-73177388D01*
X141429028Y-73180694D01*
X141419509Y-73183079D01*
X141409802Y-73184518D01*
X141400000Y-73185000D01*
X140050000Y-73185000D01*
X140040198Y-73184518D01*
X140030491Y-73183079D01*
X140020972Y-73180694D01*
X140011732Y-73177388D01*
X140002860Y-73173192D01*
X139994443Y-73168147D01*
X139986561Y-73162301D01*
X139979289Y-73155711D01*
X139972699Y-73148439D01*
X139966853Y-73140557D01*
X139961808Y-73132140D01*
X139957612Y-73123268D01*
X139954306Y-73114028D01*
X139951921Y-73104509D01*
X139950482Y-73094802D01*
X139950000Y-73085000D01*
X139950000Y-72885000D01*
X139950482Y-72875198D01*
X139951921Y-72865491D01*
X139954306Y-72855972D01*
X139957612Y-72846732D01*
X139961808Y-72837860D01*
X139966853Y-72829443D01*
X139972699Y-72821561D01*
X139979289Y-72814289D01*
X139986561Y-72807699D01*
X139994443Y-72801853D01*
X140002860Y-72796808D01*
X140011732Y-72792612D01*
X140020972Y-72789306D01*
X140030491Y-72786921D01*
X140040198Y-72785482D01*
X140050000Y-72785000D01*
X141400000Y-72785000D01*
X141409802Y-72785482D01*
X141409802Y-72785482D01*
G37*
D12*
X140725000Y-72985000D03*
D10*
G36*
X141409802Y-72135482D02*
G01*
X141419509Y-72136921D01*
X141429028Y-72139306D01*
X141438268Y-72142612D01*
X141447140Y-72146808D01*
X141455557Y-72151853D01*
X141463439Y-72157699D01*
X141470711Y-72164289D01*
X141477301Y-72171561D01*
X141483147Y-72179443D01*
X141488192Y-72187860D01*
X141492388Y-72196732D01*
X141495694Y-72205972D01*
X141498079Y-72215491D01*
X141499518Y-72225198D01*
X141500000Y-72235000D01*
X141500000Y-72435000D01*
X141499518Y-72444802D01*
X141498079Y-72454509D01*
X141495694Y-72464028D01*
X141492388Y-72473268D01*
X141488192Y-72482140D01*
X141483147Y-72490557D01*
X141477301Y-72498439D01*
X141470711Y-72505711D01*
X141463439Y-72512301D01*
X141455557Y-72518147D01*
X141447140Y-72523192D01*
X141438268Y-72527388D01*
X141429028Y-72530694D01*
X141419509Y-72533079D01*
X141409802Y-72534518D01*
X141400000Y-72535000D01*
X140050000Y-72535000D01*
X140040198Y-72534518D01*
X140030491Y-72533079D01*
X140020972Y-72530694D01*
X140011732Y-72527388D01*
X140002860Y-72523192D01*
X139994443Y-72518147D01*
X139986561Y-72512301D01*
X139979289Y-72505711D01*
X139972699Y-72498439D01*
X139966853Y-72490557D01*
X139961808Y-72482140D01*
X139957612Y-72473268D01*
X139954306Y-72464028D01*
X139951921Y-72454509D01*
X139950482Y-72444802D01*
X139950000Y-72435000D01*
X139950000Y-72235000D01*
X139950482Y-72225198D01*
X139951921Y-72215491D01*
X139954306Y-72205972D01*
X139957612Y-72196732D01*
X139961808Y-72187860D01*
X139966853Y-72179443D01*
X139972699Y-72171561D01*
X139979289Y-72164289D01*
X139986561Y-72157699D01*
X139994443Y-72151853D01*
X140002860Y-72146808D01*
X140011732Y-72142612D01*
X140020972Y-72139306D01*
X140030491Y-72136921D01*
X140040198Y-72135482D01*
X140050000Y-72135000D01*
X141400000Y-72135000D01*
X141409802Y-72135482D01*
X141409802Y-72135482D01*
G37*
D12*
X140725000Y-72335000D03*
D10*
G36*
X141409802Y-71485482D02*
G01*
X141419509Y-71486921D01*
X141429028Y-71489306D01*
X141438268Y-71492612D01*
X141447140Y-71496808D01*
X141455557Y-71501853D01*
X141463439Y-71507699D01*
X141470711Y-71514289D01*
X141477301Y-71521561D01*
X141483147Y-71529443D01*
X141488192Y-71537860D01*
X141492388Y-71546732D01*
X141495694Y-71555972D01*
X141498079Y-71565491D01*
X141499518Y-71575198D01*
X141500000Y-71585000D01*
X141500000Y-71785000D01*
X141499518Y-71794802D01*
X141498079Y-71804509D01*
X141495694Y-71814028D01*
X141492388Y-71823268D01*
X141488192Y-71832140D01*
X141483147Y-71840557D01*
X141477301Y-71848439D01*
X141470711Y-71855711D01*
X141463439Y-71862301D01*
X141455557Y-71868147D01*
X141447140Y-71873192D01*
X141438268Y-71877388D01*
X141429028Y-71880694D01*
X141419509Y-71883079D01*
X141409802Y-71884518D01*
X141400000Y-71885000D01*
X140050000Y-71885000D01*
X140040198Y-71884518D01*
X140030491Y-71883079D01*
X140020972Y-71880694D01*
X140011732Y-71877388D01*
X140002860Y-71873192D01*
X139994443Y-71868147D01*
X139986561Y-71862301D01*
X139979289Y-71855711D01*
X139972699Y-71848439D01*
X139966853Y-71840557D01*
X139961808Y-71832140D01*
X139957612Y-71823268D01*
X139954306Y-71814028D01*
X139951921Y-71804509D01*
X139950482Y-71794802D01*
X139950000Y-71785000D01*
X139950000Y-71585000D01*
X139950482Y-71575198D01*
X139951921Y-71565491D01*
X139954306Y-71555972D01*
X139957612Y-71546732D01*
X139961808Y-71537860D01*
X139966853Y-71529443D01*
X139972699Y-71521561D01*
X139979289Y-71514289D01*
X139986561Y-71507699D01*
X139994443Y-71501853D01*
X140002860Y-71496808D01*
X140011732Y-71492612D01*
X140020972Y-71489306D01*
X140030491Y-71486921D01*
X140040198Y-71485482D01*
X140050000Y-71485000D01*
X141400000Y-71485000D01*
X141409802Y-71485482D01*
X141409802Y-71485482D01*
G37*
D12*
X140725000Y-71685000D03*
D10*
G36*
X141409802Y-70835482D02*
G01*
X141419509Y-70836921D01*
X141429028Y-70839306D01*
X141438268Y-70842612D01*
X141447140Y-70846808D01*
X141455557Y-70851853D01*
X141463439Y-70857699D01*
X141470711Y-70864289D01*
X141477301Y-70871561D01*
X141483147Y-70879443D01*
X141488192Y-70887860D01*
X141492388Y-70896732D01*
X141495694Y-70905972D01*
X141498079Y-70915491D01*
X141499518Y-70925198D01*
X141500000Y-70935000D01*
X141500000Y-71135000D01*
X141499518Y-71144802D01*
X141498079Y-71154509D01*
X141495694Y-71164028D01*
X141492388Y-71173268D01*
X141488192Y-71182140D01*
X141483147Y-71190557D01*
X141477301Y-71198439D01*
X141470711Y-71205711D01*
X141463439Y-71212301D01*
X141455557Y-71218147D01*
X141447140Y-71223192D01*
X141438268Y-71227388D01*
X141429028Y-71230694D01*
X141419509Y-71233079D01*
X141409802Y-71234518D01*
X141400000Y-71235000D01*
X140050000Y-71235000D01*
X140040198Y-71234518D01*
X140030491Y-71233079D01*
X140020972Y-71230694D01*
X140011732Y-71227388D01*
X140002860Y-71223192D01*
X139994443Y-71218147D01*
X139986561Y-71212301D01*
X139979289Y-71205711D01*
X139972699Y-71198439D01*
X139966853Y-71190557D01*
X139961808Y-71182140D01*
X139957612Y-71173268D01*
X139954306Y-71164028D01*
X139951921Y-71154509D01*
X139950482Y-71144802D01*
X139950000Y-71135000D01*
X139950000Y-70935000D01*
X139950482Y-70925198D01*
X139951921Y-70915491D01*
X139954306Y-70905972D01*
X139957612Y-70896732D01*
X139961808Y-70887860D01*
X139966853Y-70879443D01*
X139972699Y-70871561D01*
X139979289Y-70864289D01*
X139986561Y-70857699D01*
X139994443Y-70851853D01*
X140002860Y-70846808D01*
X140011732Y-70842612D01*
X140020972Y-70839306D01*
X140030491Y-70836921D01*
X140040198Y-70835482D01*
X140050000Y-70835000D01*
X141400000Y-70835000D01*
X141409802Y-70835482D01*
X141409802Y-70835482D01*
G37*
D12*
X140725000Y-71035000D03*
D10*
G36*
X141409802Y-70185482D02*
G01*
X141419509Y-70186921D01*
X141429028Y-70189306D01*
X141438268Y-70192612D01*
X141447140Y-70196808D01*
X141455557Y-70201853D01*
X141463439Y-70207699D01*
X141470711Y-70214289D01*
X141477301Y-70221561D01*
X141483147Y-70229443D01*
X141488192Y-70237860D01*
X141492388Y-70246732D01*
X141495694Y-70255972D01*
X141498079Y-70265491D01*
X141499518Y-70275198D01*
X141500000Y-70285000D01*
X141500000Y-70485000D01*
X141499518Y-70494802D01*
X141498079Y-70504509D01*
X141495694Y-70514028D01*
X141492388Y-70523268D01*
X141488192Y-70532140D01*
X141483147Y-70540557D01*
X141477301Y-70548439D01*
X141470711Y-70555711D01*
X141463439Y-70562301D01*
X141455557Y-70568147D01*
X141447140Y-70573192D01*
X141438268Y-70577388D01*
X141429028Y-70580694D01*
X141419509Y-70583079D01*
X141409802Y-70584518D01*
X141400000Y-70585000D01*
X140050000Y-70585000D01*
X140040198Y-70584518D01*
X140030491Y-70583079D01*
X140020972Y-70580694D01*
X140011732Y-70577388D01*
X140002860Y-70573192D01*
X139994443Y-70568147D01*
X139986561Y-70562301D01*
X139979289Y-70555711D01*
X139972699Y-70548439D01*
X139966853Y-70540557D01*
X139961808Y-70532140D01*
X139957612Y-70523268D01*
X139954306Y-70514028D01*
X139951921Y-70504509D01*
X139950482Y-70494802D01*
X139950000Y-70485000D01*
X139950000Y-70285000D01*
X139950482Y-70275198D01*
X139951921Y-70265491D01*
X139954306Y-70255972D01*
X139957612Y-70246732D01*
X139961808Y-70237860D01*
X139966853Y-70229443D01*
X139972699Y-70221561D01*
X139979289Y-70214289D01*
X139986561Y-70207699D01*
X139994443Y-70201853D01*
X140002860Y-70196808D01*
X140011732Y-70192612D01*
X140020972Y-70189306D01*
X140030491Y-70186921D01*
X140040198Y-70185482D01*
X140050000Y-70185000D01*
X141400000Y-70185000D01*
X141409802Y-70185482D01*
X141409802Y-70185482D01*
G37*
D12*
X140725000Y-70385000D03*
D13*
X155030000Y-65070000D03*
D14*
X155030000Y-67070000D03*
D15*
X157850000Y-79040000D03*
X157850000Y-81580000D03*
X169850000Y-84120000D03*
X157850000Y-84120000D03*
X169850000Y-86660000D03*
X157850000Y-86660000D03*
X169850000Y-89200000D03*
X157850000Y-89200000D03*
X169850000Y-91740000D03*
X157850000Y-91740000D03*
X169850000Y-94280000D03*
X157850000Y-94280000D03*
D10*
G36*
X142599504Y-66286204D02*
G01*
X142623773Y-66289804D01*
X142647571Y-66295765D01*
X142670671Y-66304030D01*
X142692849Y-66314520D01*
X142713893Y-66327133D01*
X142733598Y-66341747D01*
X142751777Y-66358223D01*
X142768253Y-66376402D01*
X142782867Y-66396107D01*
X142795480Y-66417151D01*
X142805970Y-66439329D01*
X142814235Y-66462429D01*
X142820196Y-66486227D01*
X142823796Y-66510496D01*
X142825000Y-66535000D01*
X142825000Y-68685000D01*
X142823796Y-68709504D01*
X142820196Y-68733773D01*
X142814235Y-68757571D01*
X142805970Y-68780671D01*
X142795480Y-68802849D01*
X142782867Y-68823893D01*
X142768253Y-68843598D01*
X142751777Y-68861777D01*
X142733598Y-68878253D01*
X142713893Y-68892867D01*
X142692849Y-68905480D01*
X142670671Y-68915970D01*
X142647571Y-68924235D01*
X142623773Y-68930196D01*
X142599504Y-68933796D01*
X142575000Y-68935000D01*
X141650000Y-68935000D01*
X141625496Y-68933796D01*
X141601227Y-68930196D01*
X141577429Y-68924235D01*
X141554329Y-68915970D01*
X141532151Y-68905480D01*
X141511107Y-68892867D01*
X141491402Y-68878253D01*
X141473223Y-68861777D01*
X141456747Y-68843598D01*
X141442133Y-68823893D01*
X141429520Y-68802849D01*
X141419030Y-68780671D01*
X141410765Y-68757571D01*
X141404804Y-68733773D01*
X141401204Y-68709504D01*
X141400000Y-68685000D01*
X141400000Y-66535000D01*
X141401204Y-66510496D01*
X141404804Y-66486227D01*
X141410765Y-66462429D01*
X141419030Y-66439329D01*
X141429520Y-66417151D01*
X141442133Y-66396107D01*
X141456747Y-66376402D01*
X141473223Y-66358223D01*
X141491402Y-66341747D01*
X141511107Y-66327133D01*
X141532151Y-66314520D01*
X141554329Y-66304030D01*
X141577429Y-66295765D01*
X141601227Y-66289804D01*
X141625496Y-66286204D01*
X141650000Y-66285000D01*
X142575000Y-66285000D01*
X142599504Y-66286204D01*
X142599504Y-66286204D01*
G37*
D16*
X142112500Y-67610000D03*
D10*
G36*
X145574504Y-66286204D02*
G01*
X145598773Y-66289804D01*
X145622571Y-66295765D01*
X145645671Y-66304030D01*
X145667849Y-66314520D01*
X145688893Y-66327133D01*
X145708598Y-66341747D01*
X145726777Y-66358223D01*
X145743253Y-66376402D01*
X145757867Y-66396107D01*
X145770480Y-66417151D01*
X145780970Y-66439329D01*
X145789235Y-66462429D01*
X145795196Y-66486227D01*
X145798796Y-66510496D01*
X145800000Y-66535000D01*
X145800000Y-68685000D01*
X145798796Y-68709504D01*
X145795196Y-68733773D01*
X145789235Y-68757571D01*
X145780970Y-68780671D01*
X145770480Y-68802849D01*
X145757867Y-68823893D01*
X145743253Y-68843598D01*
X145726777Y-68861777D01*
X145708598Y-68878253D01*
X145688893Y-68892867D01*
X145667849Y-68905480D01*
X145645671Y-68915970D01*
X145622571Y-68924235D01*
X145598773Y-68930196D01*
X145574504Y-68933796D01*
X145550000Y-68935000D01*
X144625000Y-68935000D01*
X144600496Y-68933796D01*
X144576227Y-68930196D01*
X144552429Y-68924235D01*
X144529329Y-68915970D01*
X144507151Y-68905480D01*
X144486107Y-68892867D01*
X144466402Y-68878253D01*
X144448223Y-68861777D01*
X144431747Y-68843598D01*
X144417133Y-68823893D01*
X144404520Y-68802849D01*
X144394030Y-68780671D01*
X144385765Y-68757571D01*
X144379804Y-68733773D01*
X144376204Y-68709504D01*
X144375000Y-68685000D01*
X144375000Y-66535000D01*
X144376204Y-66510496D01*
X144379804Y-66486227D01*
X144385765Y-66462429D01*
X144394030Y-66439329D01*
X144404520Y-66417151D01*
X144417133Y-66396107D01*
X144431747Y-66376402D01*
X144448223Y-66358223D01*
X144466402Y-66341747D01*
X144486107Y-66327133D01*
X144507151Y-66314520D01*
X144529329Y-66304030D01*
X144552429Y-66295765D01*
X144576227Y-66289804D01*
X144600496Y-66286204D01*
X144625000Y-66285000D01*
X145550000Y-66285000D01*
X145574504Y-66286204D01*
X145574504Y-66286204D01*
G37*
D16*
X145087500Y-67610000D03*
D17*
X116930000Y-75230000D03*
X119470000Y-75230000D03*
X116930000Y-72690000D03*
X119470000Y-72690000D03*
X116930000Y-70150000D03*
X119470000Y-70150000D03*
X116930000Y-67610000D03*
X119470000Y-67610000D03*
X116930000Y-65070000D03*
X119470000Y-65070000D03*
X116930000Y-62530000D03*
D18*
X119470000Y-62530000D03*
D15*
X116650000Y-79040000D03*
X116650000Y-81580000D03*
X128650000Y-84120000D03*
X116650000Y-84120000D03*
X128650000Y-86660000D03*
X116650000Y-86660000D03*
X128650000Y-89200000D03*
X116650000Y-89200000D03*
X128650000Y-91740000D03*
X116650000Y-91740000D03*
X128650000Y-94280000D03*
X116650000Y-94280000D03*
X137250000Y-94280000D03*
X149250000Y-94280000D03*
X137250000Y-91740000D03*
X149250000Y-91740000D03*
X137250000Y-89200000D03*
X149250000Y-89200000D03*
X137250000Y-86660000D03*
X149250000Y-86660000D03*
X137250000Y-84120000D03*
X149250000Y-84120000D03*
X137250000Y-81580000D03*
X137250000Y-79040000D03*
D18*
X161780000Y-62530000D03*
D17*
X164320000Y-62530000D03*
X161780000Y-65070000D03*
X164320000Y-65070000D03*
X161780000Y-67610000D03*
X164320000Y-67610000D03*
X161780000Y-70150000D03*
X164320000Y-70150000D03*
X161780000Y-72690000D03*
X164320000Y-72690000D03*
X161780000Y-75230000D03*
X164320000Y-75230000D03*
D14*
X143600000Y-73960000D03*
X144489000Y-74595000D03*
X144489000Y-73198000D03*
X142711000Y-74595000D03*
X142711000Y-73198000D03*
X142711000Y-72055000D03*
X144489000Y-72055000D03*
X144489000Y-75738000D03*
X142711000Y-75738000D03*
X147410000Y-67610000D03*
X139790000Y-67610000D03*
D19*
X159000000Y-66000000D03*
X153000000Y-73000000D03*
X138000012Y-68000000D03*
D20*
X145087500Y-67610000D02*
X147410000Y-67610000D01*
D21*
X146475000Y-68545000D02*
X147410000Y-67610000D01*
X146475000Y-70385000D02*
X146475000Y-68545000D01*
X146475000Y-70385000D02*
X145600000Y-70385000D01*
X142431000Y-72335000D02*
X142711000Y-72055000D01*
X140725000Y-72335000D02*
X142431000Y-72335000D01*
D20*
X142112500Y-67610000D02*
X139790000Y-67610000D01*
D21*
X140725000Y-68545000D02*
X139790000Y-67610000D01*
X140725000Y-70385000D02*
X140725000Y-68545000D01*
X155815000Y-71035000D02*
X146475000Y-71035000D01*
X161780000Y-65070000D02*
X155815000Y-71035000D01*
X156892999Y-63892999D02*
X159000000Y-66000000D01*
X118905039Y-63892999D02*
X156892999Y-63892999D01*
X118292999Y-64505039D02*
X118905039Y-63892999D01*
X119470000Y-67610000D02*
X118292999Y-66432999D01*
X118292999Y-66432999D02*
X118292999Y-64505039D01*
X161780000Y-67610000D02*
X157705000Y-71685000D01*
X157705000Y-71685000D02*
X146475000Y-71685000D01*
X161780000Y-70150000D02*
X159595000Y-72335000D01*
X159595000Y-72335000D02*
X150335000Y-72335000D01*
X150335000Y-72335000D02*
X146475000Y-72335000D01*
X152700001Y-72700001D02*
X153000000Y-73000000D01*
X152335000Y-72335000D02*
X152700001Y-72700001D01*
X150335000Y-72335000D02*
X152335000Y-72335000D01*
X140725000Y-71685000D02*
X133685000Y-71685000D01*
X127070000Y-65070000D02*
X119470000Y-65070000D01*
X133685000Y-71685000D02*
X127070000Y-65070000D01*
X136535000Y-76235000D02*
X128650000Y-84120000D01*
X140725000Y-76235000D02*
X136535000Y-76235000D01*
X127650001Y-85660001D02*
X128650000Y-86660000D01*
X127322999Y-85332999D02*
X127650001Y-85660001D01*
X127322999Y-83483039D02*
X127322999Y-85332999D01*
X135221038Y-75585000D02*
X127322999Y-83483039D01*
X140725000Y-75585000D02*
X135221038Y-75585000D01*
X127650001Y-88200001D02*
X128650000Y-89200000D01*
X126795989Y-87345989D02*
X127650001Y-88200001D01*
X126795989Y-83264745D02*
X126795989Y-87345989D01*
X135125734Y-74935000D02*
X126795989Y-83264745D01*
X140725000Y-74935000D02*
X135125734Y-74935000D01*
X127650001Y-90740001D02*
X128650000Y-91740000D01*
X126000000Y-89090000D02*
X127650001Y-90740001D01*
X126000000Y-83315430D02*
X126000000Y-89090000D01*
X135030430Y-74285000D02*
X126000000Y-83315430D01*
X140725000Y-74285000D02*
X135030430Y-74285000D01*
X127650001Y-93280001D02*
X128650000Y-94280000D01*
X125000000Y-90630000D02*
X127650001Y-93280001D01*
X125000000Y-83570126D02*
X125000000Y-90630000D01*
X134935126Y-73635000D02*
X125000000Y-83570126D01*
X140725000Y-73635000D02*
X134935126Y-73635000D01*
X148250001Y-93280001D02*
X149250000Y-94280000D01*
X139622990Y-84652990D02*
X148250001Y-93280001D01*
X139622990Y-77112010D02*
X139622990Y-84652990D01*
X139850000Y-76885000D02*
X139622990Y-77112010D01*
X140725000Y-76885000D02*
X139850000Y-76885000D01*
X140725000Y-83215000D02*
X149250000Y-91740000D01*
X140725000Y-77535000D02*
X140725000Y-83215000D01*
X146475000Y-86425000D02*
X149250000Y-89200000D01*
X146475000Y-77535000D02*
X146475000Y-86425000D01*
X148250001Y-85660001D02*
X149250000Y-86660000D01*
X147922999Y-85332999D02*
X148250001Y-85660001D01*
X147922999Y-77457999D02*
X147922999Y-85332999D01*
X147350000Y-76885000D02*
X147922999Y-77457999D01*
X146475000Y-76885000D02*
X147350000Y-76885000D01*
X149250000Y-84120000D02*
X149250000Y-76250000D01*
X149250000Y-76250000D02*
X149235000Y-76235000D01*
X146780000Y-76250000D02*
X149250000Y-76250000D01*
X146765000Y-76235000D02*
X146780000Y-76250000D01*
X146475000Y-76235000D02*
X146765000Y-76235000D01*
X168120000Y-84120000D02*
X169850000Y-84120000D01*
X158891963Y-74891963D02*
X168120000Y-84120000D01*
X151618483Y-74891963D02*
X158891963Y-74891963D01*
X146475000Y-72985000D02*
X149711520Y-72985000D01*
X149711520Y-72985000D02*
X151618483Y-74891963D01*
X169669874Y-86660000D02*
X169850000Y-86660000D01*
X162527009Y-79517135D02*
X169669874Y-86660000D01*
X158428845Y-75418973D02*
X162527009Y-79517135D01*
X151400188Y-75418972D02*
X158428845Y-75418973D01*
X146475000Y-73635000D02*
X149616216Y-73635000D01*
X149616216Y-73635000D02*
X151400188Y-75418972D01*
X162000000Y-81350000D02*
X169850000Y-89200000D01*
X162000000Y-79735430D02*
X162000000Y-81350000D01*
X158210550Y-75945982D02*
X162000000Y-79735430D01*
X151181893Y-75945981D02*
X158210550Y-75945982D01*
X146475000Y-74285000D02*
X149520912Y-74285000D01*
X149520912Y-74285000D02*
X151181893Y-75945981D01*
X161000000Y-82890000D02*
X169850000Y-91740000D01*
X161000000Y-79480734D02*
X161000000Y-82890000D01*
X157992257Y-76472991D02*
X161000000Y-79480734D01*
X150963598Y-76472990D02*
X157992257Y-76472991D01*
X146475000Y-74935000D02*
X149425608Y-74935000D01*
X149425608Y-74935000D02*
X150963598Y-76472990D01*
X160000000Y-84430000D02*
X169850000Y-94280000D01*
X160000000Y-79226038D02*
X160000000Y-84430000D01*
X157773962Y-77000000D02*
X160000000Y-79226038D01*
X150745304Y-77000000D02*
X157773962Y-77000000D01*
X146475000Y-75585000D02*
X149330304Y-75585000D01*
X149330304Y-75585000D02*
X150745304Y-77000000D01*
X140725000Y-71035000D02*
X139850000Y-71035000D01*
X138000012Y-68424264D02*
X138000012Y-68000000D01*
X138000012Y-69185012D02*
X138000012Y-68424264D01*
X139850000Y-71035000D02*
X138000012Y-69185012D01*
D22*
G36*
X116100986Y-61289294D02*
G01*
X115874866Y-61474866D01*
X115689294Y-61700986D01*
X115551401Y-61958966D01*
X115466487Y-62238889D01*
X115437815Y-62530000D01*
X115466487Y-62821111D01*
X115551401Y-63101034D01*
X115689294Y-63359014D01*
X115874866Y-63585134D01*
X116100986Y-63770706D01*
X116155791Y-63800000D01*
X116100986Y-63829294D01*
X115874866Y-64014866D01*
X115689294Y-64240986D01*
X115551401Y-64498966D01*
X115466487Y-64778889D01*
X115437815Y-65070000D01*
X115466487Y-65361111D01*
X115551401Y-65641034D01*
X115689294Y-65899014D01*
X115874866Y-66125134D01*
X116100986Y-66310706D01*
X116155791Y-66340000D01*
X116100986Y-66369294D01*
X115874866Y-66554866D01*
X115689294Y-66780986D01*
X115551401Y-67038966D01*
X115466487Y-67318889D01*
X115437815Y-67610000D01*
X115466487Y-67901111D01*
X115551401Y-68181034D01*
X115689294Y-68439014D01*
X115874866Y-68665134D01*
X116100986Y-68850706D01*
X116155791Y-68880000D01*
X116100986Y-68909294D01*
X115874866Y-69094866D01*
X115689294Y-69320986D01*
X115551401Y-69578966D01*
X115466487Y-69858889D01*
X115437815Y-70150000D01*
X115466487Y-70441111D01*
X115551401Y-70721034D01*
X115689294Y-70979014D01*
X115874866Y-71205134D01*
X116100986Y-71390706D01*
X116155791Y-71420000D01*
X116100986Y-71449294D01*
X115874866Y-71634866D01*
X115689294Y-71860986D01*
X115551401Y-72118966D01*
X115466487Y-72398889D01*
X115437815Y-72690000D01*
X115466487Y-72981111D01*
X115551401Y-73261034D01*
X115689294Y-73519014D01*
X115874866Y-73745134D01*
X116100986Y-73930706D01*
X116155791Y-73960000D01*
X116100986Y-73989294D01*
X115874866Y-74174866D01*
X115689294Y-74400986D01*
X115551401Y-74658966D01*
X115466487Y-74938889D01*
X115437815Y-75230000D01*
X115466487Y-75521111D01*
X115551401Y-75801034D01*
X115689294Y-76059014D01*
X115874866Y-76285134D01*
X116100986Y-76470706D01*
X116358966Y-76608599D01*
X116638889Y-76693513D01*
X116857050Y-76715000D01*
X117002950Y-76715000D01*
X117221111Y-76693513D01*
X117501034Y-76608599D01*
X117759014Y-76470706D01*
X117985134Y-76285134D01*
X118170706Y-76059014D01*
X118200000Y-76004209D01*
X118229294Y-76059014D01*
X118414866Y-76285134D01*
X118640986Y-76470706D01*
X118898966Y-76608599D01*
X119178889Y-76693513D01*
X119397050Y-76715000D01*
X119542950Y-76715000D01*
X119761111Y-76693513D01*
X120041034Y-76608599D01*
X120299014Y-76470706D01*
X120525134Y-76285134D01*
X120710706Y-76059014D01*
X120848599Y-75801034D01*
X120933513Y-75521111D01*
X120962185Y-75230000D01*
X120933513Y-74938889D01*
X120848599Y-74658966D01*
X120710706Y-74400986D01*
X120525134Y-74174866D01*
X120299014Y-73989294D01*
X120234477Y-73954799D01*
X120351355Y-73885178D01*
X120567588Y-73690269D01*
X120741641Y-73456920D01*
X120866825Y-73194099D01*
X120911476Y-73046890D01*
X120790155Y-72817000D01*
X119597000Y-72817000D01*
X119597000Y-72837000D01*
X119343000Y-72837000D01*
X119343000Y-72817000D01*
X119323000Y-72817000D01*
X119323000Y-72563000D01*
X119343000Y-72563000D01*
X119343000Y-72543000D01*
X119597000Y-72543000D01*
X119597000Y-72563000D01*
X120790155Y-72563000D01*
X120911476Y-72333110D01*
X120866825Y-72185901D01*
X120741641Y-71923080D01*
X120567588Y-71689731D01*
X120351355Y-71494822D01*
X120234477Y-71425201D01*
X120299014Y-71390706D01*
X120525134Y-71205134D01*
X120710706Y-70979014D01*
X120848599Y-70721034D01*
X120933513Y-70441111D01*
X120962185Y-70150000D01*
X120933513Y-69858889D01*
X120848599Y-69578966D01*
X120710706Y-69320986D01*
X120525134Y-69094866D01*
X120299014Y-68909294D01*
X120244209Y-68880000D01*
X120299014Y-68850706D01*
X120525134Y-68665134D01*
X120710706Y-68439014D01*
X120848599Y-68181034D01*
X120933513Y-67901111D01*
X120962185Y-67610000D01*
X120933513Y-67318889D01*
X120848599Y-67038966D01*
X120710706Y-66780986D01*
X120525134Y-66554866D01*
X120299014Y-66369294D01*
X120244209Y-66340000D01*
X120299014Y-66310706D01*
X120525134Y-66125134D01*
X120705793Y-65905000D01*
X126724133Y-65905000D01*
X133065563Y-72246432D01*
X133091709Y-72278291D01*
X133218854Y-72382636D01*
X133363913Y-72460172D01*
X133521311Y-72507918D01*
X133643981Y-72520000D01*
X133643982Y-72520000D01*
X133685000Y-72524040D01*
X133726018Y-72520000D01*
X139361750Y-72520000D01*
X139315000Y-72566750D01*
X139326063Y-72668561D01*
X139337357Y-72703933D01*
X139326110Y-72741009D01*
X139320300Y-72800000D01*
X134976144Y-72800000D01*
X134935126Y-72795960D01*
X134771437Y-72812082D01*
X134614039Y-72859828D01*
X134468980Y-72937364D01*
X134392658Y-73000000D01*
X134341835Y-73041709D01*
X134315689Y-73073568D01*
X124438579Y-82950680D01*
X124406709Y-82976835D01*
X124323893Y-83077748D01*
X124302364Y-83103981D01*
X124224828Y-83249040D01*
X124177082Y-83406438D01*
X124160960Y-83570126D01*
X124165000Y-83611145D01*
X124165001Y-90588972D01*
X124160960Y-90630000D01*
X124177082Y-90793688D01*
X124224828Y-90951086D01*
X124283625Y-91061087D01*
X124302365Y-91096146D01*
X124406710Y-91223291D01*
X124438574Y-91249441D01*
X127063628Y-93874496D01*
X127015000Y-94118967D01*
X127015000Y-94441033D01*
X127077832Y-94756912D01*
X127201082Y-95054463D01*
X127380013Y-95322252D01*
X127607748Y-95549987D01*
X127875537Y-95728918D01*
X128173088Y-95852168D01*
X128488967Y-95915000D01*
X128811033Y-95915000D01*
X129126912Y-95852168D01*
X129424463Y-95728918D01*
X129692252Y-95549987D01*
X129919987Y-95322252D01*
X130098918Y-95054463D01*
X130222168Y-94756912D01*
X130285000Y-94441033D01*
X130285000Y-94118967D01*
X130222168Y-93803088D01*
X130098918Y-93505537D01*
X129919987Y-93237748D01*
X129692252Y-93010013D01*
X129692233Y-93010000D01*
X129692252Y-93009987D01*
X129919987Y-92782252D01*
X130098918Y-92514463D01*
X130222168Y-92216912D01*
X130285000Y-91901033D01*
X130285000Y-91578967D01*
X130222168Y-91263088D01*
X130098918Y-90965537D01*
X129919987Y-90697748D01*
X129692252Y-90470013D01*
X129692233Y-90470000D01*
X129692252Y-90469987D01*
X129919987Y-90242252D01*
X130098918Y-89974463D01*
X130222168Y-89676912D01*
X130285000Y-89361033D01*
X130285000Y-89038967D01*
X130222168Y-88723088D01*
X130098918Y-88425537D01*
X129919987Y-88157748D01*
X129692252Y-87930013D01*
X129692233Y-87930000D01*
X129692252Y-87929987D01*
X129919987Y-87702252D01*
X130098918Y-87434463D01*
X130222168Y-87136912D01*
X130285000Y-86821033D01*
X130285000Y-86498967D01*
X130222168Y-86183088D01*
X130098918Y-85885537D01*
X129919987Y-85617748D01*
X129692252Y-85390013D01*
X129692233Y-85390000D01*
X129692252Y-85389987D01*
X129919987Y-85162252D01*
X130098918Y-84894463D01*
X130222168Y-84596912D01*
X130285000Y-84281033D01*
X130285000Y-83958967D01*
X130236372Y-83714495D01*
X136880869Y-77070000D01*
X138788088Y-77070000D01*
X138783950Y-77112010D01*
X138787990Y-77153029D01*
X138787990Y-78480576D01*
X138698918Y-78265537D01*
X138519987Y-77997748D01*
X138292252Y-77770013D01*
X138024463Y-77591082D01*
X137726912Y-77467832D01*
X137411033Y-77405000D01*
X137088967Y-77405000D01*
X136773088Y-77467832D01*
X136475537Y-77591082D01*
X136207748Y-77770013D01*
X135980013Y-77997748D01*
X135801082Y-78265537D01*
X135677832Y-78563088D01*
X135615000Y-78878967D01*
X135615000Y-79201033D01*
X135677832Y-79516912D01*
X135801082Y-79814463D01*
X135980013Y-80082252D01*
X136207748Y-80309987D01*
X136207767Y-80310000D01*
X136207748Y-80310013D01*
X135980013Y-80537748D01*
X135801082Y-80805537D01*
X135677832Y-81103088D01*
X135615000Y-81418967D01*
X135615000Y-81741033D01*
X135677832Y-82056912D01*
X135801082Y-82354463D01*
X135980013Y-82622252D01*
X136207748Y-82849987D01*
X136207767Y-82850000D01*
X136207748Y-82850013D01*
X135980013Y-83077748D01*
X135801082Y-83345537D01*
X135677832Y-83643088D01*
X135615000Y-83958967D01*
X135615000Y-84281033D01*
X135677832Y-84596912D01*
X135801082Y-84894463D01*
X135980013Y-85162252D01*
X136207748Y-85389987D01*
X136207767Y-85390000D01*
X136207748Y-85390013D01*
X135980013Y-85617748D01*
X135801082Y-85885537D01*
X135677832Y-86183088D01*
X135615000Y-86498967D01*
X135615000Y-86821033D01*
X135677832Y-87136912D01*
X135801082Y-87434463D01*
X135980013Y-87702252D01*
X136207748Y-87929987D01*
X136207767Y-87930000D01*
X136207748Y-87930013D01*
X135980013Y-88157748D01*
X135801082Y-88425537D01*
X135677832Y-88723088D01*
X135615000Y-89038967D01*
X135615000Y-89361033D01*
X135677832Y-89676912D01*
X135801082Y-89974463D01*
X135980013Y-90242252D01*
X136207748Y-90469987D01*
X136207767Y-90470000D01*
X136207748Y-90470013D01*
X135980013Y-90697748D01*
X135801082Y-90965537D01*
X135677832Y-91263088D01*
X135615000Y-91578967D01*
X135615000Y-91901033D01*
X135677832Y-92216912D01*
X135801082Y-92514463D01*
X135980013Y-92782252D01*
X136207748Y-93009987D01*
X136207767Y-93010000D01*
X136207748Y-93010013D01*
X135980013Y-93237748D01*
X135801082Y-93505537D01*
X135677832Y-93803088D01*
X135615000Y-94118967D01*
X135615000Y-94441033D01*
X135677832Y-94756912D01*
X135801082Y-95054463D01*
X135980013Y-95322252D01*
X136207748Y-95549987D01*
X136475537Y-95728918D01*
X136773088Y-95852168D01*
X137088967Y-95915000D01*
X137411033Y-95915000D01*
X137726912Y-95852168D01*
X138024463Y-95728918D01*
X138292252Y-95549987D01*
X138519987Y-95322252D01*
X138698918Y-95054463D01*
X138822168Y-94756912D01*
X138885000Y-94441033D01*
X138885000Y-94118967D01*
X138822168Y-93803088D01*
X138698918Y-93505537D01*
X138519987Y-93237748D01*
X138292252Y-93010013D01*
X138292233Y-93010000D01*
X138292252Y-93009987D01*
X138519987Y-92782252D01*
X138698918Y-92514463D01*
X138822168Y-92216912D01*
X138885000Y-91901033D01*
X138885000Y-91578967D01*
X138822168Y-91263088D01*
X138698918Y-90965537D01*
X138519987Y-90697748D01*
X138292252Y-90470013D01*
X138292233Y-90470000D01*
X138292252Y-90469987D01*
X138519987Y-90242252D01*
X138698918Y-89974463D01*
X138822168Y-89676912D01*
X138885000Y-89361033D01*
X138885000Y-89038967D01*
X138822168Y-88723088D01*
X138698918Y-88425537D01*
X138519987Y-88157748D01*
X138292252Y-87930013D01*
X138292233Y-87930000D01*
X138292252Y-87929987D01*
X138519987Y-87702252D01*
X138698918Y-87434463D01*
X138822168Y-87136912D01*
X138885000Y-86821033D01*
X138885000Y-86498967D01*
X138822168Y-86183088D01*
X138698918Y-85885537D01*
X138519987Y-85617748D01*
X138292252Y-85390013D01*
X138292233Y-85390000D01*
X138292252Y-85389987D01*
X138519987Y-85162252D01*
X138698918Y-84894463D01*
X138786830Y-84682226D01*
X138800072Y-84816678D01*
X138847818Y-84974076D01*
X138914363Y-85098572D01*
X138925355Y-85119136D01*
X139029700Y-85246281D01*
X139061564Y-85272431D01*
X147663628Y-93874497D01*
X147615000Y-94118967D01*
X147615000Y-94441033D01*
X147677832Y-94756912D01*
X147801082Y-95054463D01*
X147980013Y-95322252D01*
X148207748Y-95549987D01*
X148475537Y-95728918D01*
X148773088Y-95852168D01*
X149088967Y-95915000D01*
X149411033Y-95915000D01*
X149726912Y-95852168D01*
X150024463Y-95728918D01*
X150292252Y-95549987D01*
X150519987Y-95322252D01*
X150698918Y-95054463D01*
X150822168Y-94756912D01*
X150885000Y-94441033D01*
X150885000Y-94118967D01*
X150822168Y-93803088D01*
X150698918Y-93505537D01*
X150519987Y-93237748D01*
X150292252Y-93010013D01*
X150292233Y-93010000D01*
X150292252Y-93009987D01*
X150519987Y-92782252D01*
X150698918Y-92514463D01*
X150822168Y-92216912D01*
X150885000Y-91901033D01*
X150885000Y-91578967D01*
X150822168Y-91263088D01*
X150698918Y-90965537D01*
X150519987Y-90697748D01*
X150292252Y-90470013D01*
X150292233Y-90470000D01*
X150292252Y-90469987D01*
X150519987Y-90242252D01*
X150698918Y-89974463D01*
X150822168Y-89676912D01*
X150885000Y-89361033D01*
X150885000Y-89038967D01*
X150822168Y-88723088D01*
X150698918Y-88425537D01*
X150519987Y-88157748D01*
X150292252Y-87930013D01*
X150292233Y-87930000D01*
X150292252Y-87929987D01*
X150519987Y-87702252D01*
X150698918Y-87434463D01*
X150822168Y-87136912D01*
X150885000Y-86821033D01*
X150885000Y-86498967D01*
X150822168Y-86183088D01*
X150698918Y-85885537D01*
X150519987Y-85617748D01*
X150292252Y-85390013D01*
X150292233Y-85390000D01*
X150292252Y-85389987D01*
X150519987Y-85162252D01*
X150698918Y-84894463D01*
X150822168Y-84596912D01*
X150885000Y-84281033D01*
X150885000Y-83958967D01*
X150822168Y-83643088D01*
X150698918Y-83345537D01*
X150519987Y-83077748D01*
X150292252Y-82850013D01*
X150085000Y-82711532D01*
X150085000Y-77520564D01*
X150125862Y-77561426D01*
X150152013Y-77593291D01*
X150186614Y-77621687D01*
X150279158Y-77697636D01*
X150424217Y-77775172D01*
X150581615Y-77822918D01*
X150745303Y-77839040D01*
X150786322Y-77835000D01*
X156742761Y-77835000D01*
X156580013Y-77997748D01*
X156401082Y-78265537D01*
X156277832Y-78563088D01*
X156215000Y-78878967D01*
X156215000Y-79201033D01*
X156277832Y-79516912D01*
X156401082Y-79814463D01*
X156580013Y-80082252D01*
X156807748Y-80309987D01*
X156807767Y-80310000D01*
X156807748Y-80310013D01*
X156580013Y-80537748D01*
X156401082Y-80805537D01*
X156277832Y-81103088D01*
X156215000Y-81418967D01*
X156215000Y-81741033D01*
X156277832Y-82056912D01*
X156401082Y-82354463D01*
X156580013Y-82622252D01*
X156807748Y-82849987D01*
X156807767Y-82850000D01*
X156807748Y-82850013D01*
X156580013Y-83077748D01*
X156401082Y-83345537D01*
X156277832Y-83643088D01*
X156215000Y-83958967D01*
X156215000Y-84281033D01*
X156277832Y-84596912D01*
X156401082Y-84894463D01*
X156580013Y-85162252D01*
X156807748Y-85389987D01*
X156807767Y-85390000D01*
X156807748Y-85390013D01*
X156580013Y-85617748D01*
X156401082Y-85885537D01*
X156277832Y-86183088D01*
X156215000Y-86498967D01*
X156215000Y-86821033D01*
X156277832Y-87136912D01*
X156401082Y-87434463D01*
X156580013Y-87702252D01*
X156807748Y-87929987D01*
X156807767Y-87930000D01*
X156807748Y-87930013D01*
X156580013Y-88157748D01*
X156401082Y-88425537D01*
X156277832Y-88723088D01*
X156215000Y-89038967D01*
X156215000Y-89361033D01*
X156277832Y-89676912D01*
X156401082Y-89974463D01*
X156580013Y-90242252D01*
X156807748Y-90469987D01*
X156807767Y-90470000D01*
X156807748Y-90470013D01*
X156580013Y-90697748D01*
X156401082Y-90965537D01*
X156277832Y-91263088D01*
X156215000Y-91578967D01*
X156215000Y-91901033D01*
X156277832Y-92216912D01*
X156401082Y-92514463D01*
X156580013Y-92782252D01*
X156807748Y-93009987D01*
X156807767Y-93010000D01*
X156807748Y-93010013D01*
X156580013Y-93237748D01*
X156401082Y-93505537D01*
X156277832Y-93803088D01*
X156215000Y-94118967D01*
X156215000Y-94441033D01*
X156277832Y-94756912D01*
X156401082Y-95054463D01*
X156580013Y-95322252D01*
X156807748Y-95549987D01*
X157075537Y-95728918D01*
X157373088Y-95852168D01*
X157688967Y-95915000D01*
X158011033Y-95915000D01*
X158326912Y-95852168D01*
X158624463Y-95728918D01*
X158892252Y-95549987D01*
X159119987Y-95322252D01*
X159298918Y-95054463D01*
X159422168Y-94756912D01*
X159485000Y-94441033D01*
X159485000Y-94118967D01*
X159422168Y-93803088D01*
X159298918Y-93505537D01*
X159119987Y-93237748D01*
X158892252Y-93010013D01*
X158892233Y-93010000D01*
X158892252Y-93009987D01*
X159119987Y-92782252D01*
X159298918Y-92514463D01*
X159422168Y-92216912D01*
X159485000Y-91901033D01*
X159485000Y-91578967D01*
X159422168Y-91263088D01*
X159298918Y-90965537D01*
X159119987Y-90697748D01*
X158892252Y-90470013D01*
X158892233Y-90470000D01*
X158892252Y-90469987D01*
X159119987Y-90242252D01*
X159298918Y-89974463D01*
X159422168Y-89676912D01*
X159485000Y-89361033D01*
X159485000Y-89038967D01*
X159422168Y-88723088D01*
X159298918Y-88425537D01*
X159119987Y-88157748D01*
X158892252Y-87930013D01*
X158892233Y-87930000D01*
X158892252Y-87929987D01*
X159119987Y-87702252D01*
X159298918Y-87434463D01*
X159422168Y-87136912D01*
X159485000Y-86821033D01*
X159485000Y-86498967D01*
X159422168Y-86183088D01*
X159298918Y-85885537D01*
X159119987Y-85617748D01*
X158892252Y-85390013D01*
X158892233Y-85390000D01*
X158892252Y-85389987D01*
X159119987Y-85162252D01*
X159298918Y-84894463D01*
X159300030Y-84891778D01*
X159301465Y-84894463D01*
X159302365Y-84896146D01*
X159406710Y-85023291D01*
X159438574Y-85049441D01*
X168263628Y-93874497D01*
X168215000Y-94118967D01*
X168215000Y-94441033D01*
X168277832Y-94756912D01*
X168401082Y-95054463D01*
X168580013Y-95322252D01*
X168807748Y-95549987D01*
X169075537Y-95728918D01*
X169373088Y-95852168D01*
X169688967Y-95915000D01*
X170011033Y-95915000D01*
X170326912Y-95852168D01*
X170624463Y-95728918D01*
X170892252Y-95549987D01*
X171119987Y-95322252D01*
X171298918Y-95054463D01*
X171422168Y-94756912D01*
X171485000Y-94441033D01*
X171485000Y-94118967D01*
X171422168Y-93803088D01*
X171298918Y-93505537D01*
X171119987Y-93237748D01*
X170892252Y-93010013D01*
X170892233Y-93010000D01*
X170892252Y-93009987D01*
X171119987Y-92782252D01*
X171298918Y-92514463D01*
X171422168Y-92216912D01*
X171485000Y-91901033D01*
X171485000Y-91578967D01*
X171422168Y-91263088D01*
X171298918Y-90965537D01*
X171119987Y-90697748D01*
X170892252Y-90470013D01*
X170892233Y-90470000D01*
X170892252Y-90469987D01*
X171119987Y-90242252D01*
X171298918Y-89974463D01*
X171422168Y-89676912D01*
X171485000Y-89361033D01*
X171485000Y-89038967D01*
X171422168Y-88723088D01*
X171298918Y-88425537D01*
X171119987Y-88157748D01*
X170892252Y-87930013D01*
X170892233Y-87930000D01*
X170892252Y-87929987D01*
X171119987Y-87702252D01*
X171298918Y-87434463D01*
X171422168Y-87136912D01*
X171485000Y-86821033D01*
X171485000Y-86498967D01*
X171422168Y-86183088D01*
X171298918Y-85885537D01*
X171119987Y-85617748D01*
X170892252Y-85390013D01*
X170892233Y-85390000D01*
X170892252Y-85389987D01*
X171119987Y-85162252D01*
X171298918Y-84894463D01*
X171422168Y-84596912D01*
X171485000Y-84281033D01*
X171485000Y-83958967D01*
X171422168Y-83643088D01*
X171298918Y-83345537D01*
X171119987Y-83077748D01*
X170892252Y-82850013D01*
X170624463Y-82671082D01*
X170326912Y-82547832D01*
X170011033Y-82485000D01*
X169688967Y-82485000D01*
X169373088Y-82547832D01*
X169075537Y-82671082D01*
X168807748Y-82850013D01*
X168580013Y-83077748D01*
X168451279Y-83270411D01*
X161892019Y-76711152D01*
X162071111Y-76693513D01*
X162351034Y-76608599D01*
X162609014Y-76470706D01*
X162835134Y-76285134D01*
X163020706Y-76059014D01*
X163050000Y-76004209D01*
X163079294Y-76059014D01*
X163264866Y-76285134D01*
X163490986Y-76470706D01*
X163748966Y-76608599D01*
X164028889Y-76693513D01*
X164247050Y-76715000D01*
X164392950Y-76715000D01*
X164611111Y-76693513D01*
X164891034Y-76608599D01*
X165149014Y-76470706D01*
X165375134Y-76285134D01*
X165560706Y-76059014D01*
X165698599Y-75801034D01*
X165783513Y-75521111D01*
X165812185Y-75230000D01*
X165783513Y-74938889D01*
X165698599Y-74658966D01*
X165560706Y-74400986D01*
X165375134Y-74174866D01*
X165149014Y-73989294D01*
X165094209Y-73960000D01*
X165149014Y-73930706D01*
X165375134Y-73745134D01*
X165560706Y-73519014D01*
X165698599Y-73261034D01*
X165783513Y-72981111D01*
X165812185Y-72690000D01*
X165783513Y-72398889D01*
X165698599Y-72118966D01*
X165560706Y-71860986D01*
X165375134Y-71634866D01*
X165149014Y-71449294D01*
X165094209Y-71420000D01*
X165149014Y-71390706D01*
X165375134Y-71205134D01*
X165560706Y-70979014D01*
X165698599Y-70721034D01*
X165783513Y-70441111D01*
X165812185Y-70150000D01*
X165783513Y-69858889D01*
X165698599Y-69578966D01*
X165560706Y-69320986D01*
X165375134Y-69094866D01*
X165149014Y-68909294D01*
X165094209Y-68880000D01*
X165149014Y-68850706D01*
X165375134Y-68665134D01*
X165560706Y-68439014D01*
X165698599Y-68181034D01*
X165783513Y-67901111D01*
X165812185Y-67610000D01*
X165783513Y-67318889D01*
X165698599Y-67038966D01*
X165560706Y-66780986D01*
X165375134Y-66554866D01*
X165149014Y-66369294D01*
X165094209Y-66340000D01*
X165149014Y-66310706D01*
X165375134Y-66125134D01*
X165560706Y-65899014D01*
X165698599Y-65641034D01*
X165783513Y-65361111D01*
X165812185Y-65070000D01*
X165783513Y-64778889D01*
X165698599Y-64498966D01*
X165560706Y-64240986D01*
X165375134Y-64014866D01*
X165149014Y-63829294D01*
X165094209Y-63800000D01*
X165149014Y-63770706D01*
X165375134Y-63585134D01*
X165560706Y-63359014D01*
X165698599Y-63101034D01*
X165783513Y-62821111D01*
X165812185Y-62530000D01*
X165783513Y-62238889D01*
X165698599Y-61958966D01*
X165560706Y-61700986D01*
X165375134Y-61474866D01*
X165149014Y-61289294D01*
X164953893Y-61185000D01*
X171565001Y-61185000D01*
X171565000Y-103565000D01*
X111435000Y-103565000D01*
X111435000Y-78878967D01*
X115015000Y-78878967D01*
X115015000Y-79201033D01*
X115077832Y-79516912D01*
X115201082Y-79814463D01*
X115380013Y-80082252D01*
X115607748Y-80309987D01*
X115607767Y-80310000D01*
X115607748Y-80310013D01*
X115380013Y-80537748D01*
X115201082Y-80805537D01*
X115077832Y-81103088D01*
X115015000Y-81418967D01*
X115015000Y-81741033D01*
X115077832Y-82056912D01*
X115201082Y-82354463D01*
X115380013Y-82622252D01*
X115607748Y-82849987D01*
X115607767Y-82850000D01*
X115607748Y-82850013D01*
X115380013Y-83077748D01*
X115201082Y-83345537D01*
X115077832Y-83643088D01*
X115015000Y-83958967D01*
X115015000Y-84281033D01*
X115077832Y-84596912D01*
X115201082Y-84894463D01*
X115380013Y-85162252D01*
X115607748Y-85389987D01*
X115607767Y-85390000D01*
X115607748Y-85390013D01*
X115380013Y-85617748D01*
X115201082Y-85885537D01*
X115077832Y-86183088D01*
X115015000Y-86498967D01*
X115015000Y-86821033D01*
X115077832Y-87136912D01*
X115201082Y-87434463D01*
X115380013Y-87702252D01*
X115607748Y-87929987D01*
X115607767Y-87930000D01*
X115607748Y-87930013D01*
X115380013Y-88157748D01*
X115201082Y-88425537D01*
X115077832Y-88723088D01*
X115015000Y-89038967D01*
X115015000Y-89361033D01*
X115077832Y-89676912D01*
X115201082Y-89974463D01*
X115380013Y-90242252D01*
X115607748Y-90469987D01*
X115607767Y-90470000D01*
X115607748Y-90470013D01*
X115380013Y-90697748D01*
X115201082Y-90965537D01*
X115077832Y-91263088D01*
X115015000Y-91578967D01*
X115015000Y-91901033D01*
X115077832Y-92216912D01*
X115201082Y-92514463D01*
X115380013Y-92782252D01*
X115607748Y-93009987D01*
X115607767Y-93010000D01*
X115607748Y-93010013D01*
X115380013Y-93237748D01*
X115201082Y-93505537D01*
X115077832Y-93803088D01*
X115015000Y-94118967D01*
X115015000Y-94441033D01*
X115077832Y-94756912D01*
X115201082Y-95054463D01*
X115380013Y-95322252D01*
X115607748Y-95549987D01*
X115875537Y-95728918D01*
X116173088Y-95852168D01*
X116488967Y-95915000D01*
X116811033Y-95915000D01*
X117126912Y-95852168D01*
X117424463Y-95728918D01*
X117692252Y-95549987D01*
X117919987Y-95322252D01*
X118098918Y-95054463D01*
X118222168Y-94756912D01*
X118285000Y-94441033D01*
X118285000Y-94118967D01*
X118222168Y-93803088D01*
X118098918Y-93505537D01*
X117919987Y-93237748D01*
X117692252Y-93010013D01*
X117692233Y-93010000D01*
X117692252Y-93009987D01*
X117919987Y-92782252D01*
X118098918Y-92514463D01*
X118222168Y-92216912D01*
X118285000Y-91901033D01*
X118285000Y-91578967D01*
X118222168Y-91263088D01*
X118098918Y-90965537D01*
X117919987Y-90697748D01*
X117692252Y-90470013D01*
X117692233Y-90470000D01*
X117692252Y-90469987D01*
X117919987Y-90242252D01*
X118098918Y-89974463D01*
X118222168Y-89676912D01*
X118285000Y-89361033D01*
X118285000Y-89038967D01*
X118222168Y-88723088D01*
X118098918Y-88425537D01*
X117919987Y-88157748D01*
X117692252Y-87930013D01*
X117692233Y-87930000D01*
X117692252Y-87929987D01*
X117919987Y-87702252D01*
X118098918Y-87434463D01*
X118222168Y-87136912D01*
X118285000Y-86821033D01*
X118285000Y-86498967D01*
X118222168Y-86183088D01*
X118098918Y-85885537D01*
X117919987Y-85617748D01*
X117692252Y-85390013D01*
X117692233Y-85390000D01*
X117692252Y-85389987D01*
X117919987Y-85162252D01*
X118098918Y-84894463D01*
X118222168Y-84596912D01*
X118285000Y-84281033D01*
X118285000Y-83958967D01*
X118222168Y-83643088D01*
X118098918Y-83345537D01*
X117919987Y-83077748D01*
X117692252Y-82850013D01*
X117692233Y-82850000D01*
X117692252Y-82849987D01*
X117919987Y-82622252D01*
X118098918Y-82354463D01*
X118222168Y-82056912D01*
X118285000Y-81741033D01*
X118285000Y-81418967D01*
X118222168Y-81103088D01*
X118098918Y-80805537D01*
X117919987Y-80537748D01*
X117692252Y-80310013D01*
X117692233Y-80310000D01*
X117692252Y-80309987D01*
X117919987Y-80082252D01*
X118098918Y-79814463D01*
X118222168Y-79516912D01*
X118285000Y-79201033D01*
X118285000Y-78878967D01*
X118222168Y-78563088D01*
X118098918Y-78265537D01*
X117919987Y-77997748D01*
X117692252Y-77770013D01*
X117424463Y-77591082D01*
X117126912Y-77467832D01*
X116811033Y-77405000D01*
X116488967Y-77405000D01*
X116173088Y-77467832D01*
X115875537Y-77591082D01*
X115607748Y-77770013D01*
X115380013Y-77997748D01*
X115201082Y-78265537D01*
X115077832Y-78563088D01*
X115015000Y-78878967D01*
X111435000Y-78878967D01*
X111435000Y-61185000D01*
X116296107Y-61185000D01*
X116100986Y-61289294D01*
X116100986Y-61289294D01*
G37*
X116100986Y-61289294D02*
X115874866Y-61474866D01*
X115689294Y-61700986D01*
X115551401Y-61958966D01*
X115466487Y-62238889D01*
X115437815Y-62530000D01*
X115466487Y-62821111D01*
X115551401Y-63101034D01*
X115689294Y-63359014D01*
X115874866Y-63585134D01*
X116100986Y-63770706D01*
X116155791Y-63800000D01*
X116100986Y-63829294D01*
X115874866Y-64014866D01*
X115689294Y-64240986D01*
X115551401Y-64498966D01*
X115466487Y-64778889D01*
X115437815Y-65070000D01*
X115466487Y-65361111D01*
X115551401Y-65641034D01*
X115689294Y-65899014D01*
X115874866Y-66125134D01*
X116100986Y-66310706D01*
X116155791Y-66340000D01*
X116100986Y-66369294D01*
X115874866Y-66554866D01*
X115689294Y-66780986D01*
X115551401Y-67038966D01*
X115466487Y-67318889D01*
X115437815Y-67610000D01*
X115466487Y-67901111D01*
X115551401Y-68181034D01*
X115689294Y-68439014D01*
X115874866Y-68665134D01*
X116100986Y-68850706D01*
X116155791Y-68880000D01*
X116100986Y-68909294D01*
X115874866Y-69094866D01*
X115689294Y-69320986D01*
X115551401Y-69578966D01*
X115466487Y-69858889D01*
X115437815Y-70150000D01*
X115466487Y-70441111D01*
X115551401Y-70721034D01*
X115689294Y-70979014D01*
X115874866Y-71205134D01*
X116100986Y-71390706D01*
X116155791Y-71420000D01*
X116100986Y-71449294D01*
X115874866Y-71634866D01*
X115689294Y-71860986D01*
X115551401Y-72118966D01*
X115466487Y-72398889D01*
X115437815Y-72690000D01*
X115466487Y-72981111D01*
X115551401Y-73261034D01*
X115689294Y-73519014D01*
X115874866Y-73745134D01*
X116100986Y-73930706D01*
X116155791Y-73960000D01*
X116100986Y-73989294D01*
X115874866Y-74174866D01*
X115689294Y-74400986D01*
X115551401Y-74658966D01*
X115466487Y-74938889D01*
X115437815Y-75230000D01*
X115466487Y-75521111D01*
X115551401Y-75801034D01*
X115689294Y-76059014D01*
X115874866Y-76285134D01*
X116100986Y-76470706D01*
X116358966Y-76608599D01*
X116638889Y-76693513D01*
X116857050Y-76715000D01*
X117002950Y-76715000D01*
X117221111Y-76693513D01*
X117501034Y-76608599D01*
X117759014Y-76470706D01*
X117985134Y-76285134D01*
X118170706Y-76059014D01*
X118200000Y-76004209D01*
X118229294Y-76059014D01*
X118414866Y-76285134D01*
X118640986Y-76470706D01*
X118898966Y-76608599D01*
X119178889Y-76693513D01*
X119397050Y-76715000D01*
X119542950Y-76715000D01*
X119761111Y-76693513D01*
X120041034Y-76608599D01*
X120299014Y-76470706D01*
X120525134Y-76285134D01*
X120710706Y-76059014D01*
X120848599Y-75801034D01*
X120933513Y-75521111D01*
X120962185Y-75230000D01*
X120933513Y-74938889D01*
X120848599Y-74658966D01*
X120710706Y-74400986D01*
X120525134Y-74174866D01*
X120299014Y-73989294D01*
X120234477Y-73954799D01*
X120351355Y-73885178D01*
X120567588Y-73690269D01*
X120741641Y-73456920D01*
X120866825Y-73194099D01*
X120911476Y-73046890D01*
X120790155Y-72817000D01*
X119597000Y-72817000D01*
X119597000Y-72837000D01*
X119343000Y-72837000D01*
X119343000Y-72817000D01*
X119323000Y-72817000D01*
X119323000Y-72563000D01*
X119343000Y-72563000D01*
X119343000Y-72543000D01*
X119597000Y-72543000D01*
X119597000Y-72563000D01*
X120790155Y-72563000D01*
X120911476Y-72333110D01*
X120866825Y-72185901D01*
X120741641Y-71923080D01*
X120567588Y-71689731D01*
X120351355Y-71494822D01*
X120234477Y-71425201D01*
X120299014Y-71390706D01*
X120525134Y-71205134D01*
X120710706Y-70979014D01*
X120848599Y-70721034D01*
X120933513Y-70441111D01*
X120962185Y-70150000D01*
X120933513Y-69858889D01*
X120848599Y-69578966D01*
X120710706Y-69320986D01*
X120525134Y-69094866D01*
X120299014Y-68909294D01*
X120244209Y-68880000D01*
X120299014Y-68850706D01*
X120525134Y-68665134D01*
X120710706Y-68439014D01*
X120848599Y-68181034D01*
X120933513Y-67901111D01*
X120962185Y-67610000D01*
X120933513Y-67318889D01*
X120848599Y-67038966D01*
X120710706Y-66780986D01*
X120525134Y-66554866D01*
X120299014Y-66369294D01*
X120244209Y-66340000D01*
X120299014Y-66310706D01*
X120525134Y-66125134D01*
X120705793Y-65905000D01*
X126724133Y-65905000D01*
X133065563Y-72246432D01*
X133091709Y-72278291D01*
X133218854Y-72382636D01*
X133363913Y-72460172D01*
X133521311Y-72507918D01*
X133643981Y-72520000D01*
X133643982Y-72520000D01*
X133685000Y-72524040D01*
X133726018Y-72520000D01*
X139361750Y-72520000D01*
X139315000Y-72566750D01*
X139326063Y-72668561D01*
X139337357Y-72703933D01*
X139326110Y-72741009D01*
X139320300Y-72800000D01*
X134976144Y-72800000D01*
X134935126Y-72795960D01*
X134771437Y-72812082D01*
X134614039Y-72859828D01*
X134468980Y-72937364D01*
X134392658Y-73000000D01*
X134341835Y-73041709D01*
X134315689Y-73073568D01*
X124438579Y-82950680D01*
X124406709Y-82976835D01*
X124323893Y-83077748D01*
X124302364Y-83103981D01*
X124224828Y-83249040D01*
X124177082Y-83406438D01*
X124160960Y-83570126D01*
X124165000Y-83611145D01*
X124165001Y-90588972D01*
X124160960Y-90630000D01*
X124177082Y-90793688D01*
X124224828Y-90951086D01*
X124283625Y-91061087D01*
X124302365Y-91096146D01*
X124406710Y-91223291D01*
X124438574Y-91249441D01*
X127063628Y-93874496D01*
X127015000Y-94118967D01*
X127015000Y-94441033D01*
X127077832Y-94756912D01*
X127201082Y-95054463D01*
X127380013Y-95322252D01*
X127607748Y-95549987D01*
X127875537Y-95728918D01*
X128173088Y-95852168D01*
X128488967Y-95915000D01*
X128811033Y-95915000D01*
X129126912Y-95852168D01*
X129424463Y-95728918D01*
X129692252Y-95549987D01*
X129919987Y-95322252D01*
X130098918Y-95054463D01*
X130222168Y-94756912D01*
X130285000Y-94441033D01*
X130285000Y-94118967D01*
X130222168Y-93803088D01*
X130098918Y-93505537D01*
X129919987Y-93237748D01*
X129692252Y-93010013D01*
X129692233Y-93010000D01*
X129692252Y-93009987D01*
X129919987Y-92782252D01*
X130098918Y-92514463D01*
X130222168Y-92216912D01*
X130285000Y-91901033D01*
X130285000Y-91578967D01*
X130222168Y-91263088D01*
X130098918Y-90965537D01*
X129919987Y-90697748D01*
X129692252Y-90470013D01*
X129692233Y-90470000D01*
X129692252Y-90469987D01*
X129919987Y-90242252D01*
X130098918Y-89974463D01*
X130222168Y-89676912D01*
X130285000Y-89361033D01*
X130285000Y-89038967D01*
X130222168Y-88723088D01*
X130098918Y-88425537D01*
X129919987Y-88157748D01*
X129692252Y-87930013D01*
X129692233Y-87930000D01*
X129692252Y-87929987D01*
X129919987Y-87702252D01*
X130098918Y-87434463D01*
X130222168Y-87136912D01*
X130285000Y-86821033D01*
X130285000Y-86498967D01*
X130222168Y-86183088D01*
X130098918Y-85885537D01*
X129919987Y-85617748D01*
X129692252Y-85390013D01*
X129692233Y-85390000D01*
X129692252Y-85389987D01*
X129919987Y-85162252D01*
X130098918Y-84894463D01*
X130222168Y-84596912D01*
X130285000Y-84281033D01*
X130285000Y-83958967D01*
X130236372Y-83714495D01*
X136880869Y-77070000D01*
X138788088Y-77070000D01*
X138783950Y-77112010D01*
X138787990Y-77153029D01*
X138787990Y-78480576D01*
X138698918Y-78265537D01*
X138519987Y-77997748D01*
X138292252Y-77770013D01*
X138024463Y-77591082D01*
X137726912Y-77467832D01*
X137411033Y-77405000D01*
X137088967Y-77405000D01*
X136773088Y-77467832D01*
X136475537Y-77591082D01*
X136207748Y-77770013D01*
X135980013Y-77997748D01*
X135801082Y-78265537D01*
X135677832Y-78563088D01*
X135615000Y-78878967D01*
X135615000Y-79201033D01*
X135677832Y-79516912D01*
X135801082Y-79814463D01*
X135980013Y-80082252D01*
X136207748Y-80309987D01*
X136207767Y-80310000D01*
X136207748Y-80310013D01*
X135980013Y-80537748D01*
X135801082Y-80805537D01*
X135677832Y-81103088D01*
X135615000Y-81418967D01*
X135615000Y-81741033D01*
X135677832Y-82056912D01*
X135801082Y-82354463D01*
X135980013Y-82622252D01*
X136207748Y-82849987D01*
X136207767Y-82850000D01*
X136207748Y-82850013D01*
X135980013Y-83077748D01*
X135801082Y-83345537D01*
X135677832Y-83643088D01*
X135615000Y-83958967D01*
X135615000Y-84281033D01*
X135677832Y-84596912D01*
X135801082Y-84894463D01*
X135980013Y-85162252D01*
X136207748Y-85389987D01*
X136207767Y-85390000D01*
X136207748Y-85390013D01*
X135980013Y-85617748D01*
X135801082Y-85885537D01*
X135677832Y-86183088D01*
X135615000Y-86498967D01*
X135615000Y-86821033D01*
X135677832Y-87136912D01*
X135801082Y-87434463D01*
X135980013Y-87702252D01*
X136207748Y-87929987D01*
X136207767Y-87930000D01*
X136207748Y-87930013D01*
X135980013Y-88157748D01*
X135801082Y-88425537D01*
X135677832Y-88723088D01*
X135615000Y-89038967D01*
X135615000Y-89361033D01*
X135677832Y-89676912D01*
X135801082Y-89974463D01*
X135980013Y-90242252D01*
X136207748Y-90469987D01*
X136207767Y-90470000D01*
X136207748Y-90470013D01*
X135980013Y-90697748D01*
X135801082Y-90965537D01*
X135677832Y-91263088D01*
X135615000Y-91578967D01*
X135615000Y-91901033D01*
X135677832Y-92216912D01*
X135801082Y-92514463D01*
X135980013Y-92782252D01*
X136207748Y-93009987D01*
X136207767Y-93010000D01*
X136207748Y-93010013D01*
X135980013Y-93237748D01*
X135801082Y-93505537D01*
X135677832Y-93803088D01*
X135615000Y-94118967D01*
X135615000Y-94441033D01*
X135677832Y-94756912D01*
X135801082Y-95054463D01*
X135980013Y-95322252D01*
X136207748Y-95549987D01*
X136475537Y-95728918D01*
X136773088Y-95852168D01*
X137088967Y-95915000D01*
X137411033Y-95915000D01*
X137726912Y-95852168D01*
X138024463Y-95728918D01*
X138292252Y-95549987D01*
X138519987Y-95322252D01*
X138698918Y-95054463D01*
X138822168Y-94756912D01*
X138885000Y-94441033D01*
X138885000Y-94118967D01*
X138822168Y-93803088D01*
X138698918Y-93505537D01*
X138519987Y-93237748D01*
X138292252Y-93010013D01*
X138292233Y-93010000D01*
X138292252Y-93009987D01*
X138519987Y-92782252D01*
X138698918Y-92514463D01*
X138822168Y-92216912D01*
X138885000Y-91901033D01*
X138885000Y-91578967D01*
X138822168Y-91263088D01*
X138698918Y-90965537D01*
X138519987Y-90697748D01*
X138292252Y-90470013D01*
X138292233Y-90470000D01*
X138292252Y-90469987D01*
X138519987Y-90242252D01*
X138698918Y-89974463D01*
X138822168Y-89676912D01*
X138885000Y-89361033D01*
X138885000Y-89038967D01*
X138822168Y-88723088D01*
X138698918Y-88425537D01*
X138519987Y-88157748D01*
X138292252Y-87930013D01*
X138292233Y-87930000D01*
X138292252Y-87929987D01*
X138519987Y-87702252D01*
X138698918Y-87434463D01*
X138822168Y-87136912D01*
X138885000Y-86821033D01*
X138885000Y-86498967D01*
X138822168Y-86183088D01*
X138698918Y-85885537D01*
X138519987Y-85617748D01*
X138292252Y-85390013D01*
X138292233Y-85390000D01*
X138292252Y-85389987D01*
X138519987Y-85162252D01*
X138698918Y-84894463D01*
X138786830Y-84682226D01*
X138800072Y-84816678D01*
X138847818Y-84974076D01*
X138914363Y-85098572D01*
X138925355Y-85119136D01*
X139029700Y-85246281D01*
X139061564Y-85272431D01*
X147663628Y-93874497D01*
X147615000Y-94118967D01*
X147615000Y-94441033D01*
X147677832Y-94756912D01*
X147801082Y-95054463D01*
X147980013Y-95322252D01*
X148207748Y-95549987D01*
X148475537Y-95728918D01*
X148773088Y-95852168D01*
X149088967Y-95915000D01*
X149411033Y-95915000D01*
X149726912Y-95852168D01*
X150024463Y-95728918D01*
X150292252Y-95549987D01*
X150519987Y-95322252D01*
X150698918Y-95054463D01*
X150822168Y-94756912D01*
X150885000Y-94441033D01*
X150885000Y-94118967D01*
X150822168Y-93803088D01*
X150698918Y-93505537D01*
X150519987Y-93237748D01*
X150292252Y-93010013D01*
X150292233Y-93010000D01*
X150292252Y-93009987D01*
X150519987Y-92782252D01*
X150698918Y-92514463D01*
X150822168Y-92216912D01*
X150885000Y-91901033D01*
X150885000Y-91578967D01*
X150822168Y-91263088D01*
X150698918Y-90965537D01*
X150519987Y-90697748D01*
X150292252Y-90470013D01*
X150292233Y-90470000D01*
X150292252Y-90469987D01*
X150519987Y-90242252D01*
X150698918Y-89974463D01*
X150822168Y-89676912D01*
X150885000Y-89361033D01*
X150885000Y-89038967D01*
X150822168Y-88723088D01*
X150698918Y-88425537D01*
X150519987Y-88157748D01*
X150292252Y-87930013D01*
X150292233Y-87930000D01*
X150292252Y-87929987D01*
X150519987Y-87702252D01*
X150698918Y-87434463D01*
X150822168Y-87136912D01*
X150885000Y-86821033D01*
X150885000Y-86498967D01*
X150822168Y-86183088D01*
X150698918Y-85885537D01*
X150519987Y-85617748D01*
X150292252Y-85390013D01*
X150292233Y-85390000D01*
X150292252Y-85389987D01*
X150519987Y-85162252D01*
X150698918Y-84894463D01*
X150822168Y-84596912D01*
X150885000Y-84281033D01*
X150885000Y-83958967D01*
X150822168Y-83643088D01*
X150698918Y-83345537D01*
X150519987Y-83077748D01*
X150292252Y-82850013D01*
X150085000Y-82711532D01*
X150085000Y-77520564D01*
X150125862Y-77561426D01*
X150152013Y-77593291D01*
X150186614Y-77621687D01*
X150279158Y-77697636D01*
X150424217Y-77775172D01*
X150581615Y-77822918D01*
X150745303Y-77839040D01*
X150786322Y-77835000D01*
X156742761Y-77835000D01*
X156580013Y-77997748D01*
X156401082Y-78265537D01*
X156277832Y-78563088D01*
X156215000Y-78878967D01*
X156215000Y-79201033D01*
X156277832Y-79516912D01*
X156401082Y-79814463D01*
X156580013Y-80082252D01*
X156807748Y-80309987D01*
X156807767Y-80310000D01*
X156807748Y-80310013D01*
X156580013Y-80537748D01*
X156401082Y-80805537D01*
X156277832Y-81103088D01*
X156215000Y-81418967D01*
X156215000Y-81741033D01*
X156277832Y-82056912D01*
X156401082Y-82354463D01*
X156580013Y-82622252D01*
X156807748Y-82849987D01*
X156807767Y-82850000D01*
X156807748Y-82850013D01*
X156580013Y-83077748D01*
X156401082Y-83345537D01*
X156277832Y-83643088D01*
X156215000Y-83958967D01*
X156215000Y-84281033D01*
X156277832Y-84596912D01*
X156401082Y-84894463D01*
X156580013Y-85162252D01*
X156807748Y-85389987D01*
X156807767Y-85390000D01*
X156807748Y-85390013D01*
X156580013Y-85617748D01*
X156401082Y-85885537D01*
X156277832Y-86183088D01*
X156215000Y-86498967D01*
X156215000Y-86821033D01*
X156277832Y-87136912D01*
X156401082Y-87434463D01*
X156580013Y-87702252D01*
X156807748Y-87929987D01*
X156807767Y-87930000D01*
X156807748Y-87930013D01*
X156580013Y-88157748D01*
X156401082Y-88425537D01*
X156277832Y-88723088D01*
X156215000Y-89038967D01*
X156215000Y-89361033D01*
X156277832Y-89676912D01*
X156401082Y-89974463D01*
X156580013Y-90242252D01*
X156807748Y-90469987D01*
X156807767Y-90470000D01*
X156807748Y-90470013D01*
X156580013Y-90697748D01*
X156401082Y-90965537D01*
X156277832Y-91263088D01*
X156215000Y-91578967D01*
X156215000Y-91901033D01*
X156277832Y-92216912D01*
X156401082Y-92514463D01*
X156580013Y-92782252D01*
X156807748Y-93009987D01*
X156807767Y-93010000D01*
X156807748Y-93010013D01*
X156580013Y-93237748D01*
X156401082Y-93505537D01*
X156277832Y-93803088D01*
X156215000Y-94118967D01*
X156215000Y-94441033D01*
X156277832Y-94756912D01*
X156401082Y-95054463D01*
X156580013Y-95322252D01*
X156807748Y-95549987D01*
X157075537Y-95728918D01*
X157373088Y-95852168D01*
X157688967Y-95915000D01*
X158011033Y-95915000D01*
X158326912Y-95852168D01*
X158624463Y-95728918D01*
X158892252Y-95549987D01*
X159119987Y-95322252D01*
X159298918Y-95054463D01*
X159422168Y-94756912D01*
X159485000Y-94441033D01*
X159485000Y-94118967D01*
X159422168Y-93803088D01*
X159298918Y-93505537D01*
X159119987Y-93237748D01*
X158892252Y-93010013D01*
X158892233Y-93010000D01*
X158892252Y-93009987D01*
X159119987Y-92782252D01*
X159298918Y-92514463D01*
X159422168Y-92216912D01*
X159485000Y-91901033D01*
X159485000Y-91578967D01*
X159422168Y-91263088D01*
X159298918Y-90965537D01*
X159119987Y-90697748D01*
X158892252Y-90470013D01*
X158892233Y-90470000D01*
X158892252Y-90469987D01*
X159119987Y-90242252D01*
X159298918Y-89974463D01*
X159422168Y-89676912D01*
X159485000Y-89361033D01*
X159485000Y-89038967D01*
X159422168Y-88723088D01*
X159298918Y-88425537D01*
X159119987Y-88157748D01*
X158892252Y-87930013D01*
X158892233Y-87930000D01*
X158892252Y-87929987D01*
X159119987Y-87702252D01*
X159298918Y-87434463D01*
X159422168Y-87136912D01*
X159485000Y-86821033D01*
X159485000Y-86498967D01*
X159422168Y-86183088D01*
X159298918Y-85885537D01*
X159119987Y-85617748D01*
X158892252Y-85390013D01*
X158892233Y-85390000D01*
X158892252Y-85389987D01*
X159119987Y-85162252D01*
X159298918Y-84894463D01*
X159300030Y-84891778D01*
X159301465Y-84894463D01*
X159302365Y-84896146D01*
X159406710Y-85023291D01*
X159438574Y-85049441D01*
X168263628Y-93874497D01*
X168215000Y-94118967D01*
X168215000Y-94441033D01*
X168277832Y-94756912D01*
X168401082Y-95054463D01*
X168580013Y-95322252D01*
X168807748Y-95549987D01*
X169075537Y-95728918D01*
X169373088Y-95852168D01*
X169688967Y-95915000D01*
X170011033Y-95915000D01*
X170326912Y-95852168D01*
X170624463Y-95728918D01*
X170892252Y-95549987D01*
X171119987Y-95322252D01*
X171298918Y-95054463D01*
X171422168Y-94756912D01*
X171485000Y-94441033D01*
X171485000Y-94118967D01*
X171422168Y-93803088D01*
X171298918Y-93505537D01*
X171119987Y-93237748D01*
X170892252Y-93010013D01*
X170892233Y-93010000D01*
X170892252Y-93009987D01*
X171119987Y-92782252D01*
X171298918Y-92514463D01*
X171422168Y-92216912D01*
X171485000Y-91901033D01*
X171485000Y-91578967D01*
X171422168Y-91263088D01*
X171298918Y-90965537D01*
X171119987Y-90697748D01*
X170892252Y-90470013D01*
X170892233Y-90470000D01*
X170892252Y-90469987D01*
X171119987Y-90242252D01*
X171298918Y-89974463D01*
X171422168Y-89676912D01*
X171485000Y-89361033D01*
X171485000Y-89038967D01*
X171422168Y-88723088D01*
X171298918Y-88425537D01*
X171119987Y-88157748D01*
X170892252Y-87930013D01*
X170892233Y-87930000D01*
X170892252Y-87929987D01*
X171119987Y-87702252D01*
X171298918Y-87434463D01*
X171422168Y-87136912D01*
X171485000Y-86821033D01*
X171485000Y-86498967D01*
X171422168Y-86183088D01*
X171298918Y-85885537D01*
X171119987Y-85617748D01*
X170892252Y-85390013D01*
X170892233Y-85390000D01*
X170892252Y-85389987D01*
X171119987Y-85162252D01*
X171298918Y-84894463D01*
X171422168Y-84596912D01*
X171485000Y-84281033D01*
X171485000Y-83958967D01*
X171422168Y-83643088D01*
X171298918Y-83345537D01*
X171119987Y-83077748D01*
X170892252Y-82850013D01*
X170624463Y-82671082D01*
X170326912Y-82547832D01*
X170011033Y-82485000D01*
X169688967Y-82485000D01*
X169373088Y-82547832D01*
X169075537Y-82671082D01*
X168807748Y-82850013D01*
X168580013Y-83077748D01*
X168451279Y-83270411D01*
X161892019Y-76711152D01*
X162071111Y-76693513D01*
X162351034Y-76608599D01*
X162609014Y-76470706D01*
X162835134Y-76285134D01*
X163020706Y-76059014D01*
X163050000Y-76004209D01*
X163079294Y-76059014D01*
X163264866Y-76285134D01*
X163490986Y-76470706D01*
X163748966Y-76608599D01*
X164028889Y-76693513D01*
X164247050Y-76715000D01*
X164392950Y-76715000D01*
X164611111Y-76693513D01*
X164891034Y-76608599D01*
X165149014Y-76470706D01*
X165375134Y-76285134D01*
X165560706Y-76059014D01*
X165698599Y-75801034D01*
X165783513Y-75521111D01*
X165812185Y-75230000D01*
X165783513Y-74938889D01*
X165698599Y-74658966D01*
X165560706Y-74400986D01*
X165375134Y-74174866D01*
X165149014Y-73989294D01*
X165094209Y-73960000D01*
X165149014Y-73930706D01*
X165375134Y-73745134D01*
X165560706Y-73519014D01*
X165698599Y-73261034D01*
X165783513Y-72981111D01*
X165812185Y-72690000D01*
X165783513Y-72398889D01*
X165698599Y-72118966D01*
X165560706Y-71860986D01*
X165375134Y-71634866D01*
X165149014Y-71449294D01*
X165094209Y-71420000D01*
X165149014Y-71390706D01*
X165375134Y-71205134D01*
X165560706Y-70979014D01*
X165698599Y-70721034D01*
X165783513Y-70441111D01*
X165812185Y-70150000D01*
X165783513Y-69858889D01*
X165698599Y-69578966D01*
X165560706Y-69320986D01*
X165375134Y-69094866D01*
X165149014Y-68909294D01*
X165094209Y-68880000D01*
X165149014Y-68850706D01*
X165375134Y-68665134D01*
X165560706Y-68439014D01*
X165698599Y-68181034D01*
X165783513Y-67901111D01*
X165812185Y-67610000D01*
X165783513Y-67318889D01*
X165698599Y-67038966D01*
X165560706Y-66780986D01*
X165375134Y-66554866D01*
X165149014Y-66369294D01*
X165094209Y-66340000D01*
X165149014Y-66310706D01*
X165375134Y-66125134D01*
X165560706Y-65899014D01*
X165698599Y-65641034D01*
X165783513Y-65361111D01*
X165812185Y-65070000D01*
X165783513Y-64778889D01*
X165698599Y-64498966D01*
X165560706Y-64240986D01*
X165375134Y-64014866D01*
X165149014Y-63829294D01*
X165094209Y-63800000D01*
X165149014Y-63770706D01*
X165375134Y-63585134D01*
X165560706Y-63359014D01*
X165698599Y-63101034D01*
X165783513Y-62821111D01*
X165812185Y-62530000D01*
X165783513Y-62238889D01*
X165698599Y-61958966D01*
X165560706Y-61700986D01*
X165375134Y-61474866D01*
X165149014Y-61289294D01*
X164953893Y-61185000D01*
X171565001Y-61185000D01*
X171565000Y-103565000D01*
X111435000Y-103565000D01*
X111435000Y-78878967D01*
X115015000Y-78878967D01*
X115015000Y-79201033D01*
X115077832Y-79516912D01*
X115201082Y-79814463D01*
X115380013Y-80082252D01*
X115607748Y-80309987D01*
X115607767Y-80310000D01*
X115607748Y-80310013D01*
X115380013Y-80537748D01*
X115201082Y-80805537D01*
X115077832Y-81103088D01*
X115015000Y-81418967D01*
X115015000Y-81741033D01*
X115077832Y-82056912D01*
X115201082Y-82354463D01*
X115380013Y-82622252D01*
X115607748Y-82849987D01*
X115607767Y-82850000D01*
X115607748Y-82850013D01*
X115380013Y-83077748D01*
X115201082Y-83345537D01*
X115077832Y-83643088D01*
X115015000Y-83958967D01*
X115015000Y-84281033D01*
X115077832Y-84596912D01*
X115201082Y-84894463D01*
X115380013Y-85162252D01*
X115607748Y-85389987D01*
X115607767Y-85390000D01*
X115607748Y-85390013D01*
X115380013Y-85617748D01*
X115201082Y-85885537D01*
X115077832Y-86183088D01*
X115015000Y-86498967D01*
X115015000Y-86821033D01*
X115077832Y-87136912D01*
X115201082Y-87434463D01*
X115380013Y-87702252D01*
X115607748Y-87929987D01*
X115607767Y-87930000D01*
X115607748Y-87930013D01*
X115380013Y-88157748D01*
X115201082Y-88425537D01*
X115077832Y-88723088D01*
X115015000Y-89038967D01*
X115015000Y-89361033D01*
X115077832Y-89676912D01*
X115201082Y-89974463D01*
X115380013Y-90242252D01*
X115607748Y-90469987D01*
X115607767Y-90470000D01*
X115607748Y-90470013D01*
X115380013Y-90697748D01*
X115201082Y-90965537D01*
X115077832Y-91263088D01*
X115015000Y-91578967D01*
X115015000Y-91901033D01*
X115077832Y-92216912D01*
X115201082Y-92514463D01*
X115380013Y-92782252D01*
X115607748Y-93009987D01*
X115607767Y-93010000D01*
X115607748Y-93010013D01*
X115380013Y-93237748D01*
X115201082Y-93505537D01*
X115077832Y-93803088D01*
X115015000Y-94118967D01*
X115015000Y-94441033D01*
X115077832Y-94756912D01*
X115201082Y-95054463D01*
X115380013Y-95322252D01*
X115607748Y-95549987D01*
X115875537Y-95728918D01*
X116173088Y-95852168D01*
X116488967Y-95915000D01*
X116811033Y-95915000D01*
X117126912Y-95852168D01*
X117424463Y-95728918D01*
X117692252Y-95549987D01*
X117919987Y-95322252D01*
X118098918Y-95054463D01*
X118222168Y-94756912D01*
X118285000Y-94441033D01*
X118285000Y-94118967D01*
X118222168Y-93803088D01*
X118098918Y-93505537D01*
X117919987Y-93237748D01*
X117692252Y-93010013D01*
X117692233Y-93010000D01*
X117692252Y-93009987D01*
X117919987Y-92782252D01*
X118098918Y-92514463D01*
X118222168Y-92216912D01*
X118285000Y-91901033D01*
X118285000Y-91578967D01*
X118222168Y-91263088D01*
X118098918Y-90965537D01*
X117919987Y-90697748D01*
X117692252Y-90470013D01*
X117692233Y-90470000D01*
X117692252Y-90469987D01*
X117919987Y-90242252D01*
X118098918Y-89974463D01*
X118222168Y-89676912D01*
X118285000Y-89361033D01*
X118285000Y-89038967D01*
X118222168Y-88723088D01*
X118098918Y-88425537D01*
X117919987Y-88157748D01*
X117692252Y-87930013D01*
X117692233Y-87930000D01*
X117692252Y-87929987D01*
X117919987Y-87702252D01*
X118098918Y-87434463D01*
X118222168Y-87136912D01*
X118285000Y-86821033D01*
X118285000Y-86498967D01*
X118222168Y-86183088D01*
X118098918Y-85885537D01*
X117919987Y-85617748D01*
X117692252Y-85390013D01*
X117692233Y-85390000D01*
X117692252Y-85389987D01*
X117919987Y-85162252D01*
X118098918Y-84894463D01*
X118222168Y-84596912D01*
X118285000Y-84281033D01*
X118285000Y-83958967D01*
X118222168Y-83643088D01*
X118098918Y-83345537D01*
X117919987Y-83077748D01*
X117692252Y-82850013D01*
X117692233Y-82850000D01*
X117692252Y-82849987D01*
X117919987Y-82622252D01*
X118098918Y-82354463D01*
X118222168Y-82056912D01*
X118285000Y-81741033D01*
X118285000Y-81418967D01*
X118222168Y-81103088D01*
X118098918Y-80805537D01*
X117919987Y-80537748D01*
X117692252Y-80310013D01*
X117692233Y-80310000D01*
X117692252Y-80309987D01*
X117919987Y-80082252D01*
X118098918Y-79814463D01*
X118222168Y-79516912D01*
X118285000Y-79201033D01*
X118285000Y-78878967D01*
X118222168Y-78563088D01*
X118098918Y-78265537D01*
X117919987Y-77997748D01*
X117692252Y-77770013D01*
X117424463Y-77591082D01*
X117126912Y-77467832D01*
X116811033Y-77405000D01*
X116488967Y-77405000D01*
X116173088Y-77467832D01*
X115875537Y-77591082D01*
X115607748Y-77770013D01*
X115380013Y-77997748D01*
X115201082Y-78265537D01*
X115077832Y-78563088D01*
X115015000Y-78878967D01*
X111435000Y-78878967D01*
X111435000Y-61185000D01*
X116296107Y-61185000D01*
X116100986Y-61289294D01*
G36*
X153791928Y-65670000D02*
G01*
X153804188Y-65794482D01*
X153840498Y-65914180D01*
X153899463Y-66024494D01*
X153978815Y-66121185D01*
X154075506Y-66200537D01*
X154121006Y-66224858D01*
X154063128Y-66282736D01*
X154180234Y-66399842D01*
X153956652Y-66447148D01*
X153855763Y-66668516D01*
X153800000Y-66905313D01*
X153791505Y-67148438D01*
X153830605Y-67388549D01*
X153915798Y-67616418D01*
X153956652Y-67692852D01*
X154180236Y-67740159D01*
X154850395Y-67070000D01*
X154836253Y-67055858D01*
X155015858Y-66876253D01*
X155030000Y-66890395D01*
X155044143Y-66876253D01*
X155223748Y-67055858D01*
X155209605Y-67070000D01*
X155879764Y-67740159D01*
X156103348Y-67692852D01*
X156204237Y-67471484D01*
X156260000Y-67234687D01*
X156268495Y-66991562D01*
X156229395Y-66751451D01*
X156144202Y-66523582D01*
X156103348Y-66447148D01*
X155879766Y-66399842D01*
X155996872Y-66282736D01*
X155938994Y-66224858D01*
X155984494Y-66200537D01*
X156081185Y-66121185D01*
X156160537Y-66024494D01*
X156219502Y-65914180D01*
X156255812Y-65794482D01*
X156268072Y-65670000D01*
X156268072Y-64727999D01*
X156547132Y-64727999D01*
X158107346Y-66288214D01*
X158171414Y-66442889D01*
X158273738Y-66596028D01*
X158403972Y-66726262D01*
X158557111Y-66828586D01*
X158727271Y-66899068D01*
X158762964Y-66906168D01*
X155469133Y-70200000D01*
X147838250Y-70200000D01*
X147885000Y-70153250D01*
X147873937Y-70051439D01*
X147835892Y-69932281D01*
X147775331Y-69822835D01*
X147694582Y-69727307D01*
X147596748Y-69649368D01*
X147485589Y-69592013D01*
X147365376Y-69557446D01*
X147240729Y-69546995D01*
X146760750Y-69550000D01*
X146602000Y-69708750D01*
X146602000Y-70196928D01*
X146348000Y-70196928D01*
X146348000Y-69708750D01*
X146189250Y-69550000D01*
X145964758Y-69548595D01*
X146044180Y-69524502D01*
X146154494Y-69465537D01*
X146251185Y-69386185D01*
X146330537Y-69289494D01*
X146389502Y-69179180D01*
X146425812Y-69059482D01*
X146438072Y-68935000D01*
X146435071Y-67919764D01*
X154359841Y-67919764D01*
X154407148Y-68143348D01*
X154628516Y-68244237D01*
X154865313Y-68300000D01*
X155108438Y-68308495D01*
X155348549Y-68269395D01*
X155576418Y-68184202D01*
X155652852Y-68143348D01*
X155700159Y-67919764D01*
X155030000Y-67249605D01*
X154359841Y-67919764D01*
X146435071Y-67919764D01*
X146435000Y-67895750D01*
X146276250Y-67737000D01*
X145214500Y-67737000D01*
X145214500Y-69411250D01*
X145373250Y-69570000D01*
X145536869Y-69571178D01*
X145464411Y-69592013D01*
X145353252Y-69649368D01*
X145255418Y-69727307D01*
X145174669Y-69822835D01*
X145114108Y-69932281D01*
X145076063Y-70051439D01*
X145065000Y-70153250D01*
X145223750Y-70312000D01*
X145407378Y-70312000D01*
X145389949Y-70321316D01*
X145278104Y-70413104D01*
X145241259Y-70458000D01*
X145223750Y-70458000D01*
X145065000Y-70616750D01*
X145076063Y-70718561D01*
X145087357Y-70753933D01*
X145076110Y-70791009D01*
X145073035Y-70822225D01*
X143885750Y-70825000D01*
X143727000Y-70983750D01*
X143727000Y-73833000D01*
X143747000Y-73833000D01*
X143747000Y-74087000D01*
X143727000Y-74087000D01*
X143727000Y-76936250D01*
X143885750Y-77095000D01*
X145073035Y-77097775D01*
X145076110Y-77128991D01*
X145100684Y-77210000D01*
X145076110Y-77291009D01*
X145061928Y-77435000D01*
X145061928Y-77635000D01*
X145076110Y-77778991D01*
X145118110Y-77917448D01*
X145186316Y-78045051D01*
X145278104Y-78156896D01*
X145389949Y-78248684D01*
X145517552Y-78316890D01*
X145640000Y-78354034D01*
X145640001Y-86383971D01*
X145635960Y-86425000D01*
X145652082Y-86588688D01*
X145699828Y-86746086D01*
X145777364Y-86891145D01*
X145777365Y-86891146D01*
X145881710Y-87018291D01*
X145913574Y-87044441D01*
X147663628Y-88794496D01*
X147634052Y-88943184D01*
X141560000Y-82869133D01*
X141560000Y-78354034D01*
X141682448Y-78316890D01*
X141810051Y-78248684D01*
X141921896Y-78156896D01*
X142013684Y-78045051D01*
X142081890Y-77917448D01*
X142123890Y-77778991D01*
X142138072Y-77635000D01*
X142138072Y-77435000D01*
X142123890Y-77291009D01*
X142099316Y-77210000D01*
X142123890Y-77128991D01*
X142126965Y-77097775D01*
X143314250Y-77095000D01*
X143473000Y-76936250D01*
X143473000Y-74087000D01*
X143453000Y-74087000D01*
X143453000Y-73833000D01*
X143473000Y-73833000D01*
X143473000Y-70983750D01*
X143314250Y-70825000D01*
X142126965Y-70822225D01*
X142123890Y-70791009D01*
X142099316Y-70710000D01*
X142123890Y-70628991D01*
X142138072Y-70485000D01*
X142138072Y-70285000D01*
X142123890Y-70141009D01*
X142081890Y-70002552D01*
X142013684Y-69874949D01*
X141921896Y-69763104D01*
X141810051Y-69671316D01*
X141682448Y-69603110D01*
X141560000Y-69565966D01*
X141560000Y-69564208D01*
X141650000Y-69573072D01*
X142575000Y-69573072D01*
X142748254Y-69556008D01*
X142914850Y-69505472D01*
X143068386Y-69423405D01*
X143202962Y-69312962D01*
X143313405Y-69178386D01*
X143395472Y-69024850D01*
X143422727Y-68935000D01*
X143736928Y-68935000D01*
X143749188Y-69059482D01*
X143785498Y-69179180D01*
X143844463Y-69289494D01*
X143923815Y-69386185D01*
X144020506Y-69465537D01*
X144130820Y-69524502D01*
X144250518Y-69560812D01*
X144375000Y-69573072D01*
X144801750Y-69570000D01*
X144960500Y-69411250D01*
X144960500Y-67737000D01*
X143898750Y-67737000D01*
X143740000Y-67895750D01*
X143736928Y-68935000D01*
X143422727Y-68935000D01*
X143446008Y-68858254D01*
X143463072Y-68685000D01*
X143463072Y-66535000D01*
X143446008Y-66361746D01*
X143422728Y-66285000D01*
X143736928Y-66285000D01*
X143740000Y-67324250D01*
X143898750Y-67483000D01*
X144960500Y-67483000D01*
X144960500Y-65808750D01*
X145214500Y-65808750D01*
X145214500Y-67483000D01*
X146276250Y-67483000D01*
X146435000Y-67324250D01*
X146438072Y-66285000D01*
X146425812Y-66160518D01*
X146389502Y-66040820D01*
X146330537Y-65930506D01*
X146251185Y-65833815D01*
X146154494Y-65754463D01*
X146044180Y-65695498D01*
X145924482Y-65659188D01*
X145800000Y-65646928D01*
X145373250Y-65650000D01*
X145214500Y-65808750D01*
X144960500Y-65808750D01*
X144801750Y-65650000D01*
X144375000Y-65646928D01*
X144250518Y-65659188D01*
X144130820Y-65695498D01*
X144020506Y-65754463D01*
X143923815Y-65833815D01*
X143844463Y-65930506D01*
X143785498Y-66040820D01*
X143749188Y-66160518D01*
X143736928Y-66285000D01*
X143422728Y-66285000D01*
X143395472Y-66195150D01*
X143313405Y-66041614D01*
X143202962Y-65907038D01*
X143068386Y-65796595D01*
X142914850Y-65714528D01*
X142748254Y-65663992D01*
X142575000Y-65646928D01*
X141650000Y-65646928D01*
X141476746Y-65663992D01*
X141310150Y-65714528D01*
X141156614Y-65796595D01*
X141022038Y-65907038D01*
X140911595Y-66041614D01*
X140829528Y-66195150D01*
X140778992Y-66361746D01*
X140767837Y-66475000D01*
X140277079Y-66475000D01*
X140150236Y-66422460D01*
X139911637Y-66375000D01*
X139668363Y-66375000D01*
X139429764Y-66422460D01*
X139205008Y-66515557D01*
X139002733Y-66650713D01*
X138830713Y-66822733D01*
X138695557Y-67025008D01*
X138602460Y-67249764D01*
X138597417Y-67275115D01*
X138596040Y-67273738D01*
X138442901Y-67171414D01*
X138272741Y-67100932D01*
X138092101Y-67065000D01*
X137907923Y-67065000D01*
X137727283Y-67100932D01*
X137557123Y-67171414D01*
X137403984Y-67273738D01*
X137273750Y-67403972D01*
X137171426Y-67557111D01*
X137100944Y-67727271D01*
X137065012Y-67907911D01*
X137065012Y-68092089D01*
X137100944Y-68272729D01*
X137165012Y-68427404D01*
X137165012Y-69143994D01*
X137160972Y-69185012D01*
X137165012Y-69226030D01*
X137177094Y-69348700D01*
X137224840Y-69506098D01*
X137302376Y-69651157D01*
X137406721Y-69778303D01*
X137438591Y-69804458D01*
X138484132Y-70850000D01*
X134030869Y-70850000D01*
X127908866Y-64727999D01*
X153791928Y-64727999D01*
X153791928Y-65670000D01*
X153791928Y-65670000D01*
G37*
X153791928Y-65670000D02*
X153804188Y-65794482D01*
X153840498Y-65914180D01*
X153899463Y-66024494D01*
X153978815Y-66121185D01*
X154075506Y-66200537D01*
X154121006Y-66224858D01*
X154063128Y-66282736D01*
X154180234Y-66399842D01*
X153956652Y-66447148D01*
X153855763Y-66668516D01*
X153800000Y-66905313D01*
X153791505Y-67148438D01*
X153830605Y-67388549D01*
X153915798Y-67616418D01*
X153956652Y-67692852D01*
X154180236Y-67740159D01*
X154850395Y-67070000D01*
X154836253Y-67055858D01*
X155015858Y-66876253D01*
X155030000Y-66890395D01*
X155044143Y-66876253D01*
X155223748Y-67055858D01*
X155209605Y-67070000D01*
X155879764Y-67740159D01*
X156103348Y-67692852D01*
X156204237Y-67471484D01*
X156260000Y-67234687D01*
X156268495Y-66991562D01*
X156229395Y-66751451D01*
X156144202Y-66523582D01*
X156103348Y-66447148D01*
X155879766Y-66399842D01*
X155996872Y-66282736D01*
X155938994Y-66224858D01*
X155984494Y-66200537D01*
X156081185Y-66121185D01*
X156160537Y-66024494D01*
X156219502Y-65914180D01*
X156255812Y-65794482D01*
X156268072Y-65670000D01*
X156268072Y-64727999D01*
X156547132Y-64727999D01*
X158107346Y-66288214D01*
X158171414Y-66442889D01*
X158273738Y-66596028D01*
X158403972Y-66726262D01*
X158557111Y-66828586D01*
X158727271Y-66899068D01*
X158762964Y-66906168D01*
X155469133Y-70200000D01*
X147838250Y-70200000D01*
X147885000Y-70153250D01*
X147873937Y-70051439D01*
X147835892Y-69932281D01*
X147775331Y-69822835D01*
X147694582Y-69727307D01*
X147596748Y-69649368D01*
X147485589Y-69592013D01*
X147365376Y-69557446D01*
X147240729Y-69546995D01*
X146760750Y-69550000D01*
X146602000Y-69708750D01*
X146602000Y-70196928D01*
X146348000Y-70196928D01*
X146348000Y-69708750D01*
X146189250Y-69550000D01*
X145964758Y-69548595D01*
X146044180Y-69524502D01*
X146154494Y-69465537D01*
X146251185Y-69386185D01*
X146330537Y-69289494D01*
X146389502Y-69179180D01*
X146425812Y-69059482D01*
X146438072Y-68935000D01*
X146435071Y-67919764D01*
X154359841Y-67919764D01*
X154407148Y-68143348D01*
X154628516Y-68244237D01*
X154865313Y-68300000D01*
X155108438Y-68308495D01*
X155348549Y-68269395D01*
X155576418Y-68184202D01*
X155652852Y-68143348D01*
X155700159Y-67919764D01*
X155030000Y-67249605D01*
X154359841Y-67919764D01*
X146435071Y-67919764D01*
X146435000Y-67895750D01*
X146276250Y-67737000D01*
X145214500Y-67737000D01*
X145214500Y-69411250D01*
X145373250Y-69570000D01*
X145536869Y-69571178D01*
X145464411Y-69592013D01*
X145353252Y-69649368D01*
X145255418Y-69727307D01*
X145174669Y-69822835D01*
X145114108Y-69932281D01*
X145076063Y-70051439D01*
X145065000Y-70153250D01*
X145223750Y-70312000D01*
X145407378Y-70312000D01*
X145389949Y-70321316D01*
X145278104Y-70413104D01*
X145241259Y-70458000D01*
X145223750Y-70458000D01*
X145065000Y-70616750D01*
X145076063Y-70718561D01*
X145087357Y-70753933D01*
X145076110Y-70791009D01*
X145073035Y-70822225D01*
X143885750Y-70825000D01*
X143727000Y-70983750D01*
X143727000Y-73833000D01*
X143747000Y-73833000D01*
X143747000Y-74087000D01*
X143727000Y-74087000D01*
X143727000Y-76936250D01*
X143885750Y-77095000D01*
X145073035Y-77097775D01*
X145076110Y-77128991D01*
X145100684Y-77210000D01*
X145076110Y-77291009D01*
X145061928Y-77435000D01*
X145061928Y-77635000D01*
X145076110Y-77778991D01*
X145118110Y-77917448D01*
X145186316Y-78045051D01*
X145278104Y-78156896D01*
X145389949Y-78248684D01*
X145517552Y-78316890D01*
X145640000Y-78354034D01*
X145640001Y-86383971D01*
X145635960Y-86425000D01*
X145652082Y-86588688D01*
X145699828Y-86746086D01*
X145777364Y-86891145D01*
X145777365Y-86891146D01*
X145881710Y-87018291D01*
X145913574Y-87044441D01*
X147663628Y-88794496D01*
X147634052Y-88943184D01*
X141560000Y-82869133D01*
X141560000Y-78354034D01*
X141682448Y-78316890D01*
X141810051Y-78248684D01*
X141921896Y-78156896D01*
X142013684Y-78045051D01*
X142081890Y-77917448D01*
X142123890Y-77778991D01*
X142138072Y-77635000D01*
X142138072Y-77435000D01*
X142123890Y-77291009D01*
X142099316Y-77210000D01*
X142123890Y-77128991D01*
X142126965Y-77097775D01*
X143314250Y-77095000D01*
X143473000Y-76936250D01*
X143473000Y-74087000D01*
X143453000Y-74087000D01*
X143453000Y-73833000D01*
X143473000Y-73833000D01*
X143473000Y-70983750D01*
X143314250Y-70825000D01*
X142126965Y-70822225D01*
X142123890Y-70791009D01*
X142099316Y-70710000D01*
X142123890Y-70628991D01*
X142138072Y-70485000D01*
X142138072Y-70285000D01*
X142123890Y-70141009D01*
X142081890Y-70002552D01*
X142013684Y-69874949D01*
X141921896Y-69763104D01*
X141810051Y-69671316D01*
X141682448Y-69603110D01*
X141560000Y-69565966D01*
X141560000Y-69564208D01*
X141650000Y-69573072D01*
X142575000Y-69573072D01*
X142748254Y-69556008D01*
X142914850Y-69505472D01*
X143068386Y-69423405D01*
X143202962Y-69312962D01*
X143313405Y-69178386D01*
X143395472Y-69024850D01*
X143422727Y-68935000D01*
X143736928Y-68935000D01*
X143749188Y-69059482D01*
X143785498Y-69179180D01*
X143844463Y-69289494D01*
X143923815Y-69386185D01*
X144020506Y-69465537D01*
X144130820Y-69524502D01*
X144250518Y-69560812D01*
X144375000Y-69573072D01*
X144801750Y-69570000D01*
X144960500Y-69411250D01*
X144960500Y-67737000D01*
X143898750Y-67737000D01*
X143740000Y-67895750D01*
X143736928Y-68935000D01*
X143422727Y-68935000D01*
X143446008Y-68858254D01*
X143463072Y-68685000D01*
X143463072Y-66535000D01*
X143446008Y-66361746D01*
X143422728Y-66285000D01*
X143736928Y-66285000D01*
X143740000Y-67324250D01*
X143898750Y-67483000D01*
X144960500Y-67483000D01*
X144960500Y-65808750D01*
X145214500Y-65808750D01*
X145214500Y-67483000D01*
X146276250Y-67483000D01*
X146435000Y-67324250D01*
X146438072Y-66285000D01*
X146425812Y-66160518D01*
X146389502Y-66040820D01*
X146330537Y-65930506D01*
X146251185Y-65833815D01*
X146154494Y-65754463D01*
X146044180Y-65695498D01*
X145924482Y-65659188D01*
X145800000Y-65646928D01*
X145373250Y-65650000D01*
X145214500Y-65808750D01*
X144960500Y-65808750D01*
X144801750Y-65650000D01*
X144375000Y-65646928D01*
X144250518Y-65659188D01*
X144130820Y-65695498D01*
X144020506Y-65754463D01*
X143923815Y-65833815D01*
X143844463Y-65930506D01*
X143785498Y-66040820D01*
X143749188Y-66160518D01*
X143736928Y-66285000D01*
X143422728Y-66285000D01*
X143395472Y-66195150D01*
X143313405Y-66041614D01*
X143202962Y-65907038D01*
X143068386Y-65796595D01*
X142914850Y-65714528D01*
X142748254Y-65663992D01*
X142575000Y-65646928D01*
X141650000Y-65646928D01*
X141476746Y-65663992D01*
X141310150Y-65714528D01*
X141156614Y-65796595D01*
X141022038Y-65907038D01*
X140911595Y-66041614D01*
X140829528Y-66195150D01*
X140778992Y-66361746D01*
X140767837Y-66475000D01*
X140277079Y-66475000D01*
X140150236Y-66422460D01*
X139911637Y-66375000D01*
X139668363Y-66375000D01*
X139429764Y-66422460D01*
X139205008Y-66515557D01*
X139002733Y-66650713D01*
X138830713Y-66822733D01*
X138695557Y-67025008D01*
X138602460Y-67249764D01*
X138597417Y-67275115D01*
X138596040Y-67273738D01*
X138442901Y-67171414D01*
X138272741Y-67100932D01*
X138092101Y-67065000D01*
X137907923Y-67065000D01*
X137727283Y-67100932D01*
X137557123Y-67171414D01*
X137403984Y-67273738D01*
X137273750Y-67403972D01*
X137171426Y-67557111D01*
X137100944Y-67727271D01*
X137065012Y-67907911D01*
X137065012Y-68092089D01*
X137100944Y-68272729D01*
X137165012Y-68427404D01*
X137165012Y-69143994D01*
X137160972Y-69185012D01*
X137165012Y-69226030D01*
X137177094Y-69348700D01*
X137224840Y-69506098D01*
X137302376Y-69651157D01*
X137406721Y-69778303D01*
X137438591Y-69804458D01*
X138484132Y-70850000D01*
X134030869Y-70850000D01*
X127908866Y-64727999D01*
X153791928Y-64727999D01*
X153791928Y-65670000D01*
G36*
X161907000Y-72563000D02*
G01*
X161927000Y-72563000D01*
X161927000Y-72817000D01*
X161907000Y-72817000D01*
X161907000Y-72837000D01*
X161653000Y-72837000D01*
X161653000Y-72817000D01*
X161633000Y-72817000D01*
X161633000Y-72563000D01*
X161653000Y-72563000D01*
X161653000Y-72543000D01*
X161907000Y-72543000D01*
X161907000Y-72563000D01*
X161907000Y-72563000D01*
G37*
X161907000Y-72563000D02*
X161927000Y-72563000D01*
X161927000Y-72817000D01*
X161907000Y-72817000D01*
X161907000Y-72837000D01*
X161653000Y-72837000D01*
X161653000Y-72817000D01*
X161633000Y-72817000D01*
X161633000Y-72563000D01*
X161653000Y-72563000D01*
X161653000Y-72543000D01*
X161907000Y-72543000D01*
X161907000Y-72563000D01*
M02*
