G04 #@! TF.GenerationSoftware,KiCad,Pcbnew,(5.1.4)-1*
G04 #@! TF.CreationDate,2019-11-15T21:57:58+01:00*
G04 #@! TF.ProjectId,LEDClock,4c454443-6c6f-4636-9b2e-6b696361645f,rev?*
G04 #@! TF.SameCoordinates,Original*
G04 #@! TF.FileFunction,Soldermask,Bot*
G04 #@! TF.FilePolarity,Negative*
%FSLAX46Y46*%
G04 Gerber Fmt 4.6, Leading zero omitted, Abs format (unit mm)*
G04 Created by KiCad (PCBNEW (5.1.4)-1) date 2019-11-15 21:57:58*
%MOMM*%
%LPD*%
G04 APERTURE LIST*
%ADD10C,0.100000*%
G04 APERTURE END LIST*
D10*
G36*
X170156564Y-93269389D02*
G01*
X170347833Y-93348615D01*
X170347835Y-93348616D01*
X170519973Y-93463635D01*
X170666365Y-93610027D01*
X170781385Y-93782167D01*
X170860611Y-93973436D01*
X170901000Y-94176484D01*
X170901000Y-94383516D01*
X170860611Y-94586564D01*
X170781385Y-94777833D01*
X170781384Y-94777835D01*
X170666365Y-94949973D01*
X170519973Y-95096365D01*
X170347835Y-95211384D01*
X170347834Y-95211385D01*
X170347833Y-95211385D01*
X170156564Y-95290611D01*
X169953516Y-95331000D01*
X169746484Y-95331000D01*
X169543436Y-95290611D01*
X169352167Y-95211385D01*
X169352166Y-95211385D01*
X169352165Y-95211384D01*
X169180027Y-95096365D01*
X169033635Y-94949973D01*
X168918616Y-94777835D01*
X168918615Y-94777833D01*
X168839389Y-94586564D01*
X168799000Y-94383516D01*
X168799000Y-94176484D01*
X168839389Y-93973436D01*
X168918615Y-93782167D01*
X169033635Y-93610027D01*
X169180027Y-93463635D01*
X169352165Y-93348616D01*
X169352167Y-93348615D01*
X169543436Y-93269389D01*
X169746484Y-93229000D01*
X169953516Y-93229000D01*
X170156564Y-93269389D01*
X170156564Y-93269389D01*
G37*
G36*
X128956564Y-93269389D02*
G01*
X129147833Y-93348615D01*
X129147835Y-93348616D01*
X129319973Y-93463635D01*
X129466365Y-93610027D01*
X129581385Y-93782167D01*
X129660611Y-93973436D01*
X129701000Y-94176484D01*
X129701000Y-94383516D01*
X129660611Y-94586564D01*
X129581385Y-94777833D01*
X129581384Y-94777835D01*
X129466365Y-94949973D01*
X129319973Y-95096365D01*
X129147835Y-95211384D01*
X129147834Y-95211385D01*
X129147833Y-95211385D01*
X128956564Y-95290611D01*
X128753516Y-95331000D01*
X128546484Y-95331000D01*
X128343436Y-95290611D01*
X128152167Y-95211385D01*
X128152166Y-95211385D01*
X128152165Y-95211384D01*
X127980027Y-95096365D01*
X127833635Y-94949973D01*
X127718616Y-94777835D01*
X127718615Y-94777833D01*
X127639389Y-94586564D01*
X127599000Y-94383516D01*
X127599000Y-94176484D01*
X127639389Y-93973436D01*
X127718615Y-93782167D01*
X127833635Y-93610027D01*
X127980027Y-93463635D01*
X128152165Y-93348616D01*
X128152167Y-93348615D01*
X128343436Y-93269389D01*
X128546484Y-93229000D01*
X128753516Y-93229000D01*
X128956564Y-93269389D01*
X128956564Y-93269389D01*
G37*
G36*
X116956564Y-93269389D02*
G01*
X117147833Y-93348615D01*
X117147835Y-93348616D01*
X117319973Y-93463635D01*
X117466365Y-93610027D01*
X117581385Y-93782167D01*
X117660611Y-93973436D01*
X117701000Y-94176484D01*
X117701000Y-94383516D01*
X117660611Y-94586564D01*
X117581385Y-94777833D01*
X117581384Y-94777835D01*
X117466365Y-94949973D01*
X117319973Y-95096365D01*
X117147835Y-95211384D01*
X117147834Y-95211385D01*
X117147833Y-95211385D01*
X116956564Y-95290611D01*
X116753516Y-95331000D01*
X116546484Y-95331000D01*
X116343436Y-95290611D01*
X116152167Y-95211385D01*
X116152166Y-95211385D01*
X116152165Y-95211384D01*
X115980027Y-95096365D01*
X115833635Y-94949973D01*
X115718616Y-94777835D01*
X115718615Y-94777833D01*
X115639389Y-94586564D01*
X115599000Y-94383516D01*
X115599000Y-94176484D01*
X115639389Y-93973436D01*
X115718615Y-93782167D01*
X115833635Y-93610027D01*
X115980027Y-93463635D01*
X116152165Y-93348616D01*
X116152167Y-93348615D01*
X116343436Y-93269389D01*
X116546484Y-93229000D01*
X116753516Y-93229000D01*
X116956564Y-93269389D01*
X116956564Y-93269389D01*
G37*
G36*
X137556564Y-93269389D02*
G01*
X137747833Y-93348615D01*
X137747835Y-93348616D01*
X137919973Y-93463635D01*
X138066365Y-93610027D01*
X138181385Y-93782167D01*
X138260611Y-93973436D01*
X138301000Y-94176484D01*
X138301000Y-94383516D01*
X138260611Y-94586564D01*
X138181385Y-94777833D01*
X138181384Y-94777835D01*
X138066365Y-94949973D01*
X137919973Y-95096365D01*
X137747835Y-95211384D01*
X137747834Y-95211385D01*
X137747833Y-95211385D01*
X137556564Y-95290611D01*
X137353516Y-95331000D01*
X137146484Y-95331000D01*
X136943436Y-95290611D01*
X136752167Y-95211385D01*
X136752166Y-95211385D01*
X136752165Y-95211384D01*
X136580027Y-95096365D01*
X136433635Y-94949973D01*
X136318616Y-94777835D01*
X136318615Y-94777833D01*
X136239389Y-94586564D01*
X136199000Y-94383516D01*
X136199000Y-94176484D01*
X136239389Y-93973436D01*
X136318615Y-93782167D01*
X136433635Y-93610027D01*
X136580027Y-93463635D01*
X136752165Y-93348616D01*
X136752167Y-93348615D01*
X136943436Y-93269389D01*
X137146484Y-93229000D01*
X137353516Y-93229000D01*
X137556564Y-93269389D01*
X137556564Y-93269389D01*
G37*
G36*
X149556564Y-93269389D02*
G01*
X149747833Y-93348615D01*
X149747835Y-93348616D01*
X149919973Y-93463635D01*
X150066365Y-93610027D01*
X150181385Y-93782167D01*
X150260611Y-93973436D01*
X150301000Y-94176484D01*
X150301000Y-94383516D01*
X150260611Y-94586564D01*
X150181385Y-94777833D01*
X150181384Y-94777835D01*
X150066365Y-94949973D01*
X149919973Y-95096365D01*
X149747835Y-95211384D01*
X149747834Y-95211385D01*
X149747833Y-95211385D01*
X149556564Y-95290611D01*
X149353516Y-95331000D01*
X149146484Y-95331000D01*
X148943436Y-95290611D01*
X148752167Y-95211385D01*
X148752166Y-95211385D01*
X148752165Y-95211384D01*
X148580027Y-95096365D01*
X148433635Y-94949973D01*
X148318616Y-94777835D01*
X148318615Y-94777833D01*
X148239389Y-94586564D01*
X148199000Y-94383516D01*
X148199000Y-94176484D01*
X148239389Y-93973436D01*
X148318615Y-93782167D01*
X148433635Y-93610027D01*
X148580027Y-93463635D01*
X148752165Y-93348616D01*
X148752167Y-93348615D01*
X148943436Y-93269389D01*
X149146484Y-93229000D01*
X149353516Y-93229000D01*
X149556564Y-93269389D01*
X149556564Y-93269389D01*
G37*
G36*
X158156564Y-93269389D02*
G01*
X158347833Y-93348615D01*
X158347835Y-93348616D01*
X158519973Y-93463635D01*
X158666365Y-93610027D01*
X158781385Y-93782167D01*
X158860611Y-93973436D01*
X158901000Y-94176484D01*
X158901000Y-94383516D01*
X158860611Y-94586564D01*
X158781385Y-94777833D01*
X158781384Y-94777835D01*
X158666365Y-94949973D01*
X158519973Y-95096365D01*
X158347835Y-95211384D01*
X158347834Y-95211385D01*
X158347833Y-95211385D01*
X158156564Y-95290611D01*
X157953516Y-95331000D01*
X157746484Y-95331000D01*
X157543436Y-95290611D01*
X157352167Y-95211385D01*
X157352166Y-95211385D01*
X157352165Y-95211384D01*
X157180027Y-95096365D01*
X157033635Y-94949973D01*
X156918616Y-94777835D01*
X156918615Y-94777833D01*
X156839389Y-94586564D01*
X156799000Y-94383516D01*
X156799000Y-94176484D01*
X156839389Y-93973436D01*
X156918615Y-93782167D01*
X157033635Y-93610027D01*
X157180027Y-93463635D01*
X157352165Y-93348616D01*
X157352167Y-93348615D01*
X157543436Y-93269389D01*
X157746484Y-93229000D01*
X157953516Y-93229000D01*
X158156564Y-93269389D01*
X158156564Y-93269389D01*
G37*
G36*
X137556564Y-90729389D02*
G01*
X137747833Y-90808615D01*
X137747835Y-90808616D01*
X137919973Y-90923635D01*
X138066365Y-91070027D01*
X138181385Y-91242167D01*
X138260611Y-91433436D01*
X138301000Y-91636484D01*
X138301000Y-91843516D01*
X138260611Y-92046564D01*
X138181385Y-92237833D01*
X138181384Y-92237835D01*
X138066365Y-92409973D01*
X137919973Y-92556365D01*
X137747835Y-92671384D01*
X137747834Y-92671385D01*
X137747833Y-92671385D01*
X137556564Y-92750611D01*
X137353516Y-92791000D01*
X137146484Y-92791000D01*
X136943436Y-92750611D01*
X136752167Y-92671385D01*
X136752166Y-92671385D01*
X136752165Y-92671384D01*
X136580027Y-92556365D01*
X136433635Y-92409973D01*
X136318616Y-92237835D01*
X136318615Y-92237833D01*
X136239389Y-92046564D01*
X136199000Y-91843516D01*
X136199000Y-91636484D01*
X136239389Y-91433436D01*
X136318615Y-91242167D01*
X136433635Y-91070027D01*
X136580027Y-90923635D01*
X136752165Y-90808616D01*
X136752167Y-90808615D01*
X136943436Y-90729389D01*
X137146484Y-90689000D01*
X137353516Y-90689000D01*
X137556564Y-90729389D01*
X137556564Y-90729389D01*
G37*
G36*
X149556564Y-90729389D02*
G01*
X149747833Y-90808615D01*
X149747835Y-90808616D01*
X149919973Y-90923635D01*
X150066365Y-91070027D01*
X150181385Y-91242167D01*
X150260611Y-91433436D01*
X150301000Y-91636484D01*
X150301000Y-91843516D01*
X150260611Y-92046564D01*
X150181385Y-92237833D01*
X150181384Y-92237835D01*
X150066365Y-92409973D01*
X149919973Y-92556365D01*
X149747835Y-92671384D01*
X149747834Y-92671385D01*
X149747833Y-92671385D01*
X149556564Y-92750611D01*
X149353516Y-92791000D01*
X149146484Y-92791000D01*
X148943436Y-92750611D01*
X148752167Y-92671385D01*
X148752166Y-92671385D01*
X148752165Y-92671384D01*
X148580027Y-92556365D01*
X148433635Y-92409973D01*
X148318616Y-92237835D01*
X148318615Y-92237833D01*
X148239389Y-92046564D01*
X148199000Y-91843516D01*
X148199000Y-91636484D01*
X148239389Y-91433436D01*
X148318615Y-91242167D01*
X148433635Y-91070027D01*
X148580027Y-90923635D01*
X148752165Y-90808616D01*
X148752167Y-90808615D01*
X148943436Y-90729389D01*
X149146484Y-90689000D01*
X149353516Y-90689000D01*
X149556564Y-90729389D01*
X149556564Y-90729389D01*
G37*
G36*
X158156564Y-90729389D02*
G01*
X158347833Y-90808615D01*
X158347835Y-90808616D01*
X158519973Y-90923635D01*
X158666365Y-91070027D01*
X158781385Y-91242167D01*
X158860611Y-91433436D01*
X158901000Y-91636484D01*
X158901000Y-91843516D01*
X158860611Y-92046564D01*
X158781385Y-92237833D01*
X158781384Y-92237835D01*
X158666365Y-92409973D01*
X158519973Y-92556365D01*
X158347835Y-92671384D01*
X158347834Y-92671385D01*
X158347833Y-92671385D01*
X158156564Y-92750611D01*
X157953516Y-92791000D01*
X157746484Y-92791000D01*
X157543436Y-92750611D01*
X157352167Y-92671385D01*
X157352166Y-92671385D01*
X157352165Y-92671384D01*
X157180027Y-92556365D01*
X157033635Y-92409973D01*
X156918616Y-92237835D01*
X156918615Y-92237833D01*
X156839389Y-92046564D01*
X156799000Y-91843516D01*
X156799000Y-91636484D01*
X156839389Y-91433436D01*
X156918615Y-91242167D01*
X157033635Y-91070027D01*
X157180027Y-90923635D01*
X157352165Y-90808616D01*
X157352167Y-90808615D01*
X157543436Y-90729389D01*
X157746484Y-90689000D01*
X157953516Y-90689000D01*
X158156564Y-90729389D01*
X158156564Y-90729389D01*
G37*
G36*
X170156564Y-90729389D02*
G01*
X170347833Y-90808615D01*
X170347835Y-90808616D01*
X170519973Y-90923635D01*
X170666365Y-91070027D01*
X170781385Y-91242167D01*
X170860611Y-91433436D01*
X170901000Y-91636484D01*
X170901000Y-91843516D01*
X170860611Y-92046564D01*
X170781385Y-92237833D01*
X170781384Y-92237835D01*
X170666365Y-92409973D01*
X170519973Y-92556365D01*
X170347835Y-92671384D01*
X170347834Y-92671385D01*
X170347833Y-92671385D01*
X170156564Y-92750611D01*
X169953516Y-92791000D01*
X169746484Y-92791000D01*
X169543436Y-92750611D01*
X169352167Y-92671385D01*
X169352166Y-92671385D01*
X169352165Y-92671384D01*
X169180027Y-92556365D01*
X169033635Y-92409973D01*
X168918616Y-92237835D01*
X168918615Y-92237833D01*
X168839389Y-92046564D01*
X168799000Y-91843516D01*
X168799000Y-91636484D01*
X168839389Y-91433436D01*
X168918615Y-91242167D01*
X169033635Y-91070027D01*
X169180027Y-90923635D01*
X169352165Y-90808616D01*
X169352167Y-90808615D01*
X169543436Y-90729389D01*
X169746484Y-90689000D01*
X169953516Y-90689000D01*
X170156564Y-90729389D01*
X170156564Y-90729389D01*
G37*
G36*
X116956564Y-90729389D02*
G01*
X117147833Y-90808615D01*
X117147835Y-90808616D01*
X117319973Y-90923635D01*
X117466365Y-91070027D01*
X117581385Y-91242167D01*
X117660611Y-91433436D01*
X117701000Y-91636484D01*
X117701000Y-91843516D01*
X117660611Y-92046564D01*
X117581385Y-92237833D01*
X117581384Y-92237835D01*
X117466365Y-92409973D01*
X117319973Y-92556365D01*
X117147835Y-92671384D01*
X117147834Y-92671385D01*
X117147833Y-92671385D01*
X116956564Y-92750611D01*
X116753516Y-92791000D01*
X116546484Y-92791000D01*
X116343436Y-92750611D01*
X116152167Y-92671385D01*
X116152166Y-92671385D01*
X116152165Y-92671384D01*
X115980027Y-92556365D01*
X115833635Y-92409973D01*
X115718616Y-92237835D01*
X115718615Y-92237833D01*
X115639389Y-92046564D01*
X115599000Y-91843516D01*
X115599000Y-91636484D01*
X115639389Y-91433436D01*
X115718615Y-91242167D01*
X115833635Y-91070027D01*
X115980027Y-90923635D01*
X116152165Y-90808616D01*
X116152167Y-90808615D01*
X116343436Y-90729389D01*
X116546484Y-90689000D01*
X116753516Y-90689000D01*
X116956564Y-90729389D01*
X116956564Y-90729389D01*
G37*
G36*
X128956564Y-90729389D02*
G01*
X129147833Y-90808615D01*
X129147835Y-90808616D01*
X129319973Y-90923635D01*
X129466365Y-91070027D01*
X129581385Y-91242167D01*
X129660611Y-91433436D01*
X129701000Y-91636484D01*
X129701000Y-91843516D01*
X129660611Y-92046564D01*
X129581385Y-92237833D01*
X129581384Y-92237835D01*
X129466365Y-92409973D01*
X129319973Y-92556365D01*
X129147835Y-92671384D01*
X129147834Y-92671385D01*
X129147833Y-92671385D01*
X128956564Y-92750611D01*
X128753516Y-92791000D01*
X128546484Y-92791000D01*
X128343436Y-92750611D01*
X128152167Y-92671385D01*
X128152166Y-92671385D01*
X128152165Y-92671384D01*
X127980027Y-92556365D01*
X127833635Y-92409973D01*
X127718616Y-92237835D01*
X127718615Y-92237833D01*
X127639389Y-92046564D01*
X127599000Y-91843516D01*
X127599000Y-91636484D01*
X127639389Y-91433436D01*
X127718615Y-91242167D01*
X127833635Y-91070027D01*
X127980027Y-90923635D01*
X128152165Y-90808616D01*
X128152167Y-90808615D01*
X128343436Y-90729389D01*
X128546484Y-90689000D01*
X128753516Y-90689000D01*
X128956564Y-90729389D01*
X128956564Y-90729389D01*
G37*
G36*
X116956564Y-88189389D02*
G01*
X117147833Y-88268615D01*
X117147835Y-88268616D01*
X117319973Y-88383635D01*
X117466365Y-88530027D01*
X117581385Y-88702167D01*
X117660611Y-88893436D01*
X117701000Y-89096484D01*
X117701000Y-89303516D01*
X117660611Y-89506564D01*
X117581385Y-89697833D01*
X117581384Y-89697835D01*
X117466365Y-89869973D01*
X117319973Y-90016365D01*
X117147835Y-90131384D01*
X117147834Y-90131385D01*
X117147833Y-90131385D01*
X116956564Y-90210611D01*
X116753516Y-90251000D01*
X116546484Y-90251000D01*
X116343436Y-90210611D01*
X116152167Y-90131385D01*
X116152166Y-90131385D01*
X116152165Y-90131384D01*
X115980027Y-90016365D01*
X115833635Y-89869973D01*
X115718616Y-89697835D01*
X115718615Y-89697833D01*
X115639389Y-89506564D01*
X115599000Y-89303516D01*
X115599000Y-89096484D01*
X115639389Y-88893436D01*
X115718615Y-88702167D01*
X115833635Y-88530027D01*
X115980027Y-88383635D01*
X116152165Y-88268616D01*
X116152167Y-88268615D01*
X116343436Y-88189389D01*
X116546484Y-88149000D01*
X116753516Y-88149000D01*
X116956564Y-88189389D01*
X116956564Y-88189389D01*
G37*
G36*
X128956564Y-88189389D02*
G01*
X129147833Y-88268615D01*
X129147835Y-88268616D01*
X129319973Y-88383635D01*
X129466365Y-88530027D01*
X129581385Y-88702167D01*
X129660611Y-88893436D01*
X129701000Y-89096484D01*
X129701000Y-89303516D01*
X129660611Y-89506564D01*
X129581385Y-89697833D01*
X129581384Y-89697835D01*
X129466365Y-89869973D01*
X129319973Y-90016365D01*
X129147835Y-90131384D01*
X129147834Y-90131385D01*
X129147833Y-90131385D01*
X128956564Y-90210611D01*
X128753516Y-90251000D01*
X128546484Y-90251000D01*
X128343436Y-90210611D01*
X128152167Y-90131385D01*
X128152166Y-90131385D01*
X128152165Y-90131384D01*
X127980027Y-90016365D01*
X127833635Y-89869973D01*
X127718616Y-89697835D01*
X127718615Y-89697833D01*
X127639389Y-89506564D01*
X127599000Y-89303516D01*
X127599000Y-89096484D01*
X127639389Y-88893436D01*
X127718615Y-88702167D01*
X127833635Y-88530027D01*
X127980027Y-88383635D01*
X128152165Y-88268616D01*
X128152167Y-88268615D01*
X128343436Y-88189389D01*
X128546484Y-88149000D01*
X128753516Y-88149000D01*
X128956564Y-88189389D01*
X128956564Y-88189389D01*
G37*
G36*
X158156564Y-88189389D02*
G01*
X158347833Y-88268615D01*
X158347835Y-88268616D01*
X158519973Y-88383635D01*
X158666365Y-88530027D01*
X158781385Y-88702167D01*
X158860611Y-88893436D01*
X158901000Y-89096484D01*
X158901000Y-89303516D01*
X158860611Y-89506564D01*
X158781385Y-89697833D01*
X158781384Y-89697835D01*
X158666365Y-89869973D01*
X158519973Y-90016365D01*
X158347835Y-90131384D01*
X158347834Y-90131385D01*
X158347833Y-90131385D01*
X158156564Y-90210611D01*
X157953516Y-90251000D01*
X157746484Y-90251000D01*
X157543436Y-90210611D01*
X157352167Y-90131385D01*
X157352166Y-90131385D01*
X157352165Y-90131384D01*
X157180027Y-90016365D01*
X157033635Y-89869973D01*
X156918616Y-89697835D01*
X156918615Y-89697833D01*
X156839389Y-89506564D01*
X156799000Y-89303516D01*
X156799000Y-89096484D01*
X156839389Y-88893436D01*
X156918615Y-88702167D01*
X157033635Y-88530027D01*
X157180027Y-88383635D01*
X157352165Y-88268616D01*
X157352167Y-88268615D01*
X157543436Y-88189389D01*
X157746484Y-88149000D01*
X157953516Y-88149000D01*
X158156564Y-88189389D01*
X158156564Y-88189389D01*
G37*
G36*
X149556564Y-88189389D02*
G01*
X149747833Y-88268615D01*
X149747835Y-88268616D01*
X149919973Y-88383635D01*
X150066365Y-88530027D01*
X150181385Y-88702167D01*
X150260611Y-88893436D01*
X150301000Y-89096484D01*
X150301000Y-89303516D01*
X150260611Y-89506564D01*
X150181385Y-89697833D01*
X150181384Y-89697835D01*
X150066365Y-89869973D01*
X149919973Y-90016365D01*
X149747835Y-90131384D01*
X149747834Y-90131385D01*
X149747833Y-90131385D01*
X149556564Y-90210611D01*
X149353516Y-90251000D01*
X149146484Y-90251000D01*
X148943436Y-90210611D01*
X148752167Y-90131385D01*
X148752166Y-90131385D01*
X148752165Y-90131384D01*
X148580027Y-90016365D01*
X148433635Y-89869973D01*
X148318616Y-89697835D01*
X148318615Y-89697833D01*
X148239389Y-89506564D01*
X148199000Y-89303516D01*
X148199000Y-89096484D01*
X148239389Y-88893436D01*
X148318615Y-88702167D01*
X148433635Y-88530027D01*
X148580027Y-88383635D01*
X148752165Y-88268616D01*
X148752167Y-88268615D01*
X148943436Y-88189389D01*
X149146484Y-88149000D01*
X149353516Y-88149000D01*
X149556564Y-88189389D01*
X149556564Y-88189389D01*
G37*
G36*
X170156564Y-88189389D02*
G01*
X170347833Y-88268615D01*
X170347835Y-88268616D01*
X170519973Y-88383635D01*
X170666365Y-88530027D01*
X170781385Y-88702167D01*
X170860611Y-88893436D01*
X170901000Y-89096484D01*
X170901000Y-89303516D01*
X170860611Y-89506564D01*
X170781385Y-89697833D01*
X170781384Y-89697835D01*
X170666365Y-89869973D01*
X170519973Y-90016365D01*
X170347835Y-90131384D01*
X170347834Y-90131385D01*
X170347833Y-90131385D01*
X170156564Y-90210611D01*
X169953516Y-90251000D01*
X169746484Y-90251000D01*
X169543436Y-90210611D01*
X169352167Y-90131385D01*
X169352166Y-90131385D01*
X169352165Y-90131384D01*
X169180027Y-90016365D01*
X169033635Y-89869973D01*
X168918616Y-89697835D01*
X168918615Y-89697833D01*
X168839389Y-89506564D01*
X168799000Y-89303516D01*
X168799000Y-89096484D01*
X168839389Y-88893436D01*
X168918615Y-88702167D01*
X169033635Y-88530027D01*
X169180027Y-88383635D01*
X169352165Y-88268616D01*
X169352167Y-88268615D01*
X169543436Y-88189389D01*
X169746484Y-88149000D01*
X169953516Y-88149000D01*
X170156564Y-88189389D01*
X170156564Y-88189389D01*
G37*
G36*
X137556564Y-88189389D02*
G01*
X137747833Y-88268615D01*
X137747835Y-88268616D01*
X137919973Y-88383635D01*
X138066365Y-88530027D01*
X138181385Y-88702167D01*
X138260611Y-88893436D01*
X138301000Y-89096484D01*
X138301000Y-89303516D01*
X138260611Y-89506564D01*
X138181385Y-89697833D01*
X138181384Y-89697835D01*
X138066365Y-89869973D01*
X137919973Y-90016365D01*
X137747835Y-90131384D01*
X137747834Y-90131385D01*
X137747833Y-90131385D01*
X137556564Y-90210611D01*
X137353516Y-90251000D01*
X137146484Y-90251000D01*
X136943436Y-90210611D01*
X136752167Y-90131385D01*
X136752166Y-90131385D01*
X136752165Y-90131384D01*
X136580027Y-90016365D01*
X136433635Y-89869973D01*
X136318616Y-89697835D01*
X136318615Y-89697833D01*
X136239389Y-89506564D01*
X136199000Y-89303516D01*
X136199000Y-89096484D01*
X136239389Y-88893436D01*
X136318615Y-88702167D01*
X136433635Y-88530027D01*
X136580027Y-88383635D01*
X136752165Y-88268616D01*
X136752167Y-88268615D01*
X136943436Y-88189389D01*
X137146484Y-88149000D01*
X137353516Y-88149000D01*
X137556564Y-88189389D01*
X137556564Y-88189389D01*
G37*
G36*
X116956564Y-85649389D02*
G01*
X117147833Y-85728615D01*
X117147835Y-85728616D01*
X117319973Y-85843635D01*
X117466365Y-85990027D01*
X117581385Y-86162167D01*
X117660611Y-86353436D01*
X117701000Y-86556484D01*
X117701000Y-86763516D01*
X117660611Y-86966564D01*
X117581385Y-87157833D01*
X117581384Y-87157835D01*
X117466365Y-87329973D01*
X117319973Y-87476365D01*
X117147835Y-87591384D01*
X117147834Y-87591385D01*
X117147833Y-87591385D01*
X116956564Y-87670611D01*
X116753516Y-87711000D01*
X116546484Y-87711000D01*
X116343436Y-87670611D01*
X116152167Y-87591385D01*
X116152166Y-87591385D01*
X116152165Y-87591384D01*
X115980027Y-87476365D01*
X115833635Y-87329973D01*
X115718616Y-87157835D01*
X115718615Y-87157833D01*
X115639389Y-86966564D01*
X115599000Y-86763516D01*
X115599000Y-86556484D01*
X115639389Y-86353436D01*
X115718615Y-86162167D01*
X115833635Y-85990027D01*
X115980027Y-85843635D01*
X116152165Y-85728616D01*
X116152167Y-85728615D01*
X116343436Y-85649389D01*
X116546484Y-85609000D01*
X116753516Y-85609000D01*
X116956564Y-85649389D01*
X116956564Y-85649389D01*
G37*
G36*
X128956564Y-85649389D02*
G01*
X129147833Y-85728615D01*
X129147835Y-85728616D01*
X129319973Y-85843635D01*
X129466365Y-85990027D01*
X129581385Y-86162167D01*
X129660611Y-86353436D01*
X129701000Y-86556484D01*
X129701000Y-86763516D01*
X129660611Y-86966564D01*
X129581385Y-87157833D01*
X129581384Y-87157835D01*
X129466365Y-87329973D01*
X129319973Y-87476365D01*
X129147835Y-87591384D01*
X129147834Y-87591385D01*
X129147833Y-87591385D01*
X128956564Y-87670611D01*
X128753516Y-87711000D01*
X128546484Y-87711000D01*
X128343436Y-87670611D01*
X128152167Y-87591385D01*
X128152166Y-87591385D01*
X128152165Y-87591384D01*
X127980027Y-87476365D01*
X127833635Y-87329973D01*
X127718616Y-87157835D01*
X127718615Y-87157833D01*
X127639389Y-86966564D01*
X127599000Y-86763516D01*
X127599000Y-86556484D01*
X127639389Y-86353436D01*
X127718615Y-86162167D01*
X127833635Y-85990027D01*
X127980027Y-85843635D01*
X128152165Y-85728616D01*
X128152167Y-85728615D01*
X128343436Y-85649389D01*
X128546484Y-85609000D01*
X128753516Y-85609000D01*
X128956564Y-85649389D01*
X128956564Y-85649389D01*
G37*
G36*
X170156564Y-85649389D02*
G01*
X170347833Y-85728615D01*
X170347835Y-85728616D01*
X170519973Y-85843635D01*
X170666365Y-85990027D01*
X170781385Y-86162167D01*
X170860611Y-86353436D01*
X170901000Y-86556484D01*
X170901000Y-86763516D01*
X170860611Y-86966564D01*
X170781385Y-87157833D01*
X170781384Y-87157835D01*
X170666365Y-87329973D01*
X170519973Y-87476365D01*
X170347835Y-87591384D01*
X170347834Y-87591385D01*
X170347833Y-87591385D01*
X170156564Y-87670611D01*
X169953516Y-87711000D01*
X169746484Y-87711000D01*
X169543436Y-87670611D01*
X169352167Y-87591385D01*
X169352166Y-87591385D01*
X169352165Y-87591384D01*
X169180027Y-87476365D01*
X169033635Y-87329973D01*
X168918616Y-87157835D01*
X168918615Y-87157833D01*
X168839389Y-86966564D01*
X168799000Y-86763516D01*
X168799000Y-86556484D01*
X168839389Y-86353436D01*
X168918615Y-86162167D01*
X169033635Y-85990027D01*
X169180027Y-85843635D01*
X169352165Y-85728616D01*
X169352167Y-85728615D01*
X169543436Y-85649389D01*
X169746484Y-85609000D01*
X169953516Y-85609000D01*
X170156564Y-85649389D01*
X170156564Y-85649389D01*
G37*
G36*
X158156564Y-85649389D02*
G01*
X158347833Y-85728615D01*
X158347835Y-85728616D01*
X158519973Y-85843635D01*
X158666365Y-85990027D01*
X158781385Y-86162167D01*
X158860611Y-86353436D01*
X158901000Y-86556484D01*
X158901000Y-86763516D01*
X158860611Y-86966564D01*
X158781385Y-87157833D01*
X158781384Y-87157835D01*
X158666365Y-87329973D01*
X158519973Y-87476365D01*
X158347835Y-87591384D01*
X158347834Y-87591385D01*
X158347833Y-87591385D01*
X158156564Y-87670611D01*
X157953516Y-87711000D01*
X157746484Y-87711000D01*
X157543436Y-87670611D01*
X157352167Y-87591385D01*
X157352166Y-87591385D01*
X157352165Y-87591384D01*
X157180027Y-87476365D01*
X157033635Y-87329973D01*
X156918616Y-87157835D01*
X156918615Y-87157833D01*
X156839389Y-86966564D01*
X156799000Y-86763516D01*
X156799000Y-86556484D01*
X156839389Y-86353436D01*
X156918615Y-86162167D01*
X157033635Y-85990027D01*
X157180027Y-85843635D01*
X157352165Y-85728616D01*
X157352167Y-85728615D01*
X157543436Y-85649389D01*
X157746484Y-85609000D01*
X157953516Y-85609000D01*
X158156564Y-85649389D01*
X158156564Y-85649389D01*
G37*
G36*
X137556564Y-85649389D02*
G01*
X137747833Y-85728615D01*
X137747835Y-85728616D01*
X137919973Y-85843635D01*
X138066365Y-85990027D01*
X138181385Y-86162167D01*
X138260611Y-86353436D01*
X138301000Y-86556484D01*
X138301000Y-86763516D01*
X138260611Y-86966564D01*
X138181385Y-87157833D01*
X138181384Y-87157835D01*
X138066365Y-87329973D01*
X137919973Y-87476365D01*
X137747835Y-87591384D01*
X137747834Y-87591385D01*
X137747833Y-87591385D01*
X137556564Y-87670611D01*
X137353516Y-87711000D01*
X137146484Y-87711000D01*
X136943436Y-87670611D01*
X136752167Y-87591385D01*
X136752166Y-87591385D01*
X136752165Y-87591384D01*
X136580027Y-87476365D01*
X136433635Y-87329973D01*
X136318616Y-87157835D01*
X136318615Y-87157833D01*
X136239389Y-86966564D01*
X136199000Y-86763516D01*
X136199000Y-86556484D01*
X136239389Y-86353436D01*
X136318615Y-86162167D01*
X136433635Y-85990027D01*
X136580027Y-85843635D01*
X136752165Y-85728616D01*
X136752167Y-85728615D01*
X136943436Y-85649389D01*
X137146484Y-85609000D01*
X137353516Y-85609000D01*
X137556564Y-85649389D01*
X137556564Y-85649389D01*
G37*
G36*
X149556564Y-85649389D02*
G01*
X149747833Y-85728615D01*
X149747835Y-85728616D01*
X149919973Y-85843635D01*
X150066365Y-85990027D01*
X150181385Y-86162167D01*
X150260611Y-86353436D01*
X150301000Y-86556484D01*
X150301000Y-86763516D01*
X150260611Y-86966564D01*
X150181385Y-87157833D01*
X150181384Y-87157835D01*
X150066365Y-87329973D01*
X149919973Y-87476365D01*
X149747835Y-87591384D01*
X149747834Y-87591385D01*
X149747833Y-87591385D01*
X149556564Y-87670611D01*
X149353516Y-87711000D01*
X149146484Y-87711000D01*
X148943436Y-87670611D01*
X148752167Y-87591385D01*
X148752166Y-87591385D01*
X148752165Y-87591384D01*
X148580027Y-87476365D01*
X148433635Y-87329973D01*
X148318616Y-87157835D01*
X148318615Y-87157833D01*
X148239389Y-86966564D01*
X148199000Y-86763516D01*
X148199000Y-86556484D01*
X148239389Y-86353436D01*
X148318615Y-86162167D01*
X148433635Y-85990027D01*
X148580027Y-85843635D01*
X148752165Y-85728616D01*
X148752167Y-85728615D01*
X148943436Y-85649389D01*
X149146484Y-85609000D01*
X149353516Y-85609000D01*
X149556564Y-85649389D01*
X149556564Y-85649389D01*
G37*
G36*
X137556564Y-83109389D02*
G01*
X137747833Y-83188615D01*
X137747835Y-83188616D01*
X137919973Y-83303635D01*
X138066365Y-83450027D01*
X138181385Y-83622167D01*
X138260611Y-83813436D01*
X138301000Y-84016484D01*
X138301000Y-84223516D01*
X138260611Y-84426564D01*
X138181385Y-84617833D01*
X138181384Y-84617835D01*
X138066365Y-84789973D01*
X137919973Y-84936365D01*
X137747835Y-85051384D01*
X137747834Y-85051385D01*
X137747833Y-85051385D01*
X137556564Y-85130611D01*
X137353516Y-85171000D01*
X137146484Y-85171000D01*
X136943436Y-85130611D01*
X136752167Y-85051385D01*
X136752166Y-85051385D01*
X136752165Y-85051384D01*
X136580027Y-84936365D01*
X136433635Y-84789973D01*
X136318616Y-84617835D01*
X136318615Y-84617833D01*
X136239389Y-84426564D01*
X136199000Y-84223516D01*
X136199000Y-84016484D01*
X136239389Y-83813436D01*
X136318615Y-83622167D01*
X136433635Y-83450027D01*
X136580027Y-83303635D01*
X136752165Y-83188616D01*
X136752167Y-83188615D01*
X136943436Y-83109389D01*
X137146484Y-83069000D01*
X137353516Y-83069000D01*
X137556564Y-83109389D01*
X137556564Y-83109389D01*
G37*
G36*
X170156564Y-83109389D02*
G01*
X170347833Y-83188615D01*
X170347835Y-83188616D01*
X170519973Y-83303635D01*
X170666365Y-83450027D01*
X170781385Y-83622167D01*
X170860611Y-83813436D01*
X170901000Y-84016484D01*
X170901000Y-84223516D01*
X170860611Y-84426564D01*
X170781385Y-84617833D01*
X170781384Y-84617835D01*
X170666365Y-84789973D01*
X170519973Y-84936365D01*
X170347835Y-85051384D01*
X170347834Y-85051385D01*
X170347833Y-85051385D01*
X170156564Y-85130611D01*
X169953516Y-85171000D01*
X169746484Y-85171000D01*
X169543436Y-85130611D01*
X169352167Y-85051385D01*
X169352166Y-85051385D01*
X169352165Y-85051384D01*
X169180027Y-84936365D01*
X169033635Y-84789973D01*
X168918616Y-84617835D01*
X168918615Y-84617833D01*
X168839389Y-84426564D01*
X168799000Y-84223516D01*
X168799000Y-84016484D01*
X168839389Y-83813436D01*
X168918615Y-83622167D01*
X169033635Y-83450027D01*
X169180027Y-83303635D01*
X169352165Y-83188616D01*
X169352167Y-83188615D01*
X169543436Y-83109389D01*
X169746484Y-83069000D01*
X169953516Y-83069000D01*
X170156564Y-83109389D01*
X170156564Y-83109389D01*
G37*
G36*
X149556564Y-83109389D02*
G01*
X149747833Y-83188615D01*
X149747835Y-83188616D01*
X149919973Y-83303635D01*
X150066365Y-83450027D01*
X150181385Y-83622167D01*
X150260611Y-83813436D01*
X150301000Y-84016484D01*
X150301000Y-84223516D01*
X150260611Y-84426564D01*
X150181385Y-84617833D01*
X150181384Y-84617835D01*
X150066365Y-84789973D01*
X149919973Y-84936365D01*
X149747835Y-85051384D01*
X149747834Y-85051385D01*
X149747833Y-85051385D01*
X149556564Y-85130611D01*
X149353516Y-85171000D01*
X149146484Y-85171000D01*
X148943436Y-85130611D01*
X148752167Y-85051385D01*
X148752166Y-85051385D01*
X148752165Y-85051384D01*
X148580027Y-84936365D01*
X148433635Y-84789973D01*
X148318616Y-84617835D01*
X148318615Y-84617833D01*
X148239389Y-84426564D01*
X148199000Y-84223516D01*
X148199000Y-84016484D01*
X148239389Y-83813436D01*
X148318615Y-83622167D01*
X148433635Y-83450027D01*
X148580027Y-83303635D01*
X148752165Y-83188616D01*
X148752167Y-83188615D01*
X148943436Y-83109389D01*
X149146484Y-83069000D01*
X149353516Y-83069000D01*
X149556564Y-83109389D01*
X149556564Y-83109389D01*
G37*
G36*
X116956564Y-83109389D02*
G01*
X117147833Y-83188615D01*
X117147835Y-83188616D01*
X117319973Y-83303635D01*
X117466365Y-83450027D01*
X117581385Y-83622167D01*
X117660611Y-83813436D01*
X117701000Y-84016484D01*
X117701000Y-84223516D01*
X117660611Y-84426564D01*
X117581385Y-84617833D01*
X117581384Y-84617835D01*
X117466365Y-84789973D01*
X117319973Y-84936365D01*
X117147835Y-85051384D01*
X117147834Y-85051385D01*
X117147833Y-85051385D01*
X116956564Y-85130611D01*
X116753516Y-85171000D01*
X116546484Y-85171000D01*
X116343436Y-85130611D01*
X116152167Y-85051385D01*
X116152166Y-85051385D01*
X116152165Y-85051384D01*
X115980027Y-84936365D01*
X115833635Y-84789973D01*
X115718616Y-84617835D01*
X115718615Y-84617833D01*
X115639389Y-84426564D01*
X115599000Y-84223516D01*
X115599000Y-84016484D01*
X115639389Y-83813436D01*
X115718615Y-83622167D01*
X115833635Y-83450027D01*
X115980027Y-83303635D01*
X116152165Y-83188616D01*
X116152167Y-83188615D01*
X116343436Y-83109389D01*
X116546484Y-83069000D01*
X116753516Y-83069000D01*
X116956564Y-83109389D01*
X116956564Y-83109389D01*
G37*
G36*
X128956564Y-83109389D02*
G01*
X129147833Y-83188615D01*
X129147835Y-83188616D01*
X129319973Y-83303635D01*
X129466365Y-83450027D01*
X129581385Y-83622167D01*
X129660611Y-83813436D01*
X129701000Y-84016484D01*
X129701000Y-84223516D01*
X129660611Y-84426564D01*
X129581385Y-84617833D01*
X129581384Y-84617835D01*
X129466365Y-84789973D01*
X129319973Y-84936365D01*
X129147835Y-85051384D01*
X129147834Y-85051385D01*
X129147833Y-85051385D01*
X128956564Y-85130611D01*
X128753516Y-85171000D01*
X128546484Y-85171000D01*
X128343436Y-85130611D01*
X128152167Y-85051385D01*
X128152166Y-85051385D01*
X128152165Y-85051384D01*
X127980027Y-84936365D01*
X127833635Y-84789973D01*
X127718616Y-84617835D01*
X127718615Y-84617833D01*
X127639389Y-84426564D01*
X127599000Y-84223516D01*
X127599000Y-84016484D01*
X127639389Y-83813436D01*
X127718615Y-83622167D01*
X127833635Y-83450027D01*
X127980027Y-83303635D01*
X128152165Y-83188616D01*
X128152167Y-83188615D01*
X128343436Y-83109389D01*
X128546484Y-83069000D01*
X128753516Y-83069000D01*
X128956564Y-83109389D01*
X128956564Y-83109389D01*
G37*
G36*
X158156564Y-83109389D02*
G01*
X158347833Y-83188615D01*
X158347835Y-83188616D01*
X158519973Y-83303635D01*
X158666365Y-83450027D01*
X158781385Y-83622167D01*
X158860611Y-83813436D01*
X158901000Y-84016484D01*
X158901000Y-84223516D01*
X158860611Y-84426564D01*
X158781385Y-84617833D01*
X158781384Y-84617835D01*
X158666365Y-84789973D01*
X158519973Y-84936365D01*
X158347835Y-85051384D01*
X158347834Y-85051385D01*
X158347833Y-85051385D01*
X158156564Y-85130611D01*
X157953516Y-85171000D01*
X157746484Y-85171000D01*
X157543436Y-85130611D01*
X157352167Y-85051385D01*
X157352166Y-85051385D01*
X157352165Y-85051384D01*
X157180027Y-84936365D01*
X157033635Y-84789973D01*
X156918616Y-84617835D01*
X156918615Y-84617833D01*
X156839389Y-84426564D01*
X156799000Y-84223516D01*
X156799000Y-84016484D01*
X156839389Y-83813436D01*
X156918615Y-83622167D01*
X157033635Y-83450027D01*
X157180027Y-83303635D01*
X157352165Y-83188616D01*
X157352167Y-83188615D01*
X157543436Y-83109389D01*
X157746484Y-83069000D01*
X157953516Y-83069000D01*
X158156564Y-83109389D01*
X158156564Y-83109389D01*
G37*
G36*
X158156564Y-80569389D02*
G01*
X158347833Y-80648615D01*
X158347835Y-80648616D01*
X158519973Y-80763635D01*
X158666365Y-80910027D01*
X158781385Y-81082167D01*
X158860611Y-81273436D01*
X158901000Y-81476484D01*
X158901000Y-81683516D01*
X158860611Y-81886564D01*
X158781385Y-82077833D01*
X158781384Y-82077835D01*
X158666365Y-82249973D01*
X158519973Y-82396365D01*
X158347835Y-82511384D01*
X158347834Y-82511385D01*
X158347833Y-82511385D01*
X158156564Y-82590611D01*
X157953516Y-82631000D01*
X157746484Y-82631000D01*
X157543436Y-82590611D01*
X157352167Y-82511385D01*
X157352166Y-82511385D01*
X157352165Y-82511384D01*
X157180027Y-82396365D01*
X157033635Y-82249973D01*
X156918616Y-82077835D01*
X156918615Y-82077833D01*
X156839389Y-81886564D01*
X156799000Y-81683516D01*
X156799000Y-81476484D01*
X156839389Y-81273436D01*
X156918615Y-81082167D01*
X157033635Y-80910027D01*
X157180027Y-80763635D01*
X157352165Y-80648616D01*
X157352167Y-80648615D01*
X157543436Y-80569389D01*
X157746484Y-80529000D01*
X157953516Y-80529000D01*
X158156564Y-80569389D01*
X158156564Y-80569389D01*
G37*
G36*
X116956564Y-80569389D02*
G01*
X117147833Y-80648615D01*
X117147835Y-80648616D01*
X117319973Y-80763635D01*
X117466365Y-80910027D01*
X117581385Y-81082167D01*
X117660611Y-81273436D01*
X117701000Y-81476484D01*
X117701000Y-81683516D01*
X117660611Y-81886564D01*
X117581385Y-82077833D01*
X117581384Y-82077835D01*
X117466365Y-82249973D01*
X117319973Y-82396365D01*
X117147835Y-82511384D01*
X117147834Y-82511385D01*
X117147833Y-82511385D01*
X116956564Y-82590611D01*
X116753516Y-82631000D01*
X116546484Y-82631000D01*
X116343436Y-82590611D01*
X116152167Y-82511385D01*
X116152166Y-82511385D01*
X116152165Y-82511384D01*
X115980027Y-82396365D01*
X115833635Y-82249973D01*
X115718616Y-82077835D01*
X115718615Y-82077833D01*
X115639389Y-81886564D01*
X115599000Y-81683516D01*
X115599000Y-81476484D01*
X115639389Y-81273436D01*
X115718615Y-81082167D01*
X115833635Y-80910027D01*
X115980027Y-80763635D01*
X116152165Y-80648616D01*
X116152167Y-80648615D01*
X116343436Y-80569389D01*
X116546484Y-80529000D01*
X116753516Y-80529000D01*
X116956564Y-80569389D01*
X116956564Y-80569389D01*
G37*
G36*
X137556564Y-80569389D02*
G01*
X137747833Y-80648615D01*
X137747835Y-80648616D01*
X137919973Y-80763635D01*
X138066365Y-80910027D01*
X138181385Y-81082167D01*
X138260611Y-81273436D01*
X138301000Y-81476484D01*
X138301000Y-81683516D01*
X138260611Y-81886564D01*
X138181385Y-82077833D01*
X138181384Y-82077835D01*
X138066365Y-82249973D01*
X137919973Y-82396365D01*
X137747835Y-82511384D01*
X137747834Y-82511385D01*
X137747833Y-82511385D01*
X137556564Y-82590611D01*
X137353516Y-82631000D01*
X137146484Y-82631000D01*
X136943436Y-82590611D01*
X136752167Y-82511385D01*
X136752166Y-82511385D01*
X136752165Y-82511384D01*
X136580027Y-82396365D01*
X136433635Y-82249973D01*
X136318616Y-82077835D01*
X136318615Y-82077833D01*
X136239389Y-81886564D01*
X136199000Y-81683516D01*
X136199000Y-81476484D01*
X136239389Y-81273436D01*
X136318615Y-81082167D01*
X136433635Y-80910027D01*
X136580027Y-80763635D01*
X136752165Y-80648616D01*
X136752167Y-80648615D01*
X136943436Y-80569389D01*
X137146484Y-80529000D01*
X137353516Y-80529000D01*
X137556564Y-80569389D01*
X137556564Y-80569389D01*
G37*
G36*
X116956564Y-78029389D02*
G01*
X117147833Y-78108615D01*
X117147835Y-78108616D01*
X117319973Y-78223635D01*
X117466365Y-78370027D01*
X117581385Y-78542167D01*
X117660611Y-78733436D01*
X117701000Y-78936484D01*
X117701000Y-79143516D01*
X117660611Y-79346564D01*
X117581385Y-79537833D01*
X117581384Y-79537835D01*
X117466365Y-79709973D01*
X117319973Y-79856365D01*
X117147835Y-79971384D01*
X117147834Y-79971385D01*
X117147833Y-79971385D01*
X116956564Y-80050611D01*
X116753516Y-80091000D01*
X116546484Y-80091000D01*
X116343436Y-80050611D01*
X116152167Y-79971385D01*
X116152166Y-79971385D01*
X116152165Y-79971384D01*
X115980027Y-79856365D01*
X115833635Y-79709973D01*
X115718616Y-79537835D01*
X115718615Y-79537833D01*
X115639389Y-79346564D01*
X115599000Y-79143516D01*
X115599000Y-78936484D01*
X115639389Y-78733436D01*
X115718615Y-78542167D01*
X115833635Y-78370027D01*
X115980027Y-78223635D01*
X116152165Y-78108616D01*
X116152167Y-78108615D01*
X116343436Y-78029389D01*
X116546484Y-77989000D01*
X116753516Y-77989000D01*
X116956564Y-78029389D01*
X116956564Y-78029389D01*
G37*
G36*
X137556564Y-78029389D02*
G01*
X137747833Y-78108615D01*
X137747835Y-78108616D01*
X137919973Y-78223635D01*
X138066365Y-78370027D01*
X138181385Y-78542167D01*
X138260611Y-78733436D01*
X138301000Y-78936484D01*
X138301000Y-79143516D01*
X138260611Y-79346564D01*
X138181385Y-79537833D01*
X138181384Y-79537835D01*
X138066365Y-79709973D01*
X137919973Y-79856365D01*
X137747835Y-79971384D01*
X137747834Y-79971385D01*
X137747833Y-79971385D01*
X137556564Y-80050611D01*
X137353516Y-80091000D01*
X137146484Y-80091000D01*
X136943436Y-80050611D01*
X136752167Y-79971385D01*
X136752166Y-79971385D01*
X136752165Y-79971384D01*
X136580027Y-79856365D01*
X136433635Y-79709973D01*
X136318616Y-79537835D01*
X136318615Y-79537833D01*
X136239389Y-79346564D01*
X136199000Y-79143516D01*
X136199000Y-78936484D01*
X136239389Y-78733436D01*
X136318615Y-78542167D01*
X136433635Y-78370027D01*
X136580027Y-78223635D01*
X136752165Y-78108616D01*
X136752167Y-78108615D01*
X136943436Y-78029389D01*
X137146484Y-77989000D01*
X137353516Y-77989000D01*
X137556564Y-78029389D01*
X137556564Y-78029389D01*
G37*
G36*
X158156564Y-78029389D02*
G01*
X158347833Y-78108615D01*
X158347835Y-78108616D01*
X158519973Y-78223635D01*
X158666365Y-78370027D01*
X158781385Y-78542167D01*
X158860611Y-78733436D01*
X158901000Y-78936484D01*
X158901000Y-79143516D01*
X158860611Y-79346564D01*
X158781385Y-79537833D01*
X158781384Y-79537835D01*
X158666365Y-79709973D01*
X158519973Y-79856365D01*
X158347835Y-79971384D01*
X158347834Y-79971385D01*
X158347833Y-79971385D01*
X158156564Y-80050611D01*
X157953516Y-80091000D01*
X157746484Y-80091000D01*
X157543436Y-80050611D01*
X157352167Y-79971385D01*
X157352166Y-79971385D01*
X157352165Y-79971384D01*
X157180027Y-79856365D01*
X157033635Y-79709973D01*
X156918616Y-79537835D01*
X156918615Y-79537833D01*
X156839389Y-79346564D01*
X156799000Y-79143516D01*
X156799000Y-78936484D01*
X156839389Y-78733436D01*
X156918615Y-78542167D01*
X157033635Y-78370027D01*
X157180027Y-78223635D01*
X157352165Y-78108616D01*
X157352167Y-78108615D01*
X157543436Y-78029389D01*
X157746484Y-77989000D01*
X157953516Y-77989000D01*
X158156564Y-78029389D01*
X158156564Y-78029389D01*
G37*
G36*
X147250170Y-70135803D02*
G01*
X147261875Y-70139354D01*
X147272665Y-70145121D01*
X147282119Y-70152881D01*
X147289879Y-70162335D01*
X147295646Y-70173125D01*
X147299197Y-70184830D01*
X147301000Y-70203138D01*
X147301000Y-70566862D01*
X147299197Y-70585170D01*
X147295646Y-70596875D01*
X147289879Y-70607665D01*
X147278370Y-70621688D01*
X147269355Y-70630704D01*
X147255741Y-70651078D01*
X147246365Y-70673717D01*
X147241585Y-70697751D01*
X147241585Y-70722255D01*
X147246366Y-70746288D01*
X147255744Y-70768926D01*
X147269358Y-70789301D01*
X147278374Y-70798317D01*
X147289879Y-70812335D01*
X147295646Y-70823125D01*
X147299197Y-70834830D01*
X147301000Y-70853138D01*
X147301000Y-71216862D01*
X147299197Y-71235170D01*
X147295646Y-71246875D01*
X147289879Y-71257665D01*
X147278370Y-71271688D01*
X147269355Y-71280704D01*
X147255741Y-71301078D01*
X147246365Y-71323717D01*
X147241585Y-71347751D01*
X147241585Y-71372255D01*
X147246366Y-71396288D01*
X147255744Y-71418926D01*
X147269358Y-71439301D01*
X147278374Y-71448317D01*
X147289879Y-71462335D01*
X147295646Y-71473125D01*
X147299197Y-71484830D01*
X147301000Y-71503138D01*
X147301000Y-71866862D01*
X147299197Y-71885170D01*
X147295646Y-71896875D01*
X147289879Y-71907665D01*
X147278370Y-71921688D01*
X147269355Y-71930704D01*
X147255741Y-71951078D01*
X147246365Y-71973717D01*
X147241585Y-71997751D01*
X147241585Y-72022255D01*
X147246366Y-72046288D01*
X147255744Y-72068926D01*
X147269358Y-72089301D01*
X147278374Y-72098317D01*
X147289879Y-72112335D01*
X147295646Y-72123125D01*
X147299197Y-72134830D01*
X147301000Y-72153138D01*
X147301000Y-72516862D01*
X147299197Y-72535170D01*
X147295646Y-72546875D01*
X147289879Y-72557665D01*
X147278370Y-72571688D01*
X147269355Y-72580704D01*
X147255741Y-72601078D01*
X147246365Y-72623717D01*
X147241585Y-72647751D01*
X147241585Y-72672255D01*
X147246366Y-72696288D01*
X147255744Y-72718926D01*
X147269358Y-72739301D01*
X147278374Y-72748317D01*
X147289879Y-72762335D01*
X147295646Y-72773125D01*
X147299197Y-72784830D01*
X147301000Y-72803138D01*
X147301000Y-73166862D01*
X147299197Y-73185170D01*
X147295646Y-73196875D01*
X147289879Y-73207665D01*
X147278370Y-73221688D01*
X147269355Y-73230704D01*
X147255741Y-73251078D01*
X147246365Y-73273717D01*
X147241585Y-73297751D01*
X147241585Y-73322255D01*
X147246366Y-73346288D01*
X147255744Y-73368926D01*
X147269358Y-73389301D01*
X147278374Y-73398317D01*
X147289879Y-73412335D01*
X147295646Y-73423125D01*
X147299197Y-73434830D01*
X147301000Y-73453138D01*
X147301000Y-73816862D01*
X147299197Y-73835170D01*
X147295646Y-73846875D01*
X147289879Y-73857665D01*
X147278370Y-73871688D01*
X147269355Y-73880704D01*
X147255741Y-73901078D01*
X147246365Y-73923717D01*
X147241585Y-73947751D01*
X147241585Y-73972255D01*
X147246366Y-73996288D01*
X147255744Y-74018926D01*
X147269358Y-74039301D01*
X147278374Y-74048317D01*
X147289879Y-74062335D01*
X147295646Y-74073125D01*
X147299197Y-74084830D01*
X147301000Y-74103138D01*
X147301000Y-74466862D01*
X147299197Y-74485170D01*
X147295646Y-74496875D01*
X147289879Y-74507665D01*
X147278370Y-74521688D01*
X147269355Y-74530704D01*
X147255741Y-74551078D01*
X147246365Y-74573717D01*
X147241585Y-74597751D01*
X147241585Y-74622255D01*
X147246366Y-74646288D01*
X147255744Y-74668926D01*
X147269358Y-74689301D01*
X147278374Y-74698317D01*
X147289879Y-74712335D01*
X147295646Y-74723125D01*
X147299197Y-74734830D01*
X147301000Y-74753138D01*
X147301000Y-75116862D01*
X147299197Y-75135170D01*
X147295646Y-75146875D01*
X147289879Y-75157665D01*
X147278370Y-75171688D01*
X147269355Y-75180704D01*
X147255741Y-75201078D01*
X147246365Y-75223717D01*
X147241585Y-75247751D01*
X147241585Y-75272255D01*
X147246366Y-75296288D01*
X147255744Y-75318926D01*
X147269358Y-75339301D01*
X147278374Y-75348317D01*
X147289879Y-75362335D01*
X147295646Y-75373125D01*
X147299197Y-75384830D01*
X147301000Y-75403138D01*
X147301000Y-75766862D01*
X147299197Y-75785170D01*
X147295646Y-75796875D01*
X147289879Y-75807665D01*
X147278370Y-75821688D01*
X147269355Y-75830704D01*
X147255741Y-75851078D01*
X147246365Y-75873717D01*
X147241585Y-75897751D01*
X147241585Y-75922255D01*
X147246366Y-75946288D01*
X147255744Y-75968926D01*
X147269358Y-75989301D01*
X147278374Y-75998317D01*
X147289879Y-76012335D01*
X147295646Y-76023125D01*
X147299197Y-76034830D01*
X147301000Y-76053138D01*
X147301000Y-76416862D01*
X147299197Y-76435170D01*
X147295646Y-76446875D01*
X147289879Y-76457665D01*
X147278370Y-76471688D01*
X147269355Y-76480704D01*
X147255741Y-76501078D01*
X147246365Y-76523717D01*
X147241585Y-76547751D01*
X147241585Y-76572255D01*
X147246366Y-76596288D01*
X147255744Y-76618926D01*
X147269358Y-76639301D01*
X147278374Y-76648317D01*
X147289879Y-76662335D01*
X147295646Y-76673125D01*
X147299197Y-76684830D01*
X147301000Y-76703138D01*
X147301000Y-77066862D01*
X147299197Y-77085170D01*
X147295646Y-77096875D01*
X147289879Y-77107665D01*
X147278370Y-77121688D01*
X147269355Y-77130704D01*
X147255741Y-77151078D01*
X147246365Y-77173717D01*
X147241585Y-77197751D01*
X147241585Y-77222255D01*
X147246366Y-77246288D01*
X147255744Y-77268926D01*
X147269358Y-77289301D01*
X147278374Y-77298317D01*
X147289879Y-77312335D01*
X147295646Y-77323125D01*
X147299197Y-77334830D01*
X147301000Y-77353138D01*
X147301000Y-77716862D01*
X147299197Y-77735170D01*
X147295646Y-77746875D01*
X147289879Y-77757665D01*
X147282119Y-77767119D01*
X147272665Y-77774879D01*
X147261875Y-77780646D01*
X147250170Y-77784197D01*
X147231862Y-77786000D01*
X145718138Y-77786000D01*
X145699830Y-77784197D01*
X145688125Y-77780646D01*
X145677335Y-77774879D01*
X145667881Y-77767119D01*
X145660121Y-77757665D01*
X145654354Y-77746875D01*
X145650803Y-77735170D01*
X145649000Y-77716862D01*
X145649000Y-77353138D01*
X145650803Y-77334830D01*
X145654354Y-77323125D01*
X145660121Y-77312335D01*
X145671630Y-77298312D01*
X145680645Y-77289296D01*
X145694259Y-77268922D01*
X145703635Y-77246283D01*
X145708415Y-77222249D01*
X145708415Y-77197745D01*
X145703634Y-77173712D01*
X145694256Y-77151074D01*
X145680642Y-77130699D01*
X145671626Y-77121683D01*
X145660121Y-77107665D01*
X145654354Y-77096875D01*
X145650803Y-77085170D01*
X145649000Y-77066862D01*
X145649000Y-76703138D01*
X145650803Y-76684830D01*
X145654354Y-76673125D01*
X145660121Y-76662335D01*
X145671630Y-76648312D01*
X145680645Y-76639296D01*
X145694259Y-76618922D01*
X145703635Y-76596283D01*
X145708415Y-76572249D01*
X145708415Y-76547745D01*
X145703634Y-76523712D01*
X145694256Y-76501074D01*
X145680642Y-76480699D01*
X145671626Y-76471683D01*
X145660121Y-76457665D01*
X145654354Y-76446875D01*
X145650803Y-76435170D01*
X145649000Y-76416862D01*
X145649000Y-76053138D01*
X145650803Y-76034830D01*
X145654354Y-76023125D01*
X145660121Y-76012335D01*
X145671630Y-75998312D01*
X145680645Y-75989296D01*
X145694259Y-75968922D01*
X145703635Y-75946283D01*
X145708415Y-75922249D01*
X145708415Y-75897745D01*
X145703634Y-75873712D01*
X145694256Y-75851074D01*
X145680642Y-75830699D01*
X145671626Y-75821683D01*
X145660121Y-75807665D01*
X145654354Y-75796875D01*
X145650803Y-75785170D01*
X145649000Y-75766862D01*
X145649000Y-75403138D01*
X145650803Y-75384830D01*
X145654354Y-75373125D01*
X145660121Y-75362335D01*
X145671630Y-75348312D01*
X145680645Y-75339296D01*
X145694259Y-75318922D01*
X145703635Y-75296283D01*
X145708415Y-75272249D01*
X145708415Y-75247745D01*
X145703634Y-75223712D01*
X145694256Y-75201074D01*
X145680642Y-75180699D01*
X145671626Y-75171683D01*
X145660121Y-75157665D01*
X145654354Y-75146875D01*
X145650803Y-75135170D01*
X145649000Y-75116862D01*
X145649000Y-74753138D01*
X145650803Y-74734830D01*
X145654354Y-74723125D01*
X145660121Y-74712335D01*
X145671630Y-74698312D01*
X145680645Y-74689296D01*
X145694259Y-74668922D01*
X145703635Y-74646283D01*
X145708415Y-74622249D01*
X145708415Y-74597745D01*
X145703634Y-74573712D01*
X145694256Y-74551074D01*
X145680642Y-74530699D01*
X145671626Y-74521683D01*
X145660121Y-74507665D01*
X145654354Y-74496875D01*
X145650803Y-74485170D01*
X145649000Y-74466862D01*
X145649000Y-74103138D01*
X145650803Y-74084830D01*
X145654354Y-74073125D01*
X145660121Y-74062335D01*
X145671630Y-74048312D01*
X145680645Y-74039296D01*
X145694259Y-74018922D01*
X145703635Y-73996283D01*
X145708415Y-73972249D01*
X145708415Y-73947745D01*
X145703634Y-73923712D01*
X145694256Y-73901074D01*
X145680642Y-73880699D01*
X145671626Y-73871683D01*
X145660121Y-73857665D01*
X145654354Y-73846875D01*
X145650803Y-73835170D01*
X145649000Y-73816862D01*
X145649000Y-73453138D01*
X145650803Y-73434830D01*
X145654354Y-73423125D01*
X145660121Y-73412335D01*
X145671630Y-73398312D01*
X145680645Y-73389296D01*
X145694259Y-73368922D01*
X145703635Y-73346283D01*
X145708415Y-73322249D01*
X145708415Y-73297745D01*
X145703634Y-73273712D01*
X145694256Y-73251074D01*
X145680642Y-73230699D01*
X145671626Y-73221683D01*
X145660121Y-73207665D01*
X145654354Y-73196875D01*
X145650803Y-73185170D01*
X145649000Y-73166862D01*
X145649000Y-72803138D01*
X145650803Y-72784830D01*
X145654354Y-72773125D01*
X145660121Y-72762335D01*
X145671630Y-72748312D01*
X145680645Y-72739296D01*
X145694259Y-72718922D01*
X145703635Y-72696283D01*
X145708415Y-72672249D01*
X145708415Y-72647745D01*
X145703634Y-72623712D01*
X145694256Y-72601074D01*
X145680642Y-72580699D01*
X145671626Y-72571683D01*
X145660121Y-72557665D01*
X145654354Y-72546875D01*
X145650803Y-72535170D01*
X145649000Y-72516862D01*
X145649000Y-72153138D01*
X145650803Y-72134830D01*
X145654354Y-72123125D01*
X145660121Y-72112335D01*
X145671630Y-72098312D01*
X145680645Y-72089296D01*
X145694259Y-72068922D01*
X145703635Y-72046283D01*
X145708415Y-72022249D01*
X145708415Y-71997745D01*
X145703634Y-71973712D01*
X145694256Y-71951074D01*
X145680642Y-71930699D01*
X145671626Y-71921683D01*
X145660121Y-71907665D01*
X145654354Y-71896875D01*
X145650803Y-71885170D01*
X145649000Y-71866862D01*
X145649000Y-71503138D01*
X145650803Y-71484830D01*
X145654354Y-71473125D01*
X145660121Y-71462335D01*
X145671630Y-71448312D01*
X145680645Y-71439296D01*
X145694259Y-71418922D01*
X145703635Y-71396283D01*
X145708415Y-71372249D01*
X145708415Y-71347745D01*
X145703634Y-71323712D01*
X145694256Y-71301074D01*
X145680642Y-71280699D01*
X145671626Y-71271683D01*
X145660121Y-71257665D01*
X145654354Y-71246875D01*
X145650803Y-71235170D01*
X145649000Y-71216862D01*
X145649000Y-70853138D01*
X145650803Y-70834830D01*
X145654354Y-70823125D01*
X145660121Y-70812335D01*
X145671630Y-70798312D01*
X145680645Y-70789296D01*
X145694259Y-70768922D01*
X145703635Y-70746283D01*
X145708415Y-70722249D01*
X145708415Y-70697745D01*
X145703634Y-70673712D01*
X145694256Y-70651074D01*
X145680642Y-70630699D01*
X145671626Y-70621683D01*
X145660121Y-70607665D01*
X145654354Y-70596875D01*
X145650803Y-70585170D01*
X145649000Y-70566862D01*
X145649000Y-70203138D01*
X145650803Y-70184830D01*
X145654354Y-70173125D01*
X145660121Y-70162335D01*
X145667881Y-70152881D01*
X145677335Y-70145121D01*
X145688125Y-70139354D01*
X145699830Y-70135803D01*
X145718138Y-70134000D01*
X147231862Y-70134000D01*
X147250170Y-70135803D01*
X147250170Y-70135803D01*
G37*
G36*
X141500170Y-70135803D02*
G01*
X141511875Y-70139354D01*
X141522665Y-70145121D01*
X141532119Y-70152881D01*
X141539879Y-70162335D01*
X141545646Y-70173125D01*
X141549197Y-70184830D01*
X141551000Y-70203138D01*
X141551000Y-70566862D01*
X141549197Y-70585170D01*
X141545646Y-70596875D01*
X141539879Y-70607665D01*
X141528370Y-70621688D01*
X141519355Y-70630704D01*
X141505741Y-70651078D01*
X141496365Y-70673717D01*
X141491585Y-70697751D01*
X141491585Y-70722255D01*
X141496366Y-70746288D01*
X141505744Y-70768926D01*
X141519358Y-70789301D01*
X141528374Y-70798317D01*
X141539879Y-70812335D01*
X141545646Y-70823125D01*
X141549197Y-70834830D01*
X141551000Y-70853138D01*
X141551000Y-71216862D01*
X141549197Y-71235170D01*
X141545646Y-71246875D01*
X141539879Y-71257665D01*
X141528370Y-71271688D01*
X141519355Y-71280704D01*
X141505741Y-71301078D01*
X141496365Y-71323717D01*
X141491585Y-71347751D01*
X141491585Y-71372255D01*
X141496366Y-71396288D01*
X141505744Y-71418926D01*
X141519358Y-71439301D01*
X141528374Y-71448317D01*
X141539879Y-71462335D01*
X141545646Y-71473125D01*
X141549197Y-71484830D01*
X141551000Y-71503138D01*
X141551000Y-71866862D01*
X141549197Y-71885170D01*
X141545646Y-71896875D01*
X141539879Y-71907665D01*
X141528370Y-71921688D01*
X141519355Y-71930704D01*
X141505741Y-71951078D01*
X141496365Y-71973717D01*
X141491585Y-71997751D01*
X141491585Y-72022255D01*
X141496366Y-72046288D01*
X141505744Y-72068926D01*
X141519358Y-72089301D01*
X141528374Y-72098317D01*
X141539879Y-72112335D01*
X141545646Y-72123125D01*
X141549197Y-72134830D01*
X141551000Y-72153138D01*
X141551000Y-72516862D01*
X141549197Y-72535170D01*
X141545646Y-72546875D01*
X141539879Y-72557665D01*
X141528370Y-72571688D01*
X141519355Y-72580704D01*
X141505741Y-72601078D01*
X141496365Y-72623717D01*
X141491585Y-72647751D01*
X141491585Y-72672255D01*
X141496366Y-72696288D01*
X141505744Y-72718926D01*
X141519358Y-72739301D01*
X141528374Y-72748317D01*
X141539879Y-72762335D01*
X141545646Y-72773125D01*
X141549197Y-72784830D01*
X141551000Y-72803138D01*
X141551000Y-73166862D01*
X141549197Y-73185170D01*
X141545646Y-73196875D01*
X141539879Y-73207665D01*
X141528370Y-73221688D01*
X141519355Y-73230704D01*
X141505741Y-73251078D01*
X141496365Y-73273717D01*
X141491585Y-73297751D01*
X141491585Y-73322255D01*
X141496366Y-73346288D01*
X141505744Y-73368926D01*
X141519358Y-73389301D01*
X141528374Y-73398317D01*
X141539879Y-73412335D01*
X141545646Y-73423125D01*
X141549197Y-73434830D01*
X141551000Y-73453138D01*
X141551000Y-73816862D01*
X141549197Y-73835170D01*
X141545646Y-73846875D01*
X141539879Y-73857665D01*
X141528370Y-73871688D01*
X141519355Y-73880704D01*
X141505741Y-73901078D01*
X141496365Y-73923717D01*
X141491585Y-73947751D01*
X141491585Y-73972255D01*
X141496366Y-73996288D01*
X141505744Y-74018926D01*
X141519358Y-74039301D01*
X141528374Y-74048317D01*
X141539879Y-74062335D01*
X141545646Y-74073125D01*
X141549197Y-74084830D01*
X141551000Y-74103138D01*
X141551000Y-74466862D01*
X141549197Y-74485170D01*
X141545646Y-74496875D01*
X141539879Y-74507665D01*
X141528370Y-74521688D01*
X141519355Y-74530704D01*
X141505741Y-74551078D01*
X141496365Y-74573717D01*
X141491585Y-74597751D01*
X141491585Y-74622255D01*
X141496366Y-74646288D01*
X141505744Y-74668926D01*
X141519358Y-74689301D01*
X141528374Y-74698317D01*
X141539879Y-74712335D01*
X141545646Y-74723125D01*
X141549197Y-74734830D01*
X141551000Y-74753138D01*
X141551000Y-75116862D01*
X141549197Y-75135170D01*
X141545646Y-75146875D01*
X141539879Y-75157665D01*
X141528370Y-75171688D01*
X141519355Y-75180704D01*
X141505741Y-75201078D01*
X141496365Y-75223717D01*
X141491585Y-75247751D01*
X141491585Y-75272255D01*
X141496366Y-75296288D01*
X141505744Y-75318926D01*
X141519358Y-75339301D01*
X141528374Y-75348317D01*
X141539879Y-75362335D01*
X141545646Y-75373125D01*
X141549197Y-75384830D01*
X141551000Y-75403138D01*
X141551000Y-75766862D01*
X141549197Y-75785170D01*
X141545646Y-75796875D01*
X141539879Y-75807665D01*
X141528370Y-75821688D01*
X141519355Y-75830704D01*
X141505741Y-75851078D01*
X141496365Y-75873717D01*
X141491585Y-75897751D01*
X141491585Y-75922255D01*
X141496366Y-75946288D01*
X141505744Y-75968926D01*
X141519358Y-75989301D01*
X141528374Y-75998317D01*
X141539879Y-76012335D01*
X141545646Y-76023125D01*
X141549197Y-76034830D01*
X141551000Y-76053138D01*
X141551000Y-76416862D01*
X141549197Y-76435170D01*
X141545646Y-76446875D01*
X141539879Y-76457665D01*
X141528370Y-76471688D01*
X141519355Y-76480704D01*
X141505741Y-76501078D01*
X141496365Y-76523717D01*
X141491585Y-76547751D01*
X141491585Y-76572255D01*
X141496366Y-76596288D01*
X141505744Y-76618926D01*
X141519358Y-76639301D01*
X141528374Y-76648317D01*
X141539879Y-76662335D01*
X141545646Y-76673125D01*
X141549197Y-76684830D01*
X141551000Y-76703138D01*
X141551000Y-77066862D01*
X141549197Y-77085170D01*
X141545646Y-77096875D01*
X141539879Y-77107665D01*
X141528370Y-77121688D01*
X141519355Y-77130704D01*
X141505741Y-77151078D01*
X141496365Y-77173717D01*
X141491585Y-77197751D01*
X141491585Y-77222255D01*
X141496366Y-77246288D01*
X141505744Y-77268926D01*
X141519358Y-77289301D01*
X141528374Y-77298317D01*
X141539879Y-77312335D01*
X141545646Y-77323125D01*
X141549197Y-77334830D01*
X141551000Y-77353138D01*
X141551000Y-77716862D01*
X141549197Y-77735170D01*
X141545646Y-77746875D01*
X141539879Y-77757665D01*
X141532119Y-77767119D01*
X141522665Y-77774879D01*
X141511875Y-77780646D01*
X141500170Y-77784197D01*
X141481862Y-77786000D01*
X139968138Y-77786000D01*
X139949830Y-77784197D01*
X139938125Y-77780646D01*
X139927335Y-77774879D01*
X139917881Y-77767119D01*
X139910121Y-77757665D01*
X139904354Y-77746875D01*
X139900803Y-77735170D01*
X139899000Y-77716862D01*
X139899000Y-77353138D01*
X139900803Y-77334830D01*
X139904354Y-77323125D01*
X139910121Y-77312335D01*
X139921630Y-77298312D01*
X139930645Y-77289296D01*
X139944259Y-77268922D01*
X139953635Y-77246283D01*
X139958415Y-77222249D01*
X139958415Y-77197745D01*
X139953634Y-77173712D01*
X139944256Y-77151074D01*
X139930642Y-77130699D01*
X139921626Y-77121683D01*
X139910121Y-77107665D01*
X139904354Y-77096875D01*
X139900803Y-77085170D01*
X139899000Y-77066862D01*
X139899000Y-76703138D01*
X139900803Y-76684830D01*
X139904354Y-76673125D01*
X139910121Y-76662335D01*
X139921630Y-76648312D01*
X139930645Y-76639296D01*
X139944259Y-76618922D01*
X139953635Y-76596283D01*
X139958415Y-76572249D01*
X139958415Y-76547745D01*
X139953634Y-76523712D01*
X139944256Y-76501074D01*
X139930642Y-76480699D01*
X139921626Y-76471683D01*
X139910121Y-76457665D01*
X139904354Y-76446875D01*
X139900803Y-76435170D01*
X139899000Y-76416862D01*
X139899000Y-76053138D01*
X139900803Y-76034830D01*
X139904354Y-76023125D01*
X139910121Y-76012335D01*
X139921630Y-75998312D01*
X139930645Y-75989296D01*
X139944259Y-75968922D01*
X139953635Y-75946283D01*
X139958415Y-75922249D01*
X139958415Y-75897745D01*
X139953634Y-75873712D01*
X139944256Y-75851074D01*
X139930642Y-75830699D01*
X139921626Y-75821683D01*
X139910121Y-75807665D01*
X139904354Y-75796875D01*
X139900803Y-75785170D01*
X139899000Y-75766862D01*
X139899000Y-75403138D01*
X139900803Y-75384830D01*
X139904354Y-75373125D01*
X139910121Y-75362335D01*
X139921630Y-75348312D01*
X139930645Y-75339296D01*
X139944259Y-75318922D01*
X139953635Y-75296283D01*
X139958415Y-75272249D01*
X139958415Y-75247745D01*
X139953634Y-75223712D01*
X139944256Y-75201074D01*
X139930642Y-75180699D01*
X139921626Y-75171683D01*
X139910121Y-75157665D01*
X139904354Y-75146875D01*
X139900803Y-75135170D01*
X139899000Y-75116862D01*
X139899000Y-74753138D01*
X139900803Y-74734830D01*
X139904354Y-74723125D01*
X139910121Y-74712335D01*
X139921630Y-74698312D01*
X139930645Y-74689296D01*
X139944259Y-74668922D01*
X139953635Y-74646283D01*
X139958415Y-74622249D01*
X139958415Y-74597745D01*
X139953634Y-74573712D01*
X139944256Y-74551074D01*
X139930642Y-74530699D01*
X139921626Y-74521683D01*
X139910121Y-74507665D01*
X139904354Y-74496875D01*
X139900803Y-74485170D01*
X139899000Y-74466862D01*
X139899000Y-74103138D01*
X139900803Y-74084830D01*
X139904354Y-74073125D01*
X139910121Y-74062335D01*
X139921630Y-74048312D01*
X139930645Y-74039296D01*
X139944259Y-74018922D01*
X139953635Y-73996283D01*
X139958415Y-73972249D01*
X139958415Y-73947745D01*
X139953634Y-73923712D01*
X139944256Y-73901074D01*
X139930642Y-73880699D01*
X139921626Y-73871683D01*
X139910121Y-73857665D01*
X139904354Y-73846875D01*
X139900803Y-73835170D01*
X139899000Y-73816862D01*
X139899000Y-73453138D01*
X139900803Y-73434830D01*
X139904354Y-73423125D01*
X139910121Y-73412335D01*
X139921630Y-73398312D01*
X139930645Y-73389296D01*
X139944259Y-73368922D01*
X139953635Y-73346283D01*
X139958415Y-73322249D01*
X139958415Y-73297745D01*
X139953634Y-73273712D01*
X139944256Y-73251074D01*
X139930642Y-73230699D01*
X139921626Y-73221683D01*
X139910121Y-73207665D01*
X139904354Y-73196875D01*
X139900803Y-73185170D01*
X139899000Y-73166862D01*
X139899000Y-72803138D01*
X139900803Y-72784830D01*
X139904354Y-72773125D01*
X139910121Y-72762335D01*
X139921630Y-72748312D01*
X139930645Y-72739296D01*
X139944259Y-72718922D01*
X139953635Y-72696283D01*
X139958415Y-72672249D01*
X139958415Y-72647745D01*
X139953634Y-72623712D01*
X139944256Y-72601074D01*
X139930642Y-72580699D01*
X139921626Y-72571683D01*
X139910121Y-72557665D01*
X139904354Y-72546875D01*
X139900803Y-72535170D01*
X139899000Y-72516862D01*
X139899000Y-72153138D01*
X139900803Y-72134830D01*
X139904354Y-72123125D01*
X139910121Y-72112335D01*
X139921630Y-72098312D01*
X139930645Y-72089296D01*
X139944259Y-72068922D01*
X139953635Y-72046283D01*
X139958415Y-72022249D01*
X139958415Y-71997745D01*
X139953634Y-71973712D01*
X139944256Y-71951074D01*
X139930642Y-71930699D01*
X139921626Y-71921683D01*
X139910121Y-71907665D01*
X139904354Y-71896875D01*
X139900803Y-71885170D01*
X139899000Y-71866862D01*
X139899000Y-71503138D01*
X139900803Y-71484830D01*
X139904354Y-71473125D01*
X139910121Y-71462335D01*
X139921630Y-71448312D01*
X139930645Y-71439296D01*
X139944259Y-71418922D01*
X139953635Y-71396283D01*
X139958415Y-71372249D01*
X139958415Y-71347745D01*
X139953634Y-71323712D01*
X139944256Y-71301074D01*
X139930642Y-71280699D01*
X139921626Y-71271683D01*
X139910121Y-71257665D01*
X139904354Y-71246875D01*
X139900803Y-71235170D01*
X139899000Y-71216862D01*
X139899000Y-70853138D01*
X139900803Y-70834830D01*
X139904354Y-70823125D01*
X139910121Y-70812335D01*
X139921630Y-70798312D01*
X139930645Y-70789296D01*
X139944259Y-70768922D01*
X139953635Y-70746283D01*
X139958415Y-70722249D01*
X139958415Y-70697745D01*
X139953634Y-70673712D01*
X139944256Y-70651074D01*
X139930642Y-70630699D01*
X139921626Y-70621683D01*
X139910121Y-70607665D01*
X139904354Y-70596875D01*
X139900803Y-70585170D01*
X139899000Y-70566862D01*
X139899000Y-70203138D01*
X139900803Y-70184830D01*
X139904354Y-70173125D01*
X139910121Y-70162335D01*
X139917881Y-70152881D01*
X139927335Y-70145121D01*
X139938125Y-70139354D01*
X139949830Y-70135803D01*
X139968138Y-70134000D01*
X141481862Y-70134000D01*
X141500170Y-70135803D01*
X141500170Y-70135803D01*
G37*
G36*
X145128131Y-71412523D02*
G01*
X145156628Y-71421167D01*
X145182889Y-71435204D01*
X145205906Y-71454094D01*
X145224796Y-71477111D01*
X145238833Y-71503372D01*
X145247477Y-71531869D01*
X145251000Y-71567640D01*
X145251000Y-76352360D01*
X145247477Y-76388131D01*
X145238833Y-76416628D01*
X145224796Y-76442889D01*
X145205906Y-76465906D01*
X145182889Y-76484796D01*
X145156628Y-76498833D01*
X145128131Y-76507477D01*
X145092360Y-76511000D01*
X142107640Y-76511000D01*
X142071869Y-76507477D01*
X142043372Y-76498833D01*
X142017111Y-76484796D01*
X141994094Y-76465906D01*
X141975204Y-76442889D01*
X141961167Y-76416628D01*
X141952523Y-76388131D01*
X141949000Y-76352360D01*
X141949000Y-71567640D01*
X141952523Y-71531869D01*
X141961167Y-71503372D01*
X141975204Y-71477111D01*
X141994094Y-71454094D01*
X142017111Y-71435204D01*
X142043372Y-71421167D01*
X142071869Y-71412523D01*
X142107640Y-71409000D01*
X145092360Y-71409000D01*
X145128131Y-71412523D01*
X145128131Y-71412523D01*
G37*
G36*
X164430443Y-74335519D02*
G01*
X164496627Y-74342037D01*
X164666466Y-74393557D01*
X164822991Y-74477222D01*
X164846938Y-74496875D01*
X164960186Y-74589814D01*
X165037481Y-74684000D01*
X165072778Y-74727009D01*
X165156443Y-74883534D01*
X165207963Y-75053373D01*
X165225359Y-75230000D01*
X165207963Y-75406627D01*
X165156443Y-75576466D01*
X165072778Y-75732991D01*
X165071142Y-75734984D01*
X164960186Y-75870186D01*
X164867460Y-75946283D01*
X164822991Y-75982778D01*
X164666466Y-76066443D01*
X164496627Y-76117963D01*
X164430443Y-76124481D01*
X164364260Y-76131000D01*
X164275740Y-76131000D01*
X164209557Y-76124481D01*
X164143373Y-76117963D01*
X163973534Y-76066443D01*
X163817009Y-75982778D01*
X163772540Y-75946283D01*
X163679814Y-75870186D01*
X163568858Y-75734984D01*
X163567222Y-75732991D01*
X163483557Y-75576466D01*
X163432037Y-75406627D01*
X163414641Y-75230000D01*
X163432037Y-75053373D01*
X163483557Y-74883534D01*
X163567222Y-74727009D01*
X163602519Y-74684000D01*
X163679814Y-74589814D01*
X163793062Y-74496875D01*
X163817009Y-74477222D01*
X163973534Y-74393557D01*
X164143373Y-74342037D01*
X164209557Y-74335519D01*
X164275740Y-74329000D01*
X164364260Y-74329000D01*
X164430443Y-74335519D01*
X164430443Y-74335519D01*
G37*
G36*
X161890443Y-74335519D02*
G01*
X161956627Y-74342037D01*
X162126466Y-74393557D01*
X162282991Y-74477222D01*
X162306938Y-74496875D01*
X162420186Y-74589814D01*
X162497481Y-74684000D01*
X162532778Y-74727009D01*
X162616443Y-74883534D01*
X162667963Y-75053373D01*
X162685359Y-75230000D01*
X162667963Y-75406627D01*
X162616443Y-75576466D01*
X162532778Y-75732991D01*
X162531142Y-75734984D01*
X162420186Y-75870186D01*
X162327460Y-75946283D01*
X162282991Y-75982778D01*
X162126466Y-76066443D01*
X161956627Y-76117963D01*
X161890443Y-76124481D01*
X161824260Y-76131000D01*
X161735740Y-76131000D01*
X161669557Y-76124481D01*
X161603373Y-76117963D01*
X161433534Y-76066443D01*
X161277009Y-75982778D01*
X161232540Y-75946283D01*
X161139814Y-75870186D01*
X161028858Y-75734984D01*
X161027222Y-75732991D01*
X160943557Y-75576466D01*
X160892037Y-75406627D01*
X160874641Y-75230000D01*
X160892037Y-75053373D01*
X160943557Y-74883534D01*
X161027222Y-74727009D01*
X161062519Y-74684000D01*
X161139814Y-74589814D01*
X161253062Y-74496875D01*
X161277009Y-74477222D01*
X161433534Y-74393557D01*
X161603373Y-74342037D01*
X161669557Y-74335519D01*
X161735740Y-74329000D01*
X161824260Y-74329000D01*
X161890443Y-74335519D01*
X161890443Y-74335519D01*
G37*
G36*
X119580443Y-74335519D02*
G01*
X119646627Y-74342037D01*
X119816466Y-74393557D01*
X119972991Y-74477222D01*
X119996938Y-74496875D01*
X120110186Y-74589814D01*
X120187481Y-74684000D01*
X120222778Y-74727009D01*
X120306443Y-74883534D01*
X120357963Y-75053373D01*
X120375359Y-75230000D01*
X120357963Y-75406627D01*
X120306443Y-75576466D01*
X120222778Y-75732991D01*
X120221142Y-75734984D01*
X120110186Y-75870186D01*
X120017460Y-75946283D01*
X119972991Y-75982778D01*
X119816466Y-76066443D01*
X119646627Y-76117963D01*
X119580443Y-76124481D01*
X119514260Y-76131000D01*
X119425740Y-76131000D01*
X119359557Y-76124481D01*
X119293373Y-76117963D01*
X119123534Y-76066443D01*
X118967009Y-75982778D01*
X118922540Y-75946283D01*
X118829814Y-75870186D01*
X118718858Y-75734984D01*
X118717222Y-75732991D01*
X118633557Y-75576466D01*
X118582037Y-75406627D01*
X118564641Y-75230000D01*
X118582037Y-75053373D01*
X118633557Y-74883534D01*
X118717222Y-74727009D01*
X118752519Y-74684000D01*
X118829814Y-74589814D01*
X118943062Y-74496875D01*
X118967009Y-74477222D01*
X119123534Y-74393557D01*
X119293373Y-74342037D01*
X119359557Y-74335519D01*
X119425740Y-74329000D01*
X119514260Y-74329000D01*
X119580443Y-74335519D01*
X119580443Y-74335519D01*
G37*
G36*
X117040443Y-74335519D02*
G01*
X117106627Y-74342037D01*
X117276466Y-74393557D01*
X117432991Y-74477222D01*
X117456938Y-74496875D01*
X117570186Y-74589814D01*
X117647481Y-74684000D01*
X117682778Y-74727009D01*
X117766443Y-74883534D01*
X117817963Y-75053373D01*
X117835359Y-75230000D01*
X117817963Y-75406627D01*
X117766443Y-75576466D01*
X117682778Y-75732991D01*
X117681142Y-75734984D01*
X117570186Y-75870186D01*
X117477460Y-75946283D01*
X117432991Y-75982778D01*
X117276466Y-76066443D01*
X117106627Y-76117963D01*
X117040443Y-76124481D01*
X116974260Y-76131000D01*
X116885740Y-76131000D01*
X116819557Y-76124481D01*
X116753373Y-76117963D01*
X116583534Y-76066443D01*
X116427009Y-75982778D01*
X116382540Y-75946283D01*
X116289814Y-75870186D01*
X116178858Y-75734984D01*
X116177222Y-75732991D01*
X116093557Y-75576466D01*
X116042037Y-75406627D01*
X116024641Y-75230000D01*
X116042037Y-75053373D01*
X116093557Y-74883534D01*
X116177222Y-74727009D01*
X116212519Y-74684000D01*
X116289814Y-74589814D01*
X116403062Y-74496875D01*
X116427009Y-74477222D01*
X116583534Y-74393557D01*
X116753373Y-74342037D01*
X116819557Y-74335519D01*
X116885740Y-74329000D01*
X116974260Y-74329000D01*
X117040443Y-74335519D01*
X117040443Y-74335519D01*
G37*
G36*
X164430442Y-71795518D02*
G01*
X164496627Y-71802037D01*
X164666466Y-71853557D01*
X164822991Y-71937222D01*
X164839874Y-71951078D01*
X164960186Y-72049814D01*
X165034015Y-72139776D01*
X165072778Y-72187009D01*
X165156443Y-72343534D01*
X165207963Y-72513373D01*
X165225359Y-72690000D01*
X165207963Y-72866627D01*
X165156443Y-73036466D01*
X165072778Y-73192991D01*
X165060735Y-73207665D01*
X164960186Y-73330186D01*
X164860086Y-73412335D01*
X164822991Y-73442778D01*
X164666466Y-73526443D01*
X164496627Y-73577963D01*
X164430442Y-73584482D01*
X164364260Y-73591000D01*
X164275740Y-73591000D01*
X164209558Y-73584482D01*
X164143373Y-73577963D01*
X163973534Y-73526443D01*
X163817009Y-73442778D01*
X163779914Y-73412335D01*
X163679814Y-73330186D01*
X163579265Y-73207665D01*
X163567222Y-73192991D01*
X163483557Y-73036466D01*
X163432037Y-72866627D01*
X163414641Y-72690000D01*
X163432037Y-72513373D01*
X163483557Y-72343534D01*
X163567222Y-72187009D01*
X163605985Y-72139776D01*
X163679814Y-72049814D01*
X163800126Y-71951078D01*
X163817009Y-71937222D01*
X163973534Y-71853557D01*
X164143373Y-71802037D01*
X164209558Y-71795518D01*
X164275740Y-71789000D01*
X164364260Y-71789000D01*
X164430442Y-71795518D01*
X164430442Y-71795518D01*
G37*
G36*
X161890442Y-71795518D02*
G01*
X161956627Y-71802037D01*
X162126466Y-71853557D01*
X162282991Y-71937222D01*
X162299874Y-71951078D01*
X162420186Y-72049814D01*
X162494015Y-72139776D01*
X162532778Y-72187009D01*
X162616443Y-72343534D01*
X162667963Y-72513373D01*
X162685359Y-72690000D01*
X162667963Y-72866627D01*
X162616443Y-73036466D01*
X162532778Y-73192991D01*
X162520735Y-73207665D01*
X162420186Y-73330186D01*
X162320086Y-73412335D01*
X162282991Y-73442778D01*
X162126466Y-73526443D01*
X161956627Y-73577963D01*
X161890442Y-73584482D01*
X161824260Y-73591000D01*
X161735740Y-73591000D01*
X161669558Y-73584482D01*
X161603373Y-73577963D01*
X161433534Y-73526443D01*
X161277009Y-73442778D01*
X161239914Y-73412335D01*
X161139814Y-73330186D01*
X161039265Y-73207665D01*
X161027222Y-73192991D01*
X160943557Y-73036466D01*
X160892037Y-72866627D01*
X160874641Y-72690000D01*
X160892037Y-72513373D01*
X160943557Y-72343534D01*
X161027222Y-72187009D01*
X161065985Y-72139776D01*
X161139814Y-72049814D01*
X161260126Y-71951078D01*
X161277009Y-71937222D01*
X161433534Y-71853557D01*
X161603373Y-71802037D01*
X161669558Y-71795518D01*
X161735740Y-71789000D01*
X161824260Y-71789000D01*
X161890442Y-71795518D01*
X161890442Y-71795518D01*
G37*
G36*
X119580442Y-71795518D02*
G01*
X119646627Y-71802037D01*
X119816466Y-71853557D01*
X119972991Y-71937222D01*
X119989874Y-71951078D01*
X120110186Y-72049814D01*
X120184015Y-72139776D01*
X120222778Y-72187009D01*
X120306443Y-72343534D01*
X120357963Y-72513373D01*
X120375359Y-72690000D01*
X120357963Y-72866627D01*
X120306443Y-73036466D01*
X120222778Y-73192991D01*
X120210735Y-73207665D01*
X120110186Y-73330186D01*
X120010086Y-73412335D01*
X119972991Y-73442778D01*
X119816466Y-73526443D01*
X119646627Y-73577963D01*
X119580442Y-73584482D01*
X119514260Y-73591000D01*
X119425740Y-73591000D01*
X119359558Y-73584482D01*
X119293373Y-73577963D01*
X119123534Y-73526443D01*
X118967009Y-73442778D01*
X118929914Y-73412335D01*
X118829814Y-73330186D01*
X118729265Y-73207665D01*
X118717222Y-73192991D01*
X118633557Y-73036466D01*
X118582037Y-72866627D01*
X118564641Y-72690000D01*
X118582037Y-72513373D01*
X118633557Y-72343534D01*
X118717222Y-72187009D01*
X118755985Y-72139776D01*
X118829814Y-72049814D01*
X118950126Y-71951078D01*
X118967009Y-71937222D01*
X119123534Y-71853557D01*
X119293373Y-71802037D01*
X119359558Y-71795518D01*
X119425740Y-71789000D01*
X119514260Y-71789000D01*
X119580442Y-71795518D01*
X119580442Y-71795518D01*
G37*
G36*
X117040442Y-71795518D02*
G01*
X117106627Y-71802037D01*
X117276466Y-71853557D01*
X117432991Y-71937222D01*
X117449874Y-71951078D01*
X117570186Y-72049814D01*
X117644015Y-72139776D01*
X117682778Y-72187009D01*
X117766443Y-72343534D01*
X117817963Y-72513373D01*
X117835359Y-72690000D01*
X117817963Y-72866627D01*
X117766443Y-73036466D01*
X117682778Y-73192991D01*
X117670735Y-73207665D01*
X117570186Y-73330186D01*
X117470086Y-73412335D01*
X117432991Y-73442778D01*
X117276466Y-73526443D01*
X117106627Y-73577963D01*
X117040442Y-73584482D01*
X116974260Y-73591000D01*
X116885740Y-73591000D01*
X116819558Y-73584482D01*
X116753373Y-73577963D01*
X116583534Y-73526443D01*
X116427009Y-73442778D01*
X116389914Y-73412335D01*
X116289814Y-73330186D01*
X116189265Y-73207665D01*
X116177222Y-73192991D01*
X116093557Y-73036466D01*
X116042037Y-72866627D01*
X116024641Y-72690000D01*
X116042037Y-72513373D01*
X116093557Y-72343534D01*
X116177222Y-72187009D01*
X116215985Y-72139776D01*
X116289814Y-72049814D01*
X116410126Y-71951078D01*
X116427009Y-71937222D01*
X116583534Y-71853557D01*
X116753373Y-71802037D01*
X116819558Y-71795518D01*
X116885740Y-71789000D01*
X116974260Y-71789000D01*
X117040442Y-71795518D01*
X117040442Y-71795518D01*
G37*
G36*
X117040443Y-69255519D02*
G01*
X117106627Y-69262037D01*
X117276466Y-69313557D01*
X117432991Y-69397222D01*
X117468729Y-69426552D01*
X117570186Y-69509814D01*
X117653448Y-69611271D01*
X117682778Y-69647009D01*
X117766443Y-69803534D01*
X117817963Y-69973373D01*
X117835359Y-70150000D01*
X117817963Y-70326627D01*
X117766443Y-70496466D01*
X117682778Y-70652991D01*
X117665768Y-70673717D01*
X117570186Y-70790186D01*
X117483321Y-70861473D01*
X117432991Y-70902778D01*
X117276466Y-70986443D01*
X117106627Y-71037963D01*
X117040443Y-71044481D01*
X116974260Y-71051000D01*
X116885740Y-71051000D01*
X116819557Y-71044481D01*
X116753373Y-71037963D01*
X116583534Y-70986443D01*
X116427009Y-70902778D01*
X116376679Y-70861473D01*
X116289814Y-70790186D01*
X116194232Y-70673717D01*
X116177222Y-70652991D01*
X116093557Y-70496466D01*
X116042037Y-70326627D01*
X116024641Y-70150000D01*
X116042037Y-69973373D01*
X116093557Y-69803534D01*
X116177222Y-69647009D01*
X116206552Y-69611271D01*
X116289814Y-69509814D01*
X116391271Y-69426552D01*
X116427009Y-69397222D01*
X116583534Y-69313557D01*
X116753373Y-69262037D01*
X116819557Y-69255519D01*
X116885740Y-69249000D01*
X116974260Y-69249000D01*
X117040443Y-69255519D01*
X117040443Y-69255519D01*
G37*
G36*
X164430443Y-69255519D02*
G01*
X164496627Y-69262037D01*
X164666466Y-69313557D01*
X164822991Y-69397222D01*
X164858729Y-69426552D01*
X164960186Y-69509814D01*
X165043448Y-69611271D01*
X165072778Y-69647009D01*
X165156443Y-69803534D01*
X165207963Y-69973373D01*
X165225359Y-70150000D01*
X165207963Y-70326627D01*
X165156443Y-70496466D01*
X165072778Y-70652991D01*
X165055768Y-70673717D01*
X164960186Y-70790186D01*
X164873321Y-70861473D01*
X164822991Y-70902778D01*
X164666466Y-70986443D01*
X164496627Y-71037963D01*
X164430443Y-71044481D01*
X164364260Y-71051000D01*
X164275740Y-71051000D01*
X164209557Y-71044481D01*
X164143373Y-71037963D01*
X163973534Y-70986443D01*
X163817009Y-70902778D01*
X163766679Y-70861473D01*
X163679814Y-70790186D01*
X163584232Y-70673717D01*
X163567222Y-70652991D01*
X163483557Y-70496466D01*
X163432037Y-70326627D01*
X163414641Y-70150000D01*
X163432037Y-69973373D01*
X163483557Y-69803534D01*
X163567222Y-69647009D01*
X163596552Y-69611271D01*
X163679814Y-69509814D01*
X163781271Y-69426552D01*
X163817009Y-69397222D01*
X163973534Y-69313557D01*
X164143373Y-69262037D01*
X164209557Y-69255519D01*
X164275740Y-69249000D01*
X164364260Y-69249000D01*
X164430443Y-69255519D01*
X164430443Y-69255519D01*
G37*
G36*
X161890443Y-69255519D02*
G01*
X161956627Y-69262037D01*
X162126466Y-69313557D01*
X162282991Y-69397222D01*
X162318729Y-69426552D01*
X162420186Y-69509814D01*
X162503448Y-69611271D01*
X162532778Y-69647009D01*
X162616443Y-69803534D01*
X162667963Y-69973373D01*
X162685359Y-70150000D01*
X162667963Y-70326627D01*
X162616443Y-70496466D01*
X162532778Y-70652991D01*
X162515768Y-70673717D01*
X162420186Y-70790186D01*
X162333321Y-70861473D01*
X162282991Y-70902778D01*
X162126466Y-70986443D01*
X161956627Y-71037963D01*
X161890443Y-71044481D01*
X161824260Y-71051000D01*
X161735740Y-71051000D01*
X161669557Y-71044481D01*
X161603373Y-71037963D01*
X161433534Y-70986443D01*
X161277009Y-70902778D01*
X161226679Y-70861473D01*
X161139814Y-70790186D01*
X161044232Y-70673717D01*
X161027222Y-70652991D01*
X160943557Y-70496466D01*
X160892037Y-70326627D01*
X160874641Y-70150000D01*
X160892037Y-69973373D01*
X160943557Y-69803534D01*
X161027222Y-69647009D01*
X161056552Y-69611271D01*
X161139814Y-69509814D01*
X161241271Y-69426552D01*
X161277009Y-69397222D01*
X161433534Y-69313557D01*
X161603373Y-69262037D01*
X161669557Y-69255519D01*
X161735740Y-69249000D01*
X161824260Y-69249000D01*
X161890443Y-69255519D01*
X161890443Y-69255519D01*
G37*
G36*
X119580443Y-69255519D02*
G01*
X119646627Y-69262037D01*
X119816466Y-69313557D01*
X119972991Y-69397222D01*
X120008729Y-69426552D01*
X120110186Y-69509814D01*
X120193448Y-69611271D01*
X120222778Y-69647009D01*
X120306443Y-69803534D01*
X120357963Y-69973373D01*
X120375359Y-70150000D01*
X120357963Y-70326627D01*
X120306443Y-70496466D01*
X120222778Y-70652991D01*
X120205768Y-70673717D01*
X120110186Y-70790186D01*
X120023321Y-70861473D01*
X119972991Y-70902778D01*
X119816466Y-70986443D01*
X119646627Y-71037963D01*
X119580443Y-71044481D01*
X119514260Y-71051000D01*
X119425740Y-71051000D01*
X119359557Y-71044481D01*
X119293373Y-71037963D01*
X119123534Y-70986443D01*
X118967009Y-70902778D01*
X118916679Y-70861473D01*
X118829814Y-70790186D01*
X118734232Y-70673717D01*
X118717222Y-70652991D01*
X118633557Y-70496466D01*
X118582037Y-70326627D01*
X118564641Y-70150000D01*
X118582037Y-69973373D01*
X118633557Y-69803534D01*
X118717222Y-69647009D01*
X118746552Y-69611271D01*
X118829814Y-69509814D01*
X118931271Y-69426552D01*
X118967009Y-69397222D01*
X119123534Y-69313557D01*
X119293373Y-69262037D01*
X119359557Y-69255519D01*
X119425740Y-69249000D01*
X119514260Y-69249000D01*
X119580443Y-69255519D01*
X119580443Y-69255519D01*
G37*
G36*
X145700562Y-66238181D02*
G01*
X145735481Y-66248774D01*
X145767663Y-66265976D01*
X145795873Y-66289127D01*
X145819024Y-66317337D01*
X145836226Y-66349519D01*
X145846819Y-66384438D01*
X145851000Y-66426895D01*
X145851000Y-68793105D01*
X145846819Y-68835562D01*
X145836226Y-68870481D01*
X145819024Y-68902663D01*
X145795873Y-68930873D01*
X145767663Y-68954024D01*
X145735481Y-68971226D01*
X145700562Y-68981819D01*
X145658105Y-68986000D01*
X144516895Y-68986000D01*
X144474438Y-68981819D01*
X144439519Y-68971226D01*
X144407337Y-68954024D01*
X144379127Y-68930873D01*
X144355976Y-68902663D01*
X144338774Y-68870481D01*
X144328181Y-68835562D01*
X144324000Y-68793105D01*
X144324000Y-66426895D01*
X144328181Y-66384438D01*
X144338774Y-66349519D01*
X144355976Y-66317337D01*
X144379127Y-66289127D01*
X144407337Y-66265976D01*
X144439519Y-66248774D01*
X144474438Y-66238181D01*
X144516895Y-66234000D01*
X145658105Y-66234000D01*
X145700562Y-66238181D01*
X145700562Y-66238181D01*
G37*
G36*
X142725562Y-66238181D02*
G01*
X142760481Y-66248774D01*
X142792663Y-66265976D01*
X142820873Y-66289127D01*
X142844024Y-66317337D01*
X142861226Y-66349519D01*
X142871819Y-66384438D01*
X142876000Y-66426895D01*
X142876000Y-68793105D01*
X142871819Y-68835562D01*
X142861226Y-68870481D01*
X142844024Y-68902663D01*
X142820873Y-68930873D01*
X142792663Y-68954024D01*
X142760481Y-68971226D01*
X142725562Y-68981819D01*
X142683105Y-68986000D01*
X141541895Y-68986000D01*
X141499438Y-68981819D01*
X141464519Y-68971226D01*
X141432337Y-68954024D01*
X141404127Y-68930873D01*
X141380976Y-68902663D01*
X141363774Y-68870481D01*
X141353181Y-68835562D01*
X141349000Y-68793105D01*
X141349000Y-66426895D01*
X141353181Y-66384438D01*
X141363774Y-66349519D01*
X141380976Y-66317337D01*
X141404127Y-66289127D01*
X141432337Y-66265976D01*
X141464519Y-66248774D01*
X141499438Y-66238181D01*
X141541895Y-66234000D01*
X142683105Y-66234000D01*
X142725562Y-66238181D01*
X142725562Y-66238181D01*
G37*
G36*
X164430442Y-66715518D02*
G01*
X164496627Y-66722037D01*
X164666466Y-66773557D01*
X164822991Y-66857222D01*
X164850880Y-66880110D01*
X164960186Y-66969814D01*
X165043448Y-67071271D01*
X165072778Y-67107009D01*
X165156443Y-67263534D01*
X165207963Y-67433373D01*
X165225359Y-67610000D01*
X165207963Y-67786627D01*
X165156443Y-67956466D01*
X165072778Y-68112991D01*
X165043448Y-68148729D01*
X164960186Y-68250186D01*
X164858729Y-68333448D01*
X164822991Y-68362778D01*
X164666466Y-68446443D01*
X164496627Y-68497963D01*
X164430443Y-68504481D01*
X164364260Y-68511000D01*
X164275740Y-68511000D01*
X164209557Y-68504481D01*
X164143373Y-68497963D01*
X163973534Y-68446443D01*
X163817009Y-68362778D01*
X163781271Y-68333448D01*
X163679814Y-68250186D01*
X163596552Y-68148729D01*
X163567222Y-68112991D01*
X163483557Y-67956466D01*
X163432037Y-67786627D01*
X163414641Y-67610000D01*
X163432037Y-67433373D01*
X163483557Y-67263534D01*
X163567222Y-67107009D01*
X163596552Y-67071271D01*
X163679814Y-66969814D01*
X163789120Y-66880110D01*
X163817009Y-66857222D01*
X163973534Y-66773557D01*
X164143373Y-66722037D01*
X164209558Y-66715518D01*
X164275740Y-66709000D01*
X164364260Y-66709000D01*
X164430442Y-66715518D01*
X164430442Y-66715518D01*
G37*
G36*
X161890442Y-66715518D02*
G01*
X161956627Y-66722037D01*
X162126466Y-66773557D01*
X162282991Y-66857222D01*
X162310880Y-66880110D01*
X162420186Y-66969814D01*
X162503448Y-67071271D01*
X162532778Y-67107009D01*
X162616443Y-67263534D01*
X162667963Y-67433373D01*
X162685359Y-67610000D01*
X162667963Y-67786627D01*
X162616443Y-67956466D01*
X162532778Y-68112991D01*
X162503448Y-68148729D01*
X162420186Y-68250186D01*
X162318729Y-68333448D01*
X162282991Y-68362778D01*
X162126466Y-68446443D01*
X161956627Y-68497963D01*
X161890443Y-68504481D01*
X161824260Y-68511000D01*
X161735740Y-68511000D01*
X161669557Y-68504481D01*
X161603373Y-68497963D01*
X161433534Y-68446443D01*
X161277009Y-68362778D01*
X161241271Y-68333448D01*
X161139814Y-68250186D01*
X161056552Y-68148729D01*
X161027222Y-68112991D01*
X160943557Y-67956466D01*
X160892037Y-67786627D01*
X160874641Y-67610000D01*
X160892037Y-67433373D01*
X160943557Y-67263534D01*
X161027222Y-67107009D01*
X161056552Y-67071271D01*
X161139814Y-66969814D01*
X161249120Y-66880110D01*
X161277009Y-66857222D01*
X161433534Y-66773557D01*
X161603373Y-66722037D01*
X161669558Y-66715518D01*
X161735740Y-66709000D01*
X161824260Y-66709000D01*
X161890442Y-66715518D01*
X161890442Y-66715518D01*
G37*
G36*
X119580442Y-66715518D02*
G01*
X119646627Y-66722037D01*
X119816466Y-66773557D01*
X119972991Y-66857222D01*
X120000880Y-66880110D01*
X120110186Y-66969814D01*
X120193448Y-67071271D01*
X120222778Y-67107009D01*
X120306443Y-67263534D01*
X120357963Y-67433373D01*
X120375359Y-67610000D01*
X120357963Y-67786627D01*
X120306443Y-67956466D01*
X120222778Y-68112991D01*
X120193448Y-68148729D01*
X120110186Y-68250186D01*
X120008729Y-68333448D01*
X119972991Y-68362778D01*
X119816466Y-68446443D01*
X119646627Y-68497963D01*
X119580443Y-68504481D01*
X119514260Y-68511000D01*
X119425740Y-68511000D01*
X119359557Y-68504481D01*
X119293373Y-68497963D01*
X119123534Y-68446443D01*
X118967009Y-68362778D01*
X118931271Y-68333448D01*
X118829814Y-68250186D01*
X118746552Y-68148729D01*
X118717222Y-68112991D01*
X118633557Y-67956466D01*
X118582037Y-67786627D01*
X118564641Y-67610000D01*
X118582037Y-67433373D01*
X118633557Y-67263534D01*
X118717222Y-67107009D01*
X118746552Y-67071271D01*
X118829814Y-66969814D01*
X118939120Y-66880110D01*
X118967009Y-66857222D01*
X119123534Y-66773557D01*
X119293373Y-66722037D01*
X119359558Y-66715518D01*
X119425740Y-66709000D01*
X119514260Y-66709000D01*
X119580442Y-66715518D01*
X119580442Y-66715518D01*
G37*
G36*
X117040442Y-66715518D02*
G01*
X117106627Y-66722037D01*
X117276466Y-66773557D01*
X117432991Y-66857222D01*
X117460880Y-66880110D01*
X117570186Y-66969814D01*
X117653448Y-67071271D01*
X117682778Y-67107009D01*
X117766443Y-67263534D01*
X117817963Y-67433373D01*
X117835359Y-67610000D01*
X117817963Y-67786627D01*
X117766443Y-67956466D01*
X117682778Y-68112991D01*
X117653448Y-68148729D01*
X117570186Y-68250186D01*
X117468729Y-68333448D01*
X117432991Y-68362778D01*
X117276466Y-68446443D01*
X117106627Y-68497963D01*
X117040443Y-68504481D01*
X116974260Y-68511000D01*
X116885740Y-68511000D01*
X116819557Y-68504481D01*
X116753373Y-68497963D01*
X116583534Y-68446443D01*
X116427009Y-68362778D01*
X116391271Y-68333448D01*
X116289814Y-68250186D01*
X116206552Y-68148729D01*
X116177222Y-68112991D01*
X116093557Y-67956466D01*
X116042037Y-67786627D01*
X116024641Y-67610000D01*
X116042037Y-67433373D01*
X116093557Y-67263534D01*
X116177222Y-67107009D01*
X116206552Y-67071271D01*
X116289814Y-66969814D01*
X116399120Y-66880110D01*
X116427009Y-66857222D01*
X116583534Y-66773557D01*
X116753373Y-66722037D01*
X116819558Y-66715518D01*
X116885740Y-66709000D01*
X116974260Y-66709000D01*
X117040442Y-66715518D01*
X117040442Y-66715518D01*
G37*
G36*
X155133810Y-66426895D02*
G01*
X155219890Y-66444017D01*
X155338364Y-66493091D01*
X155444988Y-66564335D01*
X155535665Y-66655012D01*
X155606909Y-66761636D01*
X155655983Y-66880110D01*
X155681000Y-67005882D01*
X155681000Y-67134118D01*
X155655983Y-67259890D01*
X155606909Y-67378364D01*
X155535665Y-67484988D01*
X155444988Y-67575665D01*
X155338364Y-67646909D01*
X155338363Y-67646910D01*
X155338362Y-67646910D01*
X155219890Y-67695983D01*
X155094119Y-67721000D01*
X154965881Y-67721000D01*
X154840110Y-67695983D01*
X154721638Y-67646910D01*
X154721637Y-67646910D01*
X154721636Y-67646909D01*
X154615012Y-67575665D01*
X154524335Y-67484988D01*
X154453091Y-67378364D01*
X154404017Y-67259890D01*
X154379000Y-67134118D01*
X154379000Y-67005882D01*
X154404017Y-66880110D01*
X154453091Y-66761636D01*
X154524335Y-66655012D01*
X154615012Y-66564335D01*
X154721636Y-66493091D01*
X154840110Y-66444017D01*
X154926190Y-66426895D01*
X154965881Y-66419000D01*
X155094119Y-66419000D01*
X155133810Y-66426895D01*
X155133810Y-66426895D01*
G37*
G36*
X164430443Y-64175519D02*
G01*
X164496627Y-64182037D01*
X164666466Y-64233557D01*
X164822991Y-64317222D01*
X164858729Y-64346552D01*
X164960186Y-64429814D01*
X165043448Y-64531271D01*
X165072778Y-64567009D01*
X165156443Y-64723534D01*
X165207963Y-64893373D01*
X165225359Y-65070000D01*
X165207963Y-65246627D01*
X165156443Y-65416466D01*
X165072778Y-65572991D01*
X165043448Y-65608729D01*
X164960186Y-65710186D01*
X164858729Y-65793448D01*
X164822991Y-65822778D01*
X164666466Y-65906443D01*
X164496627Y-65957963D01*
X164430442Y-65964482D01*
X164364260Y-65971000D01*
X164275740Y-65971000D01*
X164209558Y-65964482D01*
X164143373Y-65957963D01*
X163973534Y-65906443D01*
X163817009Y-65822778D01*
X163781271Y-65793448D01*
X163679814Y-65710186D01*
X163596552Y-65608729D01*
X163567222Y-65572991D01*
X163483557Y-65416466D01*
X163432037Y-65246627D01*
X163414641Y-65070000D01*
X163432037Y-64893373D01*
X163483557Y-64723534D01*
X163567222Y-64567009D01*
X163596552Y-64531271D01*
X163679814Y-64429814D01*
X163781271Y-64346552D01*
X163817009Y-64317222D01*
X163973534Y-64233557D01*
X164143373Y-64182037D01*
X164209557Y-64175519D01*
X164275740Y-64169000D01*
X164364260Y-64169000D01*
X164430443Y-64175519D01*
X164430443Y-64175519D01*
G37*
G36*
X161890443Y-64175519D02*
G01*
X161956627Y-64182037D01*
X162126466Y-64233557D01*
X162282991Y-64317222D01*
X162318729Y-64346552D01*
X162420186Y-64429814D01*
X162503448Y-64531271D01*
X162532778Y-64567009D01*
X162616443Y-64723534D01*
X162667963Y-64893373D01*
X162685359Y-65070000D01*
X162667963Y-65246627D01*
X162616443Y-65416466D01*
X162532778Y-65572991D01*
X162503448Y-65608729D01*
X162420186Y-65710186D01*
X162318729Y-65793448D01*
X162282991Y-65822778D01*
X162126466Y-65906443D01*
X161956627Y-65957963D01*
X161890442Y-65964482D01*
X161824260Y-65971000D01*
X161735740Y-65971000D01*
X161669558Y-65964482D01*
X161603373Y-65957963D01*
X161433534Y-65906443D01*
X161277009Y-65822778D01*
X161241271Y-65793448D01*
X161139814Y-65710186D01*
X161056552Y-65608729D01*
X161027222Y-65572991D01*
X160943557Y-65416466D01*
X160892037Y-65246627D01*
X160874641Y-65070000D01*
X160892037Y-64893373D01*
X160943557Y-64723534D01*
X161027222Y-64567009D01*
X161056552Y-64531271D01*
X161139814Y-64429814D01*
X161241271Y-64346552D01*
X161277009Y-64317222D01*
X161433534Y-64233557D01*
X161603373Y-64182037D01*
X161669557Y-64175519D01*
X161735740Y-64169000D01*
X161824260Y-64169000D01*
X161890443Y-64175519D01*
X161890443Y-64175519D01*
G37*
G36*
X119580443Y-64175519D02*
G01*
X119646627Y-64182037D01*
X119816466Y-64233557D01*
X119972991Y-64317222D01*
X120008729Y-64346552D01*
X120110186Y-64429814D01*
X120193448Y-64531271D01*
X120222778Y-64567009D01*
X120306443Y-64723534D01*
X120357963Y-64893373D01*
X120375359Y-65070000D01*
X120357963Y-65246627D01*
X120306443Y-65416466D01*
X120222778Y-65572991D01*
X120193448Y-65608729D01*
X120110186Y-65710186D01*
X120008729Y-65793448D01*
X119972991Y-65822778D01*
X119816466Y-65906443D01*
X119646627Y-65957963D01*
X119580442Y-65964482D01*
X119514260Y-65971000D01*
X119425740Y-65971000D01*
X119359558Y-65964482D01*
X119293373Y-65957963D01*
X119123534Y-65906443D01*
X118967009Y-65822778D01*
X118931271Y-65793448D01*
X118829814Y-65710186D01*
X118746552Y-65608729D01*
X118717222Y-65572991D01*
X118633557Y-65416466D01*
X118582037Y-65246627D01*
X118564641Y-65070000D01*
X118582037Y-64893373D01*
X118633557Y-64723534D01*
X118717222Y-64567009D01*
X118746552Y-64531271D01*
X118829814Y-64429814D01*
X118931271Y-64346552D01*
X118967009Y-64317222D01*
X119123534Y-64233557D01*
X119293373Y-64182037D01*
X119359557Y-64175519D01*
X119425740Y-64169000D01*
X119514260Y-64169000D01*
X119580443Y-64175519D01*
X119580443Y-64175519D01*
G37*
G36*
X117040443Y-64175519D02*
G01*
X117106627Y-64182037D01*
X117276466Y-64233557D01*
X117432991Y-64317222D01*
X117468729Y-64346552D01*
X117570186Y-64429814D01*
X117653448Y-64531271D01*
X117682778Y-64567009D01*
X117766443Y-64723534D01*
X117817963Y-64893373D01*
X117835359Y-65070000D01*
X117817963Y-65246627D01*
X117766443Y-65416466D01*
X117682778Y-65572991D01*
X117653448Y-65608729D01*
X117570186Y-65710186D01*
X117468729Y-65793448D01*
X117432991Y-65822778D01*
X117276466Y-65906443D01*
X117106627Y-65957963D01*
X117040442Y-65964482D01*
X116974260Y-65971000D01*
X116885740Y-65971000D01*
X116819558Y-65964482D01*
X116753373Y-65957963D01*
X116583534Y-65906443D01*
X116427009Y-65822778D01*
X116391271Y-65793448D01*
X116289814Y-65710186D01*
X116206552Y-65608729D01*
X116177222Y-65572991D01*
X116093557Y-65416466D01*
X116042037Y-65246627D01*
X116024641Y-65070000D01*
X116042037Y-64893373D01*
X116093557Y-64723534D01*
X116177222Y-64567009D01*
X116206552Y-64531271D01*
X116289814Y-64429814D01*
X116391271Y-64346552D01*
X116427009Y-64317222D01*
X116583534Y-64233557D01*
X116753373Y-64182037D01*
X116819557Y-64175519D01*
X116885740Y-64169000D01*
X116974260Y-64169000D01*
X117040443Y-64175519D01*
X117040443Y-64175519D01*
G37*
G36*
X155681000Y-65721000D02*
G01*
X154379000Y-65721000D01*
X154379000Y-64419000D01*
X155681000Y-64419000D01*
X155681000Y-65721000D01*
X155681000Y-65721000D01*
G37*
G36*
X162681000Y-63431000D02*
G01*
X160879000Y-63431000D01*
X160879000Y-61629000D01*
X162681000Y-61629000D01*
X162681000Y-63431000D01*
X162681000Y-63431000D01*
G37*
G36*
X164430442Y-61635518D02*
G01*
X164496627Y-61642037D01*
X164666466Y-61693557D01*
X164822991Y-61777222D01*
X164858729Y-61806552D01*
X164960186Y-61889814D01*
X165043448Y-61991271D01*
X165072778Y-62027009D01*
X165156443Y-62183534D01*
X165207963Y-62353373D01*
X165225359Y-62530000D01*
X165207963Y-62706627D01*
X165156443Y-62876466D01*
X165072778Y-63032991D01*
X165043448Y-63068729D01*
X164960186Y-63170186D01*
X164858729Y-63253448D01*
X164822991Y-63282778D01*
X164666466Y-63366443D01*
X164496627Y-63417963D01*
X164430442Y-63424482D01*
X164364260Y-63431000D01*
X164275740Y-63431000D01*
X164209558Y-63424482D01*
X164143373Y-63417963D01*
X163973534Y-63366443D01*
X163817009Y-63282778D01*
X163781271Y-63253448D01*
X163679814Y-63170186D01*
X163596552Y-63068729D01*
X163567222Y-63032991D01*
X163483557Y-62876466D01*
X163432037Y-62706627D01*
X163414641Y-62530000D01*
X163432037Y-62353373D01*
X163483557Y-62183534D01*
X163567222Y-62027009D01*
X163596552Y-61991271D01*
X163679814Y-61889814D01*
X163781271Y-61806552D01*
X163817009Y-61777222D01*
X163973534Y-61693557D01*
X164143373Y-61642037D01*
X164209558Y-61635518D01*
X164275740Y-61629000D01*
X164364260Y-61629000D01*
X164430442Y-61635518D01*
X164430442Y-61635518D01*
G37*
G36*
X120371000Y-63431000D02*
G01*
X118569000Y-63431000D01*
X118569000Y-61629000D01*
X120371000Y-61629000D01*
X120371000Y-63431000D01*
X120371000Y-63431000D01*
G37*
G36*
X117040442Y-61635518D02*
G01*
X117106627Y-61642037D01*
X117276466Y-61693557D01*
X117432991Y-61777222D01*
X117468729Y-61806552D01*
X117570186Y-61889814D01*
X117653448Y-61991271D01*
X117682778Y-62027009D01*
X117766443Y-62183534D01*
X117817963Y-62353373D01*
X117835359Y-62530000D01*
X117817963Y-62706627D01*
X117766443Y-62876466D01*
X117682778Y-63032991D01*
X117653448Y-63068729D01*
X117570186Y-63170186D01*
X117468729Y-63253448D01*
X117432991Y-63282778D01*
X117276466Y-63366443D01*
X117106627Y-63417963D01*
X117040442Y-63424482D01*
X116974260Y-63431000D01*
X116885740Y-63431000D01*
X116819558Y-63424482D01*
X116753373Y-63417963D01*
X116583534Y-63366443D01*
X116427009Y-63282778D01*
X116391271Y-63253448D01*
X116289814Y-63170186D01*
X116206552Y-63068729D01*
X116177222Y-63032991D01*
X116093557Y-62876466D01*
X116042037Y-62706627D01*
X116024641Y-62530000D01*
X116042037Y-62353373D01*
X116093557Y-62183534D01*
X116177222Y-62027009D01*
X116206552Y-61991271D01*
X116289814Y-61889814D01*
X116391271Y-61806552D01*
X116427009Y-61777222D01*
X116583534Y-61693557D01*
X116753373Y-61642037D01*
X116819558Y-61635518D01*
X116885740Y-61629000D01*
X116974260Y-61629000D01*
X117040442Y-61635518D01*
X117040442Y-61635518D01*
G37*
M02*
