G04 #@! TF.GenerationSoftware,KiCad,Pcbnew,(5.1.4)-1*
G04 #@! TF.CreationDate,2019-11-15T21:57:58+01:00*
G04 #@! TF.ProjectId,LEDClock,4c454443-6c6f-4636-9b2e-6b696361645f,rev?*
G04 #@! TF.SameCoordinates,Original*
G04 #@! TF.FileFunction,Legend,Top*
G04 #@! TF.FilePolarity,Positive*
%FSLAX46Y46*%
G04 Gerber Fmt 4.6, Leading zero omitted, Abs format (unit mm)*
G04 Created by KiCad (PCBNEW (5.1.4)-1) date 2019-11-15 21:57:58*
%MOMM*%
%LPD*%
G04 APERTURE LIST*
%ADD10C,0.120000*%
%ADD11C,0.150000*%
G04 APERTURE END LIST*
D10*
X136582064Y-67250000D02*
X135377936Y-67250000D01*
X136582064Y-65430000D02*
X135377936Y-65430000D01*
X157150000Y-66070000D02*
G75*
G03X157150000Y-66070000I-2120000J0D01*
G01*
X157110000Y-66070000D02*
X152950000Y-66070000D01*
X157110000Y-66110000D02*
X152950000Y-66110000D01*
X157109000Y-66150000D02*
X152951000Y-66150000D01*
X157107000Y-66190000D02*
X152953000Y-66190000D01*
X157104000Y-66230000D02*
X152956000Y-66230000D01*
X157101000Y-66270000D02*
X155870000Y-66270000D01*
X154190000Y-66270000D02*
X152959000Y-66270000D01*
X157097000Y-66310000D02*
X155870000Y-66310000D01*
X154190000Y-66310000D02*
X152963000Y-66310000D01*
X157092000Y-66350000D02*
X155870000Y-66350000D01*
X154190000Y-66350000D02*
X152968000Y-66350000D01*
X157086000Y-66390000D02*
X155870000Y-66390000D01*
X154190000Y-66390000D02*
X152974000Y-66390000D01*
X157080000Y-66430000D02*
X155870000Y-66430000D01*
X154190000Y-66430000D02*
X152980000Y-66430000D01*
X157072000Y-66470000D02*
X155870000Y-66470000D01*
X154190000Y-66470000D02*
X152988000Y-66470000D01*
X157064000Y-66510000D02*
X155870000Y-66510000D01*
X154190000Y-66510000D02*
X152996000Y-66510000D01*
X157055000Y-66550000D02*
X155870000Y-66550000D01*
X154190000Y-66550000D02*
X153005000Y-66550000D01*
X157046000Y-66590000D02*
X155870000Y-66590000D01*
X154190000Y-66590000D02*
X153014000Y-66590000D01*
X157035000Y-66630000D02*
X155870000Y-66630000D01*
X154190000Y-66630000D02*
X153025000Y-66630000D01*
X157024000Y-66670000D02*
X155870000Y-66670000D01*
X154190000Y-66670000D02*
X153036000Y-66670000D01*
X157012000Y-66710000D02*
X155870000Y-66710000D01*
X154190000Y-66710000D02*
X153048000Y-66710000D01*
X156998000Y-66750000D02*
X155870000Y-66750000D01*
X154190000Y-66750000D02*
X153062000Y-66750000D01*
X156984000Y-66791000D02*
X155870000Y-66791000D01*
X154190000Y-66791000D02*
X153076000Y-66791000D01*
X156970000Y-66831000D02*
X155870000Y-66831000D01*
X154190000Y-66831000D02*
X153090000Y-66831000D01*
X156954000Y-66871000D02*
X155870000Y-66871000D01*
X154190000Y-66871000D02*
X153106000Y-66871000D01*
X156937000Y-66911000D02*
X155870000Y-66911000D01*
X154190000Y-66911000D02*
X153123000Y-66911000D01*
X156919000Y-66951000D02*
X155870000Y-66951000D01*
X154190000Y-66951000D02*
X153141000Y-66951000D01*
X156900000Y-66991000D02*
X155870000Y-66991000D01*
X154190000Y-66991000D02*
X153160000Y-66991000D01*
X156881000Y-67031000D02*
X155870000Y-67031000D01*
X154190000Y-67031000D02*
X153179000Y-67031000D01*
X156860000Y-67071000D02*
X155870000Y-67071000D01*
X154190000Y-67071000D02*
X153200000Y-67071000D01*
X156838000Y-67111000D02*
X155870000Y-67111000D01*
X154190000Y-67111000D02*
X153222000Y-67111000D01*
X156815000Y-67151000D02*
X155870000Y-67151000D01*
X154190000Y-67151000D02*
X153245000Y-67151000D01*
X156790000Y-67191000D02*
X155870000Y-67191000D01*
X154190000Y-67191000D02*
X153270000Y-67191000D01*
X156765000Y-67231000D02*
X155870000Y-67231000D01*
X154190000Y-67231000D02*
X153295000Y-67231000D01*
X156738000Y-67271000D02*
X155870000Y-67271000D01*
X154190000Y-67271000D02*
X153322000Y-67271000D01*
X156710000Y-67311000D02*
X155870000Y-67311000D01*
X154190000Y-67311000D02*
X153350000Y-67311000D01*
X156680000Y-67351000D02*
X155870000Y-67351000D01*
X154190000Y-67351000D02*
X153380000Y-67351000D01*
X156649000Y-67391000D02*
X155870000Y-67391000D01*
X154190000Y-67391000D02*
X153411000Y-67391000D01*
X156617000Y-67431000D02*
X155870000Y-67431000D01*
X154190000Y-67431000D02*
X153443000Y-67431000D01*
X156582000Y-67471000D02*
X155870000Y-67471000D01*
X154190000Y-67471000D02*
X153478000Y-67471000D01*
X156546000Y-67511000D02*
X155870000Y-67511000D01*
X154190000Y-67511000D02*
X153514000Y-67511000D01*
X156508000Y-67551000D02*
X155870000Y-67551000D01*
X154190000Y-67551000D02*
X153552000Y-67551000D01*
X156468000Y-67591000D02*
X155870000Y-67591000D01*
X154190000Y-67591000D02*
X153592000Y-67591000D01*
X156426000Y-67631000D02*
X155870000Y-67631000D01*
X154190000Y-67631000D02*
X153634000Y-67631000D01*
X156381000Y-67671000D02*
X155870000Y-67671000D01*
X154190000Y-67671000D02*
X153679000Y-67671000D01*
X156334000Y-67711000D02*
X155870000Y-67711000D01*
X154190000Y-67711000D02*
X153726000Y-67711000D01*
X156284000Y-67751000D02*
X155870000Y-67751000D01*
X154190000Y-67751000D02*
X153776000Y-67751000D01*
X156230000Y-67791000D02*
X155870000Y-67791000D01*
X154190000Y-67791000D02*
X153830000Y-67791000D01*
X156172000Y-67831000D02*
X155870000Y-67831000D01*
X154190000Y-67831000D02*
X153888000Y-67831000D01*
X156110000Y-67871000D02*
X155870000Y-67871000D01*
X154190000Y-67871000D02*
X153950000Y-67871000D01*
X156043000Y-67911000D02*
X154017000Y-67911000D01*
X155970000Y-67951000D02*
X154090000Y-67951000D01*
X155889000Y-67991000D02*
X154171000Y-67991000D01*
X155798000Y-68031000D02*
X154262000Y-68031000D01*
X155694000Y-68071000D02*
X154366000Y-68071000D01*
X155567000Y-68111000D02*
X154493000Y-68111000D01*
X155400000Y-68151000D02*
X154660000Y-68151000D01*
X156225000Y-63800199D02*
X156225000Y-64200199D01*
X156425000Y-64000199D02*
X156025000Y-64000199D01*
X153650001Y-69240000D02*
X153650000Y-104080000D01*
X153650000Y-104080000D02*
X174049999Y-104080000D01*
X174049999Y-104080000D02*
X174050000Y-69240000D01*
X174050000Y-69240000D02*
X167250000Y-69240000D01*
X167250000Y-69240000D02*
X167250000Y-69600000D01*
X167250000Y-69600000D02*
X160450001Y-69600000D01*
X160450001Y-69600000D02*
X160450001Y-69240000D01*
X160450001Y-69240000D02*
X153650001Y-69240000D01*
X142997936Y-67700000D02*
X144202064Y-67700000D01*
X142997936Y-64980000D02*
X144202064Y-64980000D01*
X112450001Y-69240000D02*
X112450000Y-104080000D01*
X112450000Y-104080000D02*
X132849999Y-104080000D01*
X132849999Y-104080000D02*
X132850000Y-69240000D01*
X132850000Y-69240000D02*
X126050000Y-69240000D01*
X126050000Y-69240000D02*
X126050000Y-69600000D01*
X126050000Y-69600000D02*
X119250001Y-69600000D01*
X119250001Y-69600000D02*
X119250001Y-69240000D01*
X119250001Y-69240000D02*
X112450001Y-69240000D01*
X139850001Y-69240000D02*
X133050001Y-69240000D01*
X139850001Y-69600000D02*
X139850001Y-69240000D01*
X146650000Y-69600000D02*
X139850001Y-69600000D01*
X146650000Y-69240000D02*
X146650000Y-69600000D01*
X153450000Y-69240000D02*
X146650000Y-69240000D01*
X153449999Y-104080000D02*
X153450000Y-69240000D01*
X133050000Y-104080000D02*
X153449999Y-104080000D01*
X133050001Y-69240000D02*
X133050000Y-104080000D01*
D11*
X135813333Y-68612380D02*
X135480000Y-68136190D01*
X135241904Y-68612380D02*
X135241904Y-67612380D01*
X135622857Y-67612380D01*
X135718095Y-67660000D01*
X135765714Y-67707619D01*
X135813333Y-67802857D01*
X135813333Y-67945714D01*
X135765714Y-68040952D01*
X135718095Y-68088571D01*
X135622857Y-68136190D01*
X135241904Y-68136190D01*
X136765714Y-68612380D02*
X136194285Y-68612380D01*
X136480000Y-68612380D02*
X136480000Y-67612380D01*
X136384761Y-67755238D01*
X136289523Y-67850476D01*
X136194285Y-67898095D01*
X158637142Y-66236666D02*
X158684761Y-66284285D01*
X158732380Y-66427142D01*
X158732380Y-66522380D01*
X158684761Y-66665238D01*
X158589523Y-66760476D01*
X158494285Y-66808095D01*
X158303809Y-66855714D01*
X158160952Y-66855714D01*
X157970476Y-66808095D01*
X157875238Y-66760476D01*
X157780000Y-66665238D01*
X157732380Y-66522380D01*
X157732380Y-66427142D01*
X157780000Y-66284285D01*
X157827619Y-66236666D01*
X157732380Y-65903333D02*
X157732380Y-65284285D01*
X158113333Y-65617619D01*
X158113333Y-65474761D01*
X158160952Y-65379523D01*
X158208571Y-65331904D01*
X158303809Y-65284285D01*
X158541904Y-65284285D01*
X158637142Y-65331904D01*
X158684761Y-65379523D01*
X158732380Y-65474761D01*
X158732380Y-65760476D01*
X158684761Y-65855714D01*
X158637142Y-65903333D01*
X162730952Y-89702380D02*
X162254761Y-89702380D01*
X162254761Y-88702380D01*
X163064285Y-89178571D02*
X163397619Y-89178571D01*
X163540476Y-89702380D02*
X163064285Y-89702380D01*
X163064285Y-88702380D01*
X163540476Y-88702380D01*
X163969047Y-89702380D02*
X163969047Y-88702380D01*
X164207142Y-88702380D01*
X164350000Y-88750000D01*
X164445238Y-88845238D01*
X164492857Y-88940476D01*
X164540476Y-89130952D01*
X164540476Y-89273809D01*
X164492857Y-89464285D01*
X164445238Y-89559523D01*
X164350000Y-89654761D01*
X164207142Y-89702380D01*
X163969047Y-89702380D01*
X164873809Y-88702380D02*
X165492857Y-88702380D01*
X165159523Y-89083333D01*
X165302380Y-89083333D01*
X165397619Y-89130952D01*
X165445238Y-89178571D01*
X165492857Y-89273809D01*
X165492857Y-89511904D01*
X165445238Y-89607142D01*
X165397619Y-89654761D01*
X165302380Y-89702380D01*
X165016666Y-89702380D01*
X164921428Y-89654761D01*
X164873809Y-89607142D01*
X143333333Y-64357142D02*
X143285714Y-64404761D01*
X143142857Y-64452380D01*
X143047619Y-64452380D01*
X142904761Y-64404761D01*
X142809523Y-64309523D01*
X142761904Y-64214285D01*
X142714285Y-64023809D01*
X142714285Y-63880952D01*
X142761904Y-63690476D01*
X142809523Y-63595238D01*
X142904761Y-63500000D01*
X143047619Y-63452380D01*
X143142857Y-63452380D01*
X143285714Y-63500000D01*
X143333333Y-63547619D01*
X144285714Y-64452380D02*
X143714285Y-64452380D01*
X144000000Y-64452380D02*
X144000000Y-63452380D01*
X143904761Y-63595238D01*
X143809523Y-63690476D01*
X143714285Y-63738095D01*
X121380952Y-89702380D02*
X120904761Y-89702380D01*
X120904761Y-88702380D01*
X121714285Y-89178571D02*
X122047619Y-89178571D01*
X122190476Y-89702380D02*
X121714285Y-89702380D01*
X121714285Y-88702380D01*
X122190476Y-88702380D01*
X122619047Y-89702380D02*
X122619047Y-88702380D01*
X122857142Y-88702380D01*
X123000000Y-88750000D01*
X123095238Y-88845238D01*
X123142857Y-88940476D01*
X123190476Y-89130952D01*
X123190476Y-89273809D01*
X123142857Y-89464285D01*
X123095238Y-89559523D01*
X123000000Y-89654761D01*
X122857142Y-89702380D01*
X122619047Y-89702380D01*
X124142857Y-89702380D02*
X123571428Y-89702380D01*
X123857142Y-89702380D02*
X123857142Y-88702380D01*
X123761904Y-88845238D01*
X123666666Y-88940476D01*
X123571428Y-88988095D01*
X142130952Y-89702380D02*
X141654761Y-89702380D01*
X141654761Y-88702380D01*
X142464285Y-89178571D02*
X142797619Y-89178571D01*
X142940476Y-89702380D02*
X142464285Y-89702380D01*
X142464285Y-88702380D01*
X142940476Y-88702380D01*
X143369047Y-89702380D02*
X143369047Y-88702380D01*
X143607142Y-88702380D01*
X143750000Y-88750000D01*
X143845238Y-88845238D01*
X143892857Y-88940476D01*
X143940476Y-89130952D01*
X143940476Y-89273809D01*
X143892857Y-89464285D01*
X143845238Y-89559523D01*
X143750000Y-89654761D01*
X143607142Y-89702380D01*
X143369047Y-89702380D01*
X144321428Y-88797619D02*
X144369047Y-88750000D01*
X144464285Y-88702380D01*
X144702380Y-88702380D01*
X144797619Y-88750000D01*
X144845238Y-88797619D01*
X144892857Y-88892857D01*
X144892857Y-88988095D01*
X144845238Y-89130952D01*
X144273809Y-89702380D01*
X144892857Y-89702380D01*
M02*
