G04 #@! TF.GenerationSoftware,KiCad,Pcbnew,(5.1.4)-1*
G04 #@! TF.CreationDate,2019-11-15T21:57:58+01:00*
G04 #@! TF.ProjectId,LEDClock,4c454443-6c6f-4636-9b2e-6b696361645f,rev?*
G04 #@! TF.SameCoordinates,Original*
G04 #@! TF.FileFunction,Soldermask,Top*
G04 #@! TF.FilePolarity,Negative*
%FSLAX46Y46*%
G04 Gerber Fmt 4.6, Leading zero omitted, Abs format (unit mm)*
G04 Created by KiCad (PCBNEW (5.1.4)-1) date 2019-11-15 21:57:58*
%MOMM*%
%LPD*%
G04 APERTURE LIST*
%ADD10C,0.100000*%
G04 APERTURE END LIST*
D10*
G36*
X170156564Y-93269389D02*
G01*
X170347833Y-93348615D01*
X170347835Y-93348616D01*
X170519973Y-93463635D01*
X170666365Y-93610027D01*
X170781385Y-93782167D01*
X170860611Y-93973436D01*
X170901000Y-94176484D01*
X170901000Y-94383516D01*
X170860611Y-94586564D01*
X170781385Y-94777833D01*
X170781384Y-94777835D01*
X170666365Y-94949973D01*
X170519973Y-95096365D01*
X170347835Y-95211384D01*
X170347834Y-95211385D01*
X170347833Y-95211385D01*
X170156564Y-95290611D01*
X169953516Y-95331000D01*
X169746484Y-95331000D01*
X169543436Y-95290611D01*
X169352167Y-95211385D01*
X169352166Y-95211385D01*
X169352165Y-95211384D01*
X169180027Y-95096365D01*
X169033635Y-94949973D01*
X168918616Y-94777835D01*
X168918615Y-94777833D01*
X168839389Y-94586564D01*
X168799000Y-94383516D01*
X168799000Y-94176484D01*
X168839389Y-93973436D01*
X168918615Y-93782167D01*
X169033635Y-93610027D01*
X169180027Y-93463635D01*
X169352165Y-93348616D01*
X169352167Y-93348615D01*
X169543436Y-93269389D01*
X169746484Y-93229000D01*
X169953516Y-93229000D01*
X170156564Y-93269389D01*
X170156564Y-93269389D01*
G37*
G36*
X128956564Y-93269389D02*
G01*
X129147833Y-93348615D01*
X129147835Y-93348616D01*
X129319973Y-93463635D01*
X129466365Y-93610027D01*
X129581385Y-93782167D01*
X129660611Y-93973436D01*
X129701000Y-94176484D01*
X129701000Y-94383516D01*
X129660611Y-94586564D01*
X129581385Y-94777833D01*
X129581384Y-94777835D01*
X129466365Y-94949973D01*
X129319973Y-95096365D01*
X129147835Y-95211384D01*
X129147834Y-95211385D01*
X129147833Y-95211385D01*
X128956564Y-95290611D01*
X128753516Y-95331000D01*
X128546484Y-95331000D01*
X128343436Y-95290611D01*
X128152167Y-95211385D01*
X128152166Y-95211385D01*
X128152165Y-95211384D01*
X127980027Y-95096365D01*
X127833635Y-94949973D01*
X127718616Y-94777835D01*
X127718615Y-94777833D01*
X127639389Y-94586564D01*
X127599000Y-94383516D01*
X127599000Y-94176484D01*
X127639389Y-93973436D01*
X127718615Y-93782167D01*
X127833635Y-93610027D01*
X127980027Y-93463635D01*
X128152165Y-93348616D01*
X128152167Y-93348615D01*
X128343436Y-93269389D01*
X128546484Y-93229000D01*
X128753516Y-93229000D01*
X128956564Y-93269389D01*
X128956564Y-93269389D01*
G37*
G36*
X116956564Y-93269389D02*
G01*
X117147833Y-93348615D01*
X117147835Y-93348616D01*
X117319973Y-93463635D01*
X117466365Y-93610027D01*
X117581385Y-93782167D01*
X117660611Y-93973436D01*
X117701000Y-94176484D01*
X117701000Y-94383516D01*
X117660611Y-94586564D01*
X117581385Y-94777833D01*
X117581384Y-94777835D01*
X117466365Y-94949973D01*
X117319973Y-95096365D01*
X117147835Y-95211384D01*
X117147834Y-95211385D01*
X117147833Y-95211385D01*
X116956564Y-95290611D01*
X116753516Y-95331000D01*
X116546484Y-95331000D01*
X116343436Y-95290611D01*
X116152167Y-95211385D01*
X116152166Y-95211385D01*
X116152165Y-95211384D01*
X115980027Y-95096365D01*
X115833635Y-94949973D01*
X115718616Y-94777835D01*
X115718615Y-94777833D01*
X115639389Y-94586564D01*
X115599000Y-94383516D01*
X115599000Y-94176484D01*
X115639389Y-93973436D01*
X115718615Y-93782167D01*
X115833635Y-93610027D01*
X115980027Y-93463635D01*
X116152165Y-93348616D01*
X116152167Y-93348615D01*
X116343436Y-93269389D01*
X116546484Y-93229000D01*
X116753516Y-93229000D01*
X116956564Y-93269389D01*
X116956564Y-93269389D01*
G37*
G36*
X137556564Y-93269389D02*
G01*
X137747833Y-93348615D01*
X137747835Y-93348616D01*
X137919973Y-93463635D01*
X138066365Y-93610027D01*
X138181385Y-93782167D01*
X138260611Y-93973436D01*
X138301000Y-94176484D01*
X138301000Y-94383516D01*
X138260611Y-94586564D01*
X138181385Y-94777833D01*
X138181384Y-94777835D01*
X138066365Y-94949973D01*
X137919973Y-95096365D01*
X137747835Y-95211384D01*
X137747834Y-95211385D01*
X137747833Y-95211385D01*
X137556564Y-95290611D01*
X137353516Y-95331000D01*
X137146484Y-95331000D01*
X136943436Y-95290611D01*
X136752167Y-95211385D01*
X136752166Y-95211385D01*
X136752165Y-95211384D01*
X136580027Y-95096365D01*
X136433635Y-94949973D01*
X136318616Y-94777835D01*
X136318615Y-94777833D01*
X136239389Y-94586564D01*
X136199000Y-94383516D01*
X136199000Y-94176484D01*
X136239389Y-93973436D01*
X136318615Y-93782167D01*
X136433635Y-93610027D01*
X136580027Y-93463635D01*
X136752165Y-93348616D01*
X136752167Y-93348615D01*
X136943436Y-93269389D01*
X137146484Y-93229000D01*
X137353516Y-93229000D01*
X137556564Y-93269389D01*
X137556564Y-93269389D01*
G37*
G36*
X149556564Y-93269389D02*
G01*
X149747833Y-93348615D01*
X149747835Y-93348616D01*
X149919973Y-93463635D01*
X150066365Y-93610027D01*
X150181385Y-93782167D01*
X150260611Y-93973436D01*
X150301000Y-94176484D01*
X150301000Y-94383516D01*
X150260611Y-94586564D01*
X150181385Y-94777833D01*
X150181384Y-94777835D01*
X150066365Y-94949973D01*
X149919973Y-95096365D01*
X149747835Y-95211384D01*
X149747834Y-95211385D01*
X149747833Y-95211385D01*
X149556564Y-95290611D01*
X149353516Y-95331000D01*
X149146484Y-95331000D01*
X148943436Y-95290611D01*
X148752167Y-95211385D01*
X148752166Y-95211385D01*
X148752165Y-95211384D01*
X148580027Y-95096365D01*
X148433635Y-94949973D01*
X148318616Y-94777835D01*
X148318615Y-94777833D01*
X148239389Y-94586564D01*
X148199000Y-94383516D01*
X148199000Y-94176484D01*
X148239389Y-93973436D01*
X148318615Y-93782167D01*
X148433635Y-93610027D01*
X148580027Y-93463635D01*
X148752165Y-93348616D01*
X148752167Y-93348615D01*
X148943436Y-93269389D01*
X149146484Y-93229000D01*
X149353516Y-93229000D01*
X149556564Y-93269389D01*
X149556564Y-93269389D01*
G37*
G36*
X158156564Y-93269389D02*
G01*
X158347833Y-93348615D01*
X158347835Y-93348616D01*
X158519973Y-93463635D01*
X158666365Y-93610027D01*
X158781385Y-93782167D01*
X158860611Y-93973436D01*
X158901000Y-94176484D01*
X158901000Y-94383516D01*
X158860611Y-94586564D01*
X158781385Y-94777833D01*
X158781384Y-94777835D01*
X158666365Y-94949973D01*
X158519973Y-95096365D01*
X158347835Y-95211384D01*
X158347834Y-95211385D01*
X158347833Y-95211385D01*
X158156564Y-95290611D01*
X157953516Y-95331000D01*
X157746484Y-95331000D01*
X157543436Y-95290611D01*
X157352167Y-95211385D01*
X157352166Y-95211385D01*
X157352165Y-95211384D01*
X157180027Y-95096365D01*
X157033635Y-94949973D01*
X156918616Y-94777835D01*
X156918615Y-94777833D01*
X156839389Y-94586564D01*
X156799000Y-94383516D01*
X156799000Y-94176484D01*
X156839389Y-93973436D01*
X156918615Y-93782167D01*
X157033635Y-93610027D01*
X157180027Y-93463635D01*
X157352165Y-93348616D01*
X157352167Y-93348615D01*
X157543436Y-93269389D01*
X157746484Y-93229000D01*
X157953516Y-93229000D01*
X158156564Y-93269389D01*
X158156564Y-93269389D01*
G37*
G36*
X137556564Y-90729389D02*
G01*
X137747833Y-90808615D01*
X137747835Y-90808616D01*
X137919973Y-90923635D01*
X138066365Y-91070027D01*
X138181385Y-91242167D01*
X138260611Y-91433436D01*
X138301000Y-91636484D01*
X138301000Y-91843516D01*
X138260611Y-92046564D01*
X138181385Y-92237833D01*
X138181384Y-92237835D01*
X138066365Y-92409973D01*
X137919973Y-92556365D01*
X137747835Y-92671384D01*
X137747834Y-92671385D01*
X137747833Y-92671385D01*
X137556564Y-92750611D01*
X137353516Y-92791000D01*
X137146484Y-92791000D01*
X136943436Y-92750611D01*
X136752167Y-92671385D01*
X136752166Y-92671385D01*
X136752165Y-92671384D01*
X136580027Y-92556365D01*
X136433635Y-92409973D01*
X136318616Y-92237835D01*
X136318615Y-92237833D01*
X136239389Y-92046564D01*
X136199000Y-91843516D01*
X136199000Y-91636484D01*
X136239389Y-91433436D01*
X136318615Y-91242167D01*
X136433635Y-91070027D01*
X136580027Y-90923635D01*
X136752165Y-90808616D01*
X136752167Y-90808615D01*
X136943436Y-90729389D01*
X137146484Y-90689000D01*
X137353516Y-90689000D01*
X137556564Y-90729389D01*
X137556564Y-90729389D01*
G37*
G36*
X149556564Y-90729389D02*
G01*
X149747833Y-90808615D01*
X149747835Y-90808616D01*
X149919973Y-90923635D01*
X150066365Y-91070027D01*
X150181385Y-91242167D01*
X150260611Y-91433436D01*
X150301000Y-91636484D01*
X150301000Y-91843516D01*
X150260611Y-92046564D01*
X150181385Y-92237833D01*
X150181384Y-92237835D01*
X150066365Y-92409973D01*
X149919973Y-92556365D01*
X149747835Y-92671384D01*
X149747834Y-92671385D01*
X149747833Y-92671385D01*
X149556564Y-92750611D01*
X149353516Y-92791000D01*
X149146484Y-92791000D01*
X148943436Y-92750611D01*
X148752167Y-92671385D01*
X148752166Y-92671385D01*
X148752165Y-92671384D01*
X148580027Y-92556365D01*
X148433635Y-92409973D01*
X148318616Y-92237835D01*
X148318615Y-92237833D01*
X148239389Y-92046564D01*
X148199000Y-91843516D01*
X148199000Y-91636484D01*
X148239389Y-91433436D01*
X148318615Y-91242167D01*
X148433635Y-91070027D01*
X148580027Y-90923635D01*
X148752165Y-90808616D01*
X148752167Y-90808615D01*
X148943436Y-90729389D01*
X149146484Y-90689000D01*
X149353516Y-90689000D01*
X149556564Y-90729389D01*
X149556564Y-90729389D01*
G37*
G36*
X116956564Y-90729389D02*
G01*
X117147833Y-90808615D01*
X117147835Y-90808616D01*
X117319973Y-90923635D01*
X117466365Y-91070027D01*
X117581385Y-91242167D01*
X117660611Y-91433436D01*
X117701000Y-91636484D01*
X117701000Y-91843516D01*
X117660611Y-92046564D01*
X117581385Y-92237833D01*
X117581384Y-92237835D01*
X117466365Y-92409973D01*
X117319973Y-92556365D01*
X117147835Y-92671384D01*
X117147834Y-92671385D01*
X117147833Y-92671385D01*
X116956564Y-92750611D01*
X116753516Y-92791000D01*
X116546484Y-92791000D01*
X116343436Y-92750611D01*
X116152167Y-92671385D01*
X116152166Y-92671385D01*
X116152165Y-92671384D01*
X115980027Y-92556365D01*
X115833635Y-92409973D01*
X115718616Y-92237835D01*
X115718615Y-92237833D01*
X115639389Y-92046564D01*
X115599000Y-91843516D01*
X115599000Y-91636484D01*
X115639389Y-91433436D01*
X115718615Y-91242167D01*
X115833635Y-91070027D01*
X115980027Y-90923635D01*
X116152165Y-90808616D01*
X116152167Y-90808615D01*
X116343436Y-90729389D01*
X116546484Y-90689000D01*
X116753516Y-90689000D01*
X116956564Y-90729389D01*
X116956564Y-90729389D01*
G37*
G36*
X128956564Y-90729389D02*
G01*
X129147833Y-90808615D01*
X129147835Y-90808616D01*
X129319973Y-90923635D01*
X129466365Y-91070027D01*
X129581385Y-91242167D01*
X129660611Y-91433436D01*
X129701000Y-91636484D01*
X129701000Y-91843516D01*
X129660611Y-92046564D01*
X129581385Y-92237833D01*
X129581384Y-92237835D01*
X129466365Y-92409973D01*
X129319973Y-92556365D01*
X129147835Y-92671384D01*
X129147834Y-92671385D01*
X129147833Y-92671385D01*
X128956564Y-92750611D01*
X128753516Y-92791000D01*
X128546484Y-92791000D01*
X128343436Y-92750611D01*
X128152167Y-92671385D01*
X128152166Y-92671385D01*
X128152165Y-92671384D01*
X127980027Y-92556365D01*
X127833635Y-92409973D01*
X127718616Y-92237835D01*
X127718615Y-92237833D01*
X127639389Y-92046564D01*
X127599000Y-91843516D01*
X127599000Y-91636484D01*
X127639389Y-91433436D01*
X127718615Y-91242167D01*
X127833635Y-91070027D01*
X127980027Y-90923635D01*
X128152165Y-90808616D01*
X128152167Y-90808615D01*
X128343436Y-90729389D01*
X128546484Y-90689000D01*
X128753516Y-90689000D01*
X128956564Y-90729389D01*
X128956564Y-90729389D01*
G37*
G36*
X170156564Y-90729389D02*
G01*
X170347833Y-90808615D01*
X170347835Y-90808616D01*
X170519973Y-90923635D01*
X170666365Y-91070027D01*
X170781385Y-91242167D01*
X170860611Y-91433436D01*
X170901000Y-91636484D01*
X170901000Y-91843516D01*
X170860611Y-92046564D01*
X170781385Y-92237833D01*
X170781384Y-92237835D01*
X170666365Y-92409973D01*
X170519973Y-92556365D01*
X170347835Y-92671384D01*
X170347834Y-92671385D01*
X170347833Y-92671385D01*
X170156564Y-92750611D01*
X169953516Y-92791000D01*
X169746484Y-92791000D01*
X169543436Y-92750611D01*
X169352167Y-92671385D01*
X169352166Y-92671385D01*
X169352165Y-92671384D01*
X169180027Y-92556365D01*
X169033635Y-92409973D01*
X168918616Y-92237835D01*
X168918615Y-92237833D01*
X168839389Y-92046564D01*
X168799000Y-91843516D01*
X168799000Y-91636484D01*
X168839389Y-91433436D01*
X168918615Y-91242167D01*
X169033635Y-91070027D01*
X169180027Y-90923635D01*
X169352165Y-90808616D01*
X169352167Y-90808615D01*
X169543436Y-90729389D01*
X169746484Y-90689000D01*
X169953516Y-90689000D01*
X170156564Y-90729389D01*
X170156564Y-90729389D01*
G37*
G36*
X158156564Y-90729389D02*
G01*
X158347833Y-90808615D01*
X158347835Y-90808616D01*
X158519973Y-90923635D01*
X158666365Y-91070027D01*
X158781385Y-91242167D01*
X158860611Y-91433436D01*
X158901000Y-91636484D01*
X158901000Y-91843516D01*
X158860611Y-92046564D01*
X158781385Y-92237833D01*
X158781384Y-92237835D01*
X158666365Y-92409973D01*
X158519973Y-92556365D01*
X158347835Y-92671384D01*
X158347834Y-92671385D01*
X158347833Y-92671385D01*
X158156564Y-92750611D01*
X157953516Y-92791000D01*
X157746484Y-92791000D01*
X157543436Y-92750611D01*
X157352167Y-92671385D01*
X157352166Y-92671385D01*
X157352165Y-92671384D01*
X157180027Y-92556365D01*
X157033635Y-92409973D01*
X156918616Y-92237835D01*
X156918615Y-92237833D01*
X156839389Y-92046564D01*
X156799000Y-91843516D01*
X156799000Y-91636484D01*
X156839389Y-91433436D01*
X156918615Y-91242167D01*
X157033635Y-91070027D01*
X157180027Y-90923635D01*
X157352165Y-90808616D01*
X157352167Y-90808615D01*
X157543436Y-90729389D01*
X157746484Y-90689000D01*
X157953516Y-90689000D01*
X158156564Y-90729389D01*
X158156564Y-90729389D01*
G37*
G36*
X128956564Y-88189389D02*
G01*
X129147833Y-88268615D01*
X129147835Y-88268616D01*
X129319973Y-88383635D01*
X129466365Y-88530027D01*
X129581385Y-88702167D01*
X129660611Y-88893436D01*
X129701000Y-89096484D01*
X129701000Y-89303516D01*
X129660611Y-89506564D01*
X129581385Y-89697833D01*
X129581384Y-89697835D01*
X129466365Y-89869973D01*
X129319973Y-90016365D01*
X129147835Y-90131384D01*
X129147834Y-90131385D01*
X129147833Y-90131385D01*
X128956564Y-90210611D01*
X128753516Y-90251000D01*
X128546484Y-90251000D01*
X128343436Y-90210611D01*
X128152167Y-90131385D01*
X128152166Y-90131385D01*
X128152165Y-90131384D01*
X127980027Y-90016365D01*
X127833635Y-89869973D01*
X127718616Y-89697835D01*
X127718615Y-89697833D01*
X127639389Y-89506564D01*
X127599000Y-89303516D01*
X127599000Y-89096484D01*
X127639389Y-88893436D01*
X127718615Y-88702167D01*
X127833635Y-88530027D01*
X127980027Y-88383635D01*
X128152165Y-88268616D01*
X128152167Y-88268615D01*
X128343436Y-88189389D01*
X128546484Y-88149000D01*
X128753516Y-88149000D01*
X128956564Y-88189389D01*
X128956564Y-88189389D01*
G37*
G36*
X116956564Y-88189389D02*
G01*
X117147833Y-88268615D01*
X117147835Y-88268616D01*
X117319973Y-88383635D01*
X117466365Y-88530027D01*
X117581385Y-88702167D01*
X117660611Y-88893436D01*
X117701000Y-89096484D01*
X117701000Y-89303516D01*
X117660611Y-89506564D01*
X117581385Y-89697833D01*
X117581384Y-89697835D01*
X117466365Y-89869973D01*
X117319973Y-90016365D01*
X117147835Y-90131384D01*
X117147834Y-90131385D01*
X117147833Y-90131385D01*
X116956564Y-90210611D01*
X116753516Y-90251000D01*
X116546484Y-90251000D01*
X116343436Y-90210611D01*
X116152167Y-90131385D01*
X116152166Y-90131385D01*
X116152165Y-90131384D01*
X115980027Y-90016365D01*
X115833635Y-89869973D01*
X115718616Y-89697835D01*
X115718615Y-89697833D01*
X115639389Y-89506564D01*
X115599000Y-89303516D01*
X115599000Y-89096484D01*
X115639389Y-88893436D01*
X115718615Y-88702167D01*
X115833635Y-88530027D01*
X115980027Y-88383635D01*
X116152165Y-88268616D01*
X116152167Y-88268615D01*
X116343436Y-88189389D01*
X116546484Y-88149000D01*
X116753516Y-88149000D01*
X116956564Y-88189389D01*
X116956564Y-88189389D01*
G37*
G36*
X158156564Y-88189389D02*
G01*
X158347833Y-88268615D01*
X158347835Y-88268616D01*
X158519973Y-88383635D01*
X158666365Y-88530027D01*
X158781385Y-88702167D01*
X158860611Y-88893436D01*
X158901000Y-89096484D01*
X158901000Y-89303516D01*
X158860611Y-89506564D01*
X158781385Y-89697833D01*
X158781384Y-89697835D01*
X158666365Y-89869973D01*
X158519973Y-90016365D01*
X158347835Y-90131384D01*
X158347834Y-90131385D01*
X158347833Y-90131385D01*
X158156564Y-90210611D01*
X157953516Y-90251000D01*
X157746484Y-90251000D01*
X157543436Y-90210611D01*
X157352167Y-90131385D01*
X157352166Y-90131385D01*
X157352165Y-90131384D01*
X157180027Y-90016365D01*
X157033635Y-89869973D01*
X156918616Y-89697835D01*
X156918615Y-89697833D01*
X156839389Y-89506564D01*
X156799000Y-89303516D01*
X156799000Y-89096484D01*
X156839389Y-88893436D01*
X156918615Y-88702167D01*
X157033635Y-88530027D01*
X157180027Y-88383635D01*
X157352165Y-88268616D01*
X157352167Y-88268615D01*
X157543436Y-88189389D01*
X157746484Y-88149000D01*
X157953516Y-88149000D01*
X158156564Y-88189389D01*
X158156564Y-88189389D01*
G37*
G36*
X149556564Y-88189389D02*
G01*
X149747833Y-88268615D01*
X149747835Y-88268616D01*
X149919973Y-88383635D01*
X150066365Y-88530027D01*
X150181385Y-88702167D01*
X150260611Y-88893436D01*
X150301000Y-89096484D01*
X150301000Y-89303516D01*
X150260611Y-89506564D01*
X150181385Y-89697833D01*
X150181384Y-89697835D01*
X150066365Y-89869973D01*
X149919973Y-90016365D01*
X149747835Y-90131384D01*
X149747834Y-90131385D01*
X149747833Y-90131385D01*
X149556564Y-90210611D01*
X149353516Y-90251000D01*
X149146484Y-90251000D01*
X148943436Y-90210611D01*
X148752167Y-90131385D01*
X148752166Y-90131385D01*
X148752165Y-90131384D01*
X148580027Y-90016365D01*
X148433635Y-89869973D01*
X148318616Y-89697835D01*
X148318615Y-89697833D01*
X148239389Y-89506564D01*
X148199000Y-89303516D01*
X148199000Y-89096484D01*
X148239389Y-88893436D01*
X148318615Y-88702167D01*
X148433635Y-88530027D01*
X148580027Y-88383635D01*
X148752165Y-88268616D01*
X148752167Y-88268615D01*
X148943436Y-88189389D01*
X149146484Y-88149000D01*
X149353516Y-88149000D01*
X149556564Y-88189389D01*
X149556564Y-88189389D01*
G37*
G36*
X170156564Y-88189389D02*
G01*
X170347833Y-88268615D01*
X170347835Y-88268616D01*
X170519973Y-88383635D01*
X170666365Y-88530027D01*
X170781385Y-88702167D01*
X170860611Y-88893436D01*
X170901000Y-89096484D01*
X170901000Y-89303516D01*
X170860611Y-89506564D01*
X170781385Y-89697833D01*
X170781384Y-89697835D01*
X170666365Y-89869973D01*
X170519973Y-90016365D01*
X170347835Y-90131384D01*
X170347834Y-90131385D01*
X170347833Y-90131385D01*
X170156564Y-90210611D01*
X169953516Y-90251000D01*
X169746484Y-90251000D01*
X169543436Y-90210611D01*
X169352167Y-90131385D01*
X169352166Y-90131385D01*
X169352165Y-90131384D01*
X169180027Y-90016365D01*
X169033635Y-89869973D01*
X168918616Y-89697835D01*
X168918615Y-89697833D01*
X168839389Y-89506564D01*
X168799000Y-89303516D01*
X168799000Y-89096484D01*
X168839389Y-88893436D01*
X168918615Y-88702167D01*
X169033635Y-88530027D01*
X169180027Y-88383635D01*
X169352165Y-88268616D01*
X169352167Y-88268615D01*
X169543436Y-88189389D01*
X169746484Y-88149000D01*
X169953516Y-88149000D01*
X170156564Y-88189389D01*
X170156564Y-88189389D01*
G37*
G36*
X137556564Y-88189389D02*
G01*
X137747833Y-88268615D01*
X137747835Y-88268616D01*
X137919973Y-88383635D01*
X138066365Y-88530027D01*
X138181385Y-88702167D01*
X138260611Y-88893436D01*
X138301000Y-89096484D01*
X138301000Y-89303516D01*
X138260611Y-89506564D01*
X138181385Y-89697833D01*
X138181384Y-89697835D01*
X138066365Y-89869973D01*
X137919973Y-90016365D01*
X137747835Y-90131384D01*
X137747834Y-90131385D01*
X137747833Y-90131385D01*
X137556564Y-90210611D01*
X137353516Y-90251000D01*
X137146484Y-90251000D01*
X136943436Y-90210611D01*
X136752167Y-90131385D01*
X136752166Y-90131385D01*
X136752165Y-90131384D01*
X136580027Y-90016365D01*
X136433635Y-89869973D01*
X136318616Y-89697835D01*
X136318615Y-89697833D01*
X136239389Y-89506564D01*
X136199000Y-89303516D01*
X136199000Y-89096484D01*
X136239389Y-88893436D01*
X136318615Y-88702167D01*
X136433635Y-88530027D01*
X136580027Y-88383635D01*
X136752165Y-88268616D01*
X136752167Y-88268615D01*
X136943436Y-88189389D01*
X137146484Y-88149000D01*
X137353516Y-88149000D01*
X137556564Y-88189389D01*
X137556564Y-88189389D01*
G37*
G36*
X116956564Y-85649389D02*
G01*
X117147833Y-85728615D01*
X117147835Y-85728616D01*
X117319973Y-85843635D01*
X117466365Y-85990027D01*
X117581385Y-86162167D01*
X117660611Y-86353436D01*
X117701000Y-86556484D01*
X117701000Y-86763516D01*
X117660611Y-86966564D01*
X117581385Y-87157833D01*
X117581384Y-87157835D01*
X117466365Y-87329973D01*
X117319973Y-87476365D01*
X117147835Y-87591384D01*
X117147834Y-87591385D01*
X117147833Y-87591385D01*
X116956564Y-87670611D01*
X116753516Y-87711000D01*
X116546484Y-87711000D01*
X116343436Y-87670611D01*
X116152167Y-87591385D01*
X116152166Y-87591385D01*
X116152165Y-87591384D01*
X115980027Y-87476365D01*
X115833635Y-87329973D01*
X115718616Y-87157835D01*
X115718615Y-87157833D01*
X115639389Y-86966564D01*
X115599000Y-86763516D01*
X115599000Y-86556484D01*
X115639389Y-86353436D01*
X115718615Y-86162167D01*
X115833635Y-85990027D01*
X115980027Y-85843635D01*
X116152165Y-85728616D01*
X116152167Y-85728615D01*
X116343436Y-85649389D01*
X116546484Y-85609000D01*
X116753516Y-85609000D01*
X116956564Y-85649389D01*
X116956564Y-85649389D01*
G37*
G36*
X128956564Y-85649389D02*
G01*
X129147833Y-85728615D01*
X129147835Y-85728616D01*
X129319973Y-85843635D01*
X129466365Y-85990027D01*
X129581385Y-86162167D01*
X129660611Y-86353436D01*
X129701000Y-86556484D01*
X129701000Y-86763516D01*
X129660611Y-86966564D01*
X129581385Y-87157833D01*
X129581384Y-87157835D01*
X129466365Y-87329973D01*
X129319973Y-87476365D01*
X129147835Y-87591384D01*
X129147834Y-87591385D01*
X129147833Y-87591385D01*
X128956564Y-87670611D01*
X128753516Y-87711000D01*
X128546484Y-87711000D01*
X128343436Y-87670611D01*
X128152167Y-87591385D01*
X128152166Y-87591385D01*
X128152165Y-87591384D01*
X127980027Y-87476365D01*
X127833635Y-87329973D01*
X127718616Y-87157835D01*
X127718615Y-87157833D01*
X127639389Y-86966564D01*
X127599000Y-86763516D01*
X127599000Y-86556484D01*
X127639389Y-86353436D01*
X127718615Y-86162167D01*
X127833635Y-85990027D01*
X127980027Y-85843635D01*
X128152165Y-85728616D01*
X128152167Y-85728615D01*
X128343436Y-85649389D01*
X128546484Y-85609000D01*
X128753516Y-85609000D01*
X128956564Y-85649389D01*
X128956564Y-85649389D01*
G37*
G36*
X158156564Y-85649389D02*
G01*
X158347833Y-85728615D01*
X158347835Y-85728616D01*
X158519973Y-85843635D01*
X158666365Y-85990027D01*
X158781385Y-86162167D01*
X158860611Y-86353436D01*
X158901000Y-86556484D01*
X158901000Y-86763516D01*
X158860611Y-86966564D01*
X158781385Y-87157833D01*
X158781384Y-87157835D01*
X158666365Y-87329973D01*
X158519973Y-87476365D01*
X158347835Y-87591384D01*
X158347834Y-87591385D01*
X158347833Y-87591385D01*
X158156564Y-87670611D01*
X157953516Y-87711000D01*
X157746484Y-87711000D01*
X157543436Y-87670611D01*
X157352167Y-87591385D01*
X157352166Y-87591385D01*
X157352165Y-87591384D01*
X157180027Y-87476365D01*
X157033635Y-87329973D01*
X156918616Y-87157835D01*
X156918615Y-87157833D01*
X156839389Y-86966564D01*
X156799000Y-86763516D01*
X156799000Y-86556484D01*
X156839389Y-86353436D01*
X156918615Y-86162167D01*
X157033635Y-85990027D01*
X157180027Y-85843635D01*
X157352165Y-85728616D01*
X157352167Y-85728615D01*
X157543436Y-85649389D01*
X157746484Y-85609000D01*
X157953516Y-85609000D01*
X158156564Y-85649389D01*
X158156564Y-85649389D01*
G37*
G36*
X170156564Y-85649389D02*
G01*
X170347833Y-85728615D01*
X170347835Y-85728616D01*
X170519973Y-85843635D01*
X170666365Y-85990027D01*
X170781385Y-86162167D01*
X170860611Y-86353436D01*
X170901000Y-86556484D01*
X170901000Y-86763516D01*
X170860611Y-86966564D01*
X170781385Y-87157833D01*
X170781384Y-87157835D01*
X170666365Y-87329973D01*
X170519973Y-87476365D01*
X170347835Y-87591384D01*
X170347834Y-87591385D01*
X170347833Y-87591385D01*
X170156564Y-87670611D01*
X169953516Y-87711000D01*
X169746484Y-87711000D01*
X169543436Y-87670611D01*
X169352167Y-87591385D01*
X169352166Y-87591385D01*
X169352165Y-87591384D01*
X169180027Y-87476365D01*
X169033635Y-87329973D01*
X168918616Y-87157835D01*
X168918615Y-87157833D01*
X168839389Y-86966564D01*
X168799000Y-86763516D01*
X168799000Y-86556484D01*
X168839389Y-86353436D01*
X168918615Y-86162167D01*
X169033635Y-85990027D01*
X169180027Y-85843635D01*
X169352165Y-85728616D01*
X169352167Y-85728615D01*
X169543436Y-85649389D01*
X169746484Y-85609000D01*
X169953516Y-85609000D01*
X170156564Y-85649389D01*
X170156564Y-85649389D01*
G37*
G36*
X137556564Y-85649389D02*
G01*
X137747833Y-85728615D01*
X137747835Y-85728616D01*
X137919973Y-85843635D01*
X138066365Y-85990027D01*
X138181385Y-86162167D01*
X138260611Y-86353436D01*
X138301000Y-86556484D01*
X138301000Y-86763516D01*
X138260611Y-86966564D01*
X138181385Y-87157833D01*
X138181384Y-87157835D01*
X138066365Y-87329973D01*
X137919973Y-87476365D01*
X137747835Y-87591384D01*
X137747834Y-87591385D01*
X137747833Y-87591385D01*
X137556564Y-87670611D01*
X137353516Y-87711000D01*
X137146484Y-87711000D01*
X136943436Y-87670611D01*
X136752167Y-87591385D01*
X136752166Y-87591385D01*
X136752165Y-87591384D01*
X136580027Y-87476365D01*
X136433635Y-87329973D01*
X136318616Y-87157835D01*
X136318615Y-87157833D01*
X136239389Y-86966564D01*
X136199000Y-86763516D01*
X136199000Y-86556484D01*
X136239389Y-86353436D01*
X136318615Y-86162167D01*
X136433635Y-85990027D01*
X136580027Y-85843635D01*
X136752165Y-85728616D01*
X136752167Y-85728615D01*
X136943436Y-85649389D01*
X137146484Y-85609000D01*
X137353516Y-85609000D01*
X137556564Y-85649389D01*
X137556564Y-85649389D01*
G37*
G36*
X149556564Y-85649389D02*
G01*
X149747833Y-85728615D01*
X149747835Y-85728616D01*
X149919973Y-85843635D01*
X150066365Y-85990027D01*
X150181385Y-86162167D01*
X150260611Y-86353436D01*
X150301000Y-86556484D01*
X150301000Y-86763516D01*
X150260611Y-86966564D01*
X150181385Y-87157833D01*
X150181384Y-87157835D01*
X150066365Y-87329973D01*
X149919973Y-87476365D01*
X149747835Y-87591384D01*
X149747834Y-87591385D01*
X149747833Y-87591385D01*
X149556564Y-87670611D01*
X149353516Y-87711000D01*
X149146484Y-87711000D01*
X148943436Y-87670611D01*
X148752167Y-87591385D01*
X148752166Y-87591385D01*
X148752165Y-87591384D01*
X148580027Y-87476365D01*
X148433635Y-87329973D01*
X148318616Y-87157835D01*
X148318615Y-87157833D01*
X148239389Y-86966564D01*
X148199000Y-86763516D01*
X148199000Y-86556484D01*
X148239389Y-86353436D01*
X148318615Y-86162167D01*
X148433635Y-85990027D01*
X148580027Y-85843635D01*
X148752165Y-85728616D01*
X148752167Y-85728615D01*
X148943436Y-85649389D01*
X149146484Y-85609000D01*
X149353516Y-85609000D01*
X149556564Y-85649389D01*
X149556564Y-85649389D01*
G37*
G36*
X158156564Y-83109389D02*
G01*
X158347833Y-83188615D01*
X158347835Y-83188616D01*
X158519973Y-83303635D01*
X158666365Y-83450027D01*
X158781385Y-83622167D01*
X158860611Y-83813436D01*
X158901000Y-84016484D01*
X158901000Y-84223516D01*
X158860611Y-84426564D01*
X158781385Y-84617833D01*
X158781384Y-84617835D01*
X158666365Y-84789973D01*
X158519973Y-84936365D01*
X158347835Y-85051384D01*
X158347834Y-85051385D01*
X158347833Y-85051385D01*
X158156564Y-85130611D01*
X157953516Y-85171000D01*
X157746484Y-85171000D01*
X157543436Y-85130611D01*
X157352167Y-85051385D01*
X157352166Y-85051385D01*
X157352165Y-85051384D01*
X157180027Y-84936365D01*
X157033635Y-84789973D01*
X156918616Y-84617835D01*
X156918615Y-84617833D01*
X156839389Y-84426564D01*
X156799000Y-84223516D01*
X156799000Y-84016484D01*
X156839389Y-83813436D01*
X156918615Y-83622167D01*
X157033635Y-83450027D01*
X157180027Y-83303635D01*
X157352165Y-83188616D01*
X157352167Y-83188615D01*
X157543436Y-83109389D01*
X157746484Y-83069000D01*
X157953516Y-83069000D01*
X158156564Y-83109389D01*
X158156564Y-83109389D01*
G37*
G36*
X137556564Y-83109389D02*
G01*
X137747833Y-83188615D01*
X137747835Y-83188616D01*
X137919973Y-83303635D01*
X138066365Y-83450027D01*
X138181385Y-83622167D01*
X138260611Y-83813436D01*
X138301000Y-84016484D01*
X138301000Y-84223516D01*
X138260611Y-84426564D01*
X138181385Y-84617833D01*
X138181384Y-84617835D01*
X138066365Y-84789973D01*
X137919973Y-84936365D01*
X137747835Y-85051384D01*
X137747834Y-85051385D01*
X137747833Y-85051385D01*
X137556564Y-85130611D01*
X137353516Y-85171000D01*
X137146484Y-85171000D01*
X136943436Y-85130611D01*
X136752167Y-85051385D01*
X136752166Y-85051385D01*
X136752165Y-85051384D01*
X136580027Y-84936365D01*
X136433635Y-84789973D01*
X136318616Y-84617835D01*
X136318615Y-84617833D01*
X136239389Y-84426564D01*
X136199000Y-84223516D01*
X136199000Y-84016484D01*
X136239389Y-83813436D01*
X136318615Y-83622167D01*
X136433635Y-83450027D01*
X136580027Y-83303635D01*
X136752165Y-83188616D01*
X136752167Y-83188615D01*
X136943436Y-83109389D01*
X137146484Y-83069000D01*
X137353516Y-83069000D01*
X137556564Y-83109389D01*
X137556564Y-83109389D01*
G37*
G36*
X116956564Y-83109389D02*
G01*
X117147833Y-83188615D01*
X117147835Y-83188616D01*
X117319973Y-83303635D01*
X117466365Y-83450027D01*
X117581385Y-83622167D01*
X117660611Y-83813436D01*
X117701000Y-84016484D01*
X117701000Y-84223516D01*
X117660611Y-84426564D01*
X117581385Y-84617833D01*
X117581384Y-84617835D01*
X117466365Y-84789973D01*
X117319973Y-84936365D01*
X117147835Y-85051384D01*
X117147834Y-85051385D01*
X117147833Y-85051385D01*
X116956564Y-85130611D01*
X116753516Y-85171000D01*
X116546484Y-85171000D01*
X116343436Y-85130611D01*
X116152167Y-85051385D01*
X116152166Y-85051385D01*
X116152165Y-85051384D01*
X115980027Y-84936365D01*
X115833635Y-84789973D01*
X115718616Y-84617835D01*
X115718615Y-84617833D01*
X115639389Y-84426564D01*
X115599000Y-84223516D01*
X115599000Y-84016484D01*
X115639389Y-83813436D01*
X115718615Y-83622167D01*
X115833635Y-83450027D01*
X115980027Y-83303635D01*
X116152165Y-83188616D01*
X116152167Y-83188615D01*
X116343436Y-83109389D01*
X116546484Y-83069000D01*
X116753516Y-83069000D01*
X116956564Y-83109389D01*
X116956564Y-83109389D01*
G37*
G36*
X128956564Y-83109389D02*
G01*
X129147833Y-83188615D01*
X129147835Y-83188616D01*
X129319973Y-83303635D01*
X129466365Y-83450027D01*
X129581385Y-83622167D01*
X129660611Y-83813436D01*
X129701000Y-84016484D01*
X129701000Y-84223516D01*
X129660611Y-84426564D01*
X129581385Y-84617833D01*
X129581384Y-84617835D01*
X129466365Y-84789973D01*
X129319973Y-84936365D01*
X129147835Y-85051384D01*
X129147834Y-85051385D01*
X129147833Y-85051385D01*
X128956564Y-85130611D01*
X128753516Y-85171000D01*
X128546484Y-85171000D01*
X128343436Y-85130611D01*
X128152167Y-85051385D01*
X128152166Y-85051385D01*
X128152165Y-85051384D01*
X127980027Y-84936365D01*
X127833635Y-84789973D01*
X127718616Y-84617835D01*
X127718615Y-84617833D01*
X127639389Y-84426564D01*
X127599000Y-84223516D01*
X127599000Y-84016484D01*
X127639389Y-83813436D01*
X127718615Y-83622167D01*
X127833635Y-83450027D01*
X127980027Y-83303635D01*
X128152165Y-83188616D01*
X128152167Y-83188615D01*
X128343436Y-83109389D01*
X128546484Y-83069000D01*
X128753516Y-83069000D01*
X128956564Y-83109389D01*
X128956564Y-83109389D01*
G37*
G36*
X170156564Y-83109389D02*
G01*
X170347833Y-83188615D01*
X170347835Y-83188616D01*
X170519973Y-83303635D01*
X170666365Y-83450027D01*
X170781385Y-83622167D01*
X170860611Y-83813436D01*
X170901000Y-84016484D01*
X170901000Y-84223516D01*
X170860611Y-84426564D01*
X170781385Y-84617833D01*
X170781384Y-84617835D01*
X170666365Y-84789973D01*
X170519973Y-84936365D01*
X170347835Y-85051384D01*
X170347834Y-85051385D01*
X170347833Y-85051385D01*
X170156564Y-85130611D01*
X169953516Y-85171000D01*
X169746484Y-85171000D01*
X169543436Y-85130611D01*
X169352167Y-85051385D01*
X169352166Y-85051385D01*
X169352165Y-85051384D01*
X169180027Y-84936365D01*
X169033635Y-84789973D01*
X168918616Y-84617835D01*
X168918615Y-84617833D01*
X168839389Y-84426564D01*
X168799000Y-84223516D01*
X168799000Y-84016484D01*
X168839389Y-83813436D01*
X168918615Y-83622167D01*
X169033635Y-83450027D01*
X169180027Y-83303635D01*
X169352165Y-83188616D01*
X169352167Y-83188615D01*
X169543436Y-83109389D01*
X169746484Y-83069000D01*
X169953516Y-83069000D01*
X170156564Y-83109389D01*
X170156564Y-83109389D01*
G37*
G36*
X149556564Y-83109389D02*
G01*
X149747833Y-83188615D01*
X149747835Y-83188616D01*
X149919973Y-83303635D01*
X150066365Y-83450027D01*
X150181385Y-83622167D01*
X150260611Y-83813436D01*
X150301000Y-84016484D01*
X150301000Y-84223516D01*
X150260611Y-84426564D01*
X150181385Y-84617833D01*
X150181384Y-84617835D01*
X150066365Y-84789973D01*
X149919973Y-84936365D01*
X149747835Y-85051384D01*
X149747834Y-85051385D01*
X149747833Y-85051385D01*
X149556564Y-85130611D01*
X149353516Y-85171000D01*
X149146484Y-85171000D01*
X148943436Y-85130611D01*
X148752167Y-85051385D01*
X148752166Y-85051385D01*
X148752165Y-85051384D01*
X148580027Y-84936365D01*
X148433635Y-84789973D01*
X148318616Y-84617835D01*
X148318615Y-84617833D01*
X148239389Y-84426564D01*
X148199000Y-84223516D01*
X148199000Y-84016484D01*
X148239389Y-83813436D01*
X148318615Y-83622167D01*
X148433635Y-83450027D01*
X148580027Y-83303635D01*
X148752165Y-83188616D01*
X148752167Y-83188615D01*
X148943436Y-83109389D01*
X149146484Y-83069000D01*
X149353516Y-83069000D01*
X149556564Y-83109389D01*
X149556564Y-83109389D01*
G37*
G36*
X158156564Y-80569389D02*
G01*
X158347833Y-80648615D01*
X158347835Y-80648616D01*
X158519973Y-80763635D01*
X158666365Y-80910027D01*
X158781385Y-81082167D01*
X158860611Y-81273436D01*
X158901000Y-81476484D01*
X158901000Y-81683516D01*
X158860611Y-81886564D01*
X158781385Y-82077833D01*
X158781384Y-82077835D01*
X158666365Y-82249973D01*
X158519973Y-82396365D01*
X158347835Y-82511384D01*
X158347834Y-82511385D01*
X158347833Y-82511385D01*
X158156564Y-82590611D01*
X157953516Y-82631000D01*
X157746484Y-82631000D01*
X157543436Y-82590611D01*
X157352167Y-82511385D01*
X157352166Y-82511385D01*
X157352165Y-82511384D01*
X157180027Y-82396365D01*
X157033635Y-82249973D01*
X156918616Y-82077835D01*
X156918615Y-82077833D01*
X156839389Y-81886564D01*
X156799000Y-81683516D01*
X156799000Y-81476484D01*
X156839389Y-81273436D01*
X156918615Y-81082167D01*
X157033635Y-80910027D01*
X157180027Y-80763635D01*
X157352165Y-80648616D01*
X157352167Y-80648615D01*
X157543436Y-80569389D01*
X157746484Y-80529000D01*
X157953516Y-80529000D01*
X158156564Y-80569389D01*
X158156564Y-80569389D01*
G37*
G36*
X116956564Y-80569389D02*
G01*
X117147833Y-80648615D01*
X117147835Y-80648616D01*
X117319973Y-80763635D01*
X117466365Y-80910027D01*
X117581385Y-81082167D01*
X117660611Y-81273436D01*
X117701000Y-81476484D01*
X117701000Y-81683516D01*
X117660611Y-81886564D01*
X117581385Y-82077833D01*
X117581384Y-82077835D01*
X117466365Y-82249973D01*
X117319973Y-82396365D01*
X117147835Y-82511384D01*
X117147834Y-82511385D01*
X117147833Y-82511385D01*
X116956564Y-82590611D01*
X116753516Y-82631000D01*
X116546484Y-82631000D01*
X116343436Y-82590611D01*
X116152167Y-82511385D01*
X116152166Y-82511385D01*
X116152165Y-82511384D01*
X115980027Y-82396365D01*
X115833635Y-82249973D01*
X115718616Y-82077835D01*
X115718615Y-82077833D01*
X115639389Y-81886564D01*
X115599000Y-81683516D01*
X115599000Y-81476484D01*
X115639389Y-81273436D01*
X115718615Y-81082167D01*
X115833635Y-80910027D01*
X115980027Y-80763635D01*
X116152165Y-80648616D01*
X116152167Y-80648615D01*
X116343436Y-80569389D01*
X116546484Y-80529000D01*
X116753516Y-80529000D01*
X116956564Y-80569389D01*
X116956564Y-80569389D01*
G37*
G36*
X137556564Y-80569389D02*
G01*
X137747833Y-80648615D01*
X137747835Y-80648616D01*
X137919973Y-80763635D01*
X138066365Y-80910027D01*
X138181385Y-81082167D01*
X138260611Y-81273436D01*
X138301000Y-81476484D01*
X138301000Y-81683516D01*
X138260611Y-81886564D01*
X138181385Y-82077833D01*
X138181384Y-82077835D01*
X138066365Y-82249973D01*
X137919973Y-82396365D01*
X137747835Y-82511384D01*
X137747834Y-82511385D01*
X137747833Y-82511385D01*
X137556564Y-82590611D01*
X137353516Y-82631000D01*
X137146484Y-82631000D01*
X136943436Y-82590611D01*
X136752167Y-82511385D01*
X136752166Y-82511385D01*
X136752165Y-82511384D01*
X136580027Y-82396365D01*
X136433635Y-82249973D01*
X136318616Y-82077835D01*
X136318615Y-82077833D01*
X136239389Y-81886564D01*
X136199000Y-81683516D01*
X136199000Y-81476484D01*
X136239389Y-81273436D01*
X136318615Y-81082167D01*
X136433635Y-80910027D01*
X136580027Y-80763635D01*
X136752165Y-80648616D01*
X136752167Y-80648615D01*
X136943436Y-80569389D01*
X137146484Y-80529000D01*
X137353516Y-80529000D01*
X137556564Y-80569389D01*
X137556564Y-80569389D01*
G37*
G36*
X158156564Y-78029389D02*
G01*
X158347833Y-78108615D01*
X158347835Y-78108616D01*
X158519973Y-78223635D01*
X158666365Y-78370027D01*
X158781385Y-78542167D01*
X158860611Y-78733436D01*
X158901000Y-78936484D01*
X158901000Y-79143516D01*
X158860611Y-79346564D01*
X158781385Y-79537833D01*
X158781384Y-79537835D01*
X158666365Y-79709973D01*
X158519973Y-79856365D01*
X158347835Y-79971384D01*
X158347834Y-79971385D01*
X158347833Y-79971385D01*
X158156564Y-80050611D01*
X157953516Y-80091000D01*
X157746484Y-80091000D01*
X157543436Y-80050611D01*
X157352167Y-79971385D01*
X157352166Y-79971385D01*
X157352165Y-79971384D01*
X157180027Y-79856365D01*
X157033635Y-79709973D01*
X156918616Y-79537835D01*
X156918615Y-79537833D01*
X156839389Y-79346564D01*
X156799000Y-79143516D01*
X156799000Y-78936484D01*
X156839389Y-78733436D01*
X156918615Y-78542167D01*
X157033635Y-78370027D01*
X157180027Y-78223635D01*
X157352165Y-78108616D01*
X157352167Y-78108615D01*
X157543436Y-78029389D01*
X157746484Y-77989000D01*
X157953516Y-77989000D01*
X158156564Y-78029389D01*
X158156564Y-78029389D01*
G37*
G36*
X116956564Y-78029389D02*
G01*
X117147833Y-78108615D01*
X117147835Y-78108616D01*
X117319973Y-78223635D01*
X117466365Y-78370027D01*
X117581385Y-78542167D01*
X117660611Y-78733436D01*
X117701000Y-78936484D01*
X117701000Y-79143516D01*
X117660611Y-79346564D01*
X117581385Y-79537833D01*
X117581384Y-79537835D01*
X117466365Y-79709973D01*
X117319973Y-79856365D01*
X117147835Y-79971384D01*
X117147834Y-79971385D01*
X117147833Y-79971385D01*
X116956564Y-80050611D01*
X116753516Y-80091000D01*
X116546484Y-80091000D01*
X116343436Y-80050611D01*
X116152167Y-79971385D01*
X116152166Y-79971385D01*
X116152165Y-79971384D01*
X115980027Y-79856365D01*
X115833635Y-79709973D01*
X115718616Y-79537835D01*
X115718615Y-79537833D01*
X115639389Y-79346564D01*
X115599000Y-79143516D01*
X115599000Y-78936484D01*
X115639389Y-78733436D01*
X115718615Y-78542167D01*
X115833635Y-78370027D01*
X115980027Y-78223635D01*
X116152165Y-78108616D01*
X116152167Y-78108615D01*
X116343436Y-78029389D01*
X116546484Y-77989000D01*
X116753516Y-77989000D01*
X116956564Y-78029389D01*
X116956564Y-78029389D01*
G37*
G36*
X137556564Y-78029389D02*
G01*
X137747833Y-78108615D01*
X137747835Y-78108616D01*
X137919973Y-78223635D01*
X138066365Y-78370027D01*
X138181385Y-78542167D01*
X138260611Y-78733436D01*
X138301000Y-78936484D01*
X138301000Y-79143516D01*
X138260611Y-79346564D01*
X138181385Y-79537833D01*
X138181384Y-79537835D01*
X138066365Y-79709973D01*
X137919973Y-79856365D01*
X137747835Y-79971384D01*
X137747834Y-79971385D01*
X137747833Y-79971385D01*
X137556564Y-80050611D01*
X137353516Y-80091000D01*
X137146484Y-80091000D01*
X136943436Y-80050611D01*
X136752167Y-79971385D01*
X136752166Y-79971385D01*
X136752165Y-79971384D01*
X136580027Y-79856365D01*
X136433635Y-79709973D01*
X136318616Y-79537835D01*
X136318615Y-79537833D01*
X136239389Y-79346564D01*
X136199000Y-79143516D01*
X136199000Y-78936484D01*
X136239389Y-78733436D01*
X136318615Y-78542167D01*
X136433635Y-78370027D01*
X136580027Y-78223635D01*
X136752165Y-78108616D01*
X136752167Y-78108615D01*
X136943436Y-78029389D01*
X137146484Y-77989000D01*
X137353516Y-77989000D01*
X137556564Y-78029389D01*
X137556564Y-78029389D01*
G37*
G36*
X161890443Y-74335519D02*
G01*
X161956627Y-74342037D01*
X162126466Y-74393557D01*
X162282991Y-74477222D01*
X162318729Y-74506552D01*
X162420186Y-74589814D01*
X162503448Y-74691271D01*
X162532778Y-74727009D01*
X162616443Y-74883534D01*
X162667963Y-75053373D01*
X162685359Y-75230000D01*
X162667963Y-75406627D01*
X162616443Y-75576466D01*
X162532778Y-75732991D01*
X162503448Y-75768729D01*
X162420186Y-75870186D01*
X162318729Y-75953448D01*
X162282991Y-75982778D01*
X162126466Y-76066443D01*
X161956627Y-76117963D01*
X161890443Y-76124481D01*
X161824260Y-76131000D01*
X161735740Y-76131000D01*
X161669557Y-76124481D01*
X161603373Y-76117963D01*
X161433534Y-76066443D01*
X161277009Y-75982778D01*
X161241271Y-75953448D01*
X161139814Y-75870186D01*
X161056552Y-75768729D01*
X161027222Y-75732991D01*
X160943557Y-75576466D01*
X160892037Y-75406627D01*
X160874641Y-75230000D01*
X160892037Y-75053373D01*
X160943557Y-74883534D01*
X161027222Y-74727009D01*
X161056552Y-74691271D01*
X161139814Y-74589814D01*
X161241271Y-74506552D01*
X161277009Y-74477222D01*
X161433534Y-74393557D01*
X161603373Y-74342037D01*
X161669557Y-74335519D01*
X161735740Y-74329000D01*
X161824260Y-74329000D01*
X161890443Y-74335519D01*
X161890443Y-74335519D01*
G37*
G36*
X117040443Y-74335519D02*
G01*
X117106627Y-74342037D01*
X117276466Y-74393557D01*
X117432991Y-74477222D01*
X117468729Y-74506552D01*
X117570186Y-74589814D01*
X117653448Y-74691271D01*
X117682778Y-74727009D01*
X117766443Y-74883534D01*
X117817963Y-75053373D01*
X117835359Y-75230000D01*
X117817963Y-75406627D01*
X117766443Y-75576466D01*
X117682778Y-75732991D01*
X117653448Y-75768729D01*
X117570186Y-75870186D01*
X117468729Y-75953448D01*
X117432991Y-75982778D01*
X117276466Y-76066443D01*
X117106627Y-76117963D01*
X117040443Y-76124481D01*
X116974260Y-76131000D01*
X116885740Y-76131000D01*
X116819557Y-76124481D01*
X116753373Y-76117963D01*
X116583534Y-76066443D01*
X116427009Y-75982778D01*
X116391271Y-75953448D01*
X116289814Y-75870186D01*
X116206552Y-75768729D01*
X116177222Y-75732991D01*
X116093557Y-75576466D01*
X116042037Y-75406627D01*
X116024641Y-75230000D01*
X116042037Y-75053373D01*
X116093557Y-74883534D01*
X116177222Y-74727009D01*
X116206552Y-74691271D01*
X116289814Y-74589814D01*
X116391271Y-74506552D01*
X116427009Y-74477222D01*
X116583534Y-74393557D01*
X116753373Y-74342037D01*
X116819557Y-74335519D01*
X116885740Y-74329000D01*
X116974260Y-74329000D01*
X117040443Y-74335519D01*
X117040443Y-74335519D01*
G37*
G36*
X119580443Y-74335519D02*
G01*
X119646627Y-74342037D01*
X119816466Y-74393557D01*
X119972991Y-74477222D01*
X120008729Y-74506552D01*
X120110186Y-74589814D01*
X120193448Y-74691271D01*
X120222778Y-74727009D01*
X120306443Y-74883534D01*
X120357963Y-75053373D01*
X120375359Y-75230000D01*
X120357963Y-75406627D01*
X120306443Y-75576466D01*
X120222778Y-75732991D01*
X120193448Y-75768729D01*
X120110186Y-75870186D01*
X120008729Y-75953448D01*
X119972991Y-75982778D01*
X119816466Y-76066443D01*
X119646627Y-76117963D01*
X119580443Y-76124481D01*
X119514260Y-76131000D01*
X119425740Y-76131000D01*
X119359557Y-76124481D01*
X119293373Y-76117963D01*
X119123534Y-76066443D01*
X118967009Y-75982778D01*
X118931271Y-75953448D01*
X118829814Y-75870186D01*
X118746552Y-75768729D01*
X118717222Y-75732991D01*
X118633557Y-75576466D01*
X118582037Y-75406627D01*
X118564641Y-75230000D01*
X118582037Y-75053373D01*
X118633557Y-74883534D01*
X118717222Y-74727009D01*
X118746552Y-74691271D01*
X118829814Y-74589814D01*
X118931271Y-74506552D01*
X118967009Y-74477222D01*
X119123534Y-74393557D01*
X119293373Y-74342037D01*
X119359557Y-74335519D01*
X119425740Y-74329000D01*
X119514260Y-74329000D01*
X119580443Y-74335519D01*
X119580443Y-74335519D01*
G37*
G36*
X164430443Y-74335519D02*
G01*
X164496627Y-74342037D01*
X164666466Y-74393557D01*
X164822991Y-74477222D01*
X164858729Y-74506552D01*
X164960186Y-74589814D01*
X165043448Y-74691271D01*
X165072778Y-74727009D01*
X165156443Y-74883534D01*
X165207963Y-75053373D01*
X165225359Y-75230000D01*
X165207963Y-75406627D01*
X165156443Y-75576466D01*
X165072778Y-75732991D01*
X165043448Y-75768729D01*
X164960186Y-75870186D01*
X164858729Y-75953448D01*
X164822991Y-75982778D01*
X164666466Y-76066443D01*
X164496627Y-76117963D01*
X164430443Y-76124481D01*
X164364260Y-76131000D01*
X164275740Y-76131000D01*
X164209557Y-76124481D01*
X164143373Y-76117963D01*
X163973534Y-76066443D01*
X163817009Y-75982778D01*
X163781271Y-75953448D01*
X163679814Y-75870186D01*
X163596552Y-75768729D01*
X163567222Y-75732991D01*
X163483557Y-75576466D01*
X163432037Y-75406627D01*
X163414641Y-75230000D01*
X163432037Y-75053373D01*
X163483557Y-74883534D01*
X163567222Y-74727009D01*
X163596552Y-74691271D01*
X163679814Y-74589814D01*
X163781271Y-74506552D01*
X163817009Y-74477222D01*
X163973534Y-74393557D01*
X164143373Y-74342037D01*
X164209557Y-74335519D01*
X164275740Y-74329000D01*
X164364260Y-74329000D01*
X164430443Y-74335519D01*
X164430443Y-74335519D01*
G37*
G36*
X164430442Y-71795518D02*
G01*
X164496627Y-71802037D01*
X164666466Y-71853557D01*
X164822991Y-71937222D01*
X164858729Y-71966552D01*
X164960186Y-72049814D01*
X165043448Y-72151271D01*
X165072778Y-72187009D01*
X165156443Y-72343534D01*
X165207963Y-72513373D01*
X165225359Y-72690000D01*
X165207963Y-72866627D01*
X165156443Y-73036466D01*
X165072778Y-73192991D01*
X165043448Y-73228729D01*
X164960186Y-73330186D01*
X164858729Y-73413448D01*
X164822991Y-73442778D01*
X164666466Y-73526443D01*
X164496627Y-73577963D01*
X164430442Y-73584482D01*
X164364260Y-73591000D01*
X164275740Y-73591000D01*
X164209558Y-73584482D01*
X164143373Y-73577963D01*
X163973534Y-73526443D01*
X163817009Y-73442778D01*
X163781271Y-73413448D01*
X163679814Y-73330186D01*
X163596552Y-73228729D01*
X163567222Y-73192991D01*
X163483557Y-73036466D01*
X163432037Y-72866627D01*
X163414641Y-72690000D01*
X163432037Y-72513373D01*
X163483557Y-72343534D01*
X163567222Y-72187009D01*
X163596552Y-72151271D01*
X163679814Y-72049814D01*
X163781271Y-71966552D01*
X163817009Y-71937222D01*
X163973534Y-71853557D01*
X164143373Y-71802037D01*
X164209558Y-71795518D01*
X164275740Y-71789000D01*
X164364260Y-71789000D01*
X164430442Y-71795518D01*
X164430442Y-71795518D01*
G37*
G36*
X161890442Y-71795518D02*
G01*
X161956627Y-71802037D01*
X162126466Y-71853557D01*
X162282991Y-71937222D01*
X162318729Y-71966552D01*
X162420186Y-72049814D01*
X162503448Y-72151271D01*
X162532778Y-72187009D01*
X162616443Y-72343534D01*
X162667963Y-72513373D01*
X162685359Y-72690000D01*
X162667963Y-72866627D01*
X162616443Y-73036466D01*
X162532778Y-73192991D01*
X162503448Y-73228729D01*
X162420186Y-73330186D01*
X162318729Y-73413448D01*
X162282991Y-73442778D01*
X162126466Y-73526443D01*
X161956627Y-73577963D01*
X161890442Y-73584482D01*
X161824260Y-73591000D01*
X161735740Y-73591000D01*
X161669558Y-73584482D01*
X161603373Y-73577963D01*
X161433534Y-73526443D01*
X161277009Y-73442778D01*
X161241271Y-73413448D01*
X161139814Y-73330186D01*
X161056552Y-73228729D01*
X161027222Y-73192991D01*
X160943557Y-73036466D01*
X160892037Y-72866627D01*
X160874641Y-72690000D01*
X160892037Y-72513373D01*
X160943557Y-72343534D01*
X161027222Y-72187009D01*
X161056552Y-72151271D01*
X161139814Y-72049814D01*
X161241271Y-71966552D01*
X161277009Y-71937222D01*
X161433534Y-71853557D01*
X161603373Y-71802037D01*
X161669558Y-71795518D01*
X161735740Y-71789000D01*
X161824260Y-71789000D01*
X161890442Y-71795518D01*
X161890442Y-71795518D01*
G37*
G36*
X117040442Y-71795518D02*
G01*
X117106627Y-71802037D01*
X117276466Y-71853557D01*
X117432991Y-71937222D01*
X117468729Y-71966552D01*
X117570186Y-72049814D01*
X117653448Y-72151271D01*
X117682778Y-72187009D01*
X117766443Y-72343534D01*
X117817963Y-72513373D01*
X117835359Y-72690000D01*
X117817963Y-72866627D01*
X117766443Y-73036466D01*
X117682778Y-73192991D01*
X117653448Y-73228729D01*
X117570186Y-73330186D01*
X117468729Y-73413448D01*
X117432991Y-73442778D01*
X117276466Y-73526443D01*
X117106627Y-73577963D01*
X117040442Y-73584482D01*
X116974260Y-73591000D01*
X116885740Y-73591000D01*
X116819558Y-73584482D01*
X116753373Y-73577963D01*
X116583534Y-73526443D01*
X116427009Y-73442778D01*
X116391271Y-73413448D01*
X116289814Y-73330186D01*
X116206552Y-73228729D01*
X116177222Y-73192991D01*
X116093557Y-73036466D01*
X116042037Y-72866627D01*
X116024641Y-72690000D01*
X116042037Y-72513373D01*
X116093557Y-72343534D01*
X116177222Y-72187009D01*
X116206552Y-72151271D01*
X116289814Y-72049814D01*
X116391271Y-71966552D01*
X116427009Y-71937222D01*
X116583534Y-71853557D01*
X116753373Y-71802037D01*
X116819558Y-71795518D01*
X116885740Y-71789000D01*
X116974260Y-71789000D01*
X117040442Y-71795518D01*
X117040442Y-71795518D01*
G37*
G36*
X119580442Y-71795518D02*
G01*
X119646627Y-71802037D01*
X119816466Y-71853557D01*
X119972991Y-71937222D01*
X120008729Y-71966552D01*
X120110186Y-72049814D01*
X120193448Y-72151271D01*
X120222778Y-72187009D01*
X120306443Y-72343534D01*
X120357963Y-72513373D01*
X120375359Y-72690000D01*
X120357963Y-72866627D01*
X120306443Y-73036466D01*
X120222778Y-73192991D01*
X120193448Y-73228729D01*
X120110186Y-73330186D01*
X120008729Y-73413448D01*
X119972991Y-73442778D01*
X119816466Y-73526443D01*
X119646627Y-73577963D01*
X119580442Y-73584482D01*
X119514260Y-73591000D01*
X119425740Y-73591000D01*
X119359558Y-73584482D01*
X119293373Y-73577963D01*
X119123534Y-73526443D01*
X118967009Y-73442778D01*
X118931271Y-73413448D01*
X118829814Y-73330186D01*
X118746552Y-73228729D01*
X118717222Y-73192991D01*
X118633557Y-73036466D01*
X118582037Y-72866627D01*
X118564641Y-72690000D01*
X118582037Y-72513373D01*
X118633557Y-72343534D01*
X118717222Y-72187009D01*
X118746552Y-72151271D01*
X118829814Y-72049814D01*
X118931271Y-71966552D01*
X118967009Y-71937222D01*
X119123534Y-71853557D01*
X119293373Y-71802037D01*
X119359558Y-71795518D01*
X119425740Y-71789000D01*
X119514260Y-71789000D01*
X119580442Y-71795518D01*
X119580442Y-71795518D01*
G37*
G36*
X119580443Y-69255519D02*
G01*
X119646627Y-69262037D01*
X119816466Y-69313557D01*
X119972991Y-69397222D01*
X120008729Y-69426552D01*
X120110186Y-69509814D01*
X120193448Y-69611271D01*
X120222778Y-69647009D01*
X120306443Y-69803534D01*
X120357963Y-69973373D01*
X120375359Y-70150000D01*
X120357963Y-70326627D01*
X120306443Y-70496466D01*
X120222778Y-70652991D01*
X120193448Y-70688729D01*
X120110186Y-70790186D01*
X120008729Y-70873448D01*
X119972991Y-70902778D01*
X119816466Y-70986443D01*
X119646627Y-71037963D01*
X119580443Y-71044481D01*
X119514260Y-71051000D01*
X119425740Y-71051000D01*
X119359557Y-71044481D01*
X119293373Y-71037963D01*
X119123534Y-70986443D01*
X118967009Y-70902778D01*
X118931271Y-70873448D01*
X118829814Y-70790186D01*
X118746552Y-70688729D01*
X118717222Y-70652991D01*
X118633557Y-70496466D01*
X118582037Y-70326627D01*
X118564641Y-70150000D01*
X118582037Y-69973373D01*
X118633557Y-69803534D01*
X118717222Y-69647009D01*
X118746552Y-69611271D01*
X118829814Y-69509814D01*
X118931271Y-69426552D01*
X118967009Y-69397222D01*
X119123534Y-69313557D01*
X119293373Y-69262037D01*
X119359557Y-69255519D01*
X119425740Y-69249000D01*
X119514260Y-69249000D01*
X119580443Y-69255519D01*
X119580443Y-69255519D01*
G37*
G36*
X161890443Y-69255519D02*
G01*
X161956627Y-69262037D01*
X162126466Y-69313557D01*
X162282991Y-69397222D01*
X162318729Y-69426552D01*
X162420186Y-69509814D01*
X162503448Y-69611271D01*
X162532778Y-69647009D01*
X162616443Y-69803534D01*
X162667963Y-69973373D01*
X162685359Y-70150000D01*
X162667963Y-70326627D01*
X162616443Y-70496466D01*
X162532778Y-70652991D01*
X162503448Y-70688729D01*
X162420186Y-70790186D01*
X162318729Y-70873448D01*
X162282991Y-70902778D01*
X162126466Y-70986443D01*
X161956627Y-71037963D01*
X161890443Y-71044481D01*
X161824260Y-71051000D01*
X161735740Y-71051000D01*
X161669557Y-71044481D01*
X161603373Y-71037963D01*
X161433534Y-70986443D01*
X161277009Y-70902778D01*
X161241271Y-70873448D01*
X161139814Y-70790186D01*
X161056552Y-70688729D01*
X161027222Y-70652991D01*
X160943557Y-70496466D01*
X160892037Y-70326627D01*
X160874641Y-70150000D01*
X160892037Y-69973373D01*
X160943557Y-69803534D01*
X161027222Y-69647009D01*
X161056552Y-69611271D01*
X161139814Y-69509814D01*
X161241271Y-69426552D01*
X161277009Y-69397222D01*
X161433534Y-69313557D01*
X161603373Y-69262037D01*
X161669557Y-69255519D01*
X161735740Y-69249000D01*
X161824260Y-69249000D01*
X161890443Y-69255519D01*
X161890443Y-69255519D01*
G37*
G36*
X164430443Y-69255519D02*
G01*
X164496627Y-69262037D01*
X164666466Y-69313557D01*
X164822991Y-69397222D01*
X164858729Y-69426552D01*
X164960186Y-69509814D01*
X165043448Y-69611271D01*
X165072778Y-69647009D01*
X165156443Y-69803534D01*
X165207963Y-69973373D01*
X165225359Y-70150000D01*
X165207963Y-70326627D01*
X165156443Y-70496466D01*
X165072778Y-70652991D01*
X165043448Y-70688729D01*
X164960186Y-70790186D01*
X164858729Y-70873448D01*
X164822991Y-70902778D01*
X164666466Y-70986443D01*
X164496627Y-71037963D01*
X164430443Y-71044481D01*
X164364260Y-71051000D01*
X164275740Y-71051000D01*
X164209557Y-71044481D01*
X164143373Y-71037963D01*
X163973534Y-70986443D01*
X163817009Y-70902778D01*
X163781271Y-70873448D01*
X163679814Y-70790186D01*
X163596552Y-70688729D01*
X163567222Y-70652991D01*
X163483557Y-70496466D01*
X163432037Y-70326627D01*
X163414641Y-70150000D01*
X163432037Y-69973373D01*
X163483557Y-69803534D01*
X163567222Y-69647009D01*
X163596552Y-69611271D01*
X163679814Y-69509814D01*
X163781271Y-69426552D01*
X163817009Y-69397222D01*
X163973534Y-69313557D01*
X164143373Y-69262037D01*
X164209557Y-69255519D01*
X164275740Y-69249000D01*
X164364260Y-69249000D01*
X164430443Y-69255519D01*
X164430443Y-69255519D01*
G37*
G36*
X117040443Y-69255519D02*
G01*
X117106627Y-69262037D01*
X117276466Y-69313557D01*
X117432991Y-69397222D01*
X117468729Y-69426552D01*
X117570186Y-69509814D01*
X117653448Y-69611271D01*
X117682778Y-69647009D01*
X117766443Y-69803534D01*
X117817963Y-69973373D01*
X117835359Y-70150000D01*
X117817963Y-70326627D01*
X117766443Y-70496466D01*
X117682778Y-70652991D01*
X117653448Y-70688729D01*
X117570186Y-70790186D01*
X117468729Y-70873448D01*
X117432991Y-70902778D01*
X117276466Y-70986443D01*
X117106627Y-71037963D01*
X117040443Y-71044481D01*
X116974260Y-71051000D01*
X116885740Y-71051000D01*
X116819557Y-71044481D01*
X116753373Y-71037963D01*
X116583534Y-70986443D01*
X116427009Y-70902778D01*
X116391271Y-70873448D01*
X116289814Y-70790186D01*
X116206552Y-70688729D01*
X116177222Y-70652991D01*
X116093557Y-70496466D01*
X116042037Y-70326627D01*
X116024641Y-70150000D01*
X116042037Y-69973373D01*
X116093557Y-69803534D01*
X116177222Y-69647009D01*
X116206552Y-69611271D01*
X116289814Y-69509814D01*
X116391271Y-69426552D01*
X116427009Y-69397222D01*
X116583534Y-69313557D01*
X116753373Y-69262037D01*
X116819557Y-69255519D01*
X116885740Y-69249000D01*
X116974260Y-69249000D01*
X117040443Y-69255519D01*
X117040443Y-69255519D01*
G37*
G36*
X119580442Y-66715518D02*
G01*
X119646627Y-66722037D01*
X119816466Y-66773557D01*
X119972991Y-66857222D01*
X120000880Y-66880110D01*
X120110186Y-66969814D01*
X120193448Y-67071271D01*
X120222778Y-67107009D01*
X120306443Y-67263534D01*
X120357963Y-67433373D01*
X120375359Y-67610000D01*
X120357963Y-67786627D01*
X120306443Y-67956466D01*
X120222778Y-68112991D01*
X120193448Y-68148729D01*
X120110186Y-68250186D01*
X120008729Y-68333448D01*
X119972991Y-68362778D01*
X119816466Y-68446443D01*
X119646627Y-68497963D01*
X119580443Y-68504481D01*
X119514260Y-68511000D01*
X119425740Y-68511000D01*
X119359557Y-68504481D01*
X119293373Y-68497963D01*
X119123534Y-68446443D01*
X118967009Y-68362778D01*
X118931271Y-68333448D01*
X118829814Y-68250186D01*
X118746552Y-68148729D01*
X118717222Y-68112991D01*
X118633557Y-67956466D01*
X118582037Y-67786627D01*
X118564641Y-67610000D01*
X118582037Y-67433373D01*
X118633557Y-67263534D01*
X118717222Y-67107009D01*
X118746552Y-67071271D01*
X118829814Y-66969814D01*
X118939120Y-66880110D01*
X118967009Y-66857222D01*
X119123534Y-66773557D01*
X119293373Y-66722037D01*
X119359558Y-66715518D01*
X119425740Y-66709000D01*
X119514260Y-66709000D01*
X119580442Y-66715518D01*
X119580442Y-66715518D01*
G37*
G36*
X117040442Y-66715518D02*
G01*
X117106627Y-66722037D01*
X117276466Y-66773557D01*
X117432991Y-66857222D01*
X117460880Y-66880110D01*
X117570186Y-66969814D01*
X117653448Y-67071271D01*
X117682778Y-67107009D01*
X117766443Y-67263534D01*
X117817963Y-67433373D01*
X117835359Y-67610000D01*
X117817963Y-67786627D01*
X117766443Y-67956466D01*
X117682778Y-68112991D01*
X117653448Y-68148729D01*
X117570186Y-68250186D01*
X117468729Y-68333448D01*
X117432991Y-68362778D01*
X117276466Y-68446443D01*
X117106627Y-68497963D01*
X117040443Y-68504481D01*
X116974260Y-68511000D01*
X116885740Y-68511000D01*
X116819557Y-68504481D01*
X116753373Y-68497963D01*
X116583534Y-68446443D01*
X116427009Y-68362778D01*
X116391271Y-68333448D01*
X116289814Y-68250186D01*
X116206552Y-68148729D01*
X116177222Y-68112991D01*
X116093557Y-67956466D01*
X116042037Y-67786627D01*
X116024641Y-67610000D01*
X116042037Y-67433373D01*
X116093557Y-67263534D01*
X116177222Y-67107009D01*
X116206552Y-67071271D01*
X116289814Y-66969814D01*
X116399120Y-66880110D01*
X116427009Y-66857222D01*
X116583534Y-66773557D01*
X116753373Y-66722037D01*
X116819558Y-66715518D01*
X116885740Y-66709000D01*
X116974260Y-66709000D01*
X117040442Y-66715518D01*
X117040442Y-66715518D01*
G37*
G36*
X161890442Y-66715518D02*
G01*
X161956627Y-66722037D01*
X162126466Y-66773557D01*
X162282991Y-66857222D01*
X162310880Y-66880110D01*
X162420186Y-66969814D01*
X162503448Y-67071271D01*
X162532778Y-67107009D01*
X162616443Y-67263534D01*
X162667963Y-67433373D01*
X162685359Y-67610000D01*
X162667963Y-67786627D01*
X162616443Y-67956466D01*
X162532778Y-68112991D01*
X162503448Y-68148729D01*
X162420186Y-68250186D01*
X162318729Y-68333448D01*
X162282991Y-68362778D01*
X162126466Y-68446443D01*
X161956627Y-68497963D01*
X161890443Y-68504481D01*
X161824260Y-68511000D01*
X161735740Y-68511000D01*
X161669557Y-68504481D01*
X161603373Y-68497963D01*
X161433534Y-68446443D01*
X161277009Y-68362778D01*
X161241271Y-68333448D01*
X161139814Y-68250186D01*
X161056552Y-68148729D01*
X161027222Y-68112991D01*
X160943557Y-67956466D01*
X160892037Y-67786627D01*
X160874641Y-67610000D01*
X160892037Y-67433373D01*
X160943557Y-67263534D01*
X161027222Y-67107009D01*
X161056552Y-67071271D01*
X161139814Y-66969814D01*
X161249120Y-66880110D01*
X161277009Y-66857222D01*
X161433534Y-66773557D01*
X161603373Y-66722037D01*
X161669558Y-66715518D01*
X161735740Y-66709000D01*
X161824260Y-66709000D01*
X161890442Y-66715518D01*
X161890442Y-66715518D01*
G37*
G36*
X164430442Y-66715518D02*
G01*
X164496627Y-66722037D01*
X164666466Y-66773557D01*
X164822991Y-66857222D01*
X164850880Y-66880110D01*
X164960186Y-66969814D01*
X165043448Y-67071271D01*
X165072778Y-67107009D01*
X165156443Y-67263534D01*
X165207963Y-67433373D01*
X165225359Y-67610000D01*
X165207963Y-67786627D01*
X165156443Y-67956466D01*
X165072778Y-68112991D01*
X165043448Y-68148729D01*
X164960186Y-68250186D01*
X164858729Y-68333448D01*
X164822991Y-68362778D01*
X164666466Y-68446443D01*
X164496627Y-68497963D01*
X164430443Y-68504481D01*
X164364260Y-68511000D01*
X164275740Y-68511000D01*
X164209557Y-68504481D01*
X164143373Y-68497963D01*
X163973534Y-68446443D01*
X163817009Y-68362778D01*
X163781271Y-68333448D01*
X163679814Y-68250186D01*
X163596552Y-68148729D01*
X163567222Y-68112991D01*
X163483557Y-67956466D01*
X163432037Y-67786627D01*
X163414641Y-67610000D01*
X163432037Y-67433373D01*
X163483557Y-67263534D01*
X163567222Y-67107009D01*
X163596552Y-67071271D01*
X163679814Y-66969814D01*
X163789120Y-66880110D01*
X163817009Y-66857222D01*
X163973534Y-66773557D01*
X164143373Y-66722037D01*
X164209558Y-66715518D01*
X164275740Y-66709000D01*
X164364260Y-66709000D01*
X164430442Y-66715518D01*
X164430442Y-66715518D01*
G37*
G36*
X155219890Y-66444017D02*
G01*
X155338364Y-66493091D01*
X155444988Y-66564335D01*
X155535665Y-66655012D01*
X155606909Y-66761636D01*
X155655983Y-66880110D01*
X155681000Y-67005882D01*
X155681000Y-67134118D01*
X155655983Y-67259890D01*
X155606909Y-67378364D01*
X155535665Y-67484988D01*
X155444988Y-67575665D01*
X155338364Y-67646909D01*
X155338363Y-67646910D01*
X155338362Y-67646910D01*
X155219890Y-67695983D01*
X155094119Y-67721000D01*
X154965881Y-67721000D01*
X154840110Y-67695983D01*
X154721638Y-67646910D01*
X154721637Y-67646910D01*
X154721636Y-67646909D01*
X154615012Y-67575665D01*
X154524335Y-67484988D01*
X154453091Y-67378364D01*
X154404017Y-67259890D01*
X154379000Y-67134118D01*
X154379000Y-67005882D01*
X154404017Y-66880110D01*
X154453091Y-66761636D01*
X154524335Y-66655012D01*
X154615012Y-66564335D01*
X154721636Y-66493091D01*
X154840110Y-66444017D01*
X154965881Y-66419000D01*
X155094119Y-66419000D01*
X155219890Y-66444017D01*
X155219890Y-66444017D01*
G37*
G36*
X145700562Y-64968181D02*
G01*
X145735481Y-64978774D01*
X145767663Y-64995976D01*
X145795873Y-65019127D01*
X145819024Y-65047337D01*
X145836226Y-65079519D01*
X145846819Y-65114438D01*
X145851000Y-65156895D01*
X145851000Y-67523105D01*
X145846819Y-67565562D01*
X145836226Y-67600481D01*
X145819024Y-67632663D01*
X145795873Y-67660873D01*
X145767663Y-67684024D01*
X145735481Y-67701226D01*
X145700562Y-67711819D01*
X145658105Y-67716000D01*
X144516895Y-67716000D01*
X144474438Y-67711819D01*
X144439519Y-67701226D01*
X144407337Y-67684024D01*
X144379127Y-67660873D01*
X144355976Y-67632663D01*
X144338774Y-67600481D01*
X144328181Y-67565562D01*
X144324000Y-67523105D01*
X144324000Y-65156895D01*
X144328181Y-65114438D01*
X144338774Y-65079519D01*
X144355976Y-65047337D01*
X144379127Y-65019127D01*
X144407337Y-64995976D01*
X144439519Y-64978774D01*
X144474438Y-64968181D01*
X144516895Y-64964000D01*
X145658105Y-64964000D01*
X145700562Y-64968181D01*
X145700562Y-64968181D01*
G37*
G36*
X142725562Y-64968181D02*
G01*
X142760481Y-64978774D01*
X142792663Y-64995976D01*
X142820873Y-65019127D01*
X142844024Y-65047337D01*
X142861226Y-65079519D01*
X142871819Y-65114438D01*
X142876000Y-65156895D01*
X142876000Y-67523105D01*
X142871819Y-67565562D01*
X142861226Y-67600481D01*
X142844024Y-67632663D01*
X142820873Y-67660873D01*
X142792663Y-67684024D01*
X142760481Y-67701226D01*
X142725562Y-67711819D01*
X142683105Y-67716000D01*
X141541895Y-67716000D01*
X141499438Y-67711819D01*
X141464519Y-67701226D01*
X141432337Y-67684024D01*
X141404127Y-67660873D01*
X141380976Y-67632663D01*
X141363774Y-67600481D01*
X141353181Y-67565562D01*
X141349000Y-67523105D01*
X141349000Y-65156895D01*
X141353181Y-65114438D01*
X141363774Y-65079519D01*
X141380976Y-65047337D01*
X141404127Y-65019127D01*
X141432337Y-64995976D01*
X141464519Y-64978774D01*
X141499438Y-64968181D01*
X141541895Y-64964000D01*
X142683105Y-64964000D01*
X142725562Y-64968181D01*
X142725562Y-64968181D01*
G37*
G36*
X138080562Y-65418181D02*
G01*
X138115481Y-65428774D01*
X138147663Y-65445976D01*
X138175873Y-65469127D01*
X138199024Y-65497337D01*
X138216226Y-65529519D01*
X138226819Y-65564438D01*
X138231000Y-65606895D01*
X138231000Y-67073105D01*
X138226819Y-67115562D01*
X138216226Y-67150481D01*
X138199024Y-67182663D01*
X138175873Y-67210873D01*
X138147663Y-67234024D01*
X138115481Y-67251226D01*
X138080562Y-67261819D01*
X138038105Y-67266000D01*
X136896895Y-67266000D01*
X136854438Y-67261819D01*
X136819519Y-67251226D01*
X136787337Y-67234024D01*
X136759127Y-67210873D01*
X136735976Y-67182663D01*
X136718774Y-67150481D01*
X136708181Y-67115562D01*
X136704000Y-67073105D01*
X136704000Y-65606895D01*
X136708181Y-65564438D01*
X136718774Y-65529519D01*
X136735976Y-65497337D01*
X136759127Y-65469127D01*
X136787337Y-65445976D01*
X136819519Y-65428774D01*
X136854438Y-65418181D01*
X136896895Y-65414000D01*
X138038105Y-65414000D01*
X138080562Y-65418181D01*
X138080562Y-65418181D01*
G37*
G36*
X135105562Y-65418181D02*
G01*
X135140481Y-65428774D01*
X135172663Y-65445976D01*
X135200873Y-65469127D01*
X135224024Y-65497337D01*
X135241226Y-65529519D01*
X135251819Y-65564438D01*
X135256000Y-65606895D01*
X135256000Y-67073105D01*
X135251819Y-67115562D01*
X135241226Y-67150481D01*
X135224024Y-67182663D01*
X135200873Y-67210873D01*
X135172663Y-67234024D01*
X135140481Y-67251226D01*
X135105562Y-67261819D01*
X135063105Y-67266000D01*
X133921895Y-67266000D01*
X133879438Y-67261819D01*
X133844519Y-67251226D01*
X133812337Y-67234024D01*
X133784127Y-67210873D01*
X133760976Y-67182663D01*
X133743774Y-67150481D01*
X133733181Y-67115562D01*
X133729000Y-67073105D01*
X133729000Y-65606895D01*
X133733181Y-65564438D01*
X133743774Y-65529519D01*
X133760976Y-65497337D01*
X133784127Y-65469127D01*
X133812337Y-65445976D01*
X133844519Y-65428774D01*
X133879438Y-65418181D01*
X133921895Y-65414000D01*
X135063105Y-65414000D01*
X135105562Y-65418181D01*
X135105562Y-65418181D01*
G37*
G36*
X164430443Y-64175519D02*
G01*
X164496627Y-64182037D01*
X164666466Y-64233557D01*
X164822991Y-64317222D01*
X164858729Y-64346552D01*
X164960186Y-64429814D01*
X165043448Y-64531271D01*
X165072778Y-64567009D01*
X165156443Y-64723534D01*
X165207963Y-64893373D01*
X165225359Y-65070000D01*
X165207963Y-65246627D01*
X165156443Y-65416466D01*
X165072778Y-65572991D01*
X165043448Y-65608729D01*
X164960186Y-65710186D01*
X164858729Y-65793448D01*
X164822991Y-65822778D01*
X164666466Y-65906443D01*
X164496627Y-65957963D01*
X164430442Y-65964482D01*
X164364260Y-65971000D01*
X164275740Y-65971000D01*
X164209558Y-65964482D01*
X164143373Y-65957963D01*
X163973534Y-65906443D01*
X163817009Y-65822778D01*
X163781271Y-65793448D01*
X163679814Y-65710186D01*
X163596552Y-65608729D01*
X163567222Y-65572991D01*
X163483557Y-65416466D01*
X163432037Y-65246627D01*
X163414641Y-65070000D01*
X163432037Y-64893373D01*
X163483557Y-64723534D01*
X163567222Y-64567009D01*
X163596552Y-64531271D01*
X163679814Y-64429814D01*
X163781271Y-64346552D01*
X163817009Y-64317222D01*
X163973534Y-64233557D01*
X164143373Y-64182037D01*
X164209557Y-64175519D01*
X164275740Y-64169000D01*
X164364260Y-64169000D01*
X164430443Y-64175519D01*
X164430443Y-64175519D01*
G37*
G36*
X161890443Y-64175519D02*
G01*
X161956627Y-64182037D01*
X162126466Y-64233557D01*
X162282991Y-64317222D01*
X162318729Y-64346552D01*
X162420186Y-64429814D01*
X162503448Y-64531271D01*
X162532778Y-64567009D01*
X162616443Y-64723534D01*
X162667963Y-64893373D01*
X162685359Y-65070000D01*
X162667963Y-65246627D01*
X162616443Y-65416466D01*
X162532778Y-65572991D01*
X162503448Y-65608729D01*
X162420186Y-65710186D01*
X162318729Y-65793448D01*
X162282991Y-65822778D01*
X162126466Y-65906443D01*
X161956627Y-65957963D01*
X161890442Y-65964482D01*
X161824260Y-65971000D01*
X161735740Y-65971000D01*
X161669558Y-65964482D01*
X161603373Y-65957963D01*
X161433534Y-65906443D01*
X161277009Y-65822778D01*
X161241271Y-65793448D01*
X161139814Y-65710186D01*
X161056552Y-65608729D01*
X161027222Y-65572991D01*
X160943557Y-65416466D01*
X160892037Y-65246627D01*
X160874641Y-65070000D01*
X160892037Y-64893373D01*
X160943557Y-64723534D01*
X161027222Y-64567009D01*
X161056552Y-64531271D01*
X161139814Y-64429814D01*
X161241271Y-64346552D01*
X161277009Y-64317222D01*
X161433534Y-64233557D01*
X161603373Y-64182037D01*
X161669557Y-64175519D01*
X161735740Y-64169000D01*
X161824260Y-64169000D01*
X161890443Y-64175519D01*
X161890443Y-64175519D01*
G37*
G36*
X119580443Y-64175519D02*
G01*
X119646627Y-64182037D01*
X119816466Y-64233557D01*
X119972991Y-64317222D01*
X120008729Y-64346552D01*
X120110186Y-64429814D01*
X120193448Y-64531271D01*
X120222778Y-64567009D01*
X120306443Y-64723534D01*
X120357963Y-64893373D01*
X120375359Y-65070000D01*
X120357963Y-65246627D01*
X120306443Y-65416466D01*
X120222778Y-65572991D01*
X120193448Y-65608729D01*
X120110186Y-65710186D01*
X120008729Y-65793448D01*
X119972991Y-65822778D01*
X119816466Y-65906443D01*
X119646627Y-65957963D01*
X119580442Y-65964482D01*
X119514260Y-65971000D01*
X119425740Y-65971000D01*
X119359558Y-65964482D01*
X119293373Y-65957963D01*
X119123534Y-65906443D01*
X118967009Y-65822778D01*
X118931271Y-65793448D01*
X118829814Y-65710186D01*
X118746552Y-65608729D01*
X118717222Y-65572991D01*
X118633557Y-65416466D01*
X118582037Y-65246627D01*
X118564641Y-65070000D01*
X118582037Y-64893373D01*
X118633557Y-64723534D01*
X118717222Y-64567009D01*
X118746552Y-64531271D01*
X118829814Y-64429814D01*
X118931271Y-64346552D01*
X118967009Y-64317222D01*
X119123534Y-64233557D01*
X119293373Y-64182037D01*
X119359557Y-64175519D01*
X119425740Y-64169000D01*
X119514260Y-64169000D01*
X119580443Y-64175519D01*
X119580443Y-64175519D01*
G37*
G36*
X117040443Y-64175519D02*
G01*
X117106627Y-64182037D01*
X117276466Y-64233557D01*
X117432991Y-64317222D01*
X117468729Y-64346552D01*
X117570186Y-64429814D01*
X117653448Y-64531271D01*
X117682778Y-64567009D01*
X117766443Y-64723534D01*
X117817963Y-64893373D01*
X117835359Y-65070000D01*
X117817963Y-65246627D01*
X117766443Y-65416466D01*
X117682778Y-65572991D01*
X117653448Y-65608729D01*
X117570186Y-65710186D01*
X117468729Y-65793448D01*
X117432991Y-65822778D01*
X117276466Y-65906443D01*
X117106627Y-65957963D01*
X117040442Y-65964482D01*
X116974260Y-65971000D01*
X116885740Y-65971000D01*
X116819558Y-65964482D01*
X116753373Y-65957963D01*
X116583534Y-65906443D01*
X116427009Y-65822778D01*
X116391271Y-65793448D01*
X116289814Y-65710186D01*
X116206552Y-65608729D01*
X116177222Y-65572991D01*
X116093557Y-65416466D01*
X116042037Y-65246627D01*
X116024641Y-65070000D01*
X116042037Y-64893373D01*
X116093557Y-64723534D01*
X116177222Y-64567009D01*
X116206552Y-64531271D01*
X116289814Y-64429814D01*
X116391271Y-64346552D01*
X116427009Y-64317222D01*
X116583534Y-64233557D01*
X116753373Y-64182037D01*
X116819557Y-64175519D01*
X116885740Y-64169000D01*
X116974260Y-64169000D01*
X117040443Y-64175519D01*
X117040443Y-64175519D01*
G37*
G36*
X155681000Y-65721000D02*
G01*
X154379000Y-65721000D01*
X154379000Y-64419000D01*
X155681000Y-64419000D01*
X155681000Y-65721000D01*
X155681000Y-65721000D01*
G37*
G36*
X164430442Y-61635518D02*
G01*
X164496627Y-61642037D01*
X164666466Y-61693557D01*
X164822991Y-61777222D01*
X164858729Y-61806552D01*
X164960186Y-61889814D01*
X165043448Y-61991271D01*
X165072778Y-62027009D01*
X165156443Y-62183534D01*
X165207963Y-62353373D01*
X165225359Y-62530000D01*
X165207963Y-62706627D01*
X165156443Y-62876466D01*
X165072778Y-63032991D01*
X165043448Y-63068729D01*
X164960186Y-63170186D01*
X164858729Y-63253448D01*
X164822991Y-63282778D01*
X164666466Y-63366443D01*
X164496627Y-63417963D01*
X164430442Y-63424482D01*
X164364260Y-63431000D01*
X164275740Y-63431000D01*
X164209558Y-63424482D01*
X164143373Y-63417963D01*
X163973534Y-63366443D01*
X163817009Y-63282778D01*
X163781271Y-63253448D01*
X163679814Y-63170186D01*
X163596552Y-63068729D01*
X163567222Y-63032991D01*
X163483557Y-62876466D01*
X163432037Y-62706627D01*
X163414641Y-62530000D01*
X163432037Y-62353373D01*
X163483557Y-62183534D01*
X163567222Y-62027009D01*
X163596552Y-61991271D01*
X163679814Y-61889814D01*
X163781271Y-61806552D01*
X163817009Y-61777222D01*
X163973534Y-61693557D01*
X164143373Y-61642037D01*
X164209558Y-61635518D01*
X164275740Y-61629000D01*
X164364260Y-61629000D01*
X164430442Y-61635518D01*
X164430442Y-61635518D01*
G37*
G36*
X162681000Y-63431000D02*
G01*
X160879000Y-63431000D01*
X160879000Y-61629000D01*
X162681000Y-61629000D01*
X162681000Y-63431000D01*
X162681000Y-63431000D01*
G37*
G36*
X120371000Y-63431000D02*
G01*
X118569000Y-63431000D01*
X118569000Y-61629000D01*
X120371000Y-61629000D01*
X120371000Y-63431000D01*
X120371000Y-63431000D01*
G37*
G36*
X117040442Y-61635518D02*
G01*
X117106627Y-61642037D01*
X117276466Y-61693557D01*
X117432991Y-61777222D01*
X117468729Y-61806552D01*
X117570186Y-61889814D01*
X117653448Y-61991271D01*
X117682778Y-62027009D01*
X117766443Y-62183534D01*
X117817963Y-62353373D01*
X117835359Y-62530000D01*
X117817963Y-62706627D01*
X117766443Y-62876466D01*
X117682778Y-63032991D01*
X117653448Y-63068729D01*
X117570186Y-63170186D01*
X117468729Y-63253448D01*
X117432991Y-63282778D01*
X117276466Y-63366443D01*
X117106627Y-63417963D01*
X117040442Y-63424482D01*
X116974260Y-63431000D01*
X116885740Y-63431000D01*
X116819558Y-63424482D01*
X116753373Y-63417963D01*
X116583534Y-63366443D01*
X116427009Y-63282778D01*
X116391271Y-63253448D01*
X116289814Y-63170186D01*
X116206552Y-63068729D01*
X116177222Y-63032991D01*
X116093557Y-62876466D01*
X116042037Y-62706627D01*
X116024641Y-62530000D01*
X116042037Y-62353373D01*
X116093557Y-62183534D01*
X116177222Y-62027009D01*
X116206552Y-61991271D01*
X116289814Y-61889814D01*
X116391271Y-61806552D01*
X116427009Y-61777222D01*
X116583534Y-61693557D01*
X116753373Y-61642037D01*
X116819558Y-61635518D01*
X116885740Y-61629000D01*
X116974260Y-61629000D01*
X117040442Y-61635518D01*
X117040442Y-61635518D01*
G37*
M02*
