G04 #@! TF.GenerationSoftware,KiCad,Pcbnew,(5.1.4)-1*
G04 #@! TF.CreationDate,2019-11-16T21:39:15+01:00*
G04 #@! TF.ProjectId,LEDClockControl,4c454443-6c6f-4636-9b43-6f6e74726f6c,rev?*
G04 #@! TF.SameCoordinates,Original*
G04 #@! TF.FileFunction,Legend,Bot*
G04 #@! TF.FilePolarity,Positive*
%FSLAX46Y46*%
G04 Gerber Fmt 4.6, Leading zero omitted, Abs format (unit mm)*
G04 Created by KiCad (PCBNEW (5.1.4)-1) date 2019-11-16 21:39:15*
%MOMM*%
%LPD*%
G04 APERTURE LIST*
%ADD10C,0.120000*%
%ADD11C,0.150000*%
G04 APERTURE END LIST*
D10*
X171910436Y-123090000D02*
X173114564Y-123090000D01*
X171910436Y-124910000D02*
X173114564Y-124910000D01*
X171885436Y-119910000D02*
X173089564Y-119910000D01*
X171885436Y-118090000D02*
X173089564Y-118090000D01*
X153020000Y-93670000D02*
X153020000Y-109030000D01*
X153020000Y-109030000D02*
X150360000Y-109030000D01*
X150360000Y-109030000D02*
X150360000Y-93670000D01*
X150360000Y-93670000D02*
X153020000Y-93670000D01*
X150360000Y-94620000D02*
X144360000Y-94620000D01*
X144360000Y-94620000D02*
X144360000Y-95380000D01*
X144360000Y-95380000D02*
X150360000Y-95380000D01*
X150360000Y-94680000D02*
X144360000Y-94680000D01*
X150360000Y-94800000D02*
X144360000Y-94800000D01*
X150360000Y-94920000D02*
X144360000Y-94920000D01*
X150360000Y-95040000D02*
X144360000Y-95040000D01*
X150360000Y-95160000D02*
X144360000Y-95160000D01*
X150360000Y-95280000D02*
X144360000Y-95280000D01*
X153417071Y-94620000D02*
X153020000Y-94620000D01*
X153417071Y-95380000D02*
X153020000Y-95380000D01*
X155890000Y-94620000D02*
X155502929Y-94620000D01*
X155890000Y-95380000D02*
X155502929Y-95380000D01*
X153020000Y-96270000D02*
X150360000Y-96270000D01*
X150360000Y-97160000D02*
X144360000Y-97160000D01*
X144360000Y-97160000D02*
X144360000Y-97920000D01*
X144360000Y-97920000D02*
X150360000Y-97920000D01*
X153417071Y-97160000D02*
X153020000Y-97160000D01*
X153417071Y-97920000D02*
X153020000Y-97920000D01*
X155957071Y-97160000D02*
X155502929Y-97160000D01*
X155957071Y-97920000D02*
X155502929Y-97920000D01*
X153020000Y-98810000D02*
X150360000Y-98810000D01*
X150360000Y-99700000D02*
X144360000Y-99700000D01*
X144360000Y-99700000D02*
X144360000Y-100460000D01*
X144360000Y-100460000D02*
X150360000Y-100460000D01*
X153417071Y-99700000D02*
X153020000Y-99700000D01*
X153417071Y-100460000D02*
X153020000Y-100460000D01*
X155957071Y-99700000D02*
X155502929Y-99700000D01*
X155957071Y-100460000D02*
X155502929Y-100460000D01*
X153020000Y-101350000D02*
X150360000Y-101350000D01*
X150360000Y-102240000D02*
X144360000Y-102240000D01*
X144360000Y-102240000D02*
X144360000Y-103000000D01*
X144360000Y-103000000D02*
X150360000Y-103000000D01*
X153417071Y-102240000D02*
X153020000Y-102240000D01*
X153417071Y-103000000D02*
X153020000Y-103000000D01*
X155957071Y-102240000D02*
X155502929Y-102240000D01*
X155957071Y-103000000D02*
X155502929Y-103000000D01*
X153020000Y-103890000D02*
X150360000Y-103890000D01*
X150360000Y-104780000D02*
X144360000Y-104780000D01*
X144360000Y-104780000D02*
X144360000Y-105540000D01*
X144360000Y-105540000D02*
X150360000Y-105540000D01*
X153417071Y-104780000D02*
X153020000Y-104780000D01*
X153417071Y-105540000D02*
X153020000Y-105540000D01*
X155957071Y-104780000D02*
X155502929Y-104780000D01*
X155957071Y-105540000D02*
X155502929Y-105540000D01*
X153020000Y-106430000D02*
X150360000Y-106430000D01*
X150360000Y-107320000D02*
X144360000Y-107320000D01*
X144360000Y-107320000D02*
X144360000Y-108080000D01*
X144360000Y-108080000D02*
X150360000Y-108080000D01*
X153417071Y-107320000D02*
X153020000Y-107320000D01*
X153417071Y-108080000D02*
X153020000Y-108080000D01*
X155957071Y-107320000D02*
X155502929Y-107320000D01*
X155957071Y-108080000D02*
X155502929Y-108080000D01*
X158270000Y-95000000D02*
X158270000Y-93730000D01*
X158270000Y-93730000D02*
X157000000Y-93730000D01*
X161240000Y-109580000D02*
X161240000Y-108650000D01*
X161240000Y-106420000D02*
X161240000Y-107350000D01*
X161240000Y-106420000D02*
X163400000Y-106420000D01*
X161240000Y-109580000D02*
X162700000Y-109580000D01*
X161240000Y-91780000D02*
X161240000Y-90850000D01*
X161240000Y-88620000D02*
X161240000Y-89550000D01*
X161240000Y-88620000D02*
X163400000Y-88620000D01*
X161240000Y-91780000D02*
X162700000Y-91780000D01*
X161240000Y-95380000D02*
X162700000Y-95380000D01*
X161240000Y-92220000D02*
X163400000Y-92220000D01*
X161240000Y-92220000D02*
X161240000Y-93150000D01*
X161240000Y-95380000D02*
X161240000Y-94450000D01*
X161240000Y-98980000D02*
X161240000Y-98050000D01*
X161240000Y-95820000D02*
X161240000Y-96750000D01*
X161240000Y-95820000D02*
X163400000Y-95820000D01*
X161240000Y-98980000D02*
X162700000Y-98980000D01*
X161240000Y-102530000D02*
X162700000Y-102530000D01*
X161240000Y-99370000D02*
X163400000Y-99370000D01*
X161240000Y-99370000D02*
X161240000Y-100300000D01*
X161240000Y-102530000D02*
X161240000Y-101600000D01*
X161240000Y-106080000D02*
X161240000Y-105150000D01*
X161240000Y-102920000D02*
X161240000Y-103850000D01*
X161240000Y-102920000D02*
X163400000Y-102920000D01*
X161240000Y-106080000D02*
X162700000Y-106080000D01*
X161240000Y-113080000D02*
X162700000Y-113080000D01*
X161240000Y-109920000D02*
X163400000Y-109920000D01*
X161240000Y-109920000D02*
X161240000Y-110850000D01*
X161240000Y-113080000D02*
X161240000Y-112150000D01*
D11*
X172679166Y-126177142D02*
X172726785Y-126224761D01*
X172869642Y-126272380D01*
X172964880Y-126272380D01*
X173107738Y-126224761D01*
X173202976Y-126129523D01*
X173250595Y-126034285D01*
X173298214Y-125843809D01*
X173298214Y-125700952D01*
X173250595Y-125510476D01*
X173202976Y-125415238D01*
X173107738Y-125320000D01*
X172964880Y-125272380D01*
X172869642Y-125272380D01*
X172726785Y-125320000D01*
X172679166Y-125367619D01*
X171726785Y-126272380D02*
X172298214Y-126272380D01*
X172012500Y-126272380D02*
X172012500Y-125272380D01*
X172107738Y-125415238D01*
X172202976Y-125510476D01*
X172298214Y-125558095D01*
X172654166Y-121177142D02*
X172701785Y-121224761D01*
X172844642Y-121272380D01*
X172939880Y-121272380D01*
X173082738Y-121224761D01*
X173177976Y-121129523D01*
X173225595Y-121034285D01*
X173273214Y-120843809D01*
X173273214Y-120700952D01*
X173225595Y-120510476D01*
X173177976Y-120415238D01*
X173082738Y-120320000D01*
X172939880Y-120272380D01*
X172844642Y-120272380D01*
X172701785Y-120320000D01*
X172654166Y-120367619D01*
X172273214Y-120367619D02*
X172225595Y-120320000D01*
X172130357Y-120272380D01*
X171892261Y-120272380D01*
X171797023Y-120320000D01*
X171749404Y-120367619D01*
X171701785Y-120462857D01*
X171701785Y-120558095D01*
X171749404Y-120700952D01*
X172320833Y-121272380D01*
X171701785Y-121272380D01*
X151678333Y-92182380D02*
X151678333Y-92896666D01*
X151725952Y-93039523D01*
X151821190Y-93134761D01*
X151964047Y-93182380D01*
X152059285Y-93182380D01*
X151249761Y-92277619D02*
X151202142Y-92230000D01*
X151106904Y-92182380D01*
X150868809Y-92182380D01*
X150773571Y-92230000D01*
X150725952Y-92277619D01*
X150678333Y-92372857D01*
X150678333Y-92468095D01*
X150725952Y-92610952D01*
X151297380Y-93182380D01*
X150678333Y-93182380D01*
X159095238Y-108547619D02*
X159190476Y-108500000D01*
X159285714Y-108404761D01*
X159428571Y-108261904D01*
X159523809Y-108214285D01*
X159619047Y-108214285D01*
X159571428Y-108452380D02*
X159666666Y-108404761D01*
X159761904Y-108309523D01*
X159809523Y-108119047D01*
X159809523Y-107785714D01*
X159761904Y-107595238D01*
X159666666Y-107500000D01*
X159571428Y-107452380D01*
X159380952Y-107452380D01*
X159285714Y-107500000D01*
X159190476Y-107595238D01*
X159142857Y-107785714D01*
X159142857Y-108119047D01*
X159190476Y-108309523D01*
X159285714Y-108404761D01*
X159380952Y-108452380D01*
X159571428Y-108452380D01*
X158190476Y-108452380D02*
X158761904Y-108452380D01*
X158476190Y-108452380D02*
X158476190Y-107452380D01*
X158571428Y-107595238D01*
X158666666Y-107690476D01*
X158761904Y-107738095D01*
X159595238Y-90547619D02*
X159690476Y-90500000D01*
X159785714Y-90404761D01*
X159928571Y-90261904D01*
X160023809Y-90214285D01*
X160119047Y-90214285D01*
X160071428Y-90452380D02*
X160166666Y-90404761D01*
X160261904Y-90309523D01*
X160309523Y-90119047D01*
X160309523Y-89785714D01*
X160261904Y-89595238D01*
X160166666Y-89500000D01*
X160071428Y-89452380D01*
X159880952Y-89452380D01*
X159785714Y-89500000D01*
X159690476Y-89595238D01*
X159642857Y-89785714D01*
X159642857Y-90119047D01*
X159690476Y-90309523D01*
X159785714Y-90404761D01*
X159880952Y-90452380D01*
X160071428Y-90452380D01*
X159261904Y-89547619D02*
X159214285Y-89500000D01*
X159119047Y-89452380D01*
X158880952Y-89452380D01*
X158785714Y-89500000D01*
X158738095Y-89547619D01*
X158690476Y-89642857D01*
X158690476Y-89738095D01*
X158738095Y-89880952D01*
X159309523Y-90452380D01*
X158690476Y-90452380D01*
X159595238Y-94547619D02*
X159690476Y-94500000D01*
X159785714Y-94404761D01*
X159928571Y-94261904D01*
X160023809Y-94214285D01*
X160119047Y-94214285D01*
X160071428Y-94452380D02*
X160166666Y-94404761D01*
X160261904Y-94309523D01*
X160309523Y-94119047D01*
X160309523Y-93785714D01*
X160261904Y-93595238D01*
X160166666Y-93500000D01*
X160071428Y-93452380D01*
X159880952Y-93452380D01*
X159785714Y-93500000D01*
X159690476Y-93595238D01*
X159642857Y-93785714D01*
X159642857Y-94119047D01*
X159690476Y-94309523D01*
X159785714Y-94404761D01*
X159880952Y-94452380D01*
X160071428Y-94452380D01*
X159309523Y-93452380D02*
X158690476Y-93452380D01*
X159023809Y-93833333D01*
X158880952Y-93833333D01*
X158785714Y-93880952D01*
X158738095Y-93928571D01*
X158690476Y-94023809D01*
X158690476Y-94261904D01*
X158738095Y-94357142D01*
X158785714Y-94404761D01*
X158880952Y-94452380D01*
X159166666Y-94452380D01*
X159261904Y-94404761D01*
X159309523Y-94357142D01*
X159095238Y-98047619D02*
X159190476Y-98000000D01*
X159285714Y-97904761D01*
X159428571Y-97761904D01*
X159523809Y-97714285D01*
X159619047Y-97714285D01*
X159571428Y-97952380D02*
X159666666Y-97904761D01*
X159761904Y-97809523D01*
X159809523Y-97619047D01*
X159809523Y-97285714D01*
X159761904Y-97095238D01*
X159666666Y-97000000D01*
X159571428Y-96952380D01*
X159380952Y-96952380D01*
X159285714Y-97000000D01*
X159190476Y-97095238D01*
X159142857Y-97285714D01*
X159142857Y-97619047D01*
X159190476Y-97809523D01*
X159285714Y-97904761D01*
X159380952Y-97952380D01*
X159571428Y-97952380D01*
X158285714Y-97285714D02*
X158285714Y-97952380D01*
X158523809Y-96904761D02*
X158761904Y-97619047D01*
X158142857Y-97619047D01*
X159095238Y-101547619D02*
X159190476Y-101500000D01*
X159285714Y-101404761D01*
X159428571Y-101261904D01*
X159523809Y-101214285D01*
X159619047Y-101214285D01*
X159571428Y-101452380D02*
X159666666Y-101404761D01*
X159761904Y-101309523D01*
X159809523Y-101119047D01*
X159809523Y-100785714D01*
X159761904Y-100595238D01*
X159666666Y-100500000D01*
X159571428Y-100452380D01*
X159380952Y-100452380D01*
X159285714Y-100500000D01*
X159190476Y-100595238D01*
X159142857Y-100785714D01*
X159142857Y-101119047D01*
X159190476Y-101309523D01*
X159285714Y-101404761D01*
X159380952Y-101452380D01*
X159571428Y-101452380D01*
X158238095Y-100452380D02*
X158714285Y-100452380D01*
X158761904Y-100928571D01*
X158714285Y-100880952D01*
X158619047Y-100833333D01*
X158380952Y-100833333D01*
X158285714Y-100880952D01*
X158238095Y-100928571D01*
X158190476Y-101023809D01*
X158190476Y-101261904D01*
X158238095Y-101357142D01*
X158285714Y-101404761D01*
X158380952Y-101452380D01*
X158619047Y-101452380D01*
X158714285Y-101404761D01*
X158761904Y-101357142D01*
X159095238Y-105047619D02*
X159190476Y-105000000D01*
X159285714Y-104904761D01*
X159428571Y-104761904D01*
X159523809Y-104714285D01*
X159619047Y-104714285D01*
X159571428Y-104952380D02*
X159666666Y-104904761D01*
X159761904Y-104809523D01*
X159809523Y-104619047D01*
X159809523Y-104285714D01*
X159761904Y-104095238D01*
X159666666Y-104000000D01*
X159571428Y-103952380D01*
X159380952Y-103952380D01*
X159285714Y-104000000D01*
X159190476Y-104095238D01*
X159142857Y-104285714D01*
X159142857Y-104619047D01*
X159190476Y-104809523D01*
X159285714Y-104904761D01*
X159380952Y-104952380D01*
X159571428Y-104952380D01*
X158285714Y-103952380D02*
X158476190Y-103952380D01*
X158571428Y-104000000D01*
X158619047Y-104047619D01*
X158714285Y-104190476D01*
X158761904Y-104380952D01*
X158761904Y-104761904D01*
X158714285Y-104857142D01*
X158666666Y-104904761D01*
X158571428Y-104952380D01*
X158380952Y-104952380D01*
X158285714Y-104904761D01*
X158238095Y-104857142D01*
X158190476Y-104761904D01*
X158190476Y-104523809D01*
X158238095Y-104428571D01*
X158285714Y-104380952D01*
X158380952Y-104333333D01*
X158571428Y-104333333D01*
X158666666Y-104380952D01*
X158714285Y-104428571D01*
X158761904Y-104523809D01*
X159095238Y-112047619D02*
X159190476Y-112000000D01*
X159285714Y-111904761D01*
X159428571Y-111761904D01*
X159523809Y-111714285D01*
X159619047Y-111714285D01*
X159571428Y-111952380D02*
X159666666Y-111904761D01*
X159761904Y-111809523D01*
X159809523Y-111619047D01*
X159809523Y-111285714D01*
X159761904Y-111095238D01*
X159666666Y-111000000D01*
X159571428Y-110952380D01*
X159380952Y-110952380D01*
X159285714Y-111000000D01*
X159190476Y-111095238D01*
X159142857Y-111285714D01*
X159142857Y-111619047D01*
X159190476Y-111809523D01*
X159285714Y-111904761D01*
X159380952Y-111952380D01*
X159571428Y-111952380D01*
X158809523Y-110952380D02*
X158142857Y-110952380D01*
X158571428Y-111952380D01*
M02*
