G04 #@! TF.GenerationSoftware,KiCad,Pcbnew,(5.1.4)-1*
G04 #@! TF.CreationDate,2019-11-16T21:39:15+01:00*
G04 #@! TF.ProjectId,LEDClockControl,4c454443-6c6f-4636-9b43-6f6e74726f6c,rev?*
G04 #@! TF.SameCoordinates,Original*
G04 #@! TF.FileFunction,Legend,Top*
G04 #@! TF.FilePolarity,Positive*
%FSLAX46Y46*%
G04 Gerber Fmt 4.6, Leading zero omitted, Abs format (unit mm)*
G04 Created by KiCad (PCBNEW (5.1.4)-1) date 2019-11-16 21:39:15*
%MOMM*%
%LPD*%
G04 APERTURE LIST*
%ADD10C,0.120000*%
%ADD11C,0.150000*%
G04 APERTURE END LIST*
D10*
X181897936Y-128910000D02*
X183102064Y-128910000D01*
X181897936Y-127090000D02*
X183102064Y-127090000D01*
X174614564Y-128910000D02*
X173410436Y-128910000D01*
X174614564Y-127090000D02*
X173410436Y-127090000D01*
X170490000Y-132830000D02*
X170490000Y-130170000D01*
X160270000Y-132830000D02*
X170490000Y-132830000D01*
X160270000Y-130170000D02*
X170490000Y-130170000D01*
X160270000Y-132830000D02*
X160270000Y-130170000D01*
X159000000Y-132830000D02*
X157670000Y-132830000D01*
X157670000Y-132830000D02*
X157670000Y-131500000D01*
X157750000Y-126000000D02*
X157750000Y-124000000D01*
X160550000Y-126000000D02*
X157750000Y-126000000D01*
X160550000Y-124000000D02*
X160550000Y-126000000D01*
X157750000Y-124000000D02*
X160550000Y-124000000D01*
X163910000Y-125385436D02*
X163910000Y-126589564D01*
X162090000Y-125385436D02*
X162090000Y-126589564D01*
X183620000Y-134770000D02*
X173380000Y-134770000D01*
X183620000Y-130129000D02*
X173380000Y-130129000D01*
X183620000Y-134770000D02*
X183620000Y-130129000D01*
X173380000Y-134770000D02*
X173380000Y-130129000D01*
X183620000Y-133260000D02*
X173380000Y-133260000D01*
X180350000Y-134770000D02*
X180350000Y-133260000D01*
X176649000Y-134770000D02*
X176649000Y-133260000D01*
D11*
X163225000Y-116050000D02*
X158775000Y-116050000D01*
X164750000Y-122950000D02*
X158775000Y-122950000D01*
D10*
X168750000Y-95510000D02*
X168750000Y-95910000D01*
X168750000Y-95910000D02*
X167350000Y-95910000D01*
X168750000Y-95510000D02*
X173550000Y-95510000D01*
X168750000Y-106310000D02*
X173550000Y-106310000D01*
X165975000Y-124565000D02*
X165975000Y-118315000D01*
X171025000Y-124565000D02*
X171025000Y-118315000D01*
X171025000Y-124565000D02*
G75*
G02X165975000Y-124565000I-2525000J0D01*
G01*
X171025000Y-118315000D02*
G75*
G03X165975000Y-118315000I-2525000J0D01*
G01*
X174400000Y-116450000D02*
X174400000Y-117500000D01*
X175450000Y-117500000D02*
X174400000Y-117500000D01*
X180500000Y-108100000D02*
X189300000Y-108100000D01*
X189300000Y-108100000D02*
X189300000Y-117300000D01*
X174600000Y-110800000D02*
X174600000Y-108100000D01*
X174600000Y-108100000D02*
X176500000Y-108100000D01*
X189300000Y-117300000D02*
X174600000Y-117300000D01*
X174600000Y-117300000D02*
X174600000Y-114700000D01*
D11*
X182333333Y-126537142D02*
X182285714Y-126584761D01*
X182142857Y-126632380D01*
X182047619Y-126632380D01*
X181904761Y-126584761D01*
X181809523Y-126489523D01*
X181761904Y-126394285D01*
X181714285Y-126203809D01*
X181714285Y-126060952D01*
X181761904Y-125870476D01*
X181809523Y-125775238D01*
X181904761Y-125680000D01*
X182047619Y-125632380D01*
X182142857Y-125632380D01*
X182285714Y-125680000D01*
X182333333Y-125727619D01*
X182666666Y-125632380D02*
X183285714Y-125632380D01*
X182952380Y-126013333D01*
X183095238Y-126013333D01*
X183190476Y-126060952D01*
X183238095Y-126108571D01*
X183285714Y-126203809D01*
X183285714Y-126441904D01*
X183238095Y-126537142D01*
X183190476Y-126584761D01*
X183095238Y-126632380D01*
X182809523Y-126632380D01*
X182714285Y-126584761D01*
X182666666Y-126537142D01*
X173333333Y-125857142D02*
X173285714Y-125904761D01*
X173142857Y-125952380D01*
X173047619Y-125952380D01*
X172904761Y-125904761D01*
X172809523Y-125809523D01*
X172761904Y-125714285D01*
X172714285Y-125523809D01*
X172714285Y-125380952D01*
X172761904Y-125190476D01*
X172809523Y-125095238D01*
X172904761Y-125000000D01*
X173047619Y-124952380D01*
X173142857Y-124952380D01*
X173285714Y-125000000D01*
X173333333Y-125047619D01*
X174190476Y-125285714D02*
X174190476Y-125952380D01*
X173952380Y-124904761D02*
X173714285Y-125619047D01*
X174333333Y-125619047D01*
X156122380Y-131833333D02*
X156836666Y-131833333D01*
X156979523Y-131880952D01*
X157074761Y-131976190D01*
X157122380Y-132119047D01*
X157122380Y-132214285D01*
X156122380Y-131452380D02*
X156122380Y-130833333D01*
X156503333Y-131166666D01*
X156503333Y-131023809D01*
X156550952Y-130928571D01*
X156598571Y-130880952D01*
X156693809Y-130833333D01*
X156931904Y-130833333D01*
X157027142Y-130880952D01*
X157074761Y-130928571D01*
X157122380Y-131023809D01*
X157122380Y-131309523D01*
X157074761Y-131404761D01*
X157027142Y-131452380D01*
X156666666Y-126452380D02*
X156666666Y-127166666D01*
X156619047Y-127309523D01*
X156523809Y-127404761D01*
X156380952Y-127452380D01*
X156285714Y-127452380D01*
X157142857Y-127452380D02*
X157142857Y-126452380D01*
X157523809Y-126452380D01*
X157619047Y-126500000D01*
X157666666Y-126547619D01*
X157714285Y-126642857D01*
X157714285Y-126785714D01*
X157666666Y-126880952D01*
X157619047Y-126928571D01*
X157523809Y-126976190D01*
X157142857Y-126976190D01*
X158666666Y-127452380D02*
X158095238Y-127452380D01*
X158380952Y-127452380D02*
X158380952Y-126452380D01*
X158285714Y-126595238D01*
X158190476Y-126690476D01*
X158095238Y-126738095D01*
X165452380Y-127666666D02*
X164976190Y-128000000D01*
X165452380Y-128238095D02*
X164452380Y-128238095D01*
X164452380Y-127857142D01*
X164500000Y-127761904D01*
X164547619Y-127714285D01*
X164642857Y-127666666D01*
X164785714Y-127666666D01*
X164880952Y-127714285D01*
X164928571Y-127761904D01*
X164976190Y-127857142D01*
X164976190Y-128238095D01*
X165452380Y-126714285D02*
X165452380Y-127285714D01*
X165452380Y-127000000D02*
X164452380Y-127000000D01*
X164595238Y-127095238D01*
X164690476Y-127190476D01*
X164738095Y-127285714D01*
X178238095Y-128452380D02*
X178238095Y-129261904D01*
X178285714Y-129357142D01*
X178333333Y-129404761D01*
X178428571Y-129452380D01*
X178619047Y-129452380D01*
X178714285Y-129404761D01*
X178761904Y-129357142D01*
X178809523Y-129261904D01*
X178809523Y-128452380D01*
X179809523Y-129452380D02*
X179238095Y-129452380D01*
X179523809Y-129452380D02*
X179523809Y-128452380D01*
X179428571Y-128595238D01*
X179333333Y-128690476D01*
X179238095Y-128738095D01*
X162738095Y-113452380D02*
X162738095Y-114261904D01*
X162785714Y-114357142D01*
X162833333Y-114404761D01*
X162928571Y-114452380D01*
X163119047Y-114452380D01*
X163214285Y-114404761D01*
X163261904Y-114357142D01*
X163309523Y-114261904D01*
X163309523Y-113452380D01*
X163738095Y-113547619D02*
X163785714Y-113500000D01*
X163880952Y-113452380D01*
X164119047Y-113452380D01*
X164214285Y-113500000D01*
X164261904Y-113547619D01*
X164309523Y-113642857D01*
X164309523Y-113738095D01*
X164261904Y-113880952D01*
X163690476Y-114452380D01*
X164309523Y-114452380D01*
X170388095Y-94162380D02*
X170388095Y-94971904D01*
X170435714Y-95067142D01*
X170483333Y-95114761D01*
X170578571Y-95162380D01*
X170769047Y-95162380D01*
X170864285Y-95114761D01*
X170911904Y-95067142D01*
X170959523Y-94971904D01*
X170959523Y-94162380D01*
X171340476Y-94162380D02*
X171959523Y-94162380D01*
X171626190Y-94543333D01*
X171769047Y-94543333D01*
X171864285Y-94590952D01*
X171911904Y-94638571D01*
X171959523Y-94733809D01*
X171959523Y-94971904D01*
X171911904Y-95067142D01*
X171864285Y-95114761D01*
X171769047Y-95162380D01*
X171483333Y-95162380D01*
X171388095Y-95114761D01*
X171340476Y-95067142D01*
X164951190Y-121916190D02*
X165427380Y-121916190D01*
X164427380Y-122249523D02*
X164951190Y-121916190D01*
X164427380Y-121582857D01*
X165427380Y-120725714D02*
X165427380Y-121297142D01*
X165427380Y-121011428D02*
X164427380Y-121011428D01*
X164570238Y-121106666D01*
X164665476Y-121201904D01*
X164713095Y-121297142D01*
X183616666Y-106402380D02*
X183616666Y-107116666D01*
X183569047Y-107259523D01*
X183473809Y-107354761D01*
X183330952Y-107402380D01*
X183235714Y-107402380D01*
X184616666Y-107402380D02*
X184045238Y-107402380D01*
X184330952Y-107402380D02*
X184330952Y-106402380D01*
X184235714Y-106545238D01*
X184140476Y-106640476D01*
X184045238Y-106688095D01*
M02*
