M48
; DRILL file {KiCad (5.1.4)-1} date 16/11/2019 21:39:18
; FORMAT={-:-/ absolute / inch / decimal}
; #@! TF.CreationDate,2019-11-16T21:39:18+01:00
; #@! TF.GenerationSoftware,Kicad,Pcbnew,(5.1.4)-1
FMAT,2
INCH
T1C0.0118
T2C0.0236
T3C0.0315
T4C0.0394
T5C0.0433
%
G90
G05
T1
X6.0039Y-3.5433
X6.0039Y-3.6417
X6.0039Y-3.7402
X6.0039Y-3.8386
X6.0039Y-3.937
X6.0039Y-4.0354
X6.0039Y-4.1339
X6.0039Y-4.2323
X6.0039Y-4.3307
X6.0039Y-4.4291
X6.0039Y-4.5276
X6.0039Y-4.626
X6.0039Y-4.7244
X6.0039Y-4.8228
X6.0039Y-4.9213
X6.0039Y-5.0197
X6.0039Y-5.1181
X6.0039Y-5.2165
X6.0236Y-3.4646
X6.1024Y-3.5433
X6.1024Y-4.626
X6.1024Y-4.9213
X6.1024Y-5.0197
X6.1024Y-5.1181
X6.1024Y-5.2165
X6.122Y-3.4646
X6.1614Y-4.8031
X6.1811Y-4.4094
X6.1811Y-4.4685
X6.1811Y-4.5276
X6.2008Y-4.8622
X6.2205Y-3.4646
X6.2598Y-4.9803
X6.2795Y-4.4488
X6.2795Y-4.4882
X6.2795Y-4.5276
X6.2795Y-4.7638
X6.3189Y-3.4646
X6.3189Y-4.6654
X6.3189Y-4.8228
X6.3386Y-4.7835
X6.378Y-4.5079
X6.378Y-4.6457
X6.378Y-4.685
X6.3976Y-4.7638
X6.4173Y-3.4646
X6.4567Y-4.5276
X6.4764Y-3.937
X6.4764Y-4.0748
X6.4764Y-4.2126
X6.4764Y-4.9606
X6.4961Y-3.8189
X6.5157Y-3.4646
X6.5157Y-3.5433
X6.5157Y-3.6811
X6.5157Y-4.3504
X6.5354Y-4.7244
X6.6142Y-3.4646
X6.6142Y-4.9606
X6.6929Y-3.5433
X6.6929Y-5.0591
X6.7126Y-3.4646
X6.7126Y-3.9961
X6.7323Y-3.9567
X6.7323Y-4.1142
X6.7913Y-3.5433
X6.7913Y-3.6417
X6.7913Y-5.1772
X6.811Y-3.4646
X6.8504Y-4.7244
X6.8701Y-4.8031
X6.8898Y-3.5433
X6.8898Y-3.6417
X6.9094Y-3.4646
X6.9241Y-4.0945
X6.9291Y-3.9173
X6.9291Y-3.9567
X6.9291Y-3.9961
X6.9291Y-4.7835
X6.9291Y-4.8819
X6.9488Y-4.0551
X6.9882Y-3.5433
X6.9882Y-3.6417
X6.9882Y-3.7402
X7.0079Y-3.4646
X7.0079Y-4.8819
X7.0079Y-4.9606
X7.0866Y-3.5433
X7.0866Y-3.6417
X7.0866Y-3.7402
X7.0866Y-3.8386
X7.0866Y-3.937
X7.0866Y-4.0354
X7.0866Y-4.626
X7.1063Y-3.4646
X7.185Y-3.5433
X7.185Y-3.6417
X7.185Y-3.7402
X7.185Y-3.8386
X7.185Y-3.937
X7.185Y-4.0354
X7.185Y-4.1339
X7.185Y-4.2323
X7.185Y-4.626
X7.2047Y-3.4646
X7.2441Y-5.1772
X7.2835Y-3.5433
X7.2835Y-3.6417
X7.2835Y-3.7402
X7.2835Y-3.8386
X7.2835Y-3.937
X7.2835Y-4.0354
X7.2835Y-4.1339
X7.2835Y-4.2323
X7.2835Y-4.3307
X7.2835Y-4.4291
X7.2835Y-4.5276
X7.2835Y-4.626
X7.2835Y-4.7244
X7.2835Y-4.8228
X7.2835Y-4.9213
X7.3031Y-3.4646
X7.3228Y-5.1772
T2
X6.2795Y-4.1732
X6.7126Y-3.7992
T3
X6.6339Y-4.685
X6.6339Y-4.8772
T4
X6.0811Y-3.7402
X6.0811Y-3.8402
X6.0811Y-3.9402
X6.0811Y-4.0402
X6.0811Y-4.1402
X6.0811Y-4.2402
X6.1811Y-3.7402
X6.1811Y-3.8402
X6.1811Y-3.9402
X6.1811Y-4.0402
X6.1811Y-4.1402
X6.1811Y-4.2402
X6.2598Y-5.1772
X6.3598Y-5.1772
X6.4598Y-5.1772
X6.5598Y-5.1772
X6.6598Y-5.1772
T5
X6.9276Y-5.1772
X7.0276Y-5.1772
X7.1276Y-5.1772
T4
G00X6.9094Y-4.4764
M15
G01X6.9094Y-4.3976
M16
G05
G00X7.0669Y-4.252
M15
G01X6.9882Y-4.252
M16
G05
G00X7.1457Y-4.4764
M15
G01X7.1457Y-4.3976
M16
G05
T0
M30
