G04 #@! TF.GenerationSoftware,KiCad,Pcbnew,(5.1.4)-1*
G04 #@! TF.CreationDate,2019-11-16T21:39:15+01:00*
G04 #@! TF.ProjectId,LEDClockControl,4c454443-6c6f-4636-9b43-6f6e74726f6c,rev?*
G04 #@! TF.SameCoordinates,Original*
G04 #@! TF.FileFunction,Soldermask,Bot*
G04 #@! TF.FilePolarity,Negative*
%FSLAX46Y46*%
G04 Gerber Fmt 4.6, Leading zero omitted, Abs format (unit mm)*
G04 Created by KiCad (PCBNEW (5.1.4)-1) date 2019-11-16 21:39:15*
%MOMM*%
%LPD*%
G04 APERTURE LIST*
%ADD10C,0.100000*%
G04 APERTURE END LIST*
D10*
G36*
X176156720Y-130463520D02*
G01*
X176345881Y-130520901D01*
X176520212Y-130614083D01*
X176673015Y-130739485D01*
X176798417Y-130892288D01*
X176842182Y-130974167D01*
X176891598Y-131066617D01*
X176891599Y-131066620D01*
X176948980Y-131255781D01*
X176963500Y-131403207D01*
X176963500Y-131596794D01*
X176948980Y-131744220D01*
X176891599Y-131933381D01*
X176798417Y-132107712D01*
X176673015Y-132260515D01*
X176520212Y-132385917D01*
X176438333Y-132429682D01*
X176345883Y-132479098D01*
X176345880Y-132479099D01*
X176156719Y-132536480D01*
X175960000Y-132555855D01*
X175763280Y-132536480D01*
X175574119Y-132479099D01*
X175399788Y-132385917D01*
X175246985Y-132260515D01*
X175121583Y-132107712D01*
X175065609Y-132002991D01*
X175028402Y-131933383D01*
X175002036Y-131846466D01*
X174971020Y-131744219D01*
X174956500Y-131596793D01*
X174956500Y-131403206D01*
X174971020Y-131255780D01*
X175028401Y-131066619D01*
X175121583Y-130892288D01*
X175246985Y-130739485D01*
X175399788Y-130614083D01*
X175574120Y-130520901D01*
X175763281Y-130463520D01*
X175960000Y-130444145D01*
X176156720Y-130463520D01*
X176156720Y-130463520D01*
G37*
G36*
X178696720Y-130463520D02*
G01*
X178885881Y-130520901D01*
X179060212Y-130614083D01*
X179213015Y-130739485D01*
X179338417Y-130892288D01*
X179382182Y-130974167D01*
X179431598Y-131066617D01*
X179431599Y-131066620D01*
X179488980Y-131255781D01*
X179503500Y-131403207D01*
X179503500Y-131596794D01*
X179488980Y-131744220D01*
X179431599Y-131933381D01*
X179338417Y-132107712D01*
X179213015Y-132260515D01*
X179060212Y-132385917D01*
X178978333Y-132429682D01*
X178885883Y-132479098D01*
X178885880Y-132479099D01*
X178696719Y-132536480D01*
X178500000Y-132555855D01*
X178303280Y-132536480D01*
X178114119Y-132479099D01*
X177939788Y-132385917D01*
X177786985Y-132260515D01*
X177661583Y-132107712D01*
X177605609Y-132002991D01*
X177568402Y-131933383D01*
X177542036Y-131846466D01*
X177511020Y-131744219D01*
X177496500Y-131596793D01*
X177496500Y-131403206D01*
X177511020Y-131255780D01*
X177568401Y-131066619D01*
X177661583Y-130892288D01*
X177786985Y-130739485D01*
X177939788Y-130614083D01*
X178114120Y-130520901D01*
X178303281Y-130463520D01*
X178500000Y-130444145D01*
X178696720Y-130463520D01*
X178696720Y-130463520D01*
G37*
G36*
X182043500Y-132551000D02*
G01*
X180036500Y-132551000D01*
X180036500Y-130449000D01*
X182043500Y-130449000D01*
X182043500Y-132551000D01*
X182043500Y-132551000D01*
G37*
G36*
X169270443Y-130605519D02*
G01*
X169336627Y-130612037D01*
X169506466Y-130663557D01*
X169662991Y-130747222D01*
X169698729Y-130776552D01*
X169800186Y-130859814D01*
X169883448Y-130961271D01*
X169912778Y-130997009D01*
X169996443Y-131153534D01*
X170047963Y-131323373D01*
X170065359Y-131500000D01*
X170047963Y-131676627D01*
X169996443Y-131846466D01*
X169912778Y-132002991D01*
X169883448Y-132038729D01*
X169800186Y-132140186D01*
X169698729Y-132223448D01*
X169662991Y-132252778D01*
X169506466Y-132336443D01*
X169336627Y-132387963D01*
X169270442Y-132394482D01*
X169204260Y-132401000D01*
X169115740Y-132401000D01*
X169049558Y-132394482D01*
X168983373Y-132387963D01*
X168813534Y-132336443D01*
X168657009Y-132252778D01*
X168621271Y-132223448D01*
X168519814Y-132140186D01*
X168436552Y-132038729D01*
X168407222Y-132002991D01*
X168323557Y-131846466D01*
X168272037Y-131676627D01*
X168254641Y-131500000D01*
X168272037Y-131323373D01*
X168323557Y-131153534D01*
X168407222Y-130997009D01*
X168436552Y-130961271D01*
X168519814Y-130859814D01*
X168621271Y-130776552D01*
X168657009Y-130747222D01*
X168813534Y-130663557D01*
X168983373Y-130612037D01*
X169049557Y-130605519D01*
X169115740Y-130599000D01*
X169204260Y-130599000D01*
X169270443Y-130605519D01*
X169270443Y-130605519D01*
G37*
G36*
X166730443Y-130605519D02*
G01*
X166796627Y-130612037D01*
X166966466Y-130663557D01*
X167122991Y-130747222D01*
X167158729Y-130776552D01*
X167260186Y-130859814D01*
X167343448Y-130961271D01*
X167372778Y-130997009D01*
X167456443Y-131153534D01*
X167507963Y-131323373D01*
X167525359Y-131500000D01*
X167507963Y-131676627D01*
X167456443Y-131846466D01*
X167372778Y-132002991D01*
X167343448Y-132038729D01*
X167260186Y-132140186D01*
X167158729Y-132223448D01*
X167122991Y-132252778D01*
X166966466Y-132336443D01*
X166796627Y-132387963D01*
X166730442Y-132394482D01*
X166664260Y-132401000D01*
X166575740Y-132401000D01*
X166509558Y-132394482D01*
X166443373Y-132387963D01*
X166273534Y-132336443D01*
X166117009Y-132252778D01*
X166081271Y-132223448D01*
X165979814Y-132140186D01*
X165896552Y-132038729D01*
X165867222Y-132002991D01*
X165783557Y-131846466D01*
X165732037Y-131676627D01*
X165714641Y-131500000D01*
X165732037Y-131323373D01*
X165783557Y-131153534D01*
X165867222Y-130997009D01*
X165896552Y-130961271D01*
X165979814Y-130859814D01*
X166081271Y-130776552D01*
X166117009Y-130747222D01*
X166273534Y-130663557D01*
X166443373Y-130612037D01*
X166509557Y-130605519D01*
X166575740Y-130599000D01*
X166664260Y-130599000D01*
X166730443Y-130605519D01*
X166730443Y-130605519D01*
G37*
G36*
X164190443Y-130605519D02*
G01*
X164256627Y-130612037D01*
X164426466Y-130663557D01*
X164582991Y-130747222D01*
X164618729Y-130776552D01*
X164720186Y-130859814D01*
X164803448Y-130961271D01*
X164832778Y-130997009D01*
X164916443Y-131153534D01*
X164967963Y-131323373D01*
X164985359Y-131500000D01*
X164967963Y-131676627D01*
X164916443Y-131846466D01*
X164832778Y-132002991D01*
X164803448Y-132038729D01*
X164720186Y-132140186D01*
X164618729Y-132223448D01*
X164582991Y-132252778D01*
X164426466Y-132336443D01*
X164256627Y-132387963D01*
X164190442Y-132394482D01*
X164124260Y-132401000D01*
X164035740Y-132401000D01*
X163969558Y-132394482D01*
X163903373Y-132387963D01*
X163733534Y-132336443D01*
X163577009Y-132252778D01*
X163541271Y-132223448D01*
X163439814Y-132140186D01*
X163356552Y-132038729D01*
X163327222Y-132002991D01*
X163243557Y-131846466D01*
X163192037Y-131676627D01*
X163174641Y-131500000D01*
X163192037Y-131323373D01*
X163243557Y-131153534D01*
X163327222Y-130997009D01*
X163356552Y-130961271D01*
X163439814Y-130859814D01*
X163541271Y-130776552D01*
X163577009Y-130747222D01*
X163733534Y-130663557D01*
X163903373Y-130612037D01*
X163969557Y-130605519D01*
X164035740Y-130599000D01*
X164124260Y-130599000D01*
X164190443Y-130605519D01*
X164190443Y-130605519D01*
G37*
G36*
X161650443Y-130605519D02*
G01*
X161716627Y-130612037D01*
X161886466Y-130663557D01*
X162042991Y-130747222D01*
X162078729Y-130776552D01*
X162180186Y-130859814D01*
X162263448Y-130961271D01*
X162292778Y-130997009D01*
X162376443Y-131153534D01*
X162427963Y-131323373D01*
X162445359Y-131500000D01*
X162427963Y-131676627D01*
X162376443Y-131846466D01*
X162292778Y-132002991D01*
X162263448Y-132038729D01*
X162180186Y-132140186D01*
X162078729Y-132223448D01*
X162042991Y-132252778D01*
X161886466Y-132336443D01*
X161716627Y-132387963D01*
X161650442Y-132394482D01*
X161584260Y-132401000D01*
X161495740Y-132401000D01*
X161429558Y-132394482D01*
X161363373Y-132387963D01*
X161193534Y-132336443D01*
X161037009Y-132252778D01*
X161001271Y-132223448D01*
X160899814Y-132140186D01*
X160816552Y-132038729D01*
X160787222Y-132002991D01*
X160703557Y-131846466D01*
X160652037Y-131676627D01*
X160634641Y-131500000D01*
X160652037Y-131323373D01*
X160703557Y-131153534D01*
X160787222Y-130997009D01*
X160816552Y-130961271D01*
X160899814Y-130859814D01*
X161001271Y-130776552D01*
X161037009Y-130747222D01*
X161193534Y-130663557D01*
X161363373Y-130612037D01*
X161429557Y-130605519D01*
X161495740Y-130599000D01*
X161584260Y-130599000D01*
X161650443Y-130605519D01*
X161650443Y-130605519D01*
G37*
G36*
X159901000Y-132401000D02*
G01*
X158099000Y-132401000D01*
X158099000Y-130599000D01*
X159901000Y-130599000D01*
X159901000Y-132401000D01*
X159901000Y-132401000D01*
G37*
G36*
X174613062Y-123078181D02*
G01*
X174647981Y-123088774D01*
X174680163Y-123105976D01*
X174708373Y-123129127D01*
X174731524Y-123157337D01*
X174748726Y-123189519D01*
X174759319Y-123224438D01*
X174763500Y-123266895D01*
X174763500Y-124733105D01*
X174759319Y-124775562D01*
X174748726Y-124810481D01*
X174731524Y-124842663D01*
X174708373Y-124870873D01*
X174680163Y-124894024D01*
X174647981Y-124911226D01*
X174613062Y-124921819D01*
X174570605Y-124926000D01*
X173429395Y-124926000D01*
X173386938Y-124921819D01*
X173352019Y-124911226D01*
X173319837Y-124894024D01*
X173291627Y-124870873D01*
X173268476Y-124842663D01*
X173251274Y-124810481D01*
X173240681Y-124775562D01*
X173236500Y-124733105D01*
X173236500Y-123266895D01*
X173240681Y-123224438D01*
X173251274Y-123189519D01*
X173268476Y-123157337D01*
X173291627Y-123129127D01*
X173319837Y-123105976D01*
X173352019Y-123088774D01*
X173386938Y-123078181D01*
X173429395Y-123074000D01*
X174570605Y-123074000D01*
X174613062Y-123078181D01*
X174613062Y-123078181D01*
G37*
G36*
X171638062Y-123078181D02*
G01*
X171672981Y-123088774D01*
X171705163Y-123105976D01*
X171733373Y-123129127D01*
X171756524Y-123157337D01*
X171773726Y-123189519D01*
X171784319Y-123224438D01*
X171788500Y-123266895D01*
X171788500Y-124733105D01*
X171784319Y-124775562D01*
X171773726Y-124810481D01*
X171756524Y-124842663D01*
X171733373Y-124870873D01*
X171705163Y-124894024D01*
X171672981Y-124911226D01*
X171638062Y-124921819D01*
X171595605Y-124926000D01*
X170454395Y-124926000D01*
X170411938Y-124921819D01*
X170377019Y-124911226D01*
X170344837Y-124894024D01*
X170316627Y-124870873D01*
X170293476Y-124842663D01*
X170276274Y-124810481D01*
X170265681Y-124775562D01*
X170261500Y-124733105D01*
X170261500Y-123266895D01*
X170265681Y-123224438D01*
X170276274Y-123189519D01*
X170293476Y-123157337D01*
X170316627Y-123129127D01*
X170344837Y-123105976D01*
X170377019Y-123088774D01*
X170411938Y-123078181D01*
X170454395Y-123074000D01*
X171595605Y-123074000D01*
X171638062Y-123078181D01*
X171638062Y-123078181D01*
G37*
G36*
X168733642Y-123109781D02*
G01*
X168879414Y-123170162D01*
X168879416Y-123170163D01*
X169010608Y-123257822D01*
X169122178Y-123369392D01*
X169209837Y-123500584D01*
X169209838Y-123500586D01*
X169270219Y-123646358D01*
X169301000Y-123801107D01*
X169301000Y-123958893D01*
X169270219Y-124113642D01*
X169209838Y-124259414D01*
X169209837Y-124259416D01*
X169122178Y-124390608D01*
X169010608Y-124502178D01*
X168879416Y-124589837D01*
X168879415Y-124589838D01*
X168879414Y-124589838D01*
X168733642Y-124650219D01*
X168578893Y-124681000D01*
X168421107Y-124681000D01*
X168266358Y-124650219D01*
X168120586Y-124589838D01*
X168120585Y-124589838D01*
X168120584Y-124589837D01*
X167989392Y-124502178D01*
X167877822Y-124390608D01*
X167790163Y-124259416D01*
X167790162Y-124259414D01*
X167729781Y-124113642D01*
X167699000Y-123958893D01*
X167699000Y-123801107D01*
X167729781Y-123646358D01*
X167790162Y-123500586D01*
X167790163Y-123500584D01*
X167877822Y-123369392D01*
X167989392Y-123257822D01*
X168120584Y-123170163D01*
X168120586Y-123170162D01*
X168266358Y-123109781D01*
X168421107Y-123079000D01*
X168578893Y-123079000D01*
X168733642Y-123109781D01*
X168733642Y-123109781D01*
G37*
G36*
X171613062Y-118078181D02*
G01*
X171647981Y-118088774D01*
X171680163Y-118105976D01*
X171708373Y-118129127D01*
X171731524Y-118157337D01*
X171748726Y-118189519D01*
X171759319Y-118224438D01*
X171763500Y-118266895D01*
X171763500Y-119733105D01*
X171759319Y-119775562D01*
X171748726Y-119810481D01*
X171731524Y-119842663D01*
X171708373Y-119870873D01*
X171680163Y-119894024D01*
X171647981Y-119911226D01*
X171613062Y-119921819D01*
X171570605Y-119926000D01*
X170429395Y-119926000D01*
X170386938Y-119921819D01*
X170352019Y-119911226D01*
X170319837Y-119894024D01*
X170291627Y-119870873D01*
X170268476Y-119842663D01*
X170251274Y-119810481D01*
X170240681Y-119775562D01*
X170236500Y-119733105D01*
X170236500Y-118266895D01*
X170240681Y-118224438D01*
X170251274Y-118189519D01*
X170268476Y-118157337D01*
X170291627Y-118129127D01*
X170319837Y-118105976D01*
X170352019Y-118088774D01*
X170386938Y-118078181D01*
X170429395Y-118074000D01*
X171570605Y-118074000D01*
X171613062Y-118078181D01*
X171613062Y-118078181D01*
G37*
G36*
X174588062Y-118078181D02*
G01*
X174622981Y-118088774D01*
X174655163Y-118105976D01*
X174683373Y-118129127D01*
X174706524Y-118157337D01*
X174723726Y-118189519D01*
X174734319Y-118224438D01*
X174738500Y-118266895D01*
X174738500Y-119733105D01*
X174734319Y-119775562D01*
X174723726Y-119810481D01*
X174706524Y-119842663D01*
X174683373Y-119870873D01*
X174655163Y-119894024D01*
X174622981Y-119911226D01*
X174588062Y-119921819D01*
X174545605Y-119926000D01*
X173404395Y-119926000D01*
X173361938Y-119921819D01*
X173327019Y-119911226D01*
X173294837Y-119894024D01*
X173266627Y-119870873D01*
X173243476Y-119842663D01*
X173226274Y-119810481D01*
X173215681Y-119775562D01*
X173211500Y-119733105D01*
X173211500Y-118266895D01*
X173215681Y-118224438D01*
X173226274Y-118189519D01*
X173243476Y-118157337D01*
X173266627Y-118129127D01*
X173294837Y-118105976D01*
X173327019Y-118088774D01*
X173361938Y-118078181D01*
X173404395Y-118074000D01*
X174545605Y-118074000D01*
X174588062Y-118078181D01*
X174588062Y-118078181D01*
G37*
G36*
X168733642Y-118229781D02*
G01*
X168878132Y-118289631D01*
X168879416Y-118290163D01*
X169010608Y-118377822D01*
X169122178Y-118489392D01*
X169209837Y-118620584D01*
X169209838Y-118620586D01*
X169270219Y-118766358D01*
X169301000Y-118921107D01*
X169301000Y-119078893D01*
X169270219Y-119233642D01*
X169209838Y-119379414D01*
X169209837Y-119379416D01*
X169122178Y-119510608D01*
X169010608Y-119622178D01*
X168879416Y-119709837D01*
X168879415Y-119709838D01*
X168879414Y-119709838D01*
X168733642Y-119770219D01*
X168578893Y-119801000D01*
X168421107Y-119801000D01*
X168266358Y-119770219D01*
X168120586Y-119709838D01*
X168120585Y-119709838D01*
X168120584Y-119709837D01*
X167989392Y-119622178D01*
X167877822Y-119510608D01*
X167790163Y-119379416D01*
X167790162Y-119379414D01*
X167729781Y-119233642D01*
X167699000Y-119078893D01*
X167699000Y-118921107D01*
X167729781Y-118766358D01*
X167790162Y-118620586D01*
X167790163Y-118620584D01*
X167877822Y-118489392D01*
X167989392Y-118377822D01*
X168120584Y-118290163D01*
X168121868Y-118289631D01*
X168266358Y-118229781D01*
X168421107Y-118199000D01*
X168578893Y-118199000D01*
X168733642Y-118229781D01*
X168733642Y-118229781D01*
G37*
G36*
X182476979Y-110913293D02*
G01*
X182610625Y-110953834D01*
X182733784Y-111019664D01*
X182841740Y-111108260D01*
X182930336Y-111216216D01*
X182996166Y-111339375D01*
X183036707Y-111473021D01*
X183051000Y-111618140D01*
X183051000Y-113781860D01*
X183036707Y-113926979D01*
X182996166Y-114060625D01*
X182930336Y-114183784D01*
X182841740Y-114291740D01*
X182733784Y-114380336D01*
X182610625Y-114446166D01*
X182476979Y-114486707D01*
X182331860Y-114501000D01*
X180668140Y-114501000D01*
X180523021Y-114486707D01*
X180389375Y-114446166D01*
X180266216Y-114380336D01*
X180158260Y-114291740D01*
X180069664Y-114183784D01*
X180003834Y-114060625D01*
X179963293Y-113926979D01*
X179949000Y-113781860D01*
X179949000Y-111618140D01*
X179963293Y-111473021D01*
X180003834Y-111339375D01*
X180069664Y-111216216D01*
X180158260Y-111108260D01*
X180266216Y-111019664D01*
X180389375Y-110953834D01*
X180523021Y-110913293D01*
X180668140Y-110899000D01*
X182331860Y-110899000D01*
X182476979Y-110913293D01*
X182476979Y-110913293D01*
G37*
G36*
X177301000Y-114501000D02*
G01*
X173699000Y-114501000D01*
X173699000Y-110899000D01*
X177301000Y-110899000D01*
X177301000Y-114501000D01*
X177301000Y-114501000D01*
G37*
G36*
X163501000Y-112901000D02*
G01*
X162499000Y-112901000D01*
X162499000Y-111999000D01*
X163501000Y-111999000D01*
X163501000Y-112901000D01*
X163501000Y-112901000D01*
G37*
G36*
X161501000Y-111951000D02*
G01*
X160499000Y-111951000D01*
X160499000Y-111049000D01*
X161501000Y-111049000D01*
X161501000Y-111951000D01*
X161501000Y-111951000D01*
G37*
G36*
X163501000Y-111001000D02*
G01*
X162499000Y-111001000D01*
X162499000Y-110099000D01*
X163501000Y-110099000D01*
X163501000Y-111001000D01*
X163501000Y-111001000D01*
G37*
G36*
X179626366Y-106215695D02*
G01*
X179783460Y-106263349D01*
X179928231Y-106340731D01*
X180055128Y-106444872D01*
X180159269Y-106571769D01*
X180236651Y-106716540D01*
X180284305Y-106873634D01*
X180301000Y-107043140D01*
X180301000Y-108956860D01*
X180284305Y-109126366D01*
X180236651Y-109283460D01*
X180159269Y-109428231D01*
X180055128Y-109555128D01*
X179928231Y-109659269D01*
X179783460Y-109736651D01*
X179626366Y-109784305D01*
X179456860Y-109801000D01*
X177543140Y-109801000D01*
X177373634Y-109784305D01*
X177216540Y-109736651D01*
X177071769Y-109659269D01*
X176944872Y-109555128D01*
X176840731Y-109428231D01*
X176763349Y-109283460D01*
X176715695Y-109126366D01*
X176699000Y-108956860D01*
X176699000Y-107043140D01*
X176715695Y-106873634D01*
X176763349Y-106716540D01*
X176840731Y-106571769D01*
X176944872Y-106444872D01*
X177071769Y-106340731D01*
X177216540Y-106263349D01*
X177373634Y-106215695D01*
X177543140Y-106199000D01*
X179456860Y-106199000D01*
X179626366Y-106215695D01*
X179626366Y-106215695D01*
G37*
G36*
X163501000Y-109401000D02*
G01*
X162499000Y-109401000D01*
X162499000Y-108499000D01*
X163501000Y-108499000D01*
X163501000Y-109401000D01*
X163501000Y-109401000D01*
G37*
G36*
X157110443Y-106805519D02*
G01*
X157176627Y-106812037D01*
X157346466Y-106863557D01*
X157502991Y-106947222D01*
X157538729Y-106976552D01*
X157640186Y-107059814D01*
X157723448Y-107161271D01*
X157752778Y-107197009D01*
X157836443Y-107353534D01*
X157887963Y-107523373D01*
X157905359Y-107700000D01*
X157887963Y-107876627D01*
X157836443Y-108046466D01*
X157752778Y-108202991D01*
X157723448Y-108238729D01*
X157640186Y-108340186D01*
X157538729Y-108423448D01*
X157502991Y-108452778D01*
X157346466Y-108536443D01*
X157176627Y-108587963D01*
X157110443Y-108594481D01*
X157044260Y-108601000D01*
X156955740Y-108601000D01*
X156889557Y-108594481D01*
X156823373Y-108587963D01*
X156653534Y-108536443D01*
X156497009Y-108452778D01*
X156461271Y-108423448D01*
X156359814Y-108340186D01*
X156276552Y-108238729D01*
X156247222Y-108202991D01*
X156163557Y-108046466D01*
X156112037Y-107876627D01*
X156094641Y-107700000D01*
X156112037Y-107523373D01*
X156163557Y-107353534D01*
X156247222Y-107197009D01*
X156276552Y-107161271D01*
X156359814Y-107059814D01*
X156461271Y-106976552D01*
X156497009Y-106947222D01*
X156653534Y-106863557D01*
X156823373Y-106812037D01*
X156889557Y-106805519D01*
X156955740Y-106799000D01*
X157044260Y-106799000D01*
X157110443Y-106805519D01*
X157110443Y-106805519D01*
G37*
G36*
X154570443Y-106805519D02*
G01*
X154636627Y-106812037D01*
X154806466Y-106863557D01*
X154962991Y-106947222D01*
X154998729Y-106976552D01*
X155100186Y-107059814D01*
X155183448Y-107161271D01*
X155212778Y-107197009D01*
X155296443Y-107353534D01*
X155347963Y-107523373D01*
X155365359Y-107700000D01*
X155347963Y-107876627D01*
X155296443Y-108046466D01*
X155212778Y-108202991D01*
X155183448Y-108238729D01*
X155100186Y-108340186D01*
X154998729Y-108423448D01*
X154962991Y-108452778D01*
X154806466Y-108536443D01*
X154636627Y-108587963D01*
X154570443Y-108594481D01*
X154504260Y-108601000D01*
X154415740Y-108601000D01*
X154349557Y-108594481D01*
X154283373Y-108587963D01*
X154113534Y-108536443D01*
X153957009Y-108452778D01*
X153921271Y-108423448D01*
X153819814Y-108340186D01*
X153736552Y-108238729D01*
X153707222Y-108202991D01*
X153623557Y-108046466D01*
X153572037Y-107876627D01*
X153554641Y-107700000D01*
X153572037Y-107523373D01*
X153623557Y-107353534D01*
X153707222Y-107197009D01*
X153736552Y-107161271D01*
X153819814Y-107059814D01*
X153921271Y-106976552D01*
X153957009Y-106947222D01*
X154113534Y-106863557D01*
X154283373Y-106812037D01*
X154349557Y-106805519D01*
X154415740Y-106799000D01*
X154504260Y-106799000D01*
X154570443Y-106805519D01*
X154570443Y-106805519D01*
G37*
G36*
X161501000Y-108451000D02*
G01*
X160499000Y-108451000D01*
X160499000Y-107549000D01*
X161501000Y-107549000D01*
X161501000Y-108451000D01*
X161501000Y-108451000D01*
G37*
G36*
X163501000Y-107501000D02*
G01*
X162499000Y-107501000D01*
X162499000Y-106599000D01*
X163501000Y-106599000D01*
X163501000Y-107501000D01*
X163501000Y-107501000D01*
G37*
G36*
X157110442Y-104265518D02*
G01*
X157176627Y-104272037D01*
X157346466Y-104323557D01*
X157502991Y-104407222D01*
X157538729Y-104436552D01*
X157640186Y-104519814D01*
X157723448Y-104621271D01*
X157752778Y-104657009D01*
X157836443Y-104813534D01*
X157887963Y-104983373D01*
X157905359Y-105160000D01*
X157887963Y-105336627D01*
X157836443Y-105506466D01*
X157752778Y-105662991D01*
X157723448Y-105698729D01*
X157640186Y-105800186D01*
X157538729Y-105883448D01*
X157502991Y-105912778D01*
X157346466Y-105996443D01*
X157176627Y-106047963D01*
X157110442Y-106054482D01*
X157044260Y-106061000D01*
X156955740Y-106061000D01*
X156889558Y-106054482D01*
X156823373Y-106047963D01*
X156653534Y-105996443D01*
X156497009Y-105912778D01*
X156461271Y-105883448D01*
X156359814Y-105800186D01*
X156276552Y-105698729D01*
X156247222Y-105662991D01*
X156163557Y-105506466D01*
X156112037Y-105336627D01*
X156094641Y-105160000D01*
X156112037Y-104983373D01*
X156163557Y-104813534D01*
X156247222Y-104657009D01*
X156276552Y-104621271D01*
X156359814Y-104519814D01*
X156461271Y-104436552D01*
X156497009Y-104407222D01*
X156653534Y-104323557D01*
X156823373Y-104272037D01*
X156889558Y-104265518D01*
X156955740Y-104259000D01*
X157044260Y-104259000D01*
X157110442Y-104265518D01*
X157110442Y-104265518D01*
G37*
G36*
X154570442Y-104265518D02*
G01*
X154636627Y-104272037D01*
X154806466Y-104323557D01*
X154962991Y-104407222D01*
X154998729Y-104436552D01*
X155100186Y-104519814D01*
X155183448Y-104621271D01*
X155212778Y-104657009D01*
X155296443Y-104813534D01*
X155347963Y-104983373D01*
X155365359Y-105160000D01*
X155347963Y-105336627D01*
X155296443Y-105506466D01*
X155212778Y-105662991D01*
X155183448Y-105698729D01*
X155100186Y-105800186D01*
X154998729Y-105883448D01*
X154962991Y-105912778D01*
X154806466Y-105996443D01*
X154636627Y-106047963D01*
X154570442Y-106054482D01*
X154504260Y-106061000D01*
X154415740Y-106061000D01*
X154349558Y-106054482D01*
X154283373Y-106047963D01*
X154113534Y-105996443D01*
X153957009Y-105912778D01*
X153921271Y-105883448D01*
X153819814Y-105800186D01*
X153736552Y-105698729D01*
X153707222Y-105662991D01*
X153623557Y-105506466D01*
X153572037Y-105336627D01*
X153554641Y-105160000D01*
X153572037Y-104983373D01*
X153623557Y-104813534D01*
X153707222Y-104657009D01*
X153736552Y-104621271D01*
X153819814Y-104519814D01*
X153921271Y-104436552D01*
X153957009Y-104407222D01*
X154113534Y-104323557D01*
X154283373Y-104272037D01*
X154349558Y-104265518D01*
X154415740Y-104259000D01*
X154504260Y-104259000D01*
X154570442Y-104265518D01*
X154570442Y-104265518D01*
G37*
G36*
X163501000Y-105901000D02*
G01*
X162499000Y-105901000D01*
X162499000Y-104999000D01*
X163501000Y-104999000D01*
X163501000Y-105901000D01*
X163501000Y-105901000D01*
G37*
G36*
X161501000Y-104951000D02*
G01*
X160499000Y-104951000D01*
X160499000Y-104049000D01*
X161501000Y-104049000D01*
X161501000Y-104951000D01*
X161501000Y-104951000D01*
G37*
G36*
X163501000Y-104001000D02*
G01*
X162499000Y-104001000D01*
X162499000Y-103099000D01*
X163501000Y-103099000D01*
X163501000Y-104001000D01*
X163501000Y-104001000D01*
G37*
G36*
X157110443Y-101725519D02*
G01*
X157176627Y-101732037D01*
X157346466Y-101783557D01*
X157502991Y-101867222D01*
X157538729Y-101896552D01*
X157640186Y-101979814D01*
X157723448Y-102081271D01*
X157752778Y-102117009D01*
X157836443Y-102273534D01*
X157887963Y-102443373D01*
X157905359Y-102620000D01*
X157887963Y-102796627D01*
X157836443Y-102966466D01*
X157752778Y-103122991D01*
X157723448Y-103158729D01*
X157640186Y-103260186D01*
X157538729Y-103343448D01*
X157502991Y-103372778D01*
X157346466Y-103456443D01*
X157176627Y-103507963D01*
X157110443Y-103514481D01*
X157044260Y-103521000D01*
X156955740Y-103521000D01*
X156889558Y-103514482D01*
X156823373Y-103507963D01*
X156653534Y-103456443D01*
X156497009Y-103372778D01*
X156461271Y-103343448D01*
X156359814Y-103260186D01*
X156276552Y-103158729D01*
X156247222Y-103122991D01*
X156163557Y-102966466D01*
X156112037Y-102796627D01*
X156094641Y-102620000D01*
X156112037Y-102443373D01*
X156163557Y-102273534D01*
X156247222Y-102117009D01*
X156276552Y-102081271D01*
X156359814Y-101979814D01*
X156461271Y-101896552D01*
X156497009Y-101867222D01*
X156653534Y-101783557D01*
X156823373Y-101732037D01*
X156889557Y-101725519D01*
X156955740Y-101719000D01*
X157044260Y-101719000D01*
X157110443Y-101725519D01*
X157110443Y-101725519D01*
G37*
G36*
X154570443Y-101725519D02*
G01*
X154636627Y-101732037D01*
X154806466Y-101783557D01*
X154962991Y-101867222D01*
X154998729Y-101896552D01*
X155100186Y-101979814D01*
X155183448Y-102081271D01*
X155212778Y-102117009D01*
X155296443Y-102273534D01*
X155347963Y-102443373D01*
X155365359Y-102620000D01*
X155347963Y-102796627D01*
X155296443Y-102966466D01*
X155212778Y-103122991D01*
X155183448Y-103158729D01*
X155100186Y-103260186D01*
X154998729Y-103343448D01*
X154962991Y-103372778D01*
X154806466Y-103456443D01*
X154636627Y-103507963D01*
X154570443Y-103514481D01*
X154504260Y-103521000D01*
X154415740Y-103521000D01*
X154349558Y-103514482D01*
X154283373Y-103507963D01*
X154113534Y-103456443D01*
X153957009Y-103372778D01*
X153921271Y-103343448D01*
X153819814Y-103260186D01*
X153736552Y-103158729D01*
X153707222Y-103122991D01*
X153623557Y-102966466D01*
X153572037Y-102796627D01*
X153554641Y-102620000D01*
X153572037Y-102443373D01*
X153623557Y-102273534D01*
X153707222Y-102117009D01*
X153736552Y-102081271D01*
X153819814Y-101979814D01*
X153921271Y-101896552D01*
X153957009Y-101867222D01*
X154113534Y-101783557D01*
X154283373Y-101732037D01*
X154349557Y-101725519D01*
X154415740Y-101719000D01*
X154504260Y-101719000D01*
X154570443Y-101725519D01*
X154570443Y-101725519D01*
G37*
G36*
X163501000Y-102351000D02*
G01*
X162499000Y-102351000D01*
X162499000Y-101449000D01*
X163501000Y-101449000D01*
X163501000Y-102351000D01*
X163501000Y-102351000D01*
G37*
G36*
X161501000Y-101401000D02*
G01*
X160499000Y-101401000D01*
X160499000Y-100499000D01*
X161501000Y-100499000D01*
X161501000Y-101401000D01*
X161501000Y-101401000D01*
G37*
G36*
X154570442Y-99185518D02*
G01*
X154636627Y-99192037D01*
X154806466Y-99243557D01*
X154962991Y-99327222D01*
X154998729Y-99356552D01*
X155100186Y-99439814D01*
X155183448Y-99541271D01*
X155212778Y-99577009D01*
X155296443Y-99733534D01*
X155347963Y-99903373D01*
X155365359Y-100080000D01*
X155347963Y-100256627D01*
X155296443Y-100426466D01*
X155212778Y-100582991D01*
X155183448Y-100618729D01*
X155100186Y-100720186D01*
X154998729Y-100803448D01*
X154962991Y-100832778D01*
X154806466Y-100916443D01*
X154636627Y-100967963D01*
X154570442Y-100974482D01*
X154504260Y-100981000D01*
X154415740Y-100981000D01*
X154349558Y-100974482D01*
X154283373Y-100967963D01*
X154113534Y-100916443D01*
X153957009Y-100832778D01*
X153921271Y-100803448D01*
X153819814Y-100720186D01*
X153736552Y-100618729D01*
X153707222Y-100582991D01*
X153623557Y-100426466D01*
X153572037Y-100256627D01*
X153554641Y-100080000D01*
X153572037Y-99903373D01*
X153623557Y-99733534D01*
X153707222Y-99577009D01*
X153736552Y-99541271D01*
X153819814Y-99439814D01*
X153921271Y-99356552D01*
X153957009Y-99327222D01*
X154113534Y-99243557D01*
X154283373Y-99192037D01*
X154349558Y-99185518D01*
X154415740Y-99179000D01*
X154504260Y-99179000D01*
X154570442Y-99185518D01*
X154570442Y-99185518D01*
G37*
G36*
X157110442Y-99185518D02*
G01*
X157176627Y-99192037D01*
X157346466Y-99243557D01*
X157502991Y-99327222D01*
X157538729Y-99356552D01*
X157640186Y-99439814D01*
X157723448Y-99541271D01*
X157752778Y-99577009D01*
X157836443Y-99733534D01*
X157887963Y-99903373D01*
X157905359Y-100080000D01*
X157887963Y-100256627D01*
X157836443Y-100426466D01*
X157752778Y-100582991D01*
X157723448Y-100618729D01*
X157640186Y-100720186D01*
X157538729Y-100803448D01*
X157502991Y-100832778D01*
X157346466Y-100916443D01*
X157176627Y-100967963D01*
X157110442Y-100974482D01*
X157044260Y-100981000D01*
X156955740Y-100981000D01*
X156889558Y-100974482D01*
X156823373Y-100967963D01*
X156653534Y-100916443D01*
X156497009Y-100832778D01*
X156461271Y-100803448D01*
X156359814Y-100720186D01*
X156276552Y-100618729D01*
X156247222Y-100582991D01*
X156163557Y-100426466D01*
X156112037Y-100256627D01*
X156094641Y-100080000D01*
X156112037Y-99903373D01*
X156163557Y-99733534D01*
X156247222Y-99577009D01*
X156276552Y-99541271D01*
X156359814Y-99439814D01*
X156461271Y-99356552D01*
X156497009Y-99327222D01*
X156653534Y-99243557D01*
X156823373Y-99192037D01*
X156889558Y-99185518D01*
X156955740Y-99179000D01*
X157044260Y-99179000D01*
X157110442Y-99185518D01*
X157110442Y-99185518D01*
G37*
G36*
X163501000Y-100451000D02*
G01*
X162499000Y-100451000D01*
X162499000Y-99549000D01*
X163501000Y-99549000D01*
X163501000Y-100451000D01*
X163501000Y-100451000D01*
G37*
G36*
X163501000Y-98801000D02*
G01*
X162499000Y-98801000D01*
X162499000Y-97899000D01*
X163501000Y-97899000D01*
X163501000Y-98801000D01*
X163501000Y-98801000D01*
G37*
G36*
X154570442Y-96645518D02*
G01*
X154636627Y-96652037D01*
X154806466Y-96703557D01*
X154962991Y-96787222D01*
X154998729Y-96816552D01*
X155100186Y-96899814D01*
X155183448Y-97001271D01*
X155212778Y-97037009D01*
X155296443Y-97193534D01*
X155347963Y-97363373D01*
X155365359Y-97540000D01*
X155347963Y-97716627D01*
X155296443Y-97886466D01*
X155212778Y-98042991D01*
X155183448Y-98078729D01*
X155100186Y-98180186D01*
X154998729Y-98263448D01*
X154962991Y-98292778D01*
X154806466Y-98376443D01*
X154636627Y-98427963D01*
X154570442Y-98434482D01*
X154504260Y-98441000D01*
X154415740Y-98441000D01*
X154349557Y-98434481D01*
X154283373Y-98427963D01*
X154113534Y-98376443D01*
X153957009Y-98292778D01*
X153921271Y-98263448D01*
X153819814Y-98180186D01*
X153736552Y-98078729D01*
X153707222Y-98042991D01*
X153623557Y-97886466D01*
X153572037Y-97716627D01*
X153554641Y-97540000D01*
X153572037Y-97363373D01*
X153623557Y-97193534D01*
X153707222Y-97037009D01*
X153736552Y-97001271D01*
X153819814Y-96899814D01*
X153921271Y-96816552D01*
X153957009Y-96787222D01*
X154113534Y-96703557D01*
X154283373Y-96652037D01*
X154349558Y-96645518D01*
X154415740Y-96639000D01*
X154504260Y-96639000D01*
X154570442Y-96645518D01*
X154570442Y-96645518D01*
G37*
G36*
X157110442Y-96645518D02*
G01*
X157176627Y-96652037D01*
X157346466Y-96703557D01*
X157502991Y-96787222D01*
X157538729Y-96816552D01*
X157640186Y-96899814D01*
X157723448Y-97001271D01*
X157752778Y-97037009D01*
X157836443Y-97193534D01*
X157887963Y-97363373D01*
X157905359Y-97540000D01*
X157887963Y-97716627D01*
X157836443Y-97886466D01*
X157752778Y-98042991D01*
X157723448Y-98078729D01*
X157640186Y-98180186D01*
X157538729Y-98263448D01*
X157502991Y-98292778D01*
X157346466Y-98376443D01*
X157176627Y-98427963D01*
X157110442Y-98434482D01*
X157044260Y-98441000D01*
X156955740Y-98441000D01*
X156889557Y-98434481D01*
X156823373Y-98427963D01*
X156653534Y-98376443D01*
X156497009Y-98292778D01*
X156461271Y-98263448D01*
X156359814Y-98180186D01*
X156276552Y-98078729D01*
X156247222Y-98042991D01*
X156163557Y-97886466D01*
X156112037Y-97716627D01*
X156094641Y-97540000D01*
X156112037Y-97363373D01*
X156163557Y-97193534D01*
X156247222Y-97037009D01*
X156276552Y-97001271D01*
X156359814Y-96899814D01*
X156461271Y-96816552D01*
X156497009Y-96787222D01*
X156653534Y-96703557D01*
X156823373Y-96652037D01*
X156889558Y-96645518D01*
X156955740Y-96639000D01*
X157044260Y-96639000D01*
X157110442Y-96645518D01*
X157110442Y-96645518D01*
G37*
G36*
X161501000Y-97851000D02*
G01*
X160499000Y-97851000D01*
X160499000Y-96949000D01*
X161501000Y-96949000D01*
X161501000Y-97851000D01*
X161501000Y-97851000D01*
G37*
G36*
X163501000Y-96901000D02*
G01*
X162499000Y-96901000D01*
X162499000Y-95999000D01*
X163501000Y-95999000D01*
X163501000Y-96901000D01*
X163501000Y-96901000D01*
G37*
G36*
X154570443Y-94105519D02*
G01*
X154636627Y-94112037D01*
X154806466Y-94163557D01*
X154962991Y-94247222D01*
X154967594Y-94251000D01*
X155100186Y-94359814D01*
X155183448Y-94461271D01*
X155212778Y-94497009D01*
X155296443Y-94653534D01*
X155347963Y-94823373D01*
X155365359Y-95000000D01*
X155347963Y-95176627D01*
X155296443Y-95346466D01*
X155212778Y-95502991D01*
X155183448Y-95538729D01*
X155100186Y-95640186D01*
X154998729Y-95723448D01*
X154962991Y-95752778D01*
X154806466Y-95836443D01*
X154636627Y-95887963D01*
X154570443Y-95894481D01*
X154504260Y-95901000D01*
X154415740Y-95901000D01*
X154349557Y-95894481D01*
X154283373Y-95887963D01*
X154113534Y-95836443D01*
X153957009Y-95752778D01*
X153921271Y-95723448D01*
X153819814Y-95640186D01*
X153736552Y-95538729D01*
X153707222Y-95502991D01*
X153623557Y-95346466D01*
X153572037Y-95176627D01*
X153554641Y-95000000D01*
X153572037Y-94823373D01*
X153623557Y-94653534D01*
X153707222Y-94497009D01*
X153736552Y-94461271D01*
X153819814Y-94359814D01*
X153952406Y-94251000D01*
X153957009Y-94247222D01*
X154113534Y-94163557D01*
X154283373Y-94112037D01*
X154349557Y-94105519D01*
X154415740Y-94099000D01*
X154504260Y-94099000D01*
X154570443Y-94105519D01*
X154570443Y-94105519D01*
G37*
G36*
X157901000Y-95901000D02*
G01*
X156099000Y-95901000D01*
X156099000Y-94099000D01*
X157901000Y-94099000D01*
X157901000Y-95901000D01*
X157901000Y-95901000D01*
G37*
G36*
X163501000Y-95201000D02*
G01*
X162499000Y-95201000D01*
X162499000Y-94299000D01*
X163501000Y-94299000D01*
X163501000Y-95201000D01*
X163501000Y-95201000D01*
G37*
G36*
X161501000Y-94251000D02*
G01*
X160499000Y-94251000D01*
X160499000Y-93349000D01*
X161501000Y-93349000D01*
X161501000Y-94251000D01*
X161501000Y-94251000D01*
G37*
G36*
X163501000Y-93301000D02*
G01*
X162499000Y-93301000D01*
X162499000Y-92399000D01*
X163501000Y-92399000D01*
X163501000Y-93301000D01*
X163501000Y-93301000D01*
G37*
G36*
X163501000Y-91601000D02*
G01*
X162499000Y-91601000D01*
X162499000Y-90699000D01*
X163501000Y-90699000D01*
X163501000Y-91601000D01*
X163501000Y-91601000D01*
G37*
G36*
X161501000Y-90651000D02*
G01*
X160499000Y-90651000D01*
X160499000Y-89749000D01*
X161501000Y-89749000D01*
X161501000Y-90651000D01*
X161501000Y-90651000D01*
G37*
G36*
X163501000Y-89701000D02*
G01*
X162499000Y-89701000D01*
X162499000Y-88799000D01*
X163501000Y-88799000D01*
X163501000Y-89701000D01*
X163501000Y-89701000D01*
G37*
M02*
